<svg height="470" viewBox="-10 -10 820 470" width="820" xmlns="http://www.w3.org/2000/svg">
<rect fill="#000000" height="470" width="820" x="-10" y="-10"/>
<g class="layer" data-layer="title">
<g data-object="4" style="fill: #ffffff;transform-box: fill-box;">
<text dominant-baseline="middle" font-family="Victor Mono" font-size="30pt" text-anchor="middle" x="475" y="175">
e
</text>
</g>
<g data-object="5" style="fill: #ffffff;transform-box: fill-box;">
<text dominant-baseline="middle" font-family="Victor Mono" font-size="30pt" text-anchor="middle" x="525" y="175">
m
</text>
</g>
<g data-object="6" style="fill: #ffffff;transform-box: fill-box;">
<text dominant-baseline="middle" font-family="Victor Mono" font-size="30pt" text-anchor="middle" x="425" y="225">
a
</text>
</g>
<g data-object="8" style="fill: #ffffff;transform-box: fill-box;">
<text dominant-baseline="middle" font-family="Victor Mono" font-size="30pt" text-anchor="middle" x="525" y="225">
e
</text>
</g>
<g data-object="9" style="fill: #ffffff;transform-box: fill-box;">
<text dominant-baseline="middle" font-family="Victor Mono" font-size="30pt" text-anchor="middle" x="575" y="225">
r
</text>
</g>
<g data-object="3" style="fill: #ffffff;transform-box: fill-box;">
<text dominant-baseline="middle" font-family="Victor Mono" font-size="30pt" text-anchor="middle" x="425" y="175">
p
</text>
</g>
<g data-object="7" style="fill: #ffffff;transform-box: fill-box;">
<text dominant-baseline="middle" font-family="Victor Mono" font-size="30pt" text-anchor="middle" x="475" y="225">
k
</text>
</g>
<g data-object="0" style="fill: #ffffff;transform-box: fill-box;">
<text dominant-baseline="middle" font-family="Victor Mono" font-size="30pt" text-anchor="middle" x="425" y="125">
s
</text>
</g>
<g data-object="1" style="fill: #ffffff;transform-box: fill-box;">
<text dominant-baseline="middle" font-family="Victor Mono" font-size="30pt" text-anchor="middle" x="475" y="125">
h
</text>
</g>
<g data-object="2" style="fill: #ffffff;transform-box: fill-box;">
<text dominant-baseline="middle" font-family="Victor Mono" font-size="30pt" text-anchor="middle" x="525" y="125">
a
</text>
</g>
</g>
<g class="layer" data-layer="splines">
<g data-object="splines#17" style="stroke: #4fecec; fill: transparent;transform-box: fill-box;filter: url(#filter-glow-4); overflow: visible;">
<line stroke-width="2" x1="150" x2="250" y1="250" y2="250"/>
</g>
<g data-object="splines#0" style="stroke: #e92e76; fill: transparent;transform-box: fill-box;filter: url(#filter-glow-4); overflow: visible;">
<line stroke-width="2" x1="250" x2="200" y1="200" y2="200"/>
</g>
<g data-object="splines#23" style="stroke: #4fecec; fill: transparent;transform-box: fill-box;filter: url(#filter-glow-4); overflow: visible;">
<path d="M250,300 Q250,350,200,350"/>
</g>
<g data-object="splines#2" style="stroke: #e92e76; fill: transparent;transform-box: fill-box;filter: url(#filter-glow-4); overflow: visible;">
<line stroke-width="2" x1="200" x2="250" y1="300" y2="300"/>
</g>
<g data-object="splines#29" style="stroke: #4fecec; fill: transparent;transform-box: fill-box;filter: url(#filter-glow-4); overflow: visible;">
<path d="M150,300 Q200,300,200,350"/>
</g>
<g data-object="splines#13" style="stroke: #e92e76; fill: transparent;transform-box: fill-box;filter: url(#filter-glow-4); overflow: visible;">
<path d="M150,300 Q150,200,250,200"/>
</g>
<g data-object="splines#3" style="stroke: #4fecec; fill: transparent;transform-box: fill-box;filter: url(#filter-glow-4); overflow: visible;">
<path d="M200,200 Q200,250,150,250"/>
</g>
<g data-object="splines#15" style="stroke: #e92e76; fill: transparent;transform-box: fill-box;filter: url(#filter-glow-4); overflow: visible;">
<path d="M150,300 Q200,300,200,350"/>
</g>
<g data-object="splines#1" style="stroke: #4fecec; fill: transparent;transform-box: fill-box;filter: url(#filter-glow-4); overflow: visible;">
<path d="M250,200 Q250,250,300,250"/>
</g>
<g data-object="splines#8" style="stroke: #e92e76; fill: transparent;transform-box: fill-box;filter: url(#filter-glow-4); overflow: visible;">
<line stroke-width="2" x1="150" x2="200" y1="250" y2="200"/>
</g>
<g data-object="splines#22" style="stroke: #4fecec; fill: transparent;transform-box: fill-box;filter: url(#filter-glow-4); overflow: visible;">
<line stroke-width="2" x1="150" x2="250" y1="250" y2="250"/>
</g>
<g data-object="splines#4" style="stroke: #e92e76; fill: transparent;transform-box: fill-box;filter: url(#filter-glow-4); overflow: visible;">
<path d="M200,300 Q300,300,300,200"/>
</g>
<g data-object="splines#9" style="stroke: #4fecec; fill: transparent;transform-box: fill-box;filter: url(#filter-glow-4); overflow: visible;">
<line stroke-width="2" x1="150" x2="200" y1="300" y2="200"/>
</g>
<g data-object="splines#14" style="stroke: #e92e76; fill: transparent;transform-box: fill-box;filter: url(#filter-glow-4); overflow: visible;">
<path d="M250,250 Q250,300,200,300"/>
</g>
<g data-object="splines#7" style="stroke: #4fecec; fill: transparent;transform-box: fill-box;filter: url(#filter-glow-4); overflow: visible;">
<path d="M250,250 Q200,250,200,300"/>
</g>
<g data-object="splines#27" style="stroke: #e92e76; fill: transparent;transform-box: fill-box;filter: url(#filter-glow-4); overflow: visible;">
<path d="M250,250 Q200,250,200,200"/>
</g>
<g data-object="splines#11" style="stroke: #4fecec; fill: transparent;transform-box: fill-box;filter: url(#filter-glow-4); overflow: visible;">
<path d="M150,200 Q300,200,300,350"/>
</g>
<g data-object="splines#21" style="stroke: #e92e76; fill: transparent;transform-box: fill-box;filter: url(#filter-glow-4); overflow: visible;">
<line stroke-width="2" x1="250" x2="200" y1="200" y2="300"/>
</g>
<g data-object="splines#25" style="stroke: #4fecec; fill: transparent;transform-box: fill-box;filter: url(#filter-glow-4); overflow: visible;">
<path d="M200,200 Q200,250,150,250"/>
</g>
<g data-object="splines#16" style="stroke: #e92e76; fill: transparent;transform-box: fill-box;filter: url(#filter-glow-4); overflow: visible;">
<path d="M200,200 Q250,200,250,250"/>
</g>
<g data-object="splines#20" style="stroke: #4fecec; fill: transparent;transform-box: fill-box;filter: url(#filter-glow-4); overflow: visible;">
<line stroke-width="2" x1="150" x2="200" y1="300" y2="250"/>
</g>
<g data-object="splines#5" style="stroke: #e92e76; fill: transparent;transform-box: fill-box;filter: url(#filter-glow-4); overflow: visible;">
<path d="M200,200 Q200,300,300,300"/>
</g>
<g data-object="splines#12" style="stroke: #4fecec; fill: transparent;transform-box: fill-box;filter: url(#filter-glow-4); overflow: visible;">
<path d="M150,300 Q150,250,200,250"/>
</g>
<g data-object="splines#10" style="stroke: #e92e76; fill: transparent;transform-box: fill-box;filter: url(#filter-glow-4); overflow: visible;">
<path d="M150,250 Q250,250,250,350"/>
</g>
<g data-object="splines#18" style="stroke: #4fecec; fill: transparent;transform-box: fill-box;filter: url(#filter-glow-4); overflow: visible;">
<path d="M200,200 Q250,200,250,250"/>
</g>
<g data-object="splines#19" style="stroke: #e92e76; fill: transparent;transform-box: fill-box;filter: url(#filter-glow-4); overflow: visible;">
<path d="M150,250 Q200,250,200,200"/>
</g>
<g data-object="splines#24" style="stroke: #4fecec; fill: transparent;transform-box: fill-box;filter: url(#filter-glow-4); overflow: visible;">
<path d="M250,200 Q200,200,200,250"/>
</g>
<g data-object="splines#28" style="stroke: #e92e76; fill: transparent;transform-box: fill-box;filter: url(#filter-glow-4); overflow: visible;">
<path d="M250,300 Q250,350,200,350"/>
</g>
<g data-object="splines#26" style="stroke: #4fecec; fill: transparent;transform-box: fill-box;filter: url(#filter-glow-4); overflow: visible;">
<path d="M250,300 Q200,300,200,250"/>
</g>
<g data-object="splines#6" style="stroke: #e92e76; fill: transparent;transform-box: fill-box;filter: url(#filter-glow-4); overflow: visible;">
<line stroke-width="2" x1="150" x2="150" y1="200" y2="300"/>
</g>
</g>
<g class="layer" data-layer="red dot">
<g data-object="red circle @ (10, 1)" style="fill: #cf0a2b;transform-box: fill-box;filter: url(#filter-glow-5); overflow: visible;">
<circle cx="525" cy="75" r="25"/>
</g>
</g>
<g class="layer" data-layer="hatches">
<g data-object="(11, 3)" style="fill: url(#pattern-hatched-299.32755deg-white-4.3-0.25);transform-box: fill-box;">
<circle cx="575" cy="175" r="25"/>
</g>
<g data-object="(13, 3)" style="fill: url(#pattern-hatched-211.33258deg-white-4.5-0.25);transform-box: fill-box;">
<rect height="50" width="50" x="650" y="150"/>
</g>
<g data-object="(12, 3)" style="fill: url(#pattern-hatched-27.08044deg-white-4.4-0.25);transform-box: fill-box;">
<circle cx="625" cy="175" r="25"/>
</g>
<g data-object="(14, 4)" style="fill: url(#pattern-hatched-282.0688deg-white-6-0.25);transform-box: fill-box;">
<rect height="50" width="50" x="700" y="200"/>
</g>
<g data-object="(14, 5)" style="fill: url(#pattern-hatched-33.544266deg-white-7.4-0.25);transform-box: fill-box;">
<rect height="50" width="50" x="700" y="250"/>
</g>
<g data-object="(13, 4)" style="fill: url(#pattern-hatched-215.58922deg-white-5.9-0.25);transform-box: fill-box;">
<circle cx="675" cy="225" r="25"/>
</g>
<g data-object="(1, 7)" style="fill: url(#pattern-hatched-96.993355deg-white-8.9-0.25);transform-box: fill-box;">
<rect height="50" width="50" x="50" y="350"/>
</g>
<g data-object="(8, 6)" style="fill: url(#pattern-hatched-107.339775deg-white-8.2-0.25);transform-box: fill-box;">
<circle cx="425" cy="325" r="25"/>
</g>
<g data-object="(3, 7)" style="fill: url(#pattern-hatched-71.766174deg-white-9.1-0.25);transform-box: fill-box;">
<rect height="50" width="50" x="150" y="350"/>
</g>
<g data-object="(12, 1)" style="fill: url(#pattern-hatched-186.63586deg-white-1.6-0.25);transform-box: fill-box;">
<rect height="50" width="50" x="600" y="50"/>
</g>
<g data-object="(6, 6)" style="fill: url(#pattern-hatched-243.80658deg-white-8-0.25);transform-box: fill-box;">
<rect height="50" width="50" x="300" y="300"/>
</g>
<g data-object="(13, 1)" style="fill: url(#pattern-hatched-253.68701deg-white-1.7-0.25);transform-box: fill-box;">
<circle cx="675" cy="75" r="25"/>
</g>
<g data-object="(4, 3)" style="fill: url(#pattern-hatched-310.7585deg-white-3.6-0.25);transform-box: fill-box;">
<circle cx="225" cy="175" r="25"/>
</g>
<g data-object="(5, 3)" style="fill: url(#pattern-hatched-299.28848deg-white-3.7-0.25);transform-box: fill-box;">
<circle cx="275" cy="175" r="25"/>
</g>
<g data-object="(4, 2)" style="fill: url(#pattern-hatched-233.53273deg-white-2.2-0.25);transform-box: fill-box;">
<circle cx="225" cy="125" r="25"/>
</g>
<g data-object="(10, 5)" style="fill: url(#pattern-hatched-220.6095deg-white-7-0.25);transform-box: fill-box;">
<circle cx="525" cy="275" r="25"/>
</g>
<g data-object="(1, 2)" style="fill: url(#pattern-hatched-358.5839deg-white-1.9-0.25);transform-box: fill-box;">
<circle cx="75" cy="125" r="25"/>
</g>
<g data-object="(7, 4)" style="fill: url(#pattern-hatched-167.84358deg-white-5.3-0.25);transform-box: fill-box;">
<circle cx="375" cy="225" r="25"/>
</g>
<g data-object="(6, 3)" style="fill: url(#pattern-hatched-278.33463deg-white-3.8-0.25);transform-box: fill-box;">
<rect height="50" width="50" x="300" y="150"/>
</g>
<g data-object="(6, 2)" style="fill: url(#pattern-hatched-310.2893deg-white-2.4-0.25);transform-box: fill-box;">
<circle cx="325" cy="125" r="25"/>
</g>
<g data-object="(11, 6)" style="fill: url(#pattern-hatched-15.570846deg-white-8.5-0.25);transform-box: fill-box;">
<rect height="50" width="50" x="550" y="300"/>
</g>
<g data-object="(2, 7)" style="fill: url(#pattern-hatched-220.13795deg-white-9-0.25);transform-box: fill-box;">
<circle cx="125" cy="375" r="25"/>
</g>
<g data-object="(13, 5)" style="fill: url(#pattern-hatched-50.404415deg-white-7.3-0.25);transform-box: fill-box;">
<rect height="50" width="50" x="650" y="250"/>
</g>
<g data-object="(6, 1)" style="fill: url(#pattern-hatched-183.30246deg-white-1-0.25);transform-box: fill-box;">
<circle cx="325" cy="75" r="25"/>
</g>
<g data-object="(12, 4)" style="fill: url(#pattern-hatched-131.70145deg-white-5.8-0.25);transform-box: fill-box;">
<circle cx="625" cy="225" r="25"/>
</g>
<g data-object="(4, 7)" style="fill: url(#pattern-hatched-244.81346deg-white-9.2-0.25);transform-box: fill-box;">
<rect height="50" width="50" x="200" y="350"/>
</g>
<g data-object="(10, 7)" style="fill: url(#pattern-hatched-335.19543deg-white-9.8-0.25);transform-box: fill-box;">
<circle cx="525" cy="375" r="25"/>
</g>
<g data-object="(2, 4)" style="fill: url(#pattern-hatched-6.4409494deg-white-4.8-0.25);transform-box: fill-box;">
<rect height="50" width="50" x="100" y="200"/>
</g>
<g data-object="(1, 1)" style="fill: url(#pattern-hatched-218.48544deg-white-0.5-0.25);transform-box: fill-box;">
<rect height="50" width="50" x="50" y="50"/>
</g>
<g data-object="(6, 5)" style="fill: url(#pattern-hatched-106.67879deg-white-6.6-0.25);transform-box: fill-box;">
<rect height="50" width="50" x="300" y="250"/>
</g>
<g data-object="(3, 2)" style="fill: url(#pattern-hatched-118.944214deg-white-2.1-0.25);transform-box: fill-box;">
<circle cx="175" cy="125" r="25"/>
</g>
<g data-object="(2, 5)" style="fill: url(#pattern-hatched-227.94576deg-white-6.2-0.25);transform-box: fill-box;">
<circle cx="125" cy="275" r="25"/>
</g>
<g data-object="(8, 7)" style="fill: url(#pattern-hatched-299.81985deg-white-9.6-0.25);transform-box: fill-box;">
<circle cx="425" cy="375" r="25"/>
</g>
<g data-object="(8, 1)" style="fill: url(#pattern-hatched-279.28082deg-white-1.2-0.25);transform-box: fill-box;">
<rect height="50" width="50" x="400" y="50"/>
</g>
<g data-object="(9, 7)" style="fill: url(#pattern-hatched-75.52045deg-white-9.7-0.25);transform-box: fill-box;">
<circle cx="475" cy="375" r="25"/>
</g>
<g data-object="(8, 5)" style="fill: url(#pattern-hatched-115.57184deg-white-6.8-0.25);transform-box: fill-box;">
<circle cx="425" cy="275" r="25"/>
</g>
<g data-object="(3, 1)" style="fill: url(#pattern-hatched-120.974106deg-white-0.7-0.25);transform-box: fill-box;">
<circle cx="175" cy="75" r="25"/>
</g>
<g data-object="(2, 1)" style="fill: url(#pattern-hatched-159.69516deg-white-0.6-0.25);transform-box: fill-box;">
<rect height="50" width="50" x="100" y="50"/>
</g>
<g data-object="(11, 1)" style="fill: url(#pattern-hatched-123.144165deg-white-1.5-0.25);transform-box: fill-box;">
<circle cx="575" cy="75" r="25"/>
</g>
<g data-object="(4, 1)" style="fill: url(#pattern-hatched-220.77296deg-white-0.8-0.25);transform-box: fill-box;">
<circle cx="225" cy="75" r="25"/>
</g>
<g data-object="(6, 4)" style="fill: url(#pattern-hatched-53.81241deg-white-5.2-0.25);transform-box: fill-box;">
<circle cx="325" cy="225" r="25"/>
</g>
<g data-object="(5, 7)" style="fill: url(#pattern-hatched-5.1831865deg-white-9.3-0.25);transform-box: fill-box;">
<circle cx="275" cy="375" r="25"/>
</g>
<g data-object="(9, 1)" style="fill: url(#pattern-hatched-97.158325deg-white-1.3-0.25);transform-box: fill-box;">
<circle cx="475" cy="75" r="25"/>
</g>
<g data-object="(7, 5)" style="fill: url(#pattern-hatched-188.27026deg-white-6.7-0.25);transform-box: fill-box;">
<circle cx="375" cy="275" r="25"/>
</g>
<g data-object="(7, 2)" style="fill: url(#pattern-hatched-284.93896deg-white-2.5-0.25);transform-box: fill-box;">
<rect height="50" width="50" x="350" y="100"/>
</g>
<g data-object="(9, 5)" style="fill: url(#pattern-hatched-150.21457deg-white-6.9-0.25);transform-box: fill-box;">
<circle cx="475" cy="275" r="25"/>
</g>
<g data-object="(5, 1)" style="fill: url(#pattern-hatched-56.571136deg-white-0.9-0.25);transform-box: fill-box;">
<rect height="50" width="50" x="250" y="50"/>
</g>
<g data-object="(12, 5)" style="fill: url(#pattern-hatched-26.9968deg-white-7.2-0.25);transform-box: fill-box;">
<circle cx="625" cy="275" r="25"/>
</g>
<g data-object="(2, 2)" style="fill: url(#pattern-hatched-18.678516deg-white-2-0.25);transform-box: fill-box;">
<rect height="50" width="50" x="100" y="100"/>
</g>
<g data-object="(14, 2)" style="fill: url(#pattern-hatched-119.76716deg-white-3.2-0.25);transform-box: fill-box;">
<circle cx="725" cy="125" r="25"/>
</g>
<g data-object="(7, 1)" style="fill: url(#pattern-hatched-52.797806deg-white-1.1-0.25);transform-box: fill-box;">
<rect height="50" width="50" x="350" y="50"/>
</g>
<g data-object="(2, 3)" style="fill: url(#pattern-hatched-320.13602deg-white-3.4-0.25);transform-box: fill-box;">
<circle cx="125" cy="175" r="25"/>
</g>
<g data-object="(11, 5)" style="fill: url(#pattern-hatched-184.18352deg-white-7.1-0.25);transform-box: fill-box;">
<rect height="50" width="50" x="550" y="250"/>
</g>
<g data-object="(1, 6)" style="fill: url(#pattern-hatched-224.83627deg-white-7.5-0.25);transform-box: fill-box;">
<rect height="50" width="50" x="50" y="300"/>
</g>
<g data-object="(7, 6)" style="fill: url(#pattern-hatched-124.3612deg-white-8.1-0.25);transform-box: fill-box;">
<circle cx="375" cy="325" r="25"/>
</g>
<g data-object="(10, 6)" style="fill: url(#pattern-hatched-297.89606deg-white-8.4-0.25);transform-box: fill-box;">
<circle cx="525" cy="325" r="25"/>
</g>
<g data-object="(12, 7)" style="fill: url(#pattern-hatched-59.988743deg-white-10-0.25);transform-box: fill-box;">
<circle cx="625" cy="375" r="25"/>
</g>
<g data-object="(5, 2)" style="fill: url(#pattern-hatched-56.978703deg-white-2.3-0.25);transform-box: fill-box;">
<rect height="50" width="50" x="250" y="100"/>
</g>
<g data-object="(7, 3)" style="fill: url(#pattern-hatched-216.24454deg-white-3.9-0.25);transform-box: fill-box;">
<rect height="50" width="50" x="350" y="150"/>
</g>
<g data-object="(7, 7)" style="fill: url(#pattern-hatched-317.81348deg-white-9.5-0.25);transform-box: fill-box;">
<circle cx="375" cy="375" r="25"/>
</g>
<g data-object="(10, 1)" style="fill: url(#pattern-dotted-white-3-2);transform-box: fill-box;">
<circle cx="525" cy="75" r="25"/>
</g>
<g data-object="(3, 3)" style="fill: url(#pattern-hatched-274.77606deg-white-3.5-0.25);transform-box: fill-box;">
<rect height="50" width="50" x="150" y="150"/>
</g>
<g data-object="(6, 7)" style="fill: url(#pattern-hatched-89.04904deg-white-9.4-0.25);transform-box: fill-box;">
<circle cx="325" cy="375" r="25"/>
</g>
<g data-object="(13, 2)" style="fill: url(#pattern-hatched-48.199726deg-white-3.1-0.25);transform-box: fill-box;">
<rect height="50" width="50" x="650" y="100"/>
</g>
<g data-object="(13, 7)" style="fill: url(#pattern-hatched-88.31214deg-white-10.1-0.25);transform-box: fill-box;">
<circle cx="675" cy="375" r="25"/>
</g>
<g data-object="(12, 2)" style="fill: url(#pattern-hatched-289.82617deg-white-3-0.25);transform-box: fill-box;">
<circle cx="625" cy="125" r="25"/>
</g>
<g data-object="(11, 2)" style="fill: url(#pattern-hatched-324.32974deg-white-2.9-0.25);transform-box: fill-box;">
<circle cx="575" cy="125" r="25"/>
</g>
<g data-object="(12, 6)" style="fill: url(#pattern-hatched-162.45045deg-white-8.6-0.25);transform-box: fill-box;">
<circle cx="625" cy="325" r="25"/>
</g>
<g data-object="(2, 6)" style="fill: url(#pattern-hatched-113.16188deg-white-7.6-0.25);transform-box: fill-box;">
<rect height="50" width="50" x="100" y="300"/>
</g>
<g data-object="(1, 3)" style="fill: url(#pattern-hatched-139.60207deg-white-3.3-0.25);transform-box: fill-box;">
<circle cx="75" cy="175" r="25"/>
</g>
<g data-object="(9, 6)" style="fill: url(#pattern-hatched-183.72543deg-white-8.3-0.25);transform-box: fill-box;">
<rect height="50" width="50" x="450" y="300"/>
</g>
<g data-object="(14, 1)" style="fill: url(#pattern-hatched-104.70095deg-white-1.8-0.25);transform-box: fill-box;">
<rect height="50" width="50" x="700" y="50"/>
</g>
<g data-object="(1, 5)" style="fill: url(#pattern-hatched-17.959814deg-white-6.1-0.25);transform-box: fill-box;">
<rect height="50" width="50" x="50" y="250"/>
</g>
<g data-object="(1, 4)" style="fill: url(#pattern-hatched-340.9856deg-white-4.7-0.25);transform-box: fill-box;">
<rect height="50" width="50" x="50" y="200"/>
</g>
<g data-object="(11, 7)" style="fill: url(#pattern-hatched-345.39377deg-white-9.9-0.25);transform-box: fill-box;">
<rect height="50" width="50" x="550" y="350"/>
</g>
<g data-object="(14, 3)" style="fill: url(#pattern-hatched-288.15714deg-white-4.6-0.25);transform-box: fill-box;">
<circle cx="725" cy="175" r="25"/>
</g>
<g data-object="(14, 6)" style="fill: url(#pattern-hatched-1.6552448deg-white-8.8-0.25);transform-box: fill-box;">
<rect height="50" width="50" x="700" y="300"/>
</g>
<g data-object="(14, 7)" style="fill: url(#pattern-hatched-257.7593deg-white-10.2-0.25);transform-box: fill-box;">
<circle cx="725" cy="375" r="25"/>
</g>
<g data-object="(13, 6)" style="fill: url(#pattern-hatched-173.94572deg-white-8.7-0.25);transform-box: fill-box;">
<circle cx="675" cy="325" r="25"/>
</g>
</g>
<g class="layer" data-layer="red dot friends">
<g data-object="reddot @ (11, 2)" style="fill: #cf0a2b;transform-box: fill-box;">
<circle cx="550" cy="100" r="5"/>
</g>
<g data-object="reddot @ (10, 1)" style="fill: #cf0a2b;transform-box: fill-box;">
<circle cx="500" cy="50" r="5"/>
</g>
<g data-object="reddot @ (11, 1)" style="fill: #cf0a2b;transform-box: fill-box;">
<circle cx="550" cy="50" r="5"/>
</g>
<g data-object="line" style="stroke: #4fecec; fill: transparent;transform-box: fill-box;filter: url(#filter-glow-4); overflow: visible;">
<line stroke-width="4" x1="750" x2="550" y1="200" y2="400"/>
</g>
</g>
<g class="layer" data-layer="root"/>
<defs>
<filter filterUnit="userSpaceOnUse" id="filter-glow-4">
<feGaussianBlur result="coloredBlur" stdDeviation="4"/>
<feMerge>
<feMergeNode in="coloredBlur"/>
<feMergeNode in="SourceGraphic"/>
</feMerge>
</filter>
<filter filterUnit="userSpaceOnUse" id="filter-glow-5">
<feGaussianBlur result="coloredBlur" stdDeviation="5"/>
<feMerge>
<feMergeNode in="coloredBlur"/>
<feMergeNode in="SourceGraphic"/>
</feMerge>
</filter>
<pattern height="8.6" id="pattern-hatched-299.32755deg-white-4.3-0.25" patternTransform="rotate(254.32755)" patternUnits="userSpaceOnUse" viewBox="0,0,4.3,4.3" width="8.6">
<polygon fill="#ffffff" points="0,0 1.075,0 0,1.075"/>
<polygon fill="#ffffff" points="0,4.3 4.3,0 4.3,1.075 1.075,4.3"/>
</pattern>
<pattern height="9" id="pattern-hatched-211.33258deg-white-4.5-0.25" patternTransform="rotate(166.33258)" patternUnits="userSpaceOnUse" viewBox="0,0,4.5,4.5" width="9">
<polygon fill="#ffffff" points="0,0 1.125,0 0,1.125"/>
<polygon fill="#ffffff" points="0,4.5 4.5,0 4.5,1.125 1.125,4.5"/>
</pattern>
<pattern height="8.8" id="pattern-hatched-27.08044deg-white-4.4-0.25" patternTransform="rotate(-17.91956)" patternUnits="userSpaceOnUse" viewBox="0,0,4.4,4.4" width="8.8">
<polygon fill="#ffffff" points="0,0 1.1,0 0,1.1"/>
<polygon fill="#ffffff" points="0,4.4 4.4,0 4.4,1.1 1.1,4.4"/>
</pattern>
<pattern height="12" id="pattern-hatched-282.0688deg-white-6-0.25" patternTransform="rotate(237.06879)" patternUnits="userSpaceOnUse" viewBox="0,0,6,6" width="12">
<polygon fill="#ffffff" points="0,0 1.5,0 0,1.5"/>
<polygon fill="#ffffff" points="0,6 6,0 6,1.5 1.5,6"/>
</pattern>
<pattern height="14.8" id="pattern-hatched-33.544266deg-white-7.4-0.25" patternTransform="rotate(-11.455734)" patternUnits="userSpaceOnUse" viewBox="0,0,7.4,7.4" width="14.8">
<polygon fill="#ffffff" points="0,0 1.85,0 0,1.85"/>
<polygon fill="#ffffff" points="0,7.4 7.4,0 7.4,1.85 1.85,7.4"/>
</pattern>
<pattern height="11.8" id="pattern-hatched-215.58922deg-white-5.9-0.25" patternTransform="rotate(170.58922)" patternUnits="userSpaceOnUse" viewBox="0,0,5.9,5.9" width="11.8">
<polygon fill="#ffffff" points="0,0 1.475,0 0,1.475"/>
<polygon fill="#ffffff" points="0,5.9 5.9,0 5.9,1.475 1.475,5.9"/>
</pattern>
<pattern height="17.8" id="pattern-hatched-96.993355deg-white-8.9-0.25" patternTransform="rotate(51.993355)" patternUnits="userSpaceOnUse" viewBox="0,0,8.9,8.9" width="17.8">
<polygon fill="#ffffff" points="0,0 2.225,0 0,2.225"/>
<polygon fill="#ffffff" points="0,8.9 8.9,0 8.9,2.225 2.225,8.9"/>
</pattern>
<pattern height="16.4" id="pattern-hatched-107.339775deg-white-8.2-0.25" patternTransform="rotate(62.339775)" patternUnits="userSpaceOnUse" viewBox="0,0,8.2,8.2" width="16.4">
<polygon fill="#ffffff" points="0,0 2.05,0 0,2.05"/>
<polygon fill="#ffffff" points="0,8.2 8.2,0 8.2,2.05 2.05,8.2"/>
</pattern>
<pattern height="18.2" id="pattern-hatched-71.766174deg-white-9.1-0.25" patternTransform="rotate(26.766174)" patternUnits="userSpaceOnUse" viewBox="0,0,9.1,9.1" width="18.2">
<polygon fill="#ffffff" points="0,0 2.275,0 0,2.275"/>
<polygon fill="#ffffff" points="0,9.1 9.1,0 9.1,2.275 2.275,9.1"/>
</pattern>
<pattern height="3.2" id="pattern-hatched-186.63586deg-white-1.6-0.25" patternTransform="rotate(141.63586)" patternUnits="userSpaceOnUse" viewBox="0,0,1.6,1.6" width="3.2">
<polygon fill="#ffffff" points="0,0 0.4,0 0,0.4"/>
<polygon fill="#ffffff" points="0,1.6 1.6,0 1.6,0.4 0.4,1.6"/>
</pattern>
<pattern height="16" id="pattern-hatched-243.80658deg-white-8-0.25" patternTransform="rotate(198.80658)" patternUnits="userSpaceOnUse" viewBox="0,0,8,8" width="16">
<polygon fill="#ffffff" points="0,0 2,0 0,2"/>
<polygon fill="#ffffff" points="0,8 8,0 8,2 2,8"/>
</pattern>
<pattern height="3.4" id="pattern-hatched-253.68701deg-white-1.7-0.25" patternTransform="rotate(208.68701)" patternUnits="userSpaceOnUse" viewBox="0,0,1.7,1.7" width="3.4">
<polygon fill="#ffffff" points="0,0 0.425,0 0,0.425"/>
<polygon fill="#ffffff" points="0,1.7 1.7,0 1.7,0.425 0.425,1.7"/>
</pattern>
<pattern height="7.2" id="pattern-hatched-310.7585deg-white-3.6-0.25" patternTransform="rotate(265.7585)" patternUnits="userSpaceOnUse" viewBox="0,0,3.6,3.6" width="7.2">
<polygon fill="#ffffff" points="0,0 0.9,0 0,0.9"/>
<polygon fill="#ffffff" points="0,3.6 3.6,0 3.6,0.9 0.9,3.6"/>
</pattern>
<pattern height="7.4" id="pattern-hatched-299.28848deg-white-3.7-0.25" patternTransform="rotate(254.28848)" patternUnits="userSpaceOnUse" viewBox="0,0,3.7,3.7" width="7.4">
<polygon fill="#ffffff" points="0,0 0.925,0 0,0.925"/>
<polygon fill="#ffffff" points="0,3.7 3.7,0 3.7,0.925 0.925,3.7"/>
</pattern>
<pattern height="4.4" id="pattern-hatched-233.53273deg-white-2.2-0.25" patternTransform="rotate(188.53273)" patternUnits="userSpaceOnUse" viewBox="0,0,2.2,2.2" width="4.4">
<polygon fill="#ffffff" points="0,0 0.55,0 0,0.55"/>
<polygon fill="#ffffff" points="0,2.2 2.2,0 2.2,0.55 0.55,2.2"/>
</pattern>
<pattern height="14" id="pattern-hatched-220.6095deg-white-7-0.25" patternTransform="rotate(175.6095)" patternUnits="userSpaceOnUse" viewBox="0,0,7,7" width="14">
<polygon fill="#ffffff" points="0,0 1.75,0 0,1.75"/>
<polygon fill="#ffffff" points="0,7 7,0 7,1.75 1.75,7"/>
</pattern>
<pattern height="3.8" id="pattern-hatched-358.5839deg-white-1.9-0.25" patternTransform="rotate(313.5839)" patternUnits="userSpaceOnUse" viewBox="0,0,1.9,1.9" width="3.8">
<polygon fill="#ffffff" points="0,0 0.475,0 0,0.475"/>
<polygon fill="#ffffff" points="0,1.9 1.9,0 1.9,0.475 0.475,1.9"/>
</pattern>
<pattern height="10.6" id="pattern-hatched-167.84358deg-white-5.3-0.25" patternTransform="rotate(122.84358)" patternUnits="userSpaceOnUse" viewBox="0,0,5.3,5.3" width="10.6">
<polygon fill="#ffffff" points="0,0 1.325,0 0,1.325"/>
<polygon fill="#ffffff" points="0,5.3 5.3,0 5.3,1.325 1.325,5.3"/>
</pattern>
<pattern height="7.6" id="pattern-hatched-278.33463deg-white-3.8-0.25" patternTransform="rotate(233.33463)" patternUnits="userSpaceOnUse" viewBox="0,0,3.8,3.8" width="7.6">
<polygon fill="#ffffff" points="0,0 0.95,0 0,0.95"/>
<polygon fill="#ffffff" points="0,3.8 3.8,0 3.8,0.95 0.95,3.8"/>
</pattern>
<pattern height="4.8" id="pattern-hatched-310.2893deg-white-2.4-0.25" patternTransform="rotate(265.2893)" patternUnits="userSpaceOnUse" viewBox="0,0,2.4,2.4" width="4.8">
<polygon fill="#ffffff" points="0,0 0.6,0 0,0.6"/>
<polygon fill="#ffffff" points="0,2.4 2.4,0 2.4,0.6 0.6,2.4"/>
</pattern>
<pattern height="17" id="pattern-hatched-15.570846deg-white-8.5-0.25" patternTransform="rotate(-29.429153)" patternUnits="userSpaceOnUse" viewBox="0,0,8.5,8.5" width="17">
<polygon fill="#ffffff" points="0,0 2.125,0 0,2.125"/>
<polygon fill="#ffffff" points="0,8.5 8.5,0 8.5,2.125 2.125,8.5"/>
</pattern>
<pattern height="18" id="pattern-hatched-220.13795deg-white-9-0.25" patternTransform="rotate(175.13795)" patternUnits="userSpaceOnUse" viewBox="0,0,9,9" width="18">
<polygon fill="#ffffff" points="0,0 2.25,0 0,2.25"/>
<polygon fill="#ffffff" points="0,9 9,0 9,2.25 2.25,9"/>
</pattern>
<pattern height="14.6" id="pattern-hatched-50.404415deg-white-7.3-0.25" patternTransform="rotate(5.404415)" patternUnits="userSpaceOnUse" viewBox="0,0,7.3,7.3" width="14.6">
<polygon fill="#ffffff" points="0,0 1.825,0 0,1.825"/>
<polygon fill="#ffffff" points="0,7.3 7.3,0 7.3,1.825 1.825,7.3"/>
</pattern>
<pattern height="2" id="pattern-hatched-183.30246deg-white-1-0.25" patternTransform="rotate(138.30246)" patternUnits="userSpaceOnUse" viewBox="0,0,1,1" width="2">
<polygon fill="#ffffff" points="0,0 0.25,0 0,0.25"/>
<polygon fill="#ffffff" points="0,1 1,0 1,0.25 0.25,1"/>
</pattern>
<pattern height="11.6" id="pattern-hatched-131.70145deg-white-5.8-0.25" patternTransform="rotate(86.70145)" patternUnits="userSpaceOnUse" viewBox="0,0,5.8,5.8" width="11.6">
<polygon fill="#ffffff" points="0,0 1.45,0 0,1.45"/>
<polygon fill="#ffffff" points="0,5.8 5.8,0 5.8,1.45 1.45,5.8"/>
</pattern>
<pattern height="18.4" id="pattern-hatched-244.81346deg-white-9.2-0.25" patternTransform="rotate(199.81346)" patternUnits="userSpaceOnUse" viewBox="0,0,9.2,9.2" width="18.4">
<polygon fill="#ffffff" points="0,0 2.3,0 0,2.3"/>
<polygon fill="#ffffff" points="0,9.2 9.2,0 9.2,2.3 2.3,9.2"/>
</pattern>
<pattern height="19.6" id="pattern-hatched-335.19543deg-white-9.8-0.25" patternTransform="rotate(290.19543)" patternUnits="userSpaceOnUse" viewBox="0,0,9.8,9.8" width="19.6">
<polygon fill="#ffffff" points="0,0 2.45,0 0,2.45"/>
<polygon fill="#ffffff" points="0,9.8 9.8,0 9.8,2.45 2.45,9.8"/>
</pattern>
<pattern height="9.6" id="pattern-hatched-6.4409494deg-white-4.8-0.25" patternTransform="rotate(-38.55905)" patternUnits="userSpaceOnUse" viewBox="0,0,4.8,4.8" width="9.6">
<polygon fill="#ffffff" points="0,0 1.2,0 0,1.2"/>
<polygon fill="#ffffff" points="0,4.8 4.8,0 4.8,1.2 1.2,4.8"/>
</pattern>
<pattern height="1" id="pattern-hatched-218.48544deg-white-0.5-0.25" patternTransform="rotate(173.48544)" patternUnits="userSpaceOnUse" viewBox="0,0,0.5,0.5" width="1">
<polygon fill="#ffffff" points="0,0 0.125,0 0,0.125"/>
<polygon fill="#ffffff" points="0,0.5 0.5,0 0.5,0.125 0.125,0.5"/>
</pattern>
<pattern height="13.2" id="pattern-hatched-106.67879deg-white-6.6-0.25" patternTransform="rotate(61.678787)" patternUnits="userSpaceOnUse" viewBox="0,0,6.6,6.6" width="13.2">
<polygon fill="#ffffff" points="0,0 1.65,0 0,1.65"/>
<polygon fill="#ffffff" points="0,6.6 6.6,0 6.6,1.65 1.65,6.6"/>
</pattern>
<pattern height="4.2" id="pattern-hatched-118.944214deg-white-2.1-0.25" patternTransform="rotate(73.944214)" patternUnits="userSpaceOnUse" viewBox="0,0,2.1,2.1" width="4.2">
<polygon fill="#ffffff" points="0,0 0.525,0 0,0.525"/>
<polygon fill="#ffffff" points="0,2.1 2.1,0 2.1,0.525 0.525,2.1"/>
</pattern>
<pattern height="12.4" id="pattern-hatched-227.94576deg-white-6.2-0.25" patternTransform="rotate(182.94576)" patternUnits="userSpaceOnUse" viewBox="0,0,6.2,6.2" width="12.4">
<polygon fill="#ffffff" points="0,0 1.55,0 0,1.55"/>
<polygon fill="#ffffff" points="0,6.2 6.2,0 6.2,1.55 1.55,6.2"/>
</pattern>
<pattern height="19.2" id="pattern-hatched-299.81985deg-white-9.6-0.25" patternTransform="rotate(254.81985)" patternUnits="userSpaceOnUse" viewBox="0,0,9.6,9.6" width="19.2">
<polygon fill="#ffffff" points="0,0 2.4,0 0,2.4"/>
<polygon fill="#ffffff" points="0,9.6 9.6,0 9.6,2.4 2.4,9.6"/>
</pattern>
<pattern height="2.4" id="pattern-hatched-279.28082deg-white-1.2-0.25" patternTransform="rotate(234.28082)" patternUnits="userSpaceOnUse" viewBox="0,0,1.2,1.2" width="2.4">
<polygon fill="#ffffff" points="0,0 0.3,0 0,0.3"/>
<polygon fill="#ffffff" points="0,1.2 1.2,0 1.2,0.3 0.3,1.2"/>
</pattern>
<pattern height="19.4" id="pattern-hatched-75.52045deg-white-9.7-0.25" patternTransform="rotate(30.520447)" patternUnits="userSpaceOnUse" viewBox="0,0,9.7,9.7" width="19.4">
<polygon fill="#ffffff" points="0,0 2.425,0 0,2.425"/>
<polygon fill="#ffffff" points="0,9.7 9.7,0 9.7,2.425 2.425,9.7"/>
</pattern>
<pattern height="13.6" id="pattern-hatched-115.57184deg-white-6.8-0.25" patternTransform="rotate(70.57184)" patternUnits="userSpaceOnUse" viewBox="0,0,6.8,6.8" width="13.6">
<polygon fill="#ffffff" points="0,0 1.7,0 0,1.7"/>
<polygon fill="#ffffff" points="0,6.8 6.8,0 6.8,1.7 1.7,6.8"/>
</pattern>
<pattern height="1.4" id="pattern-hatched-120.974106deg-white-0.7-0.25" patternTransform="rotate(75.974106)" patternUnits="userSpaceOnUse" viewBox="0,0,0.7,0.7" width="1.4">
<polygon fill="#ffffff" points="0,0 0.175,0 0,0.175"/>
<polygon fill="#ffffff" points="0,0.7 0.7,0 0.7,0.175 0.175,0.7"/>
</pattern>
<pattern height="1.2" id="pattern-hatched-159.69516deg-white-0.6-0.25" patternTransform="rotate(114.69516)" patternUnits="userSpaceOnUse" viewBox="0,0,0.6,0.6" width="1.2">
<polygon fill="#ffffff" points="0,0 0.15,0 0,0.15"/>
<polygon fill="#ffffff" points="0,0.6 0.6,0 0.6,0.15 0.15,0.6"/>
</pattern>
<pattern height="3" id="pattern-hatched-123.144165deg-white-1.5-0.25" patternTransform="rotate(78.144165)" patternUnits="userSpaceOnUse" viewBox="0,0,1.5,1.5" width="3">
<polygon fill="#ffffff" points="0,0 0.375,0 0,0.375"/>
<polygon fill="#ffffff" points="0,1.5 1.5,0 1.5,0.375 0.375,1.5"/>
</pattern>
<pattern height="1.6" id="pattern-hatched-220.77296deg-white-0.8-0.25" patternTransform="rotate(175.77296)" patternUnits="userSpaceOnUse" viewBox="0,0,0.8,0.8" width="1.6">
<polygon fill="#ffffff" points="0,0 0.2,0 0,0.2"/>
<polygon fill="#ffffff" points="0,0.8 0.8,0 0.8,0.2 0.2,0.8"/>
</pattern>
<pattern height="10.4" id="pattern-hatched-53.81241deg-white-5.2-0.25" patternTransform="rotate(8.812408)" patternUnits="userSpaceOnUse" viewBox="0,0,5.2,5.2" width="10.4">
<polygon fill="#ffffff" points="0,0 1.3,0 0,1.3"/>
<polygon fill="#ffffff" points="0,5.2 5.2,0 5.2,1.3 1.3,5.2"/>
</pattern>
<pattern height="18.6" id="pattern-hatched-5.1831865deg-white-9.3-0.25" patternTransform="rotate(-39.816814)" patternUnits="userSpaceOnUse" viewBox="0,0,9.3,9.3" width="18.6">
<polygon fill="#ffffff" points="0,0 2.325,0 0,2.325"/>
<polygon fill="#ffffff" points="0,9.3 9.3,0 9.3,2.325 2.325,9.3"/>
</pattern>
<pattern height="2.6" id="pattern-hatched-97.158325deg-white-1.3-0.25" patternTransform="rotate(52.158325)" patternUnits="userSpaceOnUse" viewBox="0,0,1.3,1.3" width="2.6">
<polygon fill="#ffffff" points="0,0 0.325,0 0,0.325"/>
<polygon fill="#ffffff" points="0,1.3 1.3,0 1.3,0.325 0.325,1.3"/>
</pattern>
<pattern height="13.4" id="pattern-hatched-188.27026deg-white-6.7-0.25" patternTransform="rotate(143.27026)" patternUnits="userSpaceOnUse" viewBox="0,0,6.7,6.7" width="13.4">
<polygon fill="#ffffff" points="0,0 1.675,0 0,1.675"/>
<polygon fill="#ffffff" points="0,6.7 6.7,0 6.7,1.675 1.675,6.7"/>
</pattern>
<pattern height="5" id="pattern-hatched-284.93896deg-white-2.5-0.25" patternTransform="rotate(239.93896)" patternUnits="userSpaceOnUse" viewBox="0,0,2.5,2.5" width="5">
<polygon fill="#ffffff" points="0,0 0.625,0 0,0.625"/>
<polygon fill="#ffffff" points="0,2.5 2.5,0 2.5,0.625 0.625,2.5"/>
</pattern>
<pattern height="13.8" id="pattern-hatched-150.21457deg-white-6.9-0.25" patternTransform="rotate(105.21457)" patternUnits="userSpaceOnUse" viewBox="0,0,6.9,6.9" width="13.8">
<polygon fill="#ffffff" points="0,0 1.725,0 0,1.725"/>
<polygon fill="#ffffff" points="0,6.9 6.9,0 6.9,1.725 1.725,6.9"/>
</pattern>
<pattern height="1.8" id="pattern-hatched-56.571136deg-white-0.9-0.25" patternTransform="rotate(11.571136)" patternUnits="userSpaceOnUse" viewBox="0,0,0.9,0.9" width="1.8">
<polygon fill="#ffffff" points="0,0 0.225,0 0,0.225"/>
<polygon fill="#ffffff" points="0,0.9 0.9,0 0.9,0.225 0.225,0.9"/>
</pattern>
<pattern height="14.4" id="pattern-hatched-26.9968deg-white-7.2-0.25" patternTransform="rotate(-18.0032)" patternUnits="userSpaceOnUse" viewBox="0,0,7.2,7.2" width="14.4">
<polygon fill="#ffffff" points="0,0 1.8,0 0,1.8"/>
<polygon fill="#ffffff" points="0,7.2 7.2,0 7.2,1.8 1.8,7.2"/>
</pattern>
<pattern height="4" id="pattern-hatched-18.678516deg-white-2-0.25" patternTransform="rotate(-26.321484)" patternUnits="userSpaceOnUse" viewBox="0,0,2,2" width="4">
<polygon fill="#ffffff" points="0,0 0.5,0 0,0.5"/>
<polygon fill="#ffffff" points="0,2 2,0 2,0.5 0.5,2"/>
</pattern>
<pattern height="6.4" id="pattern-hatched-119.76716deg-white-3.2-0.25" patternTransform="rotate(74.76716)" patternUnits="userSpaceOnUse" viewBox="0,0,3.2,3.2" width="6.4">
<polygon fill="#ffffff" points="0,0 0.8,0 0,0.8"/>
<polygon fill="#ffffff" points="0,3.2 3.2,0 3.2,0.8 0.8,3.2"/>
</pattern>
<pattern height="2.2" id="pattern-hatched-52.797806deg-white-1.1-0.25" patternTransform="rotate(7.797806)" patternUnits="userSpaceOnUse" viewBox="0,0,1.1,1.1" width="2.2">
<polygon fill="#ffffff" points="0,0 0.275,0 0,0.275"/>
<polygon fill="#ffffff" points="0,1.1 1.1,0 1.1,0.275 0.275,1.1"/>
</pattern>
<pattern height="6.8" id="pattern-hatched-320.13602deg-white-3.4-0.25" patternTransform="rotate(275.13602)" patternUnits="userSpaceOnUse" viewBox="0,0,3.4,3.4" width="6.8">
<polygon fill="#ffffff" points="0,0 0.85,0 0,0.85"/>
<polygon fill="#ffffff" points="0,3.4 3.4,0 3.4,0.85 0.85,3.4"/>
</pattern>
<pattern height="14.2" id="pattern-hatched-184.18352deg-white-7.1-0.25" patternTransform="rotate(139.18352)" patternUnits="userSpaceOnUse" viewBox="0,0,7.1,7.1" width="14.2">
<polygon fill="#ffffff" points="0,0 1.775,0 0,1.775"/>
<polygon fill="#ffffff" points="0,7.1 7.1,0 7.1,1.775 1.775,7.1"/>
</pattern>
<pattern height="15" id="pattern-hatched-224.83627deg-white-7.5-0.25" patternTransform="rotate(179.83627)" patternUnits="userSpaceOnUse" viewBox="0,0,7.5,7.5" width="15">
<polygon fill="#ffffff" points="0,0 1.875,0 0,1.875"/>
<polygon fill="#ffffff" points="0,7.5 7.5,0 7.5,1.875 1.875,7.5"/>
</pattern>
<pattern height="16.2" id="pattern-hatched-124.3612deg-white-8.1-0.25" patternTransform="rotate(79.3612)" patternUnits="userSpaceOnUse" viewBox="0,0,8.1,8.1" width="16.2">
<polygon fill="#ffffff" points="0,0 2.025,0 0,2.025"/>
<polygon fill="#ffffff" points="0,8.1 8.1,0 8.1,2.025 2.025,8.1"/>
</pattern>
<pattern height="16.8" id="pattern-hatched-297.89606deg-white-8.4-0.25" patternTransform="rotate(252.89606)" patternUnits="userSpaceOnUse" viewBox="0,0,8.4,8.4" width="16.8">
<polygon fill="#ffffff" points="0,0 2.1,0 0,2.1"/>
<polygon fill="#ffffff" points="0,8.4 8.4,0 8.4,2.1 2.1,8.4"/>
</pattern>
<pattern height="20" id="pattern-hatched-59.988743deg-white-10-0.25" patternTransform="rotate(14.988743)" patternUnits="userSpaceOnUse" viewBox="0,0,10,10" width="20">
<polygon fill="#ffffff" points="0,0 2.5,0 0,2.5"/>
<polygon fill="#ffffff" points="0,10 10,0 10,2.5 2.5,10"/>
</pattern>
<pattern height="4.6" id="pattern-hatched-56.978703deg-white-2.3-0.25" patternTransform="rotate(11.978703)" patternUnits="userSpaceOnUse" viewBox="0,0,2.3,2.3" width="4.6">
<polygon fill="#ffffff" points="0,0 0.575,0 0,0.575"/>
<polygon fill="#ffffff" points="0,2.3 2.3,0 2.3,0.575 0.575,2.3"/>
</pattern>
<pattern height="7.8" id="pattern-hatched-216.24454deg-white-3.9-0.25" patternTransform="rotate(171.24454)" patternUnits="userSpaceOnUse" viewBox="0,0,3.9,3.9" width="7.8">
<polygon fill="#ffffff" points="0,0 0.975,0 0,0.975"/>
<polygon fill="#ffffff" points="0,3.9 3.9,0 3.9,0.975 0.975,3.9"/>
</pattern>
<pattern height="19" id="pattern-hatched-317.81348deg-white-9.5-0.25" patternTransform="rotate(272.81348)" patternUnits="userSpaceOnUse" viewBox="0,0,9.5,9.5" width="19">
<polygon fill="#ffffff" points="0,0 2.375,0 0,2.375"/>
<polygon fill="#ffffff" points="0,9.5 9.5,0 9.5,2.375 2.375,9.5"/>
</pattern>
<pattern height="7" id="pattern-dotted-white-3-2" patternUnits="userSpaceOnUse" viewBox="0,0,7,7" width="7">
<circle cx="3.5" cy="3.5" fill="#ffffff" r="1.5"/>
</pattern>
<pattern height="7" id="pattern-hatched-274.77606deg-white-3.5-0.25" patternTransform="rotate(229.77606)" patternUnits="userSpaceOnUse" viewBox="0,0,3.5,3.5" width="7">
<polygon fill="#ffffff" points="0,0 0.875,0 0,0.875"/>
<polygon fill="#ffffff" points="0,3.5 3.5,0 3.5,0.875 0.875,3.5"/>
</pattern>
<pattern height="18.8" id="pattern-hatched-89.04904deg-white-9.4-0.25" patternTransform="rotate(44.04904)" patternUnits="userSpaceOnUse" viewBox="0,0,9.4,9.4" width="18.8">
<polygon fill="#ffffff" points="0,0 2.35,0 0,2.35"/>
<polygon fill="#ffffff" points="0,9.4 9.4,0 9.4,2.35 2.35,9.4"/>
</pattern>
<pattern height="6.2" id="pattern-hatched-48.199726deg-white-3.1-0.25" patternTransform="rotate(3.199726)" patternUnits="userSpaceOnUse" viewBox="0,0,3.1,3.1" width="6.2">
<polygon fill="#ffffff" points="0,0 0.775,0 0,0.775"/>
<polygon fill="#ffffff" points="0,3.1 3.1,0 3.1,0.775 0.775,3.1"/>
</pattern>
<pattern height="20.2" id="pattern-hatched-88.31214deg-white-10.1-0.25" patternTransform="rotate(43.31214)" patternUnits="userSpaceOnUse" viewBox="0,0,10.1,10.1" width="20.2">
<polygon fill="#ffffff" points="0,0 2.525,0 0,2.525"/>
<polygon fill="#ffffff" points="0,10.1 10.1,0 10.1,2.525 2.525,10.1"/>
</pattern>
<pattern height="6" id="pattern-hatched-289.82617deg-white-3-0.25" patternTransform="rotate(244.82617)" patternUnits="userSpaceOnUse" viewBox="0,0,3,3" width="6">
<polygon fill="#ffffff" points="0,0 0.75,0 0,0.75"/>
<polygon fill="#ffffff" points="0,3 3,0 3,0.75 0.75,3"/>
</pattern>
<pattern height="5.8" id="pattern-hatched-324.32974deg-white-2.9-0.25" patternTransform="rotate(279.32974)" patternUnits="userSpaceOnUse" viewBox="0,0,2.9,2.9" width="5.8">
<polygon fill="#ffffff" points="0,0 0.725,0 0,0.725"/>
<polygon fill="#ffffff" points="0,2.9 2.9,0 2.9,0.725 0.725,2.9"/>
</pattern>
<pattern height="17.2" id="pattern-hatched-162.45045deg-white-8.6-0.25" patternTransform="rotate(117.450455)" patternUnits="userSpaceOnUse" viewBox="0,0,8.6,8.6" width="17.2">
<polygon fill="#ffffff" points="0,0 2.15,0 0,2.15"/>
<polygon fill="#ffffff" points="0,8.6 8.6,0 8.6,2.15 2.15,8.6"/>
</pattern>
<pattern height="15.2" id="pattern-hatched-113.16188deg-white-7.6-0.25" patternTransform="rotate(68.16188)" patternUnits="userSpaceOnUse" viewBox="0,0,7.6,7.6" width="15.2">
<polygon fill="#ffffff" points="0,0 1.9,0 0,1.9"/>
<polygon fill="#ffffff" points="0,7.6 7.6,0 7.6,1.9 1.9,7.6"/>
</pattern>
<pattern height="6.6" id="pattern-hatched-139.60207deg-white-3.3-0.25" patternTransform="rotate(94.602066)" patternUnits="userSpaceOnUse" viewBox="0,0,3.3,3.3" width="6.6">
<polygon fill="#ffffff" points="0,0 0.825,0 0,0.825"/>
<polygon fill="#ffffff" points="0,3.3 3.3,0 3.3,0.825 0.825,3.3"/>
</pattern>
<pattern height="16.6" id="pattern-hatched-183.72543deg-white-8.3-0.25" patternTransform="rotate(138.72543)" patternUnits="userSpaceOnUse" viewBox="0,0,8.3,8.3" width="16.6">
<polygon fill="#ffffff" points="0,0 2.075,0 0,2.075"/>
<polygon fill="#ffffff" points="0,8.3 8.3,0 8.3,2.075 2.075,8.3"/>
</pattern>
<pattern height="3.6" id="pattern-hatched-104.70095deg-white-1.8-0.25" patternTransform="rotate(59.70095)" patternUnits="userSpaceOnUse" viewBox="0,0,1.8,1.8" width="3.6">
<polygon fill="#ffffff" points="0,0 0.45,0 0,0.45"/>
<polygon fill="#ffffff" points="0,1.8 1.8,0 1.8,0.45 0.45,1.8"/>
</pattern>
<pattern height="12.2" id="pattern-hatched-17.959814deg-white-6.1-0.25" patternTransform="rotate(-27.040186)" patternUnits="userSpaceOnUse" viewBox="0,0,6.1,6.1" width="12.2">
<polygon fill="#ffffff" points="0,0 1.525,0 0,1.525"/>
<polygon fill="#ffffff" points="0,6.1 6.1,0 6.1,1.525 1.525,6.1"/>
</pattern>
<pattern height="9.4" id="pattern-hatched-340.9856deg-white-4.7-0.25" patternTransform="rotate(295.9856)" patternUnits="userSpaceOnUse" viewBox="0,0,4.7,4.7" width="9.4">
<polygon fill="#ffffff" points="0,0 1.175,0 0,1.175"/>
<polygon fill="#ffffff" points="0,4.7 4.7,0 4.7,1.175 1.175,4.7"/>
</pattern>
<pattern height="19.8" id="pattern-hatched-345.39377deg-white-9.9-0.25" patternTransform="rotate(300.39377)" patternUnits="userSpaceOnUse" viewBox="0,0,9.9,9.9" width="19.8">
<polygon fill="#ffffff" points="0,0 2.475,0 0,2.475"/>
<polygon fill="#ffffff" points="0,9.9 9.9,0 9.9,2.475 2.475,9.9"/>
</pattern>
<pattern height="9.2" id="pattern-hatched-288.15714deg-white-4.6-0.25" patternTransform="rotate(243.15714)" patternUnits="userSpaceOnUse" viewBox="0,0,4.6,4.6" width="9.2">
<polygon fill="#ffffff" points="0,0 1.15,0 0,1.15"/>
<polygon fill="#ffffff" points="0,4.6 4.6,0 4.6,1.15 1.15,4.6"/>
</pattern>
<pattern height="17.6" id="pattern-hatched-1.6552448deg-white-8.8-0.25" patternTransform="rotate(-43.344757)" patternUnits="userSpaceOnUse" viewBox="0,0,8.8,8.8" width="17.6">
<polygon fill="#ffffff" points="0,0 2.2,0 0,2.2"/>
<polygon fill="#ffffff" points="0,8.8 8.8,0 8.8,2.2 2.2,8.8"/>
</pattern>
<pattern height="20.4" id="pattern-hatched-257.7593deg-white-10.2-0.25" patternTransform="rotate(212.75931)" patternUnits="userSpaceOnUse" viewBox="0,0,10.2,10.2" width="20.4">
<polygon fill="#ffffff" points="0,0 2.55,0 0,2.55"/>
<polygon fill="#ffffff" points="0,10.2 10.2,0 10.2,2.55 2.55,10.2"/>
</pattern>
<pattern height="17.4" id="pattern-hatched-173.94572deg-white-8.7-0.25" patternTransform="rotate(128.94572)" patternUnits="userSpaceOnUse" viewBox="0,0,8.7,8.7" width="17.4">
<polygon fill="#ffffff" points="0,0 2.175,0 0,2.175"/>
<polygon fill="#ffffff" points="0,8.7 8.7,0 8.7,2.175 2.175,8.7"/>
</pattern>
</defs>
</svg>