<svg height="470" viewBox="-10 -10 470 470" width="470" xmlns="http://www.w3.org/2000/svg">
<rect fill="#000000" height="470" width="470" x="-10" y="-10"/>
<g class="layer" data-layer="root">
<g data-object="4-6" style="fill: url(#pattern-hatched-bottom-up-white-6.5);">
<circle cx="200" cy="300" r="2"/>
</g>
<g data-object="4-5" style="fill: url(#pattern-hatched-bottom-up-white-5.5);">
<circle cx="200" cy="250" r="2"/>
</g>
<g data-object="2-0" style="fill: url(#pattern-hatched-bottom-up-white-0.3);">
<circle cx="100" cy="0" r="2"/>
</g>
<g data-object="5-4" style="fill: url(#pattern-hatched-bottom-up-white-4.6);">
<circle cx="250" cy="200" r="2"/>
</g>
<g data-object="5-1" style="fill: url(#pattern-hatched-bottom-up-white-1.6);">
<circle cx="250" cy="50" r="2"/>
</g>
<g data-object="6-1" style="fill: url(#pattern-hatched-bottom-up-white-1.7);">
<circle cx="300" cy="50" r="2"/>
</g>
<g data-object="0-5" style="fill: url(#pattern-hatched-bottom-up-white-5.1);">
<circle cx="0" cy="250" r="2"/>
</g>
<g data-object="8-3" style="fill: url(#pattern-hatched-bottom-up-white-3.9);">
<circle cx="400" cy="150" r="2"/>
</g>
<g data-object="5-6" style="fill: url(#pattern-hatched-bottom-up-white-6.6);">
<circle cx="250" cy="300" r="2"/>
</g>
<g data-object="1-6" style="fill: url(#pattern-hatched-bottom-up-white-6.2);">
<circle cx="50" cy="300" r="2"/>
</g>
<g data-object="8-2" style="fill: url(#pattern-hatched-bottom-up-white-2.9);">
<circle cx="400" cy="100" r="2"/>
</g>
<g data-object="0-3" style="fill: url(#pattern-hatched-bottom-up-white-3.1);">
<circle cx="0" cy="150" r="2"/>
</g>
<g data-object="0-4" style="fill: url(#pattern-hatched-bottom-up-white-4.1);">
<circle cx="0" cy="200" r="2"/>
</g>
<g data-object="7-2" style="fill: url(#pattern-hatched-bottom-up-white-2.8);">
<circle cx="350" cy="100" r="2"/>
</g>
<g data-object="1-3" style="fill: url(#pattern-hatched-bottom-up-white-3.2);">
<circle cx="50" cy="150" r="2"/>
</g>
<g data-object="3-1" style="fill: url(#pattern-hatched-bottom-up-white-1.4);">
<circle cx="150" cy="50" r="2"/>
</g>
<g data-object="2-2" style="fill: url(#pattern-hatched-bottom-up-white-2.3);">
<circle cx="100" cy="100" r="2"/>
</g>
<g data-object="3-3" style="fill: url(#pattern-hatched-bottom-up-white-3.4);">
<circle cx="150" cy="150" r="2"/>
</g>
<g data-object="5-3" style="fill: url(#pattern-hatched-bottom-up-white-3.6);">
<circle cx="250" cy="150" r="2"/>
</g>
<g data-object="7-3" style="fill: url(#pattern-hatched-bottom-up-white-3.8);">
<circle cx="350" cy="150" r="2"/>
</g>
<g data-object="1-4" style="fill: url(#pattern-hatched-bottom-up-white-4.2);">
<circle cx="50" cy="200" r="2"/>
</g>
<g data-object="2-4" style="fill: url(#pattern-hatched-bottom-up-white-4.3);">
<circle cx="100" cy="200" r="2"/>
</g>
<g data-object="0-6" style="fill: url(#pattern-hatched-bottom-up-white-6.1);">
<circle cx="0" cy="300" r="2"/>
</g>
<g data-object="1-8" style="fill: url(#pattern-hatched-bottom-up-white-8.2);">
<circle cx="50" cy="400" r="2"/>
</g>
<g data-object="3-0" style="fill: url(#pattern-hatched-bottom-up-white-0.4);">
<circle cx="150" cy="0" r="2"/>
</g>
<g data-object="4-4" style="fill: url(#pattern-hatched-bottom-up-white-4.5);">
<circle cx="200" cy="200" r="2"/>
</g>
<g data-object="6-6" style="fill: url(#pattern-hatched-bottom-up-white-6.7);">
<circle cx="300" cy="300" r="2"/>
</g>
<g data-object="5-2" style="fill: url(#pattern-hatched-bottom-up-white-2.6);">
<circle cx="250" cy="100" r="2"/>
</g>
<g data-object="4-7" style="fill: url(#pattern-hatched-bottom-up-white-7.5);">
<circle cx="200" cy="350" r="2"/>
</g>
<g data-object="7-6" style="fill: url(#pattern-hatched-bottom-up-white-6.8);">
<circle cx="350" cy="300" r="2"/>
</g>
<g data-object="6-0" style="fill: url(#pattern-hatched-bottom-up-white-0.7);">
<circle cx="300" cy="0" r="2"/>
</g>
<g data-object="0-2" style="fill: url(#pattern-hatched-bottom-up-white-2.1);">
<circle cx="0" cy="100" r="2"/>
</g>
<g data-object="0-8" style="fill: url(#pattern-hatched-bottom-up-white-8.1);">
<circle cx="0" cy="400" r="2"/>
</g>
<g data-object="7-5" style="fill: url(#pattern-hatched-bottom-up-white-5.8);">
<circle cx="350" cy="250" r="2"/>
</g>
<g data-object="8-5" style="fill: url(#pattern-hatched-bottom-up-white-5.9);">
<circle cx="400" cy="250" r="2"/>
</g>
<g data-object="8-0" style="fill: url(#pattern-hatched-bottom-up-white-0.9);">
<circle cx="400" cy="0" r="2"/>
</g>
<g data-object="8-1" style="fill: url(#pattern-hatched-bottom-up-white-1.9);">
<circle cx="400" cy="50" r="2"/>
</g>
<g data-object="3-4" style="fill: url(#pattern-hatched-bottom-up-white-4.4);">
<circle cx="150" cy="200" r="2"/>
</g>
<g data-object="3-7" style="fill: url(#pattern-hatched-bottom-up-white-7.4);">
<circle cx="150" cy="350" r="2"/>
</g>
<g data-object="7-1" style="fill: url(#pattern-hatched-bottom-up-white-1.8);">
<circle cx="350" cy="50" r="2"/>
</g>
<g data-object="2-8" style="fill: url(#pattern-hatched-bottom-up-white-8.3);">
<circle cx="100" cy="400" r="2"/>
</g>
<g data-object="2-7" style="fill: url(#pattern-hatched-bottom-up-white-7.3);">
<circle cx="100" cy="350" r="2"/>
</g>
<g data-object="1-2" style="fill: url(#pattern-hatched-bottom-up-white-2.2);">
<circle cx="50" cy="100" r="2"/>
</g>
<g data-object="4-0" style="fill: url(#pattern-hatched-bottom-up-white-0.5);">
<circle cx="200" cy="0" r="2"/>
</g>
<g data-object="5-0" style="fill: url(#pattern-hatched-bottom-up-white-0.6);">
<circle cx="250" cy="0" r="2"/>
</g>
<g data-object="8-4" style="fill: url(#pattern-hatched-bottom-up-white-4.9);">
<circle cx="400" cy="200" r="2"/>
</g>
<g data-object="4-1" style="fill: url(#pattern-hatched-bottom-up-white-1.5);">
<circle cx="200" cy="50" r="2"/>
</g>
<g data-object="6-3" style="fill: url(#pattern-hatched-bottom-up-white-3.7);">
<circle cx="300" cy="150" r="2"/>
</g>
<g data-object="8-7" style="fill: url(#pattern-hatched-bottom-up-white-7.9);">
<circle cx="400" cy="350" r="2"/>
</g>
<g data-object="6-5" style="fill: url(#pattern-hatched-bottom-up-white-5.7);">
<circle cx="300" cy="250" r="2"/>
</g>
<g data-object="5-7" style="fill: url(#pattern-hatched-bottom-up-white-7.6);">
<circle cx="250" cy="350" r="2"/>
</g>
<g data-object="8-6" style="fill: url(#pattern-hatched-bottom-up-white-6.9);">
<circle cx="400" cy="300" r="2"/>
</g>
<g data-object="7-7" style="fill: url(#pattern-hatched-bottom-up-white-7.8);">
<circle cx="350" cy="350" r="2"/>
</g>
<g data-object="3-6" style="fill: url(#pattern-hatched-bottom-up-white-6.4);">
<circle cx="150" cy="300" r="2"/>
</g>
<g data-object="7-0" style="fill: url(#pattern-hatched-bottom-up-white-0.8);">
<circle cx="350" cy="0" r="2"/>
</g>
<g data-object="0-7" style="fill: url(#pattern-hatched-bottom-up-white-7.1);">
<circle cx="0" cy="350" r="2"/>
</g>
<g data-object="5-8" style="fill: url(#pattern-hatched-bottom-up-white-8.6);">
<circle cx="250" cy="400" r="2"/>
</g>
<g data-object="2-1" style="fill: url(#pattern-hatched-bottom-up-white-1.3);">
<circle cx="100" cy="50" r="2"/>
</g>
<g data-object="7-8" style="fill: url(#pattern-hatched-bottom-up-white-8.8);">
<circle cx="350" cy="400" r="2"/>
</g>
<g data-object="3-5" style="fill: url(#pattern-hatched-bottom-up-white-5.4);">
<circle cx="150" cy="250" r="2"/>
</g>
<g data-object="6-2" style="fill: url(#pattern-hatched-bottom-up-white-2.7);">
<circle cx="300" cy="100" r="2"/>
</g>
<g data-object="6-7" style="fill: url(#pattern-hatched-bottom-up-white-7.7);">
<circle cx="300" cy="350" r="2"/>
</g>
<g data-object="1-1" style="fill: url(#pattern-hatched-bottom-up-white-1.2);">
<circle cx="50" cy="50" r="2"/>
</g>
<g data-object="2-3" style="fill: url(#pattern-hatched-bottom-up-white-3.3);">
<circle cx="100" cy="150" r="2"/>
</g>
<g data-object="4-8" style="fill: url(#pattern-hatched-bottom-up-white-8.5);">
<circle cx="200" cy="400" r="2"/>
</g>
<g data-object="2-6" style="fill: url(#pattern-hatched-bottom-up-white-6.3);">
<circle cx="100" cy="300" r="2"/>
</g>
<g data-object="1-7" style="fill: url(#pattern-hatched-bottom-up-white-7.2);">
<circle cx="50" cy="350" r="2"/>
</g>
<g data-object="4-2" style="fill: url(#pattern-hatched-bottom-up-white-2.5);">
<circle cx="200" cy="100" r="2"/>
</g>
<g data-object="7-4" style="fill: url(#pattern-hatched-bottom-up-white-4.8);">
<circle cx="350" cy="200" r="2"/>
</g>
<g data-object="6-8" style="fill: url(#pattern-hatched-bottom-up-white-8.7);">
<circle cx="300" cy="400" r="2"/>
</g>
<g data-object="6-4" style="fill: url(#pattern-hatched-bottom-up-white-4.7);">
<circle cx="300" cy="200" r="2"/>
</g>
<g data-object="1-0" style="fill: url(#pattern-hatched-bottom-up-white-0.2);">
<circle cx="50" cy="0" r="2"/>
</g>
<g data-object="0-1" style="fill: url(#pattern-hatched-bottom-up-white-1.1);">
<circle cx="0" cy="50" r="2"/>
</g>
<g data-object="3-2" style="fill: url(#pattern-hatched-bottom-up-white-2.4);">
<circle cx="150" cy="100" r="2"/>
</g>
<g data-object="4-3" style="fill: url(#pattern-hatched-bottom-up-white-3.5);">
<circle cx="200" cy="150" r="2"/>
</g>
<g data-object="2-5" style="fill: url(#pattern-hatched-bottom-up-white-5.3);">
<circle cx="100" cy="250" r="2"/>
</g>
<g data-object="1-5" style="fill: url(#pattern-hatched-bottom-up-white-5.2);">
<circle cx="50" cy="250" r="2"/>
</g>
<g data-object="5-5" style="fill: url(#pattern-hatched-bottom-up-white-5.6);">
<circle cx="250" cy="250" r="2"/>
</g>
<g data-object="3-8" style="fill: url(#pattern-hatched-bottom-up-white-8.4);">
<circle cx="150" cy="400" r="2"/>
</g>
<g data-object="0-0" style="fill: url(#pattern-hatched-bottom-up-white-0.1);">
<circle cx="0" cy="0" r="2"/>
</g>
<g data-object="8-8" style="fill: url(#pattern-hatched-bottom-up-white-8.9);">
<circle cx="400" cy="400" r="2"/>
</g>
</g>
<g class="layer" data-layer="root"/>
<defs>
<pattern height="13" id="pattern-hatched-bottom-up-white-6.5" patternUnits="userSpaceOnUse" viewBox="0,0,6.5,6.5" width="13">
<polygon fill="#ffffff" points="0,0 1.625,0 0,1.625"/>
<polygon fill="#ffffff" points="0,6.5 6.5,0 6.5,1.625 1.625,6.5"/>
</pattern>
<pattern height="11" id="pattern-hatched-bottom-up-white-5.5" patternUnits="userSpaceOnUse" viewBox="0,0,5.5,5.5" width="11">
<polygon fill="#ffffff" points="0,0 1.375,0 0,1.375"/>
<polygon fill="#ffffff" points="0,5.5 5.5,0 5.5,1.375 1.375,5.5"/>
</pattern>
<pattern height="0.6" id="pattern-hatched-bottom-up-white-0.3" patternUnits="userSpaceOnUse" viewBox="0,0,0.3,0.3" width="0.6">
<polygon fill="#ffffff" points="0,0 0.075,0 0,0.075"/>
<polygon fill="#ffffff" points="0,0.3 0.3,0 0.3,0.075 0.075,0.3"/>
</pattern>
<pattern height="9.2" id="pattern-hatched-bottom-up-white-4.6" patternUnits="userSpaceOnUse" viewBox="0,0,4.6,4.6" width="9.2">
<polygon fill="#ffffff" points="0,0 1.15,0 0,1.15"/>
<polygon fill="#ffffff" points="0,4.6 4.6,0 4.6,1.15 1.15,4.6"/>
</pattern>
<pattern height="3.2" id="pattern-hatched-bottom-up-white-1.6" patternUnits="userSpaceOnUse" viewBox="0,0,1.6,1.6" width="3.2">
<polygon fill="#ffffff" points="0,0 0.4,0 0,0.4"/>
<polygon fill="#ffffff" points="0,1.6 1.6,0 1.6,0.4 0.4,1.6"/>
</pattern>
<pattern height="3.4" id="pattern-hatched-bottom-up-white-1.7" patternUnits="userSpaceOnUse" viewBox="0,0,1.7,1.7" width="3.4">
<polygon fill="#ffffff" points="0,0 0.425,0 0,0.425"/>
<polygon fill="#ffffff" points="0,1.7 1.7,0 1.7,0.425 0.425,1.7"/>
</pattern>
<pattern height="10.2" id="pattern-hatched-bottom-up-white-5.1" patternUnits="userSpaceOnUse" viewBox="0,0,5.1,5.1" width="10.2">
<polygon fill="#ffffff" points="0,0 1.275,0 0,1.275"/>
<polygon fill="#ffffff" points="0,5.1 5.1,0 5.1,1.275 1.275,5.1"/>
</pattern>
<pattern height="7.8" id="pattern-hatched-bottom-up-white-3.9" patternUnits="userSpaceOnUse" viewBox="0,0,3.9,3.9" width="7.8">
<polygon fill="#ffffff" points="0,0 0.975,0 0,0.975"/>
<polygon fill="#ffffff" points="0,3.9 3.9,0 3.9,0.975 0.975,3.9"/>
</pattern>
<pattern height="13.2" id="pattern-hatched-bottom-up-white-6.6" patternUnits="userSpaceOnUse" viewBox="0,0,6.6,6.6" width="13.2">
<polygon fill="#ffffff" points="0,0 1.65,0 0,1.65"/>
<polygon fill="#ffffff" points="0,6.6 6.6,0 6.6,1.65 1.65,6.6"/>
</pattern>
<pattern height="12.4" id="pattern-hatched-bottom-up-white-6.2" patternUnits="userSpaceOnUse" viewBox="0,0,6.2,6.2" width="12.4">
<polygon fill="#ffffff" points="0,0 1.55,0 0,1.55"/>
<polygon fill="#ffffff" points="0,6.2 6.2,0 6.2,1.55 1.55,6.2"/>
</pattern>
<pattern height="5.8" id="pattern-hatched-bottom-up-white-2.9" patternUnits="userSpaceOnUse" viewBox="0,0,2.9,2.9" width="5.8">
<polygon fill="#ffffff" points="0,0 0.725,0 0,0.725"/>
<polygon fill="#ffffff" points="0,2.9 2.9,0 2.9,0.725 0.725,2.9"/>
</pattern>
<pattern height="6.2" id="pattern-hatched-bottom-up-white-3.1" patternUnits="userSpaceOnUse" viewBox="0,0,3.1,3.1" width="6.2">
<polygon fill="#ffffff" points="0,0 0.775,0 0,0.775"/>
<polygon fill="#ffffff" points="0,3.1 3.1,0 3.1,0.775 0.775,3.1"/>
</pattern>
<pattern height="8.2" id="pattern-hatched-bottom-up-white-4.1" patternUnits="userSpaceOnUse" viewBox="0,0,4.1,4.1" width="8.2">
<polygon fill="#ffffff" points="0,0 1.025,0 0,1.025"/>
<polygon fill="#ffffff" points="0,4.1 4.1,0 4.1,1.025 1.025,4.1"/>
</pattern>
<pattern height="5.6" id="pattern-hatched-bottom-up-white-2.8" patternUnits="userSpaceOnUse" viewBox="0,0,2.8,2.8" width="5.6">
<polygon fill="#ffffff" points="0,0 0.7,0 0,0.7"/>
<polygon fill="#ffffff" points="0,2.8 2.8,0 2.8,0.7 0.7,2.8"/>
</pattern>
<pattern height="6.4" id="pattern-hatched-bottom-up-white-3.2" patternUnits="userSpaceOnUse" viewBox="0,0,3.2,3.2" width="6.4">
<polygon fill="#ffffff" points="0,0 0.8,0 0,0.8"/>
<polygon fill="#ffffff" points="0,3.2 3.2,0 3.2,0.8 0.8,3.2"/>
</pattern>
<pattern height="2.8" id="pattern-hatched-bottom-up-white-1.4" patternUnits="userSpaceOnUse" viewBox="0,0,1.4,1.4" width="2.8">
<polygon fill="#ffffff" points="0,0 0.35,0 0,0.35"/>
<polygon fill="#ffffff" points="0,1.4 1.4,0 1.4,0.35 0.35,1.4"/>
</pattern>
<pattern height="4.6" id="pattern-hatched-bottom-up-white-2.3" patternUnits="userSpaceOnUse" viewBox="0,0,2.3,2.3" width="4.6">
<polygon fill="#ffffff" points="0,0 0.575,0 0,0.575"/>
<polygon fill="#ffffff" points="0,2.3 2.3,0 2.3,0.575 0.575,2.3"/>
</pattern>
<pattern height="6.8" id="pattern-hatched-bottom-up-white-3.4" patternUnits="userSpaceOnUse" viewBox="0,0,3.4,3.4" width="6.8">
<polygon fill="#ffffff" points="0,0 0.85,0 0,0.85"/>
<polygon fill="#ffffff" points="0,3.4 3.4,0 3.4,0.85 0.85,3.4"/>
</pattern>
<pattern height="7.2" id="pattern-hatched-bottom-up-white-3.6" patternUnits="userSpaceOnUse" viewBox="0,0,3.6,3.6" width="7.2">
<polygon fill="#ffffff" points="0,0 0.9,0 0,0.9"/>
<polygon fill="#ffffff" points="0,3.6 3.6,0 3.6,0.9 0.9,3.6"/>
</pattern>
<pattern height="7.6" id="pattern-hatched-bottom-up-white-3.8" patternUnits="userSpaceOnUse" viewBox="0,0,3.8,3.8" width="7.6">
<polygon fill="#ffffff" points="0,0 0.95,0 0,0.95"/>
<polygon fill="#ffffff" points="0,3.8 3.8,0 3.8,0.95 0.95,3.8"/>
</pattern>
<pattern height="8.4" id="pattern-hatched-bottom-up-white-4.2" patternUnits="userSpaceOnUse" viewBox="0,0,4.2,4.2" width="8.4">
<polygon fill="#ffffff" points="0,0 1.05,0 0,1.05"/>
<polygon fill="#ffffff" points="0,4.2 4.2,0 4.2,1.05 1.05,4.2"/>
</pattern>
<pattern height="8.6" id="pattern-hatched-bottom-up-white-4.3" patternUnits="userSpaceOnUse" viewBox="0,0,4.3,4.3" width="8.6">
<polygon fill="#ffffff" points="0,0 1.075,0 0,1.075"/>
<polygon fill="#ffffff" points="0,4.3 4.3,0 4.3,1.075 1.075,4.3"/>
</pattern>
<pattern height="12.2" id="pattern-hatched-bottom-up-white-6.1" patternUnits="userSpaceOnUse" viewBox="0,0,6.1,6.1" width="12.2">
<polygon fill="#ffffff" points="0,0 1.525,0 0,1.525"/>
<polygon fill="#ffffff" points="0,6.1 6.1,0 6.1,1.525 1.525,6.1"/>
</pattern>
<pattern height="16.4" id="pattern-hatched-bottom-up-white-8.2" patternUnits="userSpaceOnUse" viewBox="0,0,8.2,8.2" width="16.4">
<polygon fill="#ffffff" points="0,0 2.05,0 0,2.05"/>
<polygon fill="#ffffff" points="0,8.2 8.2,0 8.2,2.05 2.05,8.2"/>
</pattern>
<pattern height="0.8" id="pattern-hatched-bottom-up-white-0.4" patternUnits="userSpaceOnUse" viewBox="0,0,0.4,0.4" width="0.8">
<polygon fill="#ffffff" points="0,0 0.1,0 0,0.1"/>
<polygon fill="#ffffff" points="0,0.4 0.4,0 0.4,0.1 0.1,0.4"/>
</pattern>
<pattern height="9" id="pattern-hatched-bottom-up-white-4.5" patternUnits="userSpaceOnUse" viewBox="0,0,4.5,4.5" width="9">
<polygon fill="#ffffff" points="0,0 1.125,0 0,1.125"/>
<polygon fill="#ffffff" points="0,4.5 4.5,0 4.5,1.125 1.125,4.5"/>
</pattern>
<pattern height="13.4" id="pattern-hatched-bottom-up-white-6.7" patternUnits="userSpaceOnUse" viewBox="0,0,6.7,6.7" width="13.4">
<polygon fill="#ffffff" points="0,0 1.675,0 0,1.675"/>
<polygon fill="#ffffff" points="0,6.7 6.7,0 6.7,1.675 1.675,6.7"/>
</pattern>
<pattern height="5.2" id="pattern-hatched-bottom-up-white-2.6" patternUnits="userSpaceOnUse" viewBox="0,0,2.6,2.6" width="5.2">
<polygon fill="#ffffff" points="0,0 0.65,0 0,0.65"/>
<polygon fill="#ffffff" points="0,2.6 2.6,0 2.6,0.65 0.65,2.6"/>
</pattern>
<pattern height="15" id="pattern-hatched-bottom-up-white-7.5" patternUnits="userSpaceOnUse" viewBox="0,0,7.5,7.5" width="15">
<polygon fill="#ffffff" points="0,0 1.875,0 0,1.875"/>
<polygon fill="#ffffff" points="0,7.5 7.5,0 7.5,1.875 1.875,7.5"/>
</pattern>
<pattern height="13.6" id="pattern-hatched-bottom-up-white-6.8" patternUnits="userSpaceOnUse" viewBox="0,0,6.8,6.8" width="13.6">
<polygon fill="#ffffff" points="0,0 1.7,0 0,1.7"/>
<polygon fill="#ffffff" points="0,6.8 6.8,0 6.8,1.7 1.7,6.8"/>
</pattern>
<pattern height="1.4" id="pattern-hatched-bottom-up-white-0.7" patternUnits="userSpaceOnUse" viewBox="0,0,0.7,0.7" width="1.4">
<polygon fill="#ffffff" points="0,0 0.175,0 0,0.175"/>
<polygon fill="#ffffff" points="0,0.7 0.7,0 0.7,0.175 0.175,0.7"/>
</pattern>
<pattern height="4.2" id="pattern-hatched-bottom-up-white-2.1" patternUnits="userSpaceOnUse" viewBox="0,0,2.1,2.1" width="4.2">
<polygon fill="#ffffff" points="0,0 0.525,0 0,0.525"/>
<polygon fill="#ffffff" points="0,2.1 2.1,0 2.1,0.525 0.525,2.1"/>
</pattern>
<pattern height="16.2" id="pattern-hatched-bottom-up-white-8.1" patternUnits="userSpaceOnUse" viewBox="0,0,8.1,8.1" width="16.2">
<polygon fill="#ffffff" points="0,0 2.025,0 0,2.025"/>
<polygon fill="#ffffff" points="0,8.1 8.1,0 8.1,2.025 2.025,8.1"/>
</pattern>
<pattern height="11.6" id="pattern-hatched-bottom-up-white-5.8" patternUnits="userSpaceOnUse" viewBox="0,0,5.8,5.8" width="11.6">
<polygon fill="#ffffff" points="0,0 1.45,0 0,1.45"/>
<polygon fill="#ffffff" points="0,5.8 5.8,0 5.8,1.45 1.45,5.8"/>
</pattern>
<pattern height="11.8" id="pattern-hatched-bottom-up-white-5.9" patternUnits="userSpaceOnUse" viewBox="0,0,5.9,5.9" width="11.8">
<polygon fill="#ffffff" points="0,0 1.475,0 0,1.475"/>
<polygon fill="#ffffff" points="0,5.9 5.9,0 5.9,1.475 1.475,5.9"/>
</pattern>
<pattern height="1.8" id="pattern-hatched-bottom-up-white-0.9" patternUnits="userSpaceOnUse" viewBox="0,0,0.9,0.9" width="1.8">
<polygon fill="#ffffff" points="0,0 0.225,0 0,0.225"/>
<polygon fill="#ffffff" points="0,0.9 0.9,0 0.9,0.225 0.225,0.9"/>
</pattern>
<pattern height="3.8" id="pattern-hatched-bottom-up-white-1.9" patternUnits="userSpaceOnUse" viewBox="0,0,1.9,1.9" width="3.8">
<polygon fill="#ffffff" points="0,0 0.475,0 0,0.475"/>
<polygon fill="#ffffff" points="0,1.9 1.9,0 1.9,0.475 0.475,1.9"/>
</pattern>
<pattern height="8.8" id="pattern-hatched-bottom-up-white-4.4" patternUnits="userSpaceOnUse" viewBox="0,0,4.4,4.4" width="8.8">
<polygon fill="#ffffff" points="0,0 1.1,0 0,1.1"/>
<polygon fill="#ffffff" points="0,4.4 4.4,0 4.4,1.1 1.1,4.4"/>
</pattern>
<pattern height="14.8" id="pattern-hatched-bottom-up-white-7.4" patternUnits="userSpaceOnUse" viewBox="0,0,7.4,7.4" width="14.8">
<polygon fill="#ffffff" points="0,0 1.85,0 0,1.85"/>
<polygon fill="#ffffff" points="0,7.4 7.4,0 7.4,1.85 1.85,7.4"/>
</pattern>
<pattern height="3.6" id="pattern-hatched-bottom-up-white-1.8" patternUnits="userSpaceOnUse" viewBox="0,0,1.8,1.8" width="3.6">
<polygon fill="#ffffff" points="0,0 0.45,0 0,0.45"/>
<polygon fill="#ffffff" points="0,1.8 1.8,0 1.8,0.45 0.45,1.8"/>
</pattern>
<pattern height="16.6" id="pattern-hatched-bottom-up-white-8.3" patternUnits="userSpaceOnUse" viewBox="0,0,8.3,8.3" width="16.6">
<polygon fill="#ffffff" points="0,0 2.075,0 0,2.075"/>
<polygon fill="#ffffff" points="0,8.3 8.3,0 8.3,2.075 2.075,8.3"/>
</pattern>
<pattern height="14.6" id="pattern-hatched-bottom-up-white-7.3" patternUnits="userSpaceOnUse" viewBox="0,0,7.3,7.3" width="14.6">
<polygon fill="#ffffff" points="0,0 1.825,0 0,1.825"/>
<polygon fill="#ffffff" points="0,7.3 7.3,0 7.3,1.825 1.825,7.3"/>
</pattern>
<pattern height="4.4" id="pattern-hatched-bottom-up-white-2.2" patternUnits="userSpaceOnUse" viewBox="0,0,2.2,2.2" width="4.4">
<polygon fill="#ffffff" points="0,0 0.55,0 0,0.55"/>
<polygon fill="#ffffff" points="0,2.2 2.2,0 2.2,0.55 0.55,2.2"/>
</pattern>
<pattern height="1" id="pattern-hatched-bottom-up-white-0.5" patternUnits="userSpaceOnUse" viewBox="0,0,0.5,0.5" width="1">
<polygon fill="#ffffff" points="0,0 0.125,0 0,0.125"/>
<polygon fill="#ffffff" points="0,0.5 0.5,0 0.5,0.125 0.125,0.5"/>
</pattern>
<pattern height="1.2" id="pattern-hatched-bottom-up-white-0.6" patternUnits="userSpaceOnUse" viewBox="0,0,0.6,0.6" width="1.2">
<polygon fill="#ffffff" points="0,0 0.15,0 0,0.15"/>
<polygon fill="#ffffff" points="0,0.6 0.6,0 0.6,0.15 0.15,0.6"/>
</pattern>
<pattern height="9.8" id="pattern-hatched-bottom-up-white-4.9" patternUnits="userSpaceOnUse" viewBox="0,0,4.9,4.9" width="9.8">
<polygon fill="#ffffff" points="0,0 1.225,0 0,1.225"/>
<polygon fill="#ffffff" points="0,4.9 4.9,0 4.9,1.225 1.225,4.9"/>
</pattern>
<pattern height="3" id="pattern-hatched-bottom-up-white-1.5" patternUnits="userSpaceOnUse" viewBox="0,0,1.5,1.5" width="3">
<polygon fill="#ffffff" points="0,0 0.375,0 0,0.375"/>
<polygon fill="#ffffff" points="0,1.5 1.5,0 1.5,0.375 0.375,1.5"/>
</pattern>
<pattern height="7.4" id="pattern-hatched-bottom-up-white-3.7" patternUnits="userSpaceOnUse" viewBox="0,0,3.7,3.7" width="7.4">
<polygon fill="#ffffff" points="0,0 0.925,0 0,0.925"/>
<polygon fill="#ffffff" points="0,3.7 3.7,0 3.7,0.925 0.925,3.7"/>
</pattern>
<pattern height="15.8" id="pattern-hatched-bottom-up-white-7.9" patternUnits="userSpaceOnUse" viewBox="0,0,7.9,7.9" width="15.8">
<polygon fill="#ffffff" points="0,0 1.975,0 0,1.975"/>
<polygon fill="#ffffff" points="0,7.9 7.9,0 7.9,1.975 1.975,7.9"/>
</pattern>
<pattern height="11.4" id="pattern-hatched-bottom-up-white-5.7" patternUnits="userSpaceOnUse" viewBox="0,0,5.7,5.7" width="11.4">
<polygon fill="#ffffff" points="0,0 1.425,0 0,1.425"/>
<polygon fill="#ffffff" points="0,5.7 5.7,0 5.7,1.425 1.425,5.7"/>
</pattern>
<pattern height="15.2" id="pattern-hatched-bottom-up-white-7.6" patternUnits="userSpaceOnUse" viewBox="0,0,7.6,7.6" width="15.2">
<polygon fill="#ffffff" points="0,0 1.9,0 0,1.9"/>
<polygon fill="#ffffff" points="0,7.6 7.6,0 7.6,1.9 1.9,7.6"/>
</pattern>
<pattern height="13.8" id="pattern-hatched-bottom-up-white-6.9" patternUnits="userSpaceOnUse" viewBox="0,0,6.9,6.9" width="13.8">
<polygon fill="#ffffff" points="0,0 1.725,0 0,1.725"/>
<polygon fill="#ffffff" points="0,6.9 6.9,0 6.9,1.725 1.725,6.9"/>
</pattern>
<pattern height="15.6" id="pattern-hatched-bottom-up-white-7.8" patternUnits="userSpaceOnUse" viewBox="0,0,7.8,7.8" width="15.6">
<polygon fill="#ffffff" points="0,0 1.95,0 0,1.95"/>
<polygon fill="#ffffff" points="0,7.8 7.8,0 7.8,1.95 1.95,7.8"/>
</pattern>
<pattern height="12.8" id="pattern-hatched-bottom-up-white-6.4" patternUnits="userSpaceOnUse" viewBox="0,0,6.4,6.4" width="12.8">
<polygon fill="#ffffff" points="0,0 1.6,0 0,1.6"/>
<polygon fill="#ffffff" points="0,6.4 6.4,0 6.4,1.6 1.6,6.4"/>
</pattern>
<pattern height="1.6" id="pattern-hatched-bottom-up-white-0.8" patternUnits="userSpaceOnUse" viewBox="0,0,0.8,0.8" width="1.6">
<polygon fill="#ffffff" points="0,0 0.2,0 0,0.2"/>
<polygon fill="#ffffff" points="0,0.8 0.8,0 0.8,0.2 0.2,0.8"/>
</pattern>
<pattern height="14.2" id="pattern-hatched-bottom-up-white-7.1" patternUnits="userSpaceOnUse" viewBox="0,0,7.1,7.1" width="14.2">
<polygon fill="#ffffff" points="0,0 1.775,0 0,1.775"/>
<polygon fill="#ffffff" points="0,7.1 7.1,0 7.1,1.775 1.775,7.1"/>
</pattern>
<pattern height="17.2" id="pattern-hatched-bottom-up-white-8.6" patternUnits="userSpaceOnUse" viewBox="0,0,8.6,8.6" width="17.2">
<polygon fill="#ffffff" points="0,0 2.15,0 0,2.15"/>
<polygon fill="#ffffff" points="0,8.6 8.6,0 8.6,2.15 2.15,8.6"/>
</pattern>
<pattern height="2.6" id="pattern-hatched-bottom-up-white-1.3" patternUnits="userSpaceOnUse" viewBox="0,0,1.3,1.3" width="2.6">
<polygon fill="#ffffff" points="0,0 0.325,0 0,0.325"/>
<polygon fill="#ffffff" points="0,1.3 1.3,0 1.3,0.325 0.325,1.3"/>
</pattern>
<pattern height="17.6" id="pattern-hatched-bottom-up-white-8.8" patternUnits="userSpaceOnUse" viewBox="0,0,8.8,8.8" width="17.6">
<polygon fill="#ffffff" points="0,0 2.2,0 0,2.2"/>
<polygon fill="#ffffff" points="0,8.8 8.8,0 8.8,2.2 2.2,8.8"/>
</pattern>
<pattern height="10.8" id="pattern-hatched-bottom-up-white-5.4" patternUnits="userSpaceOnUse" viewBox="0,0,5.4,5.4" width="10.8">
<polygon fill="#ffffff" points="0,0 1.35,0 0,1.35"/>
<polygon fill="#ffffff" points="0,5.4 5.4,0 5.4,1.35 1.35,5.4"/>
</pattern>
<pattern height="5.4" id="pattern-hatched-bottom-up-white-2.7" patternUnits="userSpaceOnUse" viewBox="0,0,2.7,2.7" width="5.4">
<polygon fill="#ffffff" points="0,0 0.675,0 0,0.675"/>
<polygon fill="#ffffff" points="0,2.7 2.7,0 2.7,0.675 0.675,2.7"/>
</pattern>
<pattern height="15.4" id="pattern-hatched-bottom-up-white-7.7" patternUnits="userSpaceOnUse" viewBox="0,0,7.7,7.7" width="15.4">
<polygon fill="#ffffff" points="0,0 1.925,0 0,1.925"/>
<polygon fill="#ffffff" points="0,7.7 7.7,0 7.7,1.925 1.925,7.7"/>
</pattern>
<pattern height="2.4" id="pattern-hatched-bottom-up-white-1.2" patternUnits="userSpaceOnUse" viewBox="0,0,1.2,1.2" width="2.4">
<polygon fill="#ffffff" points="0,0 0.3,0 0,0.3"/>
<polygon fill="#ffffff" points="0,1.2 1.2,0 1.2,0.3 0.3,1.2"/>
</pattern>
<pattern height="6.6" id="pattern-hatched-bottom-up-white-3.3" patternUnits="userSpaceOnUse" viewBox="0,0,3.3,3.3" width="6.6">
<polygon fill="#ffffff" points="0,0 0.825,0 0,0.825"/>
<polygon fill="#ffffff" points="0,3.3 3.3,0 3.3,0.825 0.825,3.3"/>
</pattern>
<pattern height="17" id="pattern-hatched-bottom-up-white-8.5" patternUnits="userSpaceOnUse" viewBox="0,0,8.5,8.5" width="17">
<polygon fill="#ffffff" points="0,0 2.125,0 0,2.125"/>
<polygon fill="#ffffff" points="0,8.5 8.5,0 8.5,2.125 2.125,8.5"/>
</pattern>
<pattern height="12.6" id="pattern-hatched-bottom-up-white-6.3" patternUnits="userSpaceOnUse" viewBox="0,0,6.3,6.3" width="12.6">
<polygon fill="#ffffff" points="0,0 1.575,0 0,1.575"/>
<polygon fill="#ffffff" points="0,6.3 6.3,0 6.3,1.575 1.575,6.3"/>
</pattern>
<pattern height="14.4" id="pattern-hatched-bottom-up-white-7.2" patternUnits="userSpaceOnUse" viewBox="0,0,7.2,7.2" width="14.4">
<polygon fill="#ffffff" points="0,0 1.8,0 0,1.8"/>
<polygon fill="#ffffff" points="0,7.2 7.2,0 7.2,1.8 1.8,7.2"/>
</pattern>
<pattern height="5" id="pattern-hatched-bottom-up-white-2.5" patternUnits="userSpaceOnUse" viewBox="0,0,2.5,2.5" width="5">
<polygon fill="#ffffff" points="0,0 0.625,0 0,0.625"/>
<polygon fill="#ffffff" points="0,2.5 2.5,0 2.5,0.625 0.625,2.5"/>
</pattern>
<pattern height="9.6" id="pattern-hatched-bottom-up-white-4.8" patternUnits="userSpaceOnUse" viewBox="0,0,4.8,4.8" width="9.6">
<polygon fill="#ffffff" points="0,0 1.2,0 0,1.2"/>
<polygon fill="#ffffff" points="0,4.8 4.8,0 4.8,1.2 1.2,4.8"/>
</pattern>
<pattern height="17.4" id="pattern-hatched-bottom-up-white-8.7" patternUnits="userSpaceOnUse" viewBox="0,0,8.7,8.7" width="17.4">
<polygon fill="#ffffff" points="0,0 2.175,0 0,2.175"/>
<polygon fill="#ffffff" points="0,8.7 8.7,0 8.7,2.175 2.175,8.7"/>
</pattern>
<pattern height="9.4" id="pattern-hatched-bottom-up-white-4.7" patternUnits="userSpaceOnUse" viewBox="0,0,4.7,4.7" width="9.4">
<polygon fill="#ffffff" points="0,0 1.175,0 0,1.175"/>
<polygon fill="#ffffff" points="0,4.7 4.7,0 4.7,1.175 1.175,4.7"/>
</pattern>
<pattern height="0.4" id="pattern-hatched-bottom-up-white-0.2" patternUnits="userSpaceOnUse" viewBox="0,0,0.2,0.2" width="0.4">
<polygon fill="#ffffff" points="0,0 0.05,0 0,0.05"/>
<polygon fill="#ffffff" points="0,0.2 0.2,0 0.2,0.05 0.05,0.2"/>
</pattern>
<pattern height="2.2" id="pattern-hatched-bottom-up-white-1.1" patternUnits="userSpaceOnUse" viewBox="0,0,1.1,1.1" width="2.2">
<polygon fill="#ffffff" points="0,0 0.275,0 0,0.275"/>
<polygon fill="#ffffff" points="0,1.1 1.1,0 1.1,0.275 0.275,1.1"/>
</pattern>
<pattern height="4.8" id="pattern-hatched-bottom-up-white-2.4" patternUnits="userSpaceOnUse" viewBox="0,0,2.4,2.4" width="4.8">
<polygon fill="#ffffff" points="0,0 0.6,0 0,0.6"/>
<polygon fill="#ffffff" points="0,2.4 2.4,0 2.4,0.6 0.6,2.4"/>
</pattern>
<pattern height="7" id="pattern-hatched-bottom-up-white-3.5" patternUnits="userSpaceOnUse" viewBox="0,0,3.5,3.5" width="7">
<polygon fill="#ffffff" points="0,0 0.875,0 0,0.875"/>
<polygon fill="#ffffff" points="0,3.5 3.5,0 3.5,0.875 0.875,3.5"/>
</pattern>
<pattern height="10.6" id="pattern-hatched-bottom-up-white-5.3" patternUnits="userSpaceOnUse" viewBox="0,0,5.3,5.3" width="10.6">
<polygon fill="#ffffff" points="0,0 1.325,0 0,1.325"/>
<polygon fill="#ffffff" points="0,5.3 5.3,0 5.3,1.325 1.325,5.3"/>
</pattern>
<pattern height="10.4" id="pattern-hatched-bottom-up-white-5.2" patternUnits="userSpaceOnUse" viewBox="0,0,5.2,5.2" width="10.4">
<polygon fill="#ffffff" points="0,0 1.3,0 0,1.3"/>
<polygon fill="#ffffff" points="0,5.2 5.2,0 5.2,1.3 1.3,5.2"/>
</pattern>
<pattern height="11.2" id="pattern-hatched-bottom-up-white-5.6" patternUnits="userSpaceOnUse" viewBox="0,0,5.6,5.6" width="11.2">
<polygon fill="#ffffff" points="0,0 1.4,0 0,1.4"/>
<polygon fill="#ffffff" points="0,5.6 5.6,0 5.6,1.4 1.4,5.6"/>
</pattern>
<pattern height="16.8" id="pattern-hatched-bottom-up-white-8.4" patternUnits="userSpaceOnUse" viewBox="0,0,8.4,8.4" width="16.8">
<polygon fill="#ffffff" points="0,0 2.1,0 0,2.1"/>
<polygon fill="#ffffff" points="0,8.4 8.4,0 8.4,2.1 2.1,8.4"/>
</pattern>
<pattern height="0.2" id="pattern-hatched-bottom-up-white-0.1" patternUnits="userSpaceOnUse" viewBox="0,0,0.1,0.1" width="0.2">
<polygon fill="#ffffff" points="0,0 0.025,0 0,0.025"/>
<polygon fill="#ffffff" points="0,0.1 0.1,0 0.1,0.025 0.025,0.1"/>
</pattern>
<pattern height="17.8" id="pattern-hatched-bottom-up-white-8.9" patternUnits="userSpaceOnUse" viewBox="0,0,8.9,8.9" width="17.8">
<polygon fill="#ffffff" points="0,0 2.225,0 0,2.225"/>
<polygon fill="#ffffff" points="0,8.9 8.9,0 8.9,2.225 2.225,8.9"/>
</pattern>
</defs>
</svg>