{
    "info": {
        "name": "Tipping Point",
        "bpm": 116.842
    },
    "arrangements": {
        "Arrangement": {
            "Tempo": {
                "0": {
                    "length": 46464,
                    "name": "Tempo",
                    "data": {
                        "0.0": 0.4833333194255829,
                        "344.0": 0.4736841917037964,
                        "352.0": 0.6052631735801697,
                        "356.0000104904175": 0.36666667461395264,
                        "484.00000286102295": 0.36666667461395264
                    }
                }
            },
            "kick": {
                "4608": {
                    "length": 1536,
                    "name": "kick",
                    "data": {
                        "notes": {
                            "0": {
                                "key": "C5",
                                "pitch": 84,
                                "length": 0,
                                "velocity": 100
                            },
                            "96": {
                                "key": "C5",
                                "pitch": 84,
                                "length": 0,
                                "velocity": 100
                            },
                            "192": {
                                "key": "C5",
                                "pitch": 84,
                                "length": 0,
                                "velocity": 100
                            },
                            "288": {
                                "key": "C5",
                                "pitch": 84,
                                "length": 0,
                                "velocity": 100
                            },
                            "384": {
                                "key": "C5",
                                "pitch": 84,
                                "length": 0,
                                "velocity": 100
                            },
                            "480": {
                                "key": "C5",
                                "pitch": 84,
                                "length": 0,
                                "velocity": 100
                            },
                            "576": {
                                "key": "C5",
                                "pitch": 84,
                                "length": 0,
                                "velocity": 100
                            },
                            "672": {
                                "key": "C5",
                                "pitch": 84,
                                "length": 0,
                                "velocity": 100
                            },
                            "768": {
                                "key": "C5",
                                "pitch": 84,
                                "length": 0,
                                "velocity": 100
                            },
                            "864": {
                                "key": "C5",
                                "pitch": 84,
                                "length": 0,
                                "velocity": 100
                            },
                            "960": {
                                "key": "C5",
                                "pitch": 84,
                                "length": 0,
                                "velocity": 100
                            },
                            "1056": {
                                "key": "C5",
                                "pitch": 84,
                                "length": 0,
                                "velocity": 100
                            },
                            "1152": {
                                "key": "C5",
                                "pitch": 84,
                                "length": 0,
                                "velocity": 100
                            },
                            "1248": {
                                "key": "C5",
                                "pitch": 84,
                                "length": 0,
                                "velocity": 100
                            },
                            "1344": {
                                "key": "C5",
                                "pitch": 84,
                                "length": 0,
                                "velocity": 100
                            },
                            "1440": {
                                "key": "C5",
                                "pitch": 84,
                                "length": 0,
                                "velocity": 100
                            }
                        },
                        "length": 0
                    }
                },
                "6144": {
                    "length": 1536,
                    "name": "kick",
                    "data": {
                        "notes": {
                            "0": {
                                "key": "C5",
                                "pitch": 84,
                                "length": 0,
                                "velocity": 100
                            },
                            "96": {
                                "key": "C5",
                                "pitch": 84,
                                "length": 0,
                                "velocity": 100
                            },
                            "192": {
                                "key": "C5",
                                "pitch": 84,
                                "length": 0,
                                "velocity": 100
                            },
                            "288": {
                                "key": "C5",
                                "pitch": 84,
                                "length": 0,
                                "velocity": 100
                            },
                            "384": {
                                "key": "C5",
                                "pitch": 84,
                                "length": 0,
                                "velocity": 100
                            },
                            "480": {
                                "key": "C5",
                                "pitch": 84,
                                "length": 0,
                                "velocity": 100
                            },
                            "576": {
                                "key": "C5",
                                "pitch": 84,
                                "length": 0,
                                "velocity": 100
                            },
                            "672": {
                                "key": "C5",
                                "pitch": 84,
                                "length": 0,
                                "velocity": 100
                            },
                            "768": {
                                "key": "C5",
                                "pitch": 84,
                                "length": 0,
                                "velocity": 100
                            },
                            "864": {
                                "key": "C5",
                                "pitch": 84,
                                "length": 0,
                                "velocity": 100
                            },
                            "960": {
                                "key": "C5",
                                "pitch": 84,
                                "length": 0,
                                "velocity": 100
                            },
                            "1056": {
                                "key": "C5",
                                "pitch": 84,
                                "length": 0,
                                "velocity": 100
                            },
                            "1152": {
                                "key": "C5",
                                "pitch": 84,
                                "length": 0,
                                "velocity": 100
                            },
                            "1248": {
                                "key": "C5",
                                "pitch": 84,
                                "length": 0,
                                "velocity": 100
                            },
                            "1344": {
                                "key": "C5",
                                "pitch": 84,
                                "length": 0,
                                "velocity": 100
                            },
                            "1440": {
                                "key": "C5",
                                "pitch": 84,
                                "length": 0,
                                "velocity": 100
                            }
                        },
                        "length": 0
                    }
                },
                "7680": {
                    "length": 1536,
                    "name": "kick",
                    "data": {
                        "notes": {
                            "0": {
                                "key": "C5",
                                "pitch": 84,
                                "length": 0,
                                "velocity": 100
                            },
                            "96": {
                                "key": "C5",
                                "pitch": 84,
                                "length": 0,
                                "velocity": 100
                            },
                            "192": {
                                "key": "C5",
                                "pitch": 84,
                                "length": 0,
                                "velocity": 100
                            },
                            "288": {
                                "key": "C5",
                                "pitch": 84,
                                "length": 0,
                                "velocity": 100
                            },
                            "384": {
                                "key": "C5",
                                "pitch": 84,
                                "length": 0,
                                "velocity": 100
                            },
                            "480": {
                                "key": "C5",
                                "pitch": 84,
                                "length": 0,
                                "velocity": 100
                            },
                            "576": {
                                "key": "C5",
                                "pitch": 84,
                                "length": 0,
                                "velocity": 100
                            },
                            "672": {
                                "key": "C5",
                                "pitch": 84,
                                "length": 0,
                                "velocity": 100
                            },
                            "768": {
                                "key": "C5",
                                "pitch": 84,
                                "length": 0,
                                "velocity": 100
                            },
                            "864": {
                                "key": "C5",
                                "pitch": 84,
                                "length": 0,
                                "velocity": 100
                            },
                            "960": {
                                "key": "C5",
                                "pitch": 84,
                                "length": 0,
                                "velocity": 100
                            },
                            "1056": {
                                "key": "C5",
                                "pitch": 84,
                                "length": 0,
                                "velocity": 100
                            },
                            "1152": {
                                "key": "C5",
                                "pitch": 84,
                                "length": 0,
                                "velocity": 100
                            },
                            "1248": {
                                "key": "C5",
                                "pitch": 84,
                                "length": 0,
                                "velocity": 100
                            },
                            "1344": {
                                "key": "C5",
                                "pitch": 84,
                                "length": 0,
                                "velocity": 100
                            },
                            "1440": {
                                "key": "C5",
                                "pitch": 84,
                                "length": 0,
                                "velocity": 100
                            }
                        },
                        "length": 0
                    }
                },
                "9216": {
                    "length": 1536,
                    "name": "kick",
                    "data": {
                        "notes": {
                            "0": {
                                "key": "C5",
                                "pitch": 84,
                                "length": 0,
                                "velocity": 100
                            },
                            "96": {
                                "key": "C5",
                                "pitch": 84,
                                "length": 0,
                                "velocity": 100
                            },
                            "192": {
                                "key": "C5",
                                "pitch": 84,
                                "length": 0,
                                "velocity": 100
                            },
                            "288": {
                                "key": "C5",
                                "pitch": 84,
                                "length": 0,
                                "velocity": 100
                            },
                            "384": {
                                "key": "C5",
                                "pitch": 84,
                                "length": 0,
                                "velocity": 100
                            },
                            "480": {
                                "key": "C5",
                                "pitch": 84,
                                "length": 0,
                                "velocity": 100
                            },
                            "576": {
                                "key": "C5",
                                "pitch": 84,
                                "length": 0,
                                "velocity": 100
                            },
                            "672": {
                                "key": "C5",
                                "pitch": 84,
                                "length": 0,
                                "velocity": 100
                            },
                            "768": {
                                "key": "C5",
                                "pitch": 84,
                                "length": 0,
                                "velocity": 100
                            },
                            "864": {
                                "key": "C5",
                                "pitch": 84,
                                "length": 0,
                                "velocity": 100
                            },
                            "960": {
                                "key": "C5",
                                "pitch": 84,
                                "length": 0,
                                "velocity": 100
                            },
                            "1056": {
                                "key": "C5",
                                "pitch": 84,
                                "length": 0,
                                "velocity": 100
                            },
                            "1152": {
                                "key": "C5",
                                "pitch": 84,
                                "length": 0,
                                "velocity": 100
                            },
                            "1248": {
                                "key": "C5",
                                "pitch": 84,
                                "length": 0,
                                "velocity": 100
                            },
                            "1344": {
                                "key": "C5",
                                "pitch": 84,
                                "length": 0,
                                "velocity": 100
                            },
                            "1440": {
                                "key": "C5",
                                "pitch": 84,
                                "length": 0,
                                "velocity": 100
                            }
                        },
                        "length": 0
                    }
                },
                "10752": {
                    "length": 1536,
                    "name": "kick",
                    "data": {
                        "notes": {
                            "0": {
                                "key": "C5",
                                "pitch": 84,
                                "length": 0,
                                "velocity": 100
                            },
                            "96": {
                                "key": "C5",
                                "pitch": 84,
                                "length": 0,
                                "velocity": 100
                            },
                            "192": {
                                "key": "C5",
                                "pitch": 84,
                                "length": 0,
                                "velocity": 100
                            },
                            "288": {
                                "key": "C5",
                                "pitch": 84,
                                "length": 0,
                                "velocity": 100
                            },
                            "384": {
                                "key": "C5",
                                "pitch": 84,
                                "length": 0,
                                "velocity": 100
                            },
                            "480": {
                                "key": "C5",
                                "pitch": 84,
                                "length": 0,
                                "velocity": 100
                            },
                            "576": {
                                "key": "C5",
                                "pitch": 84,
                                "length": 0,
                                "velocity": 100
                            },
                            "672": {
                                "key": "C5",
                                "pitch": 84,
                                "length": 0,
                                "velocity": 100
                            },
                            "768": {
                                "key": "C5",
                                "pitch": 84,
                                "length": 0,
                                "velocity": 100
                            },
                            "864": {
                                "key": "C5",
                                "pitch": 84,
                                "length": 0,
                                "velocity": 100
                            },
                            "960": {
                                "key": "C5",
                                "pitch": 84,
                                "length": 0,
                                "velocity": 100
                            },
                            "1056": {
                                "key": "C5",
                                "pitch": 84,
                                "length": 0,
                                "velocity": 100
                            },
                            "1152": {
                                "key": "C5",
                                "pitch": 84,
                                "length": 0,
                                "velocity": 100
                            },
                            "1248": {
                                "key": "C5",
                                "pitch": 84,
                                "length": 0,
                                "velocity": 100
                            },
                            "1344": {
                                "key": "C5",
                                "pitch": 84,
                                "length": 0,
                                "velocity": 100
                            },
                            "1440": {
                                "key": "C5",
                                "pitch": 84,
                                "length": 0,
                                "velocity": 100
                            }
                        },
                        "length": 0
                    }
                },
                "18432": {
                    "length": 1536,
                    "name": "kick",
                    "data": {
                        "notes": {
                            "0": {
                                "key": "C5",
                                "pitch": 84,
                                "length": 0,
                                "velocity": 100
                            },
                            "96": {
                                "key": "C5",
                                "pitch": 84,
                                "length": 0,
                                "velocity": 100
                            },
                            "192": {
                                "key": "C5",
                                "pitch": 84,
                                "length": 0,
                                "velocity": 100
                            },
                            "288": {
                                "key": "C5",
                                "pitch": 84,
                                "length": 0,
                                "velocity": 100
                            },
                            "384": {
                                "key": "C5",
                                "pitch": 84,
                                "length": 0,
                                "velocity": 100
                            },
                            "480": {
                                "key": "C5",
                                "pitch": 84,
                                "length": 0,
                                "velocity": 100
                            },
                            "576": {
                                "key": "C5",
                                "pitch": 84,
                                "length": 0,
                                "velocity": 100
                            },
                            "672": {
                                "key": "C5",
                                "pitch": 84,
                                "length": 0,
                                "velocity": 100
                            },
                            "768": {
                                "key": "C5",
                                "pitch": 84,
                                "length": 0,
                                "velocity": 100
                            },
                            "864": {
                                "key": "C5",
                                "pitch": 84,
                                "length": 0,
                                "velocity": 100
                            },
                            "960": {
                                "key": "C5",
                                "pitch": 84,
                                "length": 0,
                                "velocity": 100
                            },
                            "1056": {
                                "key": "C5",
                                "pitch": 84,
                                "length": 0,
                                "velocity": 100
                            },
                            "1152": {
                                "key": "C5",
                                "pitch": 84,
                                "length": 0,
                                "velocity": 100
                            },
                            "1248": {
                                "key": "C5",
                                "pitch": 84,
                                "length": 0,
                                "velocity": 100
                            },
                            "1344": {
                                "key": "C5",
                                "pitch": 84,
                                "length": 0,
                                "velocity": 100
                            },
                            "1440": {
                                "key": "C5",
                                "pitch": 84,
                                "length": 0,
                                "velocity": 100
                            }
                        },
                        "length": 0
                    }
                },
                "19968": {
                    "length": 1536,
                    "name": "kick",
                    "data": {
                        "notes": {
                            "0": {
                                "key": "C5",
                                "pitch": 84,
                                "length": 0,
                                "velocity": 100
                            },
                            "96": {
                                "key": "C5",
                                "pitch": 84,
                                "length": 0,
                                "velocity": 100
                            },
                            "192": {
                                "key": "C5",
                                "pitch": 84,
                                "length": 0,
                                "velocity": 100
                            },
                            "288": {
                                "key": "C5",
                                "pitch": 84,
                                "length": 0,
                                "velocity": 100
                            },
                            "384": {
                                "key": "C5",
                                "pitch": 84,
                                "length": 0,
                                "velocity": 100
                            },
                            "480": {
                                "key": "C5",
                                "pitch": 84,
                                "length": 0,
                                "velocity": 100
                            },
                            "576": {
                                "key": "C5",
                                "pitch": 84,
                                "length": 0,
                                "velocity": 100
                            },
                            "672": {
                                "key": "C5",
                                "pitch": 84,
                                "length": 0,
                                "velocity": 100
                            },
                            "768": {
                                "key": "C5",
                                "pitch": 84,
                                "length": 0,
                                "velocity": 100
                            },
                            "864": {
                                "key": "C5",
                                "pitch": 84,
                                "length": 0,
                                "velocity": 100
                            },
                            "960": {
                                "key": "C5",
                                "pitch": 84,
                                "length": 0,
                                "velocity": 100
                            },
                            "1056": {
                                "key": "C5",
                                "pitch": 84,
                                "length": 0,
                                "velocity": 100
                            },
                            "1152": {
                                "key": "C5",
                                "pitch": 84,
                                "length": 0,
                                "velocity": 100
                            },
                            "1248": {
                                "key": "C5",
                                "pitch": 84,
                                "length": 0,
                                "velocity": 100
                            },
                            "1344": {
                                "key": "C5",
                                "pitch": 84,
                                "length": 0,
                                "velocity": 100
                            },
                            "1440": {
                                "key": "C5",
                                "pitch": 84,
                                "length": 0,
                                "velocity": 100
                            }
                        },
                        "length": 0
                    }
                },
                "21504": {
                    "length": 1536,
                    "name": "kick",
                    "data": {
                        "notes": {
                            "0": {
                                "key": "C5",
                                "pitch": 84,
                                "length": 0,
                                "velocity": 100
                            },
                            "96": {
                                "key": "C5",
                                "pitch": 84,
                                "length": 0,
                                "velocity": 100
                            },
                            "192": {
                                "key": "C5",
                                "pitch": 84,
                                "length": 0,
                                "velocity": 100
                            },
                            "288": {
                                "key": "C5",
                                "pitch": 84,
                                "length": 0,
                                "velocity": 100
                            },
                            "384": {
                                "key": "C5",
                                "pitch": 84,
                                "length": 0,
                                "velocity": 100
                            },
                            "480": {
                                "key": "C5",
                                "pitch": 84,
                                "length": 0,
                                "velocity": 100
                            },
                            "576": {
                                "key": "C5",
                                "pitch": 84,
                                "length": 0,
                                "velocity": 100
                            },
                            "672": {
                                "key": "C5",
                                "pitch": 84,
                                "length": 0,
                                "velocity": 100
                            },
                            "768": {
                                "key": "C5",
                                "pitch": 84,
                                "length": 0,
                                "velocity": 100
                            },
                            "864": {
                                "key": "C5",
                                "pitch": 84,
                                "length": 0,
                                "velocity": 100
                            },
                            "960": {
                                "key": "C5",
                                "pitch": 84,
                                "length": 0,
                                "velocity": 100
                            },
                            "1056": {
                                "key": "C5",
                                "pitch": 84,
                                "length": 0,
                                "velocity": 100
                            },
                            "1152": {
                                "key": "C5",
                                "pitch": 84,
                                "length": 0,
                                "velocity": 100
                            },
                            "1248": {
                                "key": "C5",
                                "pitch": 84,
                                "length": 0,
                                "velocity": 100
                            },
                            "1344": {
                                "key": "C5",
                                "pitch": 84,
                                "length": 0,
                                "velocity": 100
                            },
                            "1440": {
                                "key": "C5",
                                "pitch": 84,
                                "length": 0,
                                "velocity": 100
                            }
                        },
                        "length": 0
                    }
                },
                "23040": {
                    "length": 1536,
                    "name": "kick",
                    "data": {
                        "notes": {
                            "0": {
                                "key": "C5",
                                "pitch": 84,
                                "length": 0,
                                "velocity": 100
                            },
                            "96": {
                                "key": "C5",
                                "pitch": 84,
                                "length": 0,
                                "velocity": 100
                            },
                            "192": {
                                "key": "C5",
                                "pitch": 84,
                                "length": 0,
                                "velocity": 100
                            },
                            "288": {
                                "key": "C5",
                                "pitch": 84,
                                "length": 0,
                                "velocity": 100
                            },
                            "384": {
                                "key": "C5",
                                "pitch": 84,
                                "length": 0,
                                "velocity": 100
                            },
                            "480": {
                                "key": "C5",
                                "pitch": 84,
                                "length": 0,
                                "velocity": 100
                            },
                            "576": {
                                "key": "C5",
                                "pitch": 84,
                                "length": 0,
                                "velocity": 100
                            },
                            "672": {
                                "key": "C5",
                                "pitch": 84,
                                "length": 0,
                                "velocity": 100
                            },
                            "768": {
                                "key": "C5",
                                "pitch": 84,
                                "length": 0,
                                "velocity": 100
                            },
                            "864": {
                                "key": "C5",
                                "pitch": 84,
                                "length": 0,
                                "velocity": 100
                            },
                            "960": {
                                "key": "C5",
                                "pitch": 84,
                                "length": 0,
                                "velocity": 100
                            },
                            "1056": {
                                "key": "C5",
                                "pitch": 84,
                                "length": 0,
                                "velocity": 100
                            },
                            "1152": {
                                "key": "C5",
                                "pitch": 84,
                                "length": 0,
                                "velocity": 100
                            },
                            "1248": {
                                "key": "C5",
                                "pitch": 84,
                                "length": 0,
                                "velocity": 100
                            },
                            "1344": {
                                "key": "C5",
                                "pitch": 84,
                                "length": 0,
                                "velocity": 100
                            },
                            "1440": {
                                "key": "C5",
                                "pitch": 84,
                                "length": 0,
                                "velocity": 100
                            }
                        },
                        "length": 0
                    }
                },
                "24576": {
                    "length": 1536,
                    "name": "kick",
                    "data": {
                        "notes": {
                            "0": {
                                "key": "C5",
                                "pitch": 84,
                                "length": 0,
                                "velocity": 100
                            },
                            "96": {
                                "key": "C5",
                                "pitch": 84,
                                "length": 0,
                                "velocity": 100
                            },
                            "192": {
                                "key": "C5",
                                "pitch": 84,
                                "length": 0,
                                "velocity": 100
                            },
                            "288": {
                                "key": "C5",
                                "pitch": 84,
                                "length": 0,
                                "velocity": 100
                            },
                            "384": {
                                "key": "C5",
                                "pitch": 84,
                                "length": 0,
                                "velocity": 100
                            },
                            "480": {
                                "key": "C5",
                                "pitch": 84,
                                "length": 0,
                                "velocity": 100
                            },
                            "576": {
                                "key": "C5",
                                "pitch": 84,
                                "length": 0,
                                "velocity": 100
                            },
                            "672": {
                                "key": "C5",
                                "pitch": 84,
                                "length": 0,
                                "velocity": 100
                            },
                            "768": {
                                "key": "C5",
                                "pitch": 84,
                                "length": 0,
                                "velocity": 100
                            },
                            "864": {
                                "key": "C5",
                                "pitch": 84,
                                "length": 0,
                                "velocity": 100
                            },
                            "960": {
                                "key": "C5",
                                "pitch": 84,
                                "length": 0,
                                "velocity": 100
                            },
                            "1056": {
                                "key": "C5",
                                "pitch": 84,
                                "length": 0,
                                "velocity": 100
                            },
                            "1152": {
                                "key": "C5",
                                "pitch": 84,
                                "length": 0,
                                "velocity": 100
                            },
                            "1248": {
                                "key": "C5",
                                "pitch": 84,
                                "length": 0,
                                "velocity": 100
                            },
                            "1344": {
                                "key": "C5",
                                "pitch": 84,
                                "length": 0,
                                "velocity": 100
                            },
                            "1440": {
                                "key": "C5",
                                "pitch": 84,
                                "length": 0,
                                "velocity": 100
                            }
                        },
                        "length": 0
                    }
                },
                "26112": {
                    "length": 1536,
                    "name": "kick",
                    "data": {
                        "notes": {
                            "0": {
                                "key": "C5",
                                "pitch": 84,
                                "length": 0,
                                "velocity": 100
                            },
                            "96": {
                                "key": "C5",
                                "pitch": 84,
                                "length": 0,
                                "velocity": 100
                            },
                            "192": {
                                "key": "C5",
                                "pitch": 84,
                                "length": 0,
                                "velocity": 100
                            },
                            "288": {
                                "key": "C5",
                                "pitch": 84,
                                "length": 0,
                                "velocity": 100
                            },
                            "384": {
                                "key": "C5",
                                "pitch": 84,
                                "length": 0,
                                "velocity": 100
                            },
                            "480": {
                                "key": "C5",
                                "pitch": 84,
                                "length": 0,
                                "velocity": 100
                            },
                            "576": {
                                "key": "C5",
                                "pitch": 84,
                                "length": 0,
                                "velocity": 100
                            },
                            "672": {
                                "key": "C5",
                                "pitch": 84,
                                "length": 0,
                                "velocity": 100
                            },
                            "768": {
                                "key": "C5",
                                "pitch": 84,
                                "length": 0,
                                "velocity": 100
                            },
                            "864": {
                                "key": "C5",
                                "pitch": 84,
                                "length": 0,
                                "velocity": 100
                            },
                            "960": {
                                "key": "C5",
                                "pitch": 84,
                                "length": 0,
                                "velocity": 100
                            },
                            "1056": {
                                "key": "C5",
                                "pitch": 84,
                                "length": 0,
                                "velocity": 100
                            },
                            "1152": {
                                "key": "C5",
                                "pitch": 84,
                                "length": 0,
                                "velocity": 100
                            },
                            "1248": {
                                "key": "C5",
                                "pitch": 84,
                                "length": 0,
                                "velocity": 100
                            },
                            "1344": {
                                "key": "C5",
                                "pitch": 84,
                                "length": 0,
                                "velocity": 100
                            },
                            "1440": {
                                "key": "C5",
                                "pitch": 84,
                                "length": 0,
                                "velocity": 100
                            }
                        },
                        "length": 0
                    }
                },
                "27648": {
                    "length": 1536,
                    "name": "kick",
                    "data": {
                        "notes": {
                            "0": {
                                "key": "C5",
                                "pitch": 84,
                                "length": 0,
                                "velocity": 100
                            },
                            "96": {
                                "key": "C5",
                                "pitch": 84,
                                "length": 0,
                                "velocity": 100
                            },
                            "192": {
                                "key": "C5",
                                "pitch": 84,
                                "length": 0,
                                "velocity": 100
                            },
                            "288": {
                                "key": "C5",
                                "pitch": 84,
                                "length": 0,
                                "velocity": 100
                            },
                            "384": {
                                "key": "C5",
                                "pitch": 84,
                                "length": 0,
                                "velocity": 100
                            },
                            "480": {
                                "key": "C5",
                                "pitch": 84,
                                "length": 0,
                                "velocity": 100
                            },
                            "576": {
                                "key": "C5",
                                "pitch": 84,
                                "length": 0,
                                "velocity": 100
                            },
                            "672": {
                                "key": "C5",
                                "pitch": 84,
                                "length": 0,
                                "velocity": 100
                            },
                            "768": {
                                "key": "C5",
                                "pitch": 84,
                                "length": 0,
                                "velocity": 100
                            },
                            "864": {
                                "key": "C5",
                                "pitch": 84,
                                "length": 0,
                                "velocity": 100
                            },
                            "960": {
                                "key": "C5",
                                "pitch": 84,
                                "length": 0,
                                "velocity": 100
                            },
                            "1056": {
                                "key": "C5",
                                "pitch": 84,
                                "length": 0,
                                "velocity": 100
                            },
                            "1152": {
                                "key": "C5",
                                "pitch": 84,
                                "length": 0,
                                "velocity": 100
                            },
                            "1248": {
                                "key": "C5",
                                "pitch": 84,
                                "length": 0,
                                "velocity": 100
                            },
                            "1344": {
                                "key": "C5",
                                "pitch": 84,
                                "length": 0,
                                "velocity": 100
                            },
                            "1440": {
                                "key": "C5",
                                "pitch": 84,
                                "length": 0,
                                "velocity": 100
                            }
                        },
                        "length": 0
                    }
                },
                "29184": {
                    "length": 1536,
                    "name": "kick",
                    "data": {
                        "notes": {
                            "0": {
                                "key": "C5",
                                "pitch": 84,
                                "length": 0,
                                "velocity": 100
                            },
                            "96": {
                                "key": "C5",
                                "pitch": 84,
                                "length": 0,
                                "velocity": 100
                            },
                            "192": {
                                "key": "C5",
                                "pitch": 84,
                                "length": 0,
                                "velocity": 100
                            },
                            "288": {
                                "key": "C5",
                                "pitch": 84,
                                "length": 0,
                                "velocity": 100
                            },
                            "384": {
                                "key": "C5",
                                "pitch": 84,
                                "length": 0,
                                "velocity": 100
                            },
                            "480": {
                                "key": "C5",
                                "pitch": 84,
                                "length": 0,
                                "velocity": 100
                            },
                            "576": {
                                "key": "C5",
                                "pitch": 84,
                                "length": 0,
                                "velocity": 100
                            },
                            "672": {
                                "key": "C5",
                                "pitch": 84,
                                "length": 0,
                                "velocity": 100
                            },
                            "768": {
                                "key": "C5",
                                "pitch": 84,
                                "length": 0,
                                "velocity": 100
                            },
                            "864": {
                                "key": "C5",
                                "pitch": 84,
                                "length": 0,
                                "velocity": 100
                            },
                            "960": {
                                "key": "C5",
                                "pitch": 84,
                                "length": 0,
                                "velocity": 100
                            },
                            "1056": {
                                "key": "C5",
                                "pitch": 84,
                                "length": 0,
                                "velocity": 100
                            },
                            "1152": {
                                "key": "C5",
                                "pitch": 84,
                                "length": 0,
                                "velocity": 100
                            },
                            "1248": {
                                "key": "C5",
                                "pitch": 84,
                                "length": 0,
                                "velocity": 100
                            },
                            "1344": {
                                "key": "C5",
                                "pitch": 84,
                                "length": 0,
                                "velocity": 100
                            },
                            "1440": {
                                "key": "C5",
                                "pitch": 84,
                                "length": 0,
                                "velocity": 100
                            }
                        },
                        "length": 0
                    }
                },
                "30720": {
                    "length": 1536,
                    "name": "kick",
                    "data": {
                        "notes": {
                            "0": {
                                "key": "C5",
                                "pitch": 84,
                                "length": 0,
                                "velocity": 100
                            },
                            "96": {
                                "key": "C5",
                                "pitch": 84,
                                "length": 0,
                                "velocity": 100
                            },
                            "192": {
                                "key": "C5",
                                "pitch": 84,
                                "length": 0,
                                "velocity": 100
                            },
                            "288": {
                                "key": "C5",
                                "pitch": 84,
                                "length": 0,
                                "velocity": 100
                            },
                            "384": {
                                "key": "C5",
                                "pitch": 84,
                                "length": 0,
                                "velocity": 100
                            },
                            "480": {
                                "key": "C5",
                                "pitch": 84,
                                "length": 0,
                                "velocity": 100
                            },
                            "576": {
                                "key": "C5",
                                "pitch": 84,
                                "length": 0,
                                "velocity": 100
                            },
                            "672": {
                                "key": "C5",
                                "pitch": 84,
                                "length": 0,
                                "velocity": 100
                            },
                            "768": {
                                "key": "C5",
                                "pitch": 84,
                                "length": 0,
                                "velocity": 100
                            },
                            "864": {
                                "key": "C5",
                                "pitch": 84,
                                "length": 0,
                                "velocity": 100
                            },
                            "960": {
                                "key": "C5",
                                "pitch": 84,
                                "length": 0,
                                "velocity": 100
                            },
                            "1056": {
                                "key": "C5",
                                "pitch": 84,
                                "length": 0,
                                "velocity": 100
                            },
                            "1152": {
                                "key": "C5",
                                "pitch": 84,
                                "length": 0,
                                "velocity": 100
                            },
                            "1248": {
                                "key": "C5",
                                "pitch": 84,
                                "length": 0,
                                "velocity": 100
                            },
                            "1344": {
                                "key": "C5",
                                "pitch": 84,
                                "length": 0,
                                "velocity": 100
                            },
                            "1440": {
                                "key": "C5",
                                "pitch": 84,
                                "length": 0,
                                "velocity": 100
                            }
                        },
                        "length": 0
                    }
                },
                "32256": {
                    "length": 1536,
                    "name": "kick",
                    "data": {
                        "notes": {
                            "0": {
                                "key": "C5",
                                "pitch": 84,
                                "length": 0,
                                "velocity": 100
                            },
                            "96": {
                                "key": "C5",
                                "pitch": 84,
                                "length": 0,
                                "velocity": 100
                            },
                            "192": {
                                "key": "C5",
                                "pitch": 84,
                                "length": 0,
                                "velocity": 100
                            },
                            "288": {
                                "key": "C5",
                                "pitch": 84,
                                "length": 0,
                                "velocity": 100
                            },
                            "384": {
                                "key": "C5",
                                "pitch": 84,
                                "length": 0,
                                "velocity": 100
                            },
                            "480": {
                                "key": "C5",
                                "pitch": 84,
                                "length": 0,
                                "velocity": 100
                            },
                            "576": {
                                "key": "C5",
                                "pitch": 84,
                                "length": 0,
                                "velocity": 100
                            },
                            "672": {
                                "key": "C5",
                                "pitch": 84,
                                "length": 0,
                                "velocity": 100
                            },
                            "768": {
                                "key": "C5",
                                "pitch": 84,
                                "length": 0,
                                "velocity": 100
                            },
                            "864": {
                                "key": "C5",
                                "pitch": 84,
                                "length": 0,
                                "velocity": 100
                            },
                            "960": {
                                "key": "C5",
                                "pitch": 84,
                                "length": 0,
                                "velocity": 100
                            },
                            "1056": {
                                "key": "C5",
                                "pitch": 84,
                                "length": 0,
                                "velocity": 100
                            },
                            "1152": {
                                "key": "C5",
                                "pitch": 84,
                                "length": 0,
                                "velocity": 100
                            },
                            "1248": {
                                "key": "C5",
                                "pitch": 84,
                                "length": 0,
                                "velocity": 100
                            },
                            "1344": {
                                "key": "C5",
                                "pitch": 84,
                                "length": 0,
                                "velocity": 100
                            },
                            "1440": {
                                "key": "C5",
                                "pitch": 84,
                                "length": 0,
                                "velocity": 100
                            }
                        },
                        "length": 0
                    }
                }
            },
            "clap": {
                "3072": {
                    "length": 1536,
                    "name": "clap",
                    "data": {
                        "notes": {
                            "96": {
                                "key": "C5",
                                "pitch": 84,
                                "length": 0,
                                "velocity": 100
                            },
                            "288": {
                                "key": "C5",
                                "pitch": 84,
                                "length": 0,
                                "velocity": 100
                            },
                            "480": {
                                "key": "C5",
                                "pitch": 84,
                                "length": 0,
                                "velocity": 100
                            },
                            "672": {
                                "key": "C5",
                                "pitch": 84,
                                "length": 0,
                                "velocity": 100
                            },
                            "864": {
                                "key": "C5",
                                "pitch": 84,
                                "length": 0,
                                "velocity": 100
                            },
                            "1056": {
                                "key": "C5",
                                "pitch": 84,
                                "length": 0,
                                "velocity": 100
                            },
                            "1248": {
                                "key": "C5",
                                "pitch": 84,
                                "length": 0,
                                "velocity": 100
                            },
                            "1440": {
                                "key": "C5",
                                "pitch": 84,
                                "length": 0,
                                "velocity": 100
                            }
                        },
                        "length": 0
                    }
                },
                "4608": {
                    "length": 1536,
                    "name": "clap",
                    "data": {
                        "notes": {
                            "96": {
                                "key": "C5",
                                "pitch": 84,
                                "length": 0,
                                "velocity": 100
                            },
                            "288": {
                                "key": "C5",
                                "pitch": 84,
                                "length": 0,
                                "velocity": 100
                            },
                            "480": {
                                "key": "C5",
                                "pitch": 84,
                                "length": 0,
                                "velocity": 100
                            },
                            "672": {
                                "key": "C5",
                                "pitch": 84,
                                "length": 0,
                                "velocity": 100
                            },
                            "864": {
                                "key": "C5",
                                "pitch": 84,
                                "length": 0,
                                "velocity": 100
                            },
                            "1056": {
                                "key": "C5",
                                "pitch": 84,
                                "length": 0,
                                "velocity": 100
                            },
                            "1248": {
                                "key": "C5",
                                "pitch": 84,
                                "length": 0,
                                "velocity": 100
                            },
                            "1440": {
                                "key": "C5",
                                "pitch": 84,
                                "length": 0,
                                "velocity": 100
                            }
                        },
                        "length": 0
                    }
                },
                "6144": {
                    "length": 1536,
                    "name": "clap",
                    "data": {
                        "notes": {
                            "96": {
                                "key": "C5",
                                "pitch": 84,
                                "length": 0,
                                "velocity": 100
                            },
                            "288": {
                                "key": "C5",
                                "pitch": 84,
                                "length": 0,
                                "velocity": 100
                            },
                            "480": {
                                "key": "C5",
                                "pitch": 84,
                                "length": 0,
                                "velocity": 100
                            },
                            "672": {
                                "key": "C5",
                                "pitch": 84,
                                "length": 0,
                                "velocity": 100
                            },
                            "864": {
                                "key": "C5",
                                "pitch": 84,
                                "length": 0,
                                "velocity": 100
                            },
                            "1056": {
                                "key": "C5",
                                "pitch": 84,
                                "length": 0,
                                "velocity": 100
                            },
                            "1248": {
                                "key": "C5",
                                "pitch": 84,
                                "length": 0,
                                "velocity": 100
                            },
                            "1440": {
                                "key": "C5",
                                "pitch": 84,
                                "length": 0,
                                "velocity": 100
                            }
                        },
                        "length": 0
                    }
                },
                "7680": {
                    "length": 1536,
                    "name": "clap",
                    "data": {
                        "notes": {
                            "96": {
                                "key": "C5",
                                "pitch": 84,
                                "length": 0,
                                "velocity": 100
                            },
                            "288": {
                                "key": "C5",
                                "pitch": 84,
                                "length": 0,
                                "velocity": 100
                            },
                            "480": {
                                "key": "C5",
                                "pitch": 84,
                                "length": 0,
                                "velocity": 100
                            },
                            "672": {
                                "key": "C5",
                                "pitch": 84,
                                "length": 0,
                                "velocity": 100
                            },
                            "864": {
                                "key": "C5",
                                "pitch": 84,
                                "length": 0,
                                "velocity": 100
                            },
                            "1056": {
                                "key": "C5",
                                "pitch": 84,
                                "length": 0,
                                "velocity": 100
                            },
                            "1248": {
                                "key": "C5",
                                "pitch": 84,
                                "length": 0,
                                "velocity": 100
                            },
                            "1440": {
                                "key": "C5",
                                "pitch": 84,
                                "length": 0,
                                "velocity": 100
                            }
                        },
                        "length": 0
                    }
                },
                "9216": {
                    "length": 1536,
                    "name": "clap",
                    "data": {
                        "notes": {
                            "96": {
                                "key": "C5",
                                "pitch": 84,
                                "length": 0,
                                "velocity": 100
                            },
                            "288": {
                                "key": "C5",
                                "pitch": 84,
                                "length": 0,
                                "velocity": 100
                            },
                            "480": {
                                "key": "C5",
                                "pitch": 84,
                                "length": 0,
                                "velocity": 100
                            },
                            "672": {
                                "key": "C5",
                                "pitch": 84,
                                "length": 0,
                                "velocity": 100
                            },
                            "864": {
                                "key": "C5",
                                "pitch": 84,
                                "length": 0,
                                "velocity": 100
                            },
                            "1056": {
                                "key": "C5",
                                "pitch": 84,
                                "length": 0,
                                "velocity": 100
                            },
                            "1248": {
                                "key": "C5",
                                "pitch": 84,
                                "length": 0,
                                "velocity": 100
                            },
                            "1440": {
                                "key": "C5",
                                "pitch": 84,
                                "length": 0,
                                "velocity": 100
                            }
                        },
                        "length": 0
                    }
                },
                "10752": {
                    "length": 1536,
                    "name": "clap",
                    "data": {
                        "notes": {
                            "96": {
                                "key": "C5",
                                "pitch": 84,
                                "length": 0,
                                "velocity": 100
                            },
                            "288": {
                                "key": "C5",
                                "pitch": 84,
                                "length": 0,
                                "velocity": 100
                            },
                            "480": {
                                "key": "C5",
                                "pitch": 84,
                                "length": 0,
                                "velocity": 100
                            },
                            "672": {
                                "key": "C5",
                                "pitch": 84,
                                "length": 0,
                                "velocity": 100
                            },
                            "864": {
                                "key": "C5",
                                "pitch": 84,
                                "length": 0,
                                "velocity": 100
                            },
                            "1056": {
                                "key": "C5",
                                "pitch": 84,
                                "length": 0,
                                "velocity": 100
                            },
                            "1248": {
                                "key": "C5",
                                "pitch": 84,
                                "length": 0,
                                "velocity": 100
                            },
                            "1440": {
                                "key": "C5",
                                "pitch": 84,
                                "length": 0,
                                "velocity": 100
                            }
                        },
                        "length": 0
                    }
                },
                "18432": {
                    "length": 1536,
                    "name": "clap",
                    "data": {
                        "notes": {
                            "96": {
                                "key": "C5",
                                "pitch": 84,
                                "length": 0,
                                "velocity": 100
                            },
                            "288": {
                                "key": "C5",
                                "pitch": 84,
                                "length": 0,
                                "velocity": 100
                            },
                            "480": {
                                "key": "C5",
                                "pitch": 84,
                                "length": 0,
                                "velocity": 100
                            },
                            "672": {
                                "key": "C5",
                                "pitch": 84,
                                "length": 0,
                                "velocity": 100
                            },
                            "864": {
                                "key": "C5",
                                "pitch": 84,
                                "length": 0,
                                "velocity": 100
                            },
                            "1056": {
                                "key": "C5",
                                "pitch": 84,
                                "length": 0,
                                "velocity": 100
                            },
                            "1248": {
                                "key": "C5",
                                "pitch": 84,
                                "length": 0,
                                "velocity": 100
                            },
                            "1440": {
                                "key": "C5",
                                "pitch": 84,
                                "length": 0,
                                "velocity": 100
                            }
                        },
                        "length": 0
                    }
                },
                "19968": {
                    "length": 1536,
                    "name": "clap",
                    "data": {
                        "notes": {
                            "96": {
                                "key": "C5",
                                "pitch": 84,
                                "length": 0,
                                "velocity": 100
                            },
                            "288": {
                                "key": "C5",
                                "pitch": 84,
                                "length": 0,
                                "velocity": 100
                            },
                            "480": {
                                "key": "C5",
                                "pitch": 84,
                                "length": 0,
                                "velocity": 100
                            },
                            "672": {
                                "key": "C5",
                                "pitch": 84,
                                "length": 0,
                                "velocity": 100
                            },
                            "864": {
                                "key": "C5",
                                "pitch": 84,
                                "length": 0,
                                "velocity": 100
                            },
                            "1056": {
                                "key": "C5",
                                "pitch": 84,
                                "length": 0,
                                "velocity": 100
                            },
                            "1248": {
                                "key": "C5",
                                "pitch": 84,
                                "length": 0,
                                "velocity": 100
                            },
                            "1440": {
                                "key": "C5",
                                "pitch": 84,
                                "length": 0,
                                "velocity": 100
                            }
                        },
                        "length": 0
                    }
                },
                "21504": {
                    "length": 1536,
                    "name": "clap",
                    "data": {
                        "notes": {
                            "96": {
                                "key": "C5",
                                "pitch": 84,
                                "length": 0,
                                "velocity": 100
                            },
                            "288": {
                                "key": "C5",
                                "pitch": 84,
                                "length": 0,
                                "velocity": 100
                            },
                            "480": {
                                "key": "C5",
                                "pitch": 84,
                                "length": 0,
                                "velocity": 100
                            },
                            "672": {
                                "key": "C5",
                                "pitch": 84,
                                "length": 0,
                                "velocity": 100
                            },
                            "864": {
                                "key": "C5",
                                "pitch": 84,
                                "length": 0,
                                "velocity": 100
                            },
                            "1056": {
                                "key": "C5",
                                "pitch": 84,
                                "length": 0,
                                "velocity": 100
                            },
                            "1248": {
                                "key": "C5",
                                "pitch": 84,
                                "length": 0,
                                "velocity": 100
                            },
                            "1440": {
                                "key": "C5",
                                "pitch": 84,
                                "length": 0,
                                "velocity": 100
                            }
                        },
                        "length": 0
                    }
                },
                "23040": {
                    "length": 1536,
                    "name": "clap",
                    "data": {
                        "notes": {
                            "96": {
                                "key": "C5",
                                "pitch": 84,
                                "length": 0,
                                "velocity": 100
                            },
                            "288": {
                                "key": "C5",
                                "pitch": 84,
                                "length": 0,
                                "velocity": 100
                            },
                            "480": {
                                "key": "C5",
                                "pitch": 84,
                                "length": 0,
                                "velocity": 100
                            },
                            "672": {
                                "key": "C5",
                                "pitch": 84,
                                "length": 0,
                                "velocity": 100
                            },
                            "864": {
                                "key": "C5",
                                "pitch": 84,
                                "length": 0,
                                "velocity": 100
                            },
                            "1056": {
                                "key": "C5",
                                "pitch": 84,
                                "length": 0,
                                "velocity": 100
                            },
                            "1248": {
                                "key": "C5",
                                "pitch": 84,
                                "length": 0,
                                "velocity": 100
                            },
                            "1440": {
                                "key": "C5",
                                "pitch": 84,
                                "length": 0,
                                "velocity": 100
                            }
                        },
                        "length": 0
                    }
                },
                "24576": {
                    "length": 1536,
                    "name": "clap",
                    "data": {
                        "notes": {
                            "96": {
                                "key": "C5",
                                "pitch": 84,
                                "length": 0,
                                "velocity": 100
                            },
                            "288": {
                                "key": "C5",
                                "pitch": 84,
                                "length": 0,
                                "velocity": 100
                            },
                            "480": {
                                "key": "C5",
                                "pitch": 84,
                                "length": 0,
                                "velocity": 100
                            },
                            "672": {
                                "key": "C5",
                                "pitch": 84,
                                "length": 0,
                                "velocity": 100
                            },
                            "864": {
                                "key": "C5",
                                "pitch": 84,
                                "length": 0,
                                "velocity": 100
                            },
                            "1056": {
                                "key": "C5",
                                "pitch": 84,
                                "length": 0,
                                "velocity": 100
                            },
                            "1248": {
                                "key": "C5",
                                "pitch": 84,
                                "length": 0,
                                "velocity": 100
                            },
                            "1440": {
                                "key": "C5",
                                "pitch": 84,
                                "length": 0,
                                "velocity": 100
                            }
                        },
                        "length": 0
                    }
                },
                "26112": {
                    "length": 1536,
                    "name": "clap",
                    "data": {
                        "notes": {
                            "96": {
                                "key": "C5",
                                "pitch": 84,
                                "length": 0,
                                "velocity": 100
                            },
                            "288": {
                                "key": "C5",
                                "pitch": 84,
                                "length": 0,
                                "velocity": 100
                            },
                            "480": {
                                "key": "C5",
                                "pitch": 84,
                                "length": 0,
                                "velocity": 100
                            },
                            "672": {
                                "key": "C5",
                                "pitch": 84,
                                "length": 0,
                                "velocity": 100
                            },
                            "864": {
                                "key": "C5",
                                "pitch": 84,
                                "length": 0,
                                "velocity": 100
                            },
                            "1056": {
                                "key": "C5",
                                "pitch": 84,
                                "length": 0,
                                "velocity": 100
                            },
                            "1248": {
                                "key": "C5",
                                "pitch": 84,
                                "length": 0,
                                "velocity": 100
                            },
                            "1440": {
                                "key": "C5",
                                "pitch": 84,
                                "length": 0,
                                "velocity": 100
                            }
                        },
                        "length": 0
                    }
                },
                "27648": {
                    "length": 1536,
                    "name": "clap",
                    "data": {
                        "notes": {
                            "96": {
                                "key": "C5",
                                "pitch": 84,
                                "length": 0,
                                "velocity": 100
                            },
                            "288": {
                                "key": "C5",
                                "pitch": 84,
                                "length": 0,
                                "velocity": 100
                            },
                            "480": {
                                "key": "C5",
                                "pitch": 84,
                                "length": 0,
                                "velocity": 100
                            },
                            "672": {
                                "key": "C5",
                                "pitch": 84,
                                "length": 0,
                                "velocity": 100
                            },
                            "864": {
                                "key": "C5",
                                "pitch": 84,
                                "length": 0,
                                "velocity": 100
                            },
                            "1056": {
                                "key": "C5",
                                "pitch": 84,
                                "length": 0,
                                "velocity": 100
                            },
                            "1248": {
                                "key": "C5",
                                "pitch": 84,
                                "length": 0,
                                "velocity": 100
                            },
                            "1440": {
                                "key": "C5",
                                "pitch": 84,
                                "length": 0,
                                "velocity": 100
                            }
                        },
                        "length": 0
                    }
                },
                "29184": {
                    "length": 1536,
                    "name": "clap",
                    "data": {
                        "notes": {
                            "96": {
                                "key": "C5",
                                "pitch": 84,
                                "length": 0,
                                "velocity": 100
                            },
                            "288": {
                                "key": "C5",
                                "pitch": 84,
                                "length": 0,
                                "velocity": 100
                            },
                            "480": {
                                "key": "C5",
                                "pitch": 84,
                                "length": 0,
                                "velocity": 100
                            },
                            "672": {
                                "key": "C5",
                                "pitch": 84,
                                "length": 0,
                                "velocity": 100
                            },
                            "864": {
                                "key": "C5",
                                "pitch": 84,
                                "length": 0,
                                "velocity": 100
                            },
                            "1056": {
                                "key": "C5",
                                "pitch": 84,
                                "length": 0,
                                "velocity": 100
                            },
                            "1248": {
                                "key": "C5",
                                "pitch": 84,
                                "length": 0,
                                "velocity": 100
                            },
                            "1440": {
                                "key": "C5",
                                "pitch": 84,
                                "length": 0,
                                "velocity": 100
                            }
                        },
                        "length": 0
                    }
                },
                "30720": {
                    "length": 1536,
                    "name": "clap",
                    "data": {
                        "notes": {
                            "96": {
                                "key": "C5",
                                "pitch": 84,
                                "length": 0,
                                "velocity": 100
                            },
                            "288": {
                                "key": "C5",
                                "pitch": 84,
                                "length": 0,
                                "velocity": 100
                            },
                            "480": {
                                "key": "C5",
                                "pitch": 84,
                                "length": 0,
                                "velocity": 100
                            },
                            "672": {
                                "key": "C5",
                                "pitch": 84,
                                "length": 0,
                                "velocity": 100
                            },
                            "864": {
                                "key": "C5",
                                "pitch": 84,
                                "length": 0,
                                "velocity": 100
                            },
                            "1056": {
                                "key": "C5",
                                "pitch": 84,
                                "length": 0,
                                "velocity": 100
                            },
                            "1248": {
                                "key": "C5",
                                "pitch": 84,
                                "length": 0,
                                "velocity": 100
                            },
                            "1440": {
                                "key": "C5",
                                "pitch": 84,
                                "length": 0,
                                "velocity": 100
                            }
                        },
                        "length": 0
                    }
                },
                "32256": {
                    "length": 1536,
                    "name": "clap",
                    "data": {
                        "notes": {
                            "96": {
                                "key": "C5",
                                "pitch": 84,
                                "length": 0,
                                "velocity": 100
                            },
                            "288": {
                                "key": "C5",
                                "pitch": 84,
                                "length": 0,
                                "velocity": 100
                            },
                            "480": {
                                "key": "C5",
                                "pitch": 84,
                                "length": 0,
                                "velocity": 100
                            },
                            "672": {
                                "key": "C5",
                                "pitch": 84,
                                "length": 0,
                                "velocity": 100
                            },
                            "864": {
                                "key": "C5",
                                "pitch": 84,
                                "length": 0,
                                "velocity": 100
                            },
                            "1056": {
                                "key": "C5",
                                "pitch": 84,
                                "length": 0,
                                "velocity": 100
                            },
                            "1248": {
                                "key": "C5",
                                "pitch": 84,
                                "length": 0,
                                "velocity": 100
                            },
                            "1440": {
                                "key": "C5",
                                "pitch": 84,
                                "length": 0,
                                "velocity": 100
                            }
                        },
                        "length": 0
                    }
                }
            },
            "hh": {
                "15360": {
                    "length": 384,
                    "name": "hh",
                    "data": {
                        "notes": {
                            "0": {
                                "key": "C5",
                                "pitch": 84,
                                "length": 0,
                                "velocity": 100
                            },
                            "24": {
                                "key": "C5",
                                "pitch": 84,
                                "length": 0,
                                "velocity": 100
                            },
                            "48": {
                                "key": "C5",
                                "pitch": 84,
                                "length": 0,
                                "velocity": 100
                            },
                            "72": {
                                "key": "C5",
                                "pitch": 84,
                                "length": 0,
                                "velocity": 100
                            },
                            "96": {
                                "key": "C5",
                                "pitch": 84,
                                "length": 0,
                                "velocity": 100
                            },
                            "120": {
                                "key": "C5",
                                "pitch": 84,
                                "length": 0,
                                "velocity": 100
                            },
                            "144": {
                                "key": "C5",
                                "pitch": 84,
                                "length": 0,
                                "velocity": 100
                            },
                            "168": {
                                "key": "C5",
                                "pitch": 84,
                                "length": 0,
                                "velocity": 100
                            },
                            "192": {
                                "key": "C5",
                                "pitch": 84,
                                "length": 0,
                                "velocity": 100
                            },
                            "216": {
                                "key": "C5",
                                "pitch": 84,
                                "length": 0,
                                "velocity": 100
                            },
                            "240": {
                                "key": "C5",
                                "pitch": 84,
                                "length": 0,
                                "velocity": 100
                            },
                            "264": {
                                "key": "C5",
                                "pitch": 84,
                                "length": 0,
                                "velocity": 100
                            },
                            "288": {
                                "key": "C5",
                                "pitch": 84,
                                "length": 0,
                                "velocity": 100
                            },
                            "312": {
                                "key": "C5",
                                "pitch": 84,
                                "length": 0,
                                "velocity": 100
                            },
                            "336": {
                                "key": "C5",
                                "pitch": 84,
                                "length": 0,
                                "velocity": 100
                            },
                            "360": {
                                "key": "C5",
                                "pitch": 84,
                                "length": 0,
                                "velocity": 100
                            }
                        },
                        "length": 0
                    }
                },
                "15744": {
                    "length": 384,
                    "name": "hh",
                    "data": {
                        "notes": {
                            "0": {
                                "key": "C5",
                                "pitch": 84,
                                "length": 0,
                                "velocity": 100
                            },
                            "24": {
                                "key": "C5",
                                "pitch": 84,
                                "length": 0,
                                "velocity": 100
                            },
                            "48": {
                                "key": "C5",
                                "pitch": 84,
                                "length": 0,
                                "velocity": 100
                            },
                            "72": {
                                "key": "C5",
                                "pitch": 84,
                                "length": 0,
                                "velocity": 100
                            },
                            "96": {
                                "key": "C5",
                                "pitch": 84,
                                "length": 0,
                                "velocity": 100
                            },
                            "120": {
                                "key": "C5",
                                "pitch": 84,
                                "length": 0,
                                "velocity": 100
                            },
                            "144": {
                                "key": "C5",
                                "pitch": 84,
                                "length": 0,
                                "velocity": 100
                            },
                            "168": {
                                "key": "C5",
                                "pitch": 84,
                                "length": 0,
                                "velocity": 100
                            },
                            "192": {
                                "key": "C5",
                                "pitch": 84,
                                "length": 0,
                                "velocity": 100
                            },
                            "216": {
                                "key": "C5",
                                "pitch": 84,
                                "length": 0,
                                "velocity": 100
                            },
                            "240": {
                                "key": "C5",
                                "pitch": 84,
                                "length": 0,
                                "velocity": 100
                            },
                            "264": {
                                "key": "C5",
                                "pitch": 84,
                                "length": 0,
                                "velocity": 100
                            },
                            "288": {
                                "key": "C5",
                                "pitch": 84,
                                "length": 0,
                                "velocity": 100
                            },
                            "312": {
                                "key": "C5",
                                "pitch": 84,
                                "length": 0,
                                "velocity": 100
                            },
                            "336": {
                                "key": "C5",
                                "pitch": 84,
                                "length": 0,
                                "velocity": 100
                            },
                            "360": {
                                "key": "C5",
                                "pitch": 84,
                                "length": 0,
                                "velocity": 100
                            }
                        },
                        "length": 0
                    }
                },
                "16128": {
                    "length": 384,
                    "name": "hh",
                    "data": {
                        "notes": {
                            "0": {
                                "key": "C5",
                                "pitch": 84,
                                "length": 0,
                                "velocity": 100
                            },
                            "24": {
                                "key": "C5",
                                "pitch": 84,
                                "length": 0,
                                "velocity": 100
                            },
                            "48": {
                                "key": "C5",
                                "pitch": 84,
                                "length": 0,
                                "velocity": 100
                            },
                            "72": {
                                "key": "C5",
                                "pitch": 84,
                                "length": 0,
                                "velocity": 100
                            },
                            "96": {
                                "key": "C5",
                                "pitch": 84,
                                "length": 0,
                                "velocity": 100
                            },
                            "120": {
                                "key": "C5",
                                "pitch": 84,
                                "length": 0,
                                "velocity": 100
                            },
                            "144": {
                                "key": "C5",
                                "pitch": 84,
                                "length": 0,
                                "velocity": 100
                            },
                            "168": {
                                "key": "C5",
                                "pitch": 84,
                                "length": 0,
                                "velocity": 100
                            },
                            "192": {
                                "key": "C5",
                                "pitch": 84,
                                "length": 0,
                                "velocity": 100
                            },
                            "216": {
                                "key": "C5",
                                "pitch": 84,
                                "length": 0,
                                "velocity": 100
                            },
                            "240": {
                                "key": "C5",
                                "pitch": 84,
                                "length": 0,
                                "velocity": 100
                            },
                            "264": {
                                "key": "C5",
                                "pitch": 84,
                                "length": 0,
                                "velocity": 100
                            },
                            "288": {
                                "key": "C5",
                                "pitch": 84,
                                "length": 0,
                                "velocity": 100
                            },
                            "312": {
                                "key": "C5",
                                "pitch": 84,
                                "length": 0,
                                "velocity": 100
                            },
                            "336": {
                                "key": "C5",
                                "pitch": 84,
                                "length": 0,
                                "velocity": 100
                            },
                            "360": {
                                "key": "C5",
                                "pitch": 84,
                                "length": 0,
                                "velocity": 100
                            }
                        },
                        "length": 0
                    }
                },
                "16512": {
                    "length": 384,
                    "name": "hh",
                    "data": {
                        "notes": {
                            "0": {
                                "key": "C5",
                                "pitch": 84,
                                "length": 0,
                                "velocity": 100
                            },
                            "24": {
                                "key": "C5",
                                "pitch": 84,
                                "length": 0,
                                "velocity": 100
                            },
                            "48": {
                                "key": "C5",
                                "pitch": 84,
                                "length": 0,
                                "velocity": 100
                            },
                            "72": {
                                "key": "C5",
                                "pitch": 84,
                                "length": 0,
                                "velocity": 100
                            },
                            "96": {
                                "key": "C5",
                                "pitch": 84,
                                "length": 0,
                                "velocity": 100
                            },
                            "120": {
                                "key": "C5",
                                "pitch": 84,
                                "length": 0,
                                "velocity": 100
                            },
                            "144": {
                                "key": "C5",
                                "pitch": 84,
                                "length": 0,
                                "velocity": 100
                            },
                            "168": {
                                "key": "C5",
                                "pitch": 84,
                                "length": 0,
                                "velocity": 100
                            },
                            "192": {
                                "key": "C5",
                                "pitch": 84,
                                "length": 0,
                                "velocity": 100
                            },
                            "216": {
                                "key": "C5",
                                "pitch": 84,
                                "length": 0,
                                "velocity": 100
                            },
                            "240": {
                                "key": "C5",
                                "pitch": 84,
                                "length": 0,
                                "velocity": 100
                            },
                            "264": {
                                "key": "C5",
                                "pitch": 84,
                                "length": 0,
                                "velocity": 100
                            },
                            "288": {
                                "key": "C5",
                                "pitch": 84,
                                "length": 0,
                                "velocity": 100
                            },
                            "312": {
                                "key": "C5",
                                "pitch": 84,
                                "length": 0,
                                "velocity": 100
                            },
                            "336": {
                                "key": "C5",
                                "pitch": 84,
                                "length": 0,
                                "velocity": 100
                            },
                            "360": {
                                "key": "C5",
                                "pitch": 84,
                                "length": 0,
                                "velocity": 100
                            }
                        },
                        "length": 0
                    }
                },
                "16896": {
                    "length": 384,
                    "name": "hh",
                    "data": {
                        "notes": {
                            "0": {
                                "key": "C5",
                                "pitch": 84,
                                "length": 0,
                                "velocity": 100
                            },
                            "24": {
                                "key": "C5",
                                "pitch": 84,
                                "length": 0,
                                "velocity": 100
                            },
                            "48": {
                                "key": "C5",
                                "pitch": 84,
                                "length": 0,
                                "velocity": 100
                            },
                            "72": {
                                "key": "C5",
                                "pitch": 84,
                                "length": 0,
                                "velocity": 100
                            },
                            "96": {
                                "key": "C5",
                                "pitch": 84,
                                "length": 0,
                                "velocity": 100
                            },
                            "120": {
                                "key": "C5",
                                "pitch": 84,
                                "length": 0,
                                "velocity": 100
                            },
                            "144": {
                                "key": "C5",
                                "pitch": 84,
                                "length": 0,
                                "velocity": 100
                            },
                            "168": {
                                "key": "C5",
                                "pitch": 84,
                                "length": 0,
                                "velocity": 100
                            },
                            "192": {
                                "key": "C5",
                                "pitch": 84,
                                "length": 0,
                                "velocity": 100
                            },
                            "216": {
                                "key": "C5",
                                "pitch": 84,
                                "length": 0,
                                "velocity": 100
                            },
                            "240": {
                                "key": "C5",
                                "pitch": 84,
                                "length": 0,
                                "velocity": 100
                            },
                            "264": {
                                "key": "C5",
                                "pitch": 84,
                                "length": 0,
                                "velocity": 100
                            },
                            "288": {
                                "key": "C5",
                                "pitch": 84,
                                "length": 0,
                                "velocity": 100
                            },
                            "312": {
                                "key": "C5",
                                "pitch": 84,
                                "length": 0,
                                "velocity": 100
                            },
                            "336": {
                                "key": "C5",
                                "pitch": 84,
                                "length": 0,
                                "velocity": 100
                            },
                            "360": {
                                "key": "C5",
                                "pitch": 84,
                                "length": 0,
                                "velocity": 100
                            }
                        },
                        "length": 0
                    }
                },
                "17280": {
                    "length": 384,
                    "name": "hh",
                    "data": {
                        "notes": {
                            "0": {
                                "key": "C5",
                                "pitch": 84,
                                "length": 0,
                                "velocity": 100
                            },
                            "24": {
                                "key": "C5",
                                "pitch": 84,
                                "length": 0,
                                "velocity": 100
                            },
                            "48": {
                                "key": "C5",
                                "pitch": 84,
                                "length": 0,
                                "velocity": 100
                            },
                            "72": {
                                "key": "C5",
                                "pitch": 84,
                                "length": 0,
                                "velocity": 100
                            },
                            "96": {
                                "key": "C5",
                                "pitch": 84,
                                "length": 0,
                                "velocity": 100
                            },
                            "120": {
                                "key": "C5",
                                "pitch": 84,
                                "length": 0,
                                "velocity": 100
                            },
                            "144": {
                                "key": "C5",
                                "pitch": 84,
                                "length": 0,
                                "velocity": 100
                            },
                            "168": {
                                "key": "C5",
                                "pitch": 84,
                                "length": 0,
                                "velocity": 100
                            },
                            "192": {
                                "key": "C5",
                                "pitch": 84,
                                "length": 0,
                                "velocity": 100
                            },
                            "216": {
                                "key": "C5",
                                "pitch": 84,
                                "length": 0,
                                "velocity": 100
                            },
                            "240": {
                                "key": "C5",
                                "pitch": 84,
                                "length": 0,
                                "velocity": 100
                            },
                            "264": {
                                "key": "C5",
                                "pitch": 84,
                                "length": 0,
                                "velocity": 100
                            },
                            "288": {
                                "key": "C5",
                                "pitch": 84,
                                "length": 0,
                                "velocity": 100
                            },
                            "312": {
                                "key": "C5",
                                "pitch": 84,
                                "length": 0,
                                "velocity": 100
                            },
                            "336": {
                                "key": "C5",
                                "pitch": 84,
                                "length": 0,
                                "velocity": 100
                            },
                            "360": {
                                "key": "C5",
                                "pitch": 84,
                                "length": 0,
                                "velocity": 100
                            }
                        },
                        "length": 0
                    }
                },
                "17664": {
                    "length": 384,
                    "name": "hh",
                    "data": {
                        "notes": {
                            "0": {
                                "key": "C5",
                                "pitch": 84,
                                "length": 0,
                                "velocity": 100
                            },
                            "24": {
                                "key": "C5",
                                "pitch": 84,
                                "length": 0,
                                "velocity": 100
                            },
                            "48": {
                                "key": "C5",
                                "pitch": 84,
                                "length": 0,
                                "velocity": 100
                            },
                            "72": {
                                "key": "C5",
                                "pitch": 84,
                                "length": 0,
                                "velocity": 100
                            },
                            "96": {
                                "key": "C5",
                                "pitch": 84,
                                "length": 0,
                                "velocity": 100
                            },
                            "120": {
                                "key": "C5",
                                "pitch": 84,
                                "length": 0,
                                "velocity": 100
                            },
                            "144": {
                                "key": "C5",
                                "pitch": 84,
                                "length": 0,
                                "velocity": 100
                            },
                            "168": {
                                "key": "C5",
                                "pitch": 84,
                                "length": 0,
                                "velocity": 100
                            },
                            "192": {
                                "key": "C5",
                                "pitch": 84,
                                "length": 0,
                                "velocity": 100
                            },
                            "216": {
                                "key": "C5",
                                "pitch": 84,
                                "length": 0,
                                "velocity": 100
                            },
                            "240": {
                                "key": "C5",
                                "pitch": 84,
                                "length": 0,
                                "velocity": 100
                            },
                            "264": {
                                "key": "C5",
                                "pitch": 84,
                                "length": 0,
                                "velocity": 100
                            },
                            "288": {
                                "key": "C5",
                                "pitch": 84,
                                "length": 0,
                                "velocity": 100
                            },
                            "312": {
                                "key": "C5",
                                "pitch": 84,
                                "length": 0,
                                "velocity": 100
                            },
                            "336": {
                                "key": "C5",
                                "pitch": 84,
                                "length": 0,
                                "velocity": 100
                            },
                            "360": {
                                "key": "C5",
                                "pitch": 84,
                                "length": 0,
                                "velocity": 100
                            }
                        },
                        "length": 0
                    }
                },
                "18048": {
                    "length": 384,
                    "name": "hh",
                    "data": {
                        "notes": {
                            "0": {
                                "key": "C5",
                                "pitch": 84,
                                "length": 0,
                                "velocity": 100
                            },
                            "24": {
                                "key": "C5",
                                "pitch": 84,
                                "length": 0,
                                "velocity": 100
                            },
                            "48": {
                                "key": "C5",
                                "pitch": 84,
                                "length": 0,
                                "velocity": 100
                            },
                            "72": {
                                "key": "C5",
                                "pitch": 84,
                                "length": 0,
                                "velocity": 100
                            },
                            "96": {
                                "key": "C5",
                                "pitch": 84,
                                "length": 0,
                                "velocity": 100
                            },
                            "120": {
                                "key": "C5",
                                "pitch": 84,
                                "length": 0,
                                "velocity": 100
                            },
                            "144": {
                                "key": "C5",
                                "pitch": 84,
                                "length": 0,
                                "velocity": 100
                            },
                            "168": {
                                "key": "C5",
                                "pitch": 84,
                                "length": 0,
                                "velocity": 100
                            },
                            "192": {
                                "key": "C5",
                                "pitch": 84,
                                "length": 0,
                                "velocity": 100
                            },
                            "216": {
                                "key": "C5",
                                "pitch": 84,
                                "length": 0,
                                "velocity": 100
                            },
                            "240": {
                                "key": "C5",
                                "pitch": 84,
                                "length": 0,
                                "velocity": 100
                            },
                            "264": {
                                "key": "C5",
                                "pitch": 84,
                                "length": 0,
                                "velocity": 100
                            },
                            "288": {
                                "key": "C5",
                                "pitch": 84,
                                "length": 0,
                                "velocity": 100
                            },
                            "312": {
                                "key": "C5",
                                "pitch": 84,
                                "length": 0,
                                "velocity": 100
                            },
                            "336": {
                                "key": "C5",
                                "pitch": 84,
                                "length": 0,
                                "velocity": 100
                            },
                            "360": {
                                "key": "C5",
                                "pitch": 84,
                                "length": 0,
                                "velocity": 100
                            }
                        },
                        "length": 0
                    }
                },
                "18432": {
                    "length": 384,
                    "name": "hh",
                    "data": {
                        "notes": {
                            "0": {
                                "key": "C5",
                                "pitch": 84,
                                "length": 0,
                                "velocity": 100
                            },
                            "24": {
                                "key": "C5",
                                "pitch": 84,
                                "length": 0,
                                "velocity": 100
                            },
                            "48": {
                                "key": "C5",
                                "pitch": 84,
                                "length": 0,
                                "velocity": 100
                            },
                            "72": {
                                "key": "C5",
                                "pitch": 84,
                                "length": 0,
                                "velocity": 100
                            },
                            "96": {
                                "key": "C5",
                                "pitch": 84,
                                "length": 0,
                                "velocity": 100
                            },
                            "120": {
                                "key": "C5",
                                "pitch": 84,
                                "length": 0,
                                "velocity": 100
                            },
                            "144": {
                                "key": "C5",
                                "pitch": 84,
                                "length": 0,
                                "velocity": 100
                            },
                            "168": {
                                "key": "C5",
                                "pitch": 84,
                                "length": 0,
                                "velocity": 100
                            },
                            "192": {
                                "key": "C5",
                                "pitch": 84,
                                "length": 0,
                                "velocity": 100
                            },
                            "216": {
                                "key": "C5",
                                "pitch": 84,
                                "length": 0,
                                "velocity": 100
                            },
                            "240": {
                                "key": "C5",
                                "pitch": 84,
                                "length": 0,
                                "velocity": 100
                            },
                            "264": {
                                "key": "C5",
                                "pitch": 84,
                                "length": 0,
                                "velocity": 100
                            },
                            "288": {
                                "key": "C5",
                                "pitch": 84,
                                "length": 0,
                                "velocity": 100
                            },
                            "312": {
                                "key": "C5",
                                "pitch": 84,
                                "length": 0,
                                "velocity": 100
                            },
                            "336": {
                                "key": "C5",
                                "pitch": 84,
                                "length": 0,
                                "velocity": 100
                            },
                            "360": {
                                "key": "C5",
                                "pitch": 84,
                                "length": 0,
                                "velocity": 100
                            }
                        },
                        "length": 0
                    }
                },
                "18816": {
                    "length": 384,
                    "name": "hh",
                    "data": {
                        "notes": {
                            "0": {
                                "key": "C5",
                                "pitch": 84,
                                "length": 0,
                                "velocity": 100
                            },
                            "24": {
                                "key": "C5",
                                "pitch": 84,
                                "length": 0,
                                "velocity": 100
                            },
                            "48": {
                                "key": "C5",
                                "pitch": 84,
                                "length": 0,
                                "velocity": 100
                            },
                            "72": {
                                "key": "C5",
                                "pitch": 84,
                                "length": 0,
                                "velocity": 100
                            },
                            "96": {
                                "key": "C5",
                                "pitch": 84,
                                "length": 0,
                                "velocity": 100
                            },
                            "120": {
                                "key": "C5",
                                "pitch": 84,
                                "length": 0,
                                "velocity": 100
                            },
                            "144": {
                                "key": "C5",
                                "pitch": 84,
                                "length": 0,
                                "velocity": 100
                            },
                            "168": {
                                "key": "C5",
                                "pitch": 84,
                                "length": 0,
                                "velocity": 100
                            },
                            "192": {
                                "key": "C5",
                                "pitch": 84,
                                "length": 0,
                                "velocity": 100
                            },
                            "216": {
                                "key": "C5",
                                "pitch": 84,
                                "length": 0,
                                "velocity": 100
                            },
                            "240": {
                                "key": "C5",
                                "pitch": 84,
                                "length": 0,
                                "velocity": 100
                            },
                            "264": {
                                "key": "C5",
                                "pitch": 84,
                                "length": 0,
                                "velocity": 100
                            },
                            "288": {
                                "key": "C5",
                                "pitch": 84,
                                "length": 0,
                                "velocity": 100
                            },
                            "312": {
                                "key": "C5",
                                "pitch": 84,
                                "length": 0,
                                "velocity": 100
                            },
                            "336": {
                                "key": "C5",
                                "pitch": 84,
                                "length": 0,
                                "velocity": 100
                            },
                            "360": {
                                "key": "C5",
                                "pitch": 84,
                                "length": 0,
                                "velocity": 100
                            }
                        },
                        "length": 0
                    }
                },
                "19200": {
                    "length": 384,
                    "name": "hh",
                    "data": {
                        "notes": {
                            "0": {
                                "key": "C5",
                                "pitch": 84,
                                "length": 0,
                                "velocity": 100
                            },
                            "24": {
                                "key": "C5",
                                "pitch": 84,
                                "length": 0,
                                "velocity": 100
                            },
                            "48": {
                                "key": "C5",
                                "pitch": 84,
                                "length": 0,
                                "velocity": 100
                            },
                            "72": {
                                "key": "C5",
                                "pitch": 84,
                                "length": 0,
                                "velocity": 100
                            },
                            "96": {
                                "key": "C5",
                                "pitch": 84,
                                "length": 0,
                                "velocity": 100
                            },
                            "120": {
                                "key": "C5",
                                "pitch": 84,
                                "length": 0,
                                "velocity": 100
                            },
                            "144": {
                                "key": "C5",
                                "pitch": 84,
                                "length": 0,
                                "velocity": 100
                            },
                            "168": {
                                "key": "C5",
                                "pitch": 84,
                                "length": 0,
                                "velocity": 100
                            },
                            "192": {
                                "key": "C5",
                                "pitch": 84,
                                "length": 0,
                                "velocity": 100
                            },
                            "216": {
                                "key": "C5",
                                "pitch": 84,
                                "length": 0,
                                "velocity": 100
                            },
                            "240": {
                                "key": "C5",
                                "pitch": 84,
                                "length": 0,
                                "velocity": 100
                            },
                            "264": {
                                "key": "C5",
                                "pitch": 84,
                                "length": 0,
                                "velocity": 100
                            },
                            "288": {
                                "key": "C5",
                                "pitch": 84,
                                "length": 0,
                                "velocity": 100
                            },
                            "312": {
                                "key": "C5",
                                "pitch": 84,
                                "length": 0,
                                "velocity": 100
                            },
                            "336": {
                                "key": "C5",
                                "pitch": 84,
                                "length": 0,
                                "velocity": 100
                            },
                            "360": {
                                "key": "C5",
                                "pitch": 84,
                                "length": 0,
                                "velocity": 100
                            }
                        },
                        "length": 0
                    }
                },
                "19584": {
                    "length": 384,
                    "name": "hh",
                    "data": {
                        "notes": {
                            "0": {
                                "key": "C5",
                                "pitch": 84,
                                "length": 0,
                                "velocity": 100
                            },
                            "24": {
                                "key": "C5",
                                "pitch": 84,
                                "length": 0,
                                "velocity": 100
                            },
                            "48": {
                                "key": "C5",
                                "pitch": 84,
                                "length": 0,
                                "velocity": 100
                            },
                            "72": {
                                "key": "C5",
                                "pitch": 84,
                                "length": 0,
                                "velocity": 100
                            },
                            "96": {
                                "key": "C5",
                                "pitch": 84,
                                "length": 0,
                                "velocity": 100
                            },
                            "120": {
                                "key": "C5",
                                "pitch": 84,
                                "length": 0,
                                "velocity": 100
                            },
                            "144": {
                                "key": "C5",
                                "pitch": 84,
                                "length": 0,
                                "velocity": 100
                            },
                            "168": {
                                "key": "C5",
                                "pitch": 84,
                                "length": 0,
                                "velocity": 100
                            },
                            "192": {
                                "key": "C5",
                                "pitch": 84,
                                "length": 0,
                                "velocity": 100
                            },
                            "216": {
                                "key": "C5",
                                "pitch": 84,
                                "length": 0,
                                "velocity": 100
                            },
                            "240": {
                                "key": "C5",
                                "pitch": 84,
                                "length": 0,
                                "velocity": 100
                            },
                            "264": {
                                "key": "C5",
                                "pitch": 84,
                                "length": 0,
                                "velocity": 100
                            },
                            "288": {
                                "key": "C5",
                                "pitch": 84,
                                "length": 0,
                                "velocity": 100
                            },
                            "312": {
                                "key": "C5",
                                "pitch": 84,
                                "length": 0,
                                "velocity": 100
                            },
                            "336": {
                                "key": "C5",
                                "pitch": 84,
                                "length": 0,
                                "velocity": 100
                            },
                            "360": {
                                "key": "C5",
                                "pitch": 84,
                                "length": 0,
                                "velocity": 100
                            }
                        },
                        "length": 0
                    }
                },
                "19968": {
                    "length": 384,
                    "name": "hh",
                    "data": {
                        "notes": {
                            "0": {
                                "key": "C5",
                                "pitch": 84,
                                "length": 0,
                                "velocity": 100
                            },
                            "24": {
                                "key": "C5",
                                "pitch": 84,
                                "length": 0,
                                "velocity": 100
                            },
                            "48": {
                                "key": "C5",
                                "pitch": 84,
                                "length": 0,
                                "velocity": 100
                            },
                            "72": {
                                "key": "C5",
                                "pitch": 84,
                                "length": 0,
                                "velocity": 100
                            },
                            "96": {
                                "key": "C5",
                                "pitch": 84,
                                "length": 0,
                                "velocity": 100
                            },
                            "120": {
                                "key": "C5",
                                "pitch": 84,
                                "length": 0,
                                "velocity": 100
                            },
                            "144": {
                                "key": "C5",
                                "pitch": 84,
                                "length": 0,
                                "velocity": 100
                            },
                            "168": {
                                "key": "C5",
                                "pitch": 84,
                                "length": 0,
                                "velocity": 100
                            },
                            "192": {
                                "key": "C5",
                                "pitch": 84,
                                "length": 0,
                                "velocity": 100
                            },
                            "216": {
                                "key": "C5",
                                "pitch": 84,
                                "length": 0,
                                "velocity": 100
                            },
                            "240": {
                                "key": "C5",
                                "pitch": 84,
                                "length": 0,
                                "velocity": 100
                            },
                            "264": {
                                "key": "C5",
                                "pitch": 84,
                                "length": 0,
                                "velocity": 100
                            },
                            "288": {
                                "key": "C5",
                                "pitch": 84,
                                "length": 0,
                                "velocity": 100
                            },
                            "312": {
                                "key": "C5",
                                "pitch": 84,
                                "length": 0,
                                "velocity": 100
                            },
                            "336": {
                                "key": "C5",
                                "pitch": 84,
                                "length": 0,
                                "velocity": 100
                            },
                            "360": {
                                "key": "C5",
                                "pitch": 84,
                                "length": 0,
                                "velocity": 100
                            }
                        },
                        "length": 0
                    }
                },
                "20352": {
                    "length": 384,
                    "name": "hh",
                    "data": {
                        "notes": {
                            "0": {
                                "key": "C5",
                                "pitch": 84,
                                "length": 0,
                                "velocity": 100
                            },
                            "24": {
                                "key": "C5",
                                "pitch": 84,
                                "length": 0,
                                "velocity": 100
                            },
                            "48": {
                                "key": "C5",
                                "pitch": 84,
                                "length": 0,
                                "velocity": 100
                            },
                            "72": {
                                "key": "C5",
                                "pitch": 84,
                                "length": 0,
                                "velocity": 100
                            },
                            "96": {
                                "key": "C5",
                                "pitch": 84,
                                "length": 0,
                                "velocity": 100
                            },
                            "120": {
                                "key": "C5",
                                "pitch": 84,
                                "length": 0,
                                "velocity": 100
                            },
                            "144": {
                                "key": "C5",
                                "pitch": 84,
                                "length": 0,
                                "velocity": 100
                            },
                            "168": {
                                "key": "C5",
                                "pitch": 84,
                                "length": 0,
                                "velocity": 100
                            },
                            "192": {
                                "key": "C5",
                                "pitch": 84,
                                "length": 0,
                                "velocity": 100
                            },
                            "216": {
                                "key": "C5",
                                "pitch": 84,
                                "length": 0,
                                "velocity": 100
                            },
                            "240": {
                                "key": "C5",
                                "pitch": 84,
                                "length": 0,
                                "velocity": 100
                            },
                            "264": {
                                "key": "C5",
                                "pitch": 84,
                                "length": 0,
                                "velocity": 100
                            },
                            "288": {
                                "key": "C5",
                                "pitch": 84,
                                "length": 0,
                                "velocity": 100
                            },
                            "312": {
                                "key": "C5",
                                "pitch": 84,
                                "length": 0,
                                "velocity": 100
                            },
                            "336": {
                                "key": "C5",
                                "pitch": 84,
                                "length": 0,
                                "velocity": 100
                            },
                            "360": {
                                "key": "C5",
                                "pitch": 84,
                                "length": 0,
                                "velocity": 100
                            }
                        },
                        "length": 0
                    }
                },
                "20736": {
                    "length": 384,
                    "name": "hh",
                    "data": {
                        "notes": {
                            "0": {
                                "key": "C5",
                                "pitch": 84,
                                "length": 0,
                                "velocity": 100
                            },
                            "24": {
                                "key": "C5",
                                "pitch": 84,
                                "length": 0,
                                "velocity": 100
                            },
                            "48": {
                                "key": "C5",
                                "pitch": 84,
                                "length": 0,
                                "velocity": 100
                            },
                            "72": {
                                "key": "C5",
                                "pitch": 84,
                                "length": 0,
                                "velocity": 100
                            },
                            "96": {
                                "key": "C5",
                                "pitch": 84,
                                "length": 0,
                                "velocity": 100
                            },
                            "120": {
                                "key": "C5",
                                "pitch": 84,
                                "length": 0,
                                "velocity": 100
                            },
                            "144": {
                                "key": "C5",
                                "pitch": 84,
                                "length": 0,
                                "velocity": 100
                            },
                            "168": {
                                "key": "C5",
                                "pitch": 84,
                                "length": 0,
                                "velocity": 100
                            },
                            "192": {
                                "key": "C5",
                                "pitch": 84,
                                "length": 0,
                                "velocity": 100
                            },
                            "216": {
                                "key": "C5",
                                "pitch": 84,
                                "length": 0,
                                "velocity": 100
                            },
                            "240": {
                                "key": "C5",
                                "pitch": 84,
                                "length": 0,
                                "velocity": 100
                            },
                            "264": {
                                "key": "C5",
                                "pitch": 84,
                                "length": 0,
                                "velocity": 100
                            },
                            "288": {
                                "key": "C5",
                                "pitch": 84,
                                "length": 0,
                                "velocity": 100
                            },
                            "312": {
                                "key": "C5",
                                "pitch": 84,
                                "length": 0,
                                "velocity": 100
                            },
                            "336": {
                                "key": "C5",
                                "pitch": 84,
                                "length": 0,
                                "velocity": 100
                            },
                            "360": {
                                "key": "C5",
                                "pitch": 84,
                                "length": 0,
                                "velocity": 100
                            }
                        },
                        "length": 0
                    }
                },
                "21120": {
                    "length": 384,
                    "name": "hh",
                    "data": {
                        "notes": {
                            "0": {
                                "key": "C5",
                                "pitch": 84,
                                "length": 0,
                                "velocity": 100
                            },
                            "24": {
                                "key": "C5",
                                "pitch": 84,
                                "length": 0,
                                "velocity": 100
                            },
                            "48": {
                                "key": "C5",
                                "pitch": 84,
                                "length": 0,
                                "velocity": 100
                            },
                            "72": {
                                "key": "C5",
                                "pitch": 84,
                                "length": 0,
                                "velocity": 100
                            },
                            "96": {
                                "key": "C5",
                                "pitch": 84,
                                "length": 0,
                                "velocity": 100
                            },
                            "120": {
                                "key": "C5",
                                "pitch": 84,
                                "length": 0,
                                "velocity": 100
                            },
                            "144": {
                                "key": "C5",
                                "pitch": 84,
                                "length": 0,
                                "velocity": 100
                            },
                            "168": {
                                "key": "C5",
                                "pitch": 84,
                                "length": 0,
                                "velocity": 100
                            },
                            "192": {
                                "key": "C5",
                                "pitch": 84,
                                "length": 0,
                                "velocity": 100
                            },
                            "216": {
                                "key": "C5",
                                "pitch": 84,
                                "length": 0,
                                "velocity": 100
                            },
                            "240": {
                                "key": "C5",
                                "pitch": 84,
                                "length": 0,
                                "velocity": 100
                            },
                            "264": {
                                "key": "C5",
                                "pitch": 84,
                                "length": 0,
                                "velocity": 100
                            },
                            "288": {
                                "key": "C5",
                                "pitch": 84,
                                "length": 0,
                                "velocity": 100
                            },
                            "312": {
                                "key": "C5",
                                "pitch": 84,
                                "length": 0,
                                "velocity": 100
                            },
                            "336": {
                                "key": "C5",
                                "pitch": 84,
                                "length": 0,
                                "velocity": 100
                            },
                            "360": {
                                "key": "C5",
                                "pitch": 84,
                                "length": 0,
                                "velocity": 100
                            }
                        },
                        "length": 0
                    }
                },
                "21504": {
                    "length": 384,
                    "name": "hh",
                    "data": {
                        "notes": {
                            "0": {
                                "key": "C5",
                                "pitch": 84,
                                "length": 0,
                                "velocity": 100
                            },
                            "24": {
                                "key": "C5",
                                "pitch": 84,
                                "length": 0,
                                "velocity": 100
                            },
                            "48": {
                                "key": "C5",
                                "pitch": 84,
                                "length": 0,
                                "velocity": 100
                            },
                            "72": {
                                "key": "C5",
                                "pitch": 84,
                                "length": 0,
                                "velocity": 100
                            },
                            "96": {
                                "key": "C5",
                                "pitch": 84,
                                "length": 0,
                                "velocity": 100
                            },
                            "120": {
                                "key": "C5",
                                "pitch": 84,
                                "length": 0,
                                "velocity": 100
                            },
                            "144": {
                                "key": "C5",
                                "pitch": 84,
                                "length": 0,
                                "velocity": 100
                            },
                            "168": {
                                "key": "C5",
                                "pitch": 84,
                                "length": 0,
                                "velocity": 100
                            },
                            "192": {
                                "key": "C5",
                                "pitch": 84,
                                "length": 0,
                                "velocity": 100
                            },
                            "216": {
                                "key": "C5",
                                "pitch": 84,
                                "length": 0,
                                "velocity": 100
                            },
                            "240": {
                                "key": "C5",
                                "pitch": 84,
                                "length": 0,
                                "velocity": 100
                            },
                            "264": {
                                "key": "C5",
                                "pitch": 84,
                                "length": 0,
                                "velocity": 100
                            },
                            "288": {
                                "key": "C5",
                                "pitch": 84,
                                "length": 0,
                                "velocity": 100
                            },
                            "312": {
                                "key": "C5",
                                "pitch": 84,
                                "length": 0,
                                "velocity": 100
                            },
                            "336": {
                                "key": "C5",
                                "pitch": 84,
                                "length": 0,
                                "velocity": 100
                            },
                            "360": {
                                "key": "C5",
                                "pitch": 84,
                                "length": 0,
                                "velocity": 100
                            }
                        },
                        "length": 0
                    }
                },
                "21888": {
                    "length": 384,
                    "name": "hh",
                    "data": {
                        "notes": {
                            "0": {
                                "key": "C5",
                                "pitch": 84,
                                "length": 0,
                                "velocity": 100
                            },
                            "24": {
                                "key": "C5",
                                "pitch": 84,
                                "length": 0,
                                "velocity": 100
                            },
                            "48": {
                                "key": "C5",
                                "pitch": 84,
                                "length": 0,
                                "velocity": 100
                            },
                            "72": {
                                "key": "C5",
                                "pitch": 84,
                                "length": 0,
                                "velocity": 100
                            },
                            "96": {
                                "key": "C5",
                                "pitch": 84,
                                "length": 0,
                                "velocity": 100
                            },
                            "120": {
                                "key": "C5",
                                "pitch": 84,
                                "length": 0,
                                "velocity": 100
                            },
                            "144": {
                                "key": "C5",
                                "pitch": 84,
                                "length": 0,
                                "velocity": 100
                            },
                            "168": {
                                "key": "C5",
                                "pitch": 84,
                                "length": 0,
                                "velocity": 100
                            },
                            "192": {
                                "key": "C5",
                                "pitch": 84,
                                "length": 0,
                                "velocity": 100
                            },
                            "216": {
                                "key": "C5",
                                "pitch": 84,
                                "length": 0,
                                "velocity": 100
                            },
                            "240": {
                                "key": "C5",
                                "pitch": 84,
                                "length": 0,
                                "velocity": 100
                            },
                            "264": {
                                "key": "C5",
                                "pitch": 84,
                                "length": 0,
                                "velocity": 100
                            },
                            "288": {
                                "key": "C5",
                                "pitch": 84,
                                "length": 0,
                                "velocity": 100
                            },
                            "312": {
                                "key": "C5",
                                "pitch": 84,
                                "length": 0,
                                "velocity": 100
                            },
                            "336": {
                                "key": "C5",
                                "pitch": 84,
                                "length": 0,
                                "velocity": 100
                            },
                            "360": {
                                "key": "C5",
                                "pitch": 84,
                                "length": 0,
                                "velocity": 100
                            }
                        },
                        "length": 0
                    }
                },
                "22272": {
                    "length": 384,
                    "name": "hh",
                    "data": {
                        "notes": {
                            "0": {
                                "key": "C5",
                                "pitch": 84,
                                "length": 0,
                                "velocity": 100
                            },
                            "24": {
                                "key": "C5",
                                "pitch": 84,
                                "length": 0,
                                "velocity": 100
                            },
                            "48": {
                                "key": "C5",
                                "pitch": 84,
                                "length": 0,
                                "velocity": 100
                            },
                            "72": {
                                "key": "C5",
                                "pitch": 84,
                                "length": 0,
                                "velocity": 100
                            },
                            "96": {
                                "key": "C5",
                                "pitch": 84,
                                "length": 0,
                                "velocity": 100
                            },
                            "120": {
                                "key": "C5",
                                "pitch": 84,
                                "length": 0,
                                "velocity": 100
                            },
                            "144": {
                                "key": "C5",
                                "pitch": 84,
                                "length": 0,
                                "velocity": 100
                            },
                            "168": {
                                "key": "C5",
                                "pitch": 84,
                                "length": 0,
                                "velocity": 100
                            },
                            "192": {
                                "key": "C5",
                                "pitch": 84,
                                "length": 0,
                                "velocity": 100
                            },
                            "216": {
                                "key": "C5",
                                "pitch": 84,
                                "length": 0,
                                "velocity": 100
                            },
                            "240": {
                                "key": "C5",
                                "pitch": 84,
                                "length": 0,
                                "velocity": 100
                            },
                            "264": {
                                "key": "C5",
                                "pitch": 84,
                                "length": 0,
                                "velocity": 100
                            },
                            "288": {
                                "key": "C5",
                                "pitch": 84,
                                "length": 0,
                                "velocity": 100
                            },
                            "312": {
                                "key": "C5",
                                "pitch": 84,
                                "length": 0,
                                "velocity": 100
                            },
                            "336": {
                                "key": "C5",
                                "pitch": 84,
                                "length": 0,
                                "velocity": 100
                            },
                            "360": {
                                "key": "C5",
                                "pitch": 84,
                                "length": 0,
                                "velocity": 100
                            }
                        },
                        "length": 0
                    }
                },
                "22656": {
                    "length": 384,
                    "name": "hh",
                    "data": {
                        "notes": {
                            "0": {
                                "key": "C5",
                                "pitch": 84,
                                "length": 0,
                                "velocity": 100
                            },
                            "24": {
                                "key": "C5",
                                "pitch": 84,
                                "length": 0,
                                "velocity": 100
                            },
                            "48": {
                                "key": "C5",
                                "pitch": 84,
                                "length": 0,
                                "velocity": 100
                            },
                            "72": {
                                "key": "C5",
                                "pitch": 84,
                                "length": 0,
                                "velocity": 100
                            },
                            "96": {
                                "key": "C5",
                                "pitch": 84,
                                "length": 0,
                                "velocity": 100
                            },
                            "120": {
                                "key": "C5",
                                "pitch": 84,
                                "length": 0,
                                "velocity": 100
                            },
                            "144": {
                                "key": "C5",
                                "pitch": 84,
                                "length": 0,
                                "velocity": 100
                            },
                            "168": {
                                "key": "C5",
                                "pitch": 84,
                                "length": 0,
                                "velocity": 100
                            },
                            "192": {
                                "key": "C5",
                                "pitch": 84,
                                "length": 0,
                                "velocity": 100
                            },
                            "216": {
                                "key": "C5",
                                "pitch": 84,
                                "length": 0,
                                "velocity": 100
                            },
                            "240": {
                                "key": "C5",
                                "pitch": 84,
                                "length": 0,
                                "velocity": 100
                            },
                            "264": {
                                "key": "C5",
                                "pitch": 84,
                                "length": 0,
                                "velocity": 100
                            },
                            "288": {
                                "key": "C5",
                                "pitch": 84,
                                "length": 0,
                                "velocity": 100
                            },
                            "312": {
                                "key": "C5",
                                "pitch": 84,
                                "length": 0,
                                "velocity": 100
                            },
                            "336": {
                                "key": "C5",
                                "pitch": 84,
                                "length": 0,
                                "velocity": 100
                            },
                            "360": {
                                "key": "C5",
                                "pitch": 84,
                                "length": 0,
                                "velocity": 100
                            }
                        },
                        "length": 0
                    }
                },
                "23040": {
                    "length": 384,
                    "name": "hh",
                    "data": {
                        "notes": {
                            "0": {
                                "key": "C5",
                                "pitch": 84,
                                "length": 0,
                                "velocity": 100
                            },
                            "24": {
                                "key": "C5",
                                "pitch": 84,
                                "length": 0,
                                "velocity": 100
                            },
                            "48": {
                                "key": "C5",
                                "pitch": 84,
                                "length": 0,
                                "velocity": 100
                            },
                            "72": {
                                "key": "C5",
                                "pitch": 84,
                                "length": 0,
                                "velocity": 100
                            },
                            "96": {
                                "key": "C5",
                                "pitch": 84,
                                "length": 0,
                                "velocity": 100
                            },
                            "120": {
                                "key": "C5",
                                "pitch": 84,
                                "length": 0,
                                "velocity": 100
                            },
                            "144": {
                                "key": "C5",
                                "pitch": 84,
                                "length": 0,
                                "velocity": 100
                            },
                            "168": {
                                "key": "C5",
                                "pitch": 84,
                                "length": 0,
                                "velocity": 100
                            },
                            "192": {
                                "key": "C5",
                                "pitch": 84,
                                "length": 0,
                                "velocity": 100
                            },
                            "216": {
                                "key": "C5",
                                "pitch": 84,
                                "length": 0,
                                "velocity": 100
                            },
                            "240": {
                                "key": "C5",
                                "pitch": 84,
                                "length": 0,
                                "velocity": 100
                            },
                            "264": {
                                "key": "C5",
                                "pitch": 84,
                                "length": 0,
                                "velocity": 100
                            },
                            "288": {
                                "key": "C5",
                                "pitch": 84,
                                "length": 0,
                                "velocity": 100
                            },
                            "312": {
                                "key": "C5",
                                "pitch": 84,
                                "length": 0,
                                "velocity": 100
                            },
                            "336": {
                                "key": "C5",
                                "pitch": 84,
                                "length": 0,
                                "velocity": 100
                            },
                            "360": {
                                "key": "C5",
                                "pitch": 84,
                                "length": 0,
                                "velocity": 100
                            }
                        },
                        "length": 0
                    }
                },
                "23424": {
                    "length": 384,
                    "name": "hh",
                    "data": {
                        "notes": {
                            "0": {
                                "key": "C5",
                                "pitch": 84,
                                "length": 0,
                                "velocity": 100
                            },
                            "24": {
                                "key": "C5",
                                "pitch": 84,
                                "length": 0,
                                "velocity": 100
                            },
                            "48": {
                                "key": "C5",
                                "pitch": 84,
                                "length": 0,
                                "velocity": 100
                            },
                            "72": {
                                "key": "C5",
                                "pitch": 84,
                                "length": 0,
                                "velocity": 100
                            },
                            "96": {
                                "key": "C5",
                                "pitch": 84,
                                "length": 0,
                                "velocity": 100
                            },
                            "120": {
                                "key": "C5",
                                "pitch": 84,
                                "length": 0,
                                "velocity": 100
                            },
                            "144": {
                                "key": "C5",
                                "pitch": 84,
                                "length": 0,
                                "velocity": 100
                            },
                            "168": {
                                "key": "C5",
                                "pitch": 84,
                                "length": 0,
                                "velocity": 100
                            },
                            "192": {
                                "key": "C5",
                                "pitch": 84,
                                "length": 0,
                                "velocity": 100
                            },
                            "216": {
                                "key": "C5",
                                "pitch": 84,
                                "length": 0,
                                "velocity": 100
                            },
                            "240": {
                                "key": "C5",
                                "pitch": 84,
                                "length": 0,
                                "velocity": 100
                            },
                            "264": {
                                "key": "C5",
                                "pitch": 84,
                                "length": 0,
                                "velocity": 100
                            },
                            "288": {
                                "key": "C5",
                                "pitch": 84,
                                "length": 0,
                                "velocity": 100
                            },
                            "312": {
                                "key": "C5",
                                "pitch": 84,
                                "length": 0,
                                "velocity": 100
                            },
                            "336": {
                                "key": "C5",
                                "pitch": 84,
                                "length": 0,
                                "velocity": 100
                            },
                            "360": {
                                "key": "C5",
                                "pitch": 84,
                                "length": 0,
                                "velocity": 100
                            }
                        },
                        "length": 0
                    }
                },
                "23808": {
                    "length": 384,
                    "name": "hh",
                    "data": {
                        "notes": {
                            "0": {
                                "key": "C5",
                                "pitch": 84,
                                "length": 0,
                                "velocity": 100
                            },
                            "24": {
                                "key": "C5",
                                "pitch": 84,
                                "length": 0,
                                "velocity": 100
                            },
                            "48": {
                                "key": "C5",
                                "pitch": 84,
                                "length": 0,
                                "velocity": 100
                            },
                            "72": {
                                "key": "C5",
                                "pitch": 84,
                                "length": 0,
                                "velocity": 100
                            },
                            "96": {
                                "key": "C5",
                                "pitch": 84,
                                "length": 0,
                                "velocity": 100
                            },
                            "120": {
                                "key": "C5",
                                "pitch": 84,
                                "length": 0,
                                "velocity": 100
                            },
                            "144": {
                                "key": "C5",
                                "pitch": 84,
                                "length": 0,
                                "velocity": 100
                            },
                            "168": {
                                "key": "C5",
                                "pitch": 84,
                                "length": 0,
                                "velocity": 100
                            },
                            "192": {
                                "key": "C5",
                                "pitch": 84,
                                "length": 0,
                                "velocity": 100
                            },
                            "216": {
                                "key": "C5",
                                "pitch": 84,
                                "length": 0,
                                "velocity": 100
                            },
                            "240": {
                                "key": "C5",
                                "pitch": 84,
                                "length": 0,
                                "velocity": 100
                            },
                            "264": {
                                "key": "C5",
                                "pitch": 84,
                                "length": 0,
                                "velocity": 100
                            },
                            "288": {
                                "key": "C5",
                                "pitch": 84,
                                "length": 0,
                                "velocity": 100
                            },
                            "312": {
                                "key": "C5",
                                "pitch": 84,
                                "length": 0,
                                "velocity": 100
                            },
                            "336": {
                                "key": "C5",
                                "pitch": 84,
                                "length": 0,
                                "velocity": 100
                            },
                            "360": {
                                "key": "C5",
                                "pitch": 84,
                                "length": 0,
                                "velocity": 100
                            }
                        },
                        "length": 0
                    }
                },
                "24192": {
                    "length": 384,
                    "name": "hh",
                    "data": {
                        "notes": {
                            "0": {
                                "key": "C5",
                                "pitch": 84,
                                "length": 0,
                                "velocity": 100
                            },
                            "24": {
                                "key": "C5",
                                "pitch": 84,
                                "length": 0,
                                "velocity": 100
                            },
                            "48": {
                                "key": "C5",
                                "pitch": 84,
                                "length": 0,
                                "velocity": 100
                            },
                            "72": {
                                "key": "C5",
                                "pitch": 84,
                                "length": 0,
                                "velocity": 100
                            },
                            "96": {
                                "key": "C5",
                                "pitch": 84,
                                "length": 0,
                                "velocity": 100
                            },
                            "120": {
                                "key": "C5",
                                "pitch": 84,
                                "length": 0,
                                "velocity": 100
                            },
                            "144": {
                                "key": "C5",
                                "pitch": 84,
                                "length": 0,
                                "velocity": 100
                            },
                            "168": {
                                "key": "C5",
                                "pitch": 84,
                                "length": 0,
                                "velocity": 100
                            },
                            "192": {
                                "key": "C5",
                                "pitch": 84,
                                "length": 0,
                                "velocity": 100
                            },
                            "216": {
                                "key": "C5",
                                "pitch": 84,
                                "length": 0,
                                "velocity": 100
                            },
                            "240": {
                                "key": "C5",
                                "pitch": 84,
                                "length": 0,
                                "velocity": 100
                            },
                            "264": {
                                "key": "C5",
                                "pitch": 84,
                                "length": 0,
                                "velocity": 100
                            },
                            "288": {
                                "key": "C5",
                                "pitch": 84,
                                "length": 0,
                                "velocity": 100
                            },
                            "312": {
                                "key": "C5",
                                "pitch": 84,
                                "length": 0,
                                "velocity": 100
                            },
                            "336": {
                                "key": "C5",
                                "pitch": 84,
                                "length": 0,
                                "velocity": 100
                            },
                            "360": {
                                "key": "C5",
                                "pitch": 84,
                                "length": 0,
                                "velocity": 100
                            }
                        },
                        "length": 0
                    }
                },
                "24576": {
                    "length": 384,
                    "name": "hh",
                    "data": {
                        "notes": {
                            "0": {
                                "key": "C5",
                                "pitch": 84,
                                "length": 0,
                                "velocity": 100
                            },
                            "24": {
                                "key": "C5",
                                "pitch": 84,
                                "length": 0,
                                "velocity": 100
                            },
                            "48": {
                                "key": "C5",
                                "pitch": 84,
                                "length": 0,
                                "velocity": 100
                            },
                            "72": {
                                "key": "C5",
                                "pitch": 84,
                                "length": 0,
                                "velocity": 100
                            },
                            "96": {
                                "key": "C5",
                                "pitch": 84,
                                "length": 0,
                                "velocity": 100
                            },
                            "120": {
                                "key": "C5",
                                "pitch": 84,
                                "length": 0,
                                "velocity": 100
                            },
                            "144": {
                                "key": "C5",
                                "pitch": 84,
                                "length": 0,
                                "velocity": 100
                            },
                            "168": {
                                "key": "C5",
                                "pitch": 84,
                                "length": 0,
                                "velocity": 100
                            },
                            "192": {
                                "key": "C5",
                                "pitch": 84,
                                "length": 0,
                                "velocity": 100
                            },
                            "216": {
                                "key": "C5",
                                "pitch": 84,
                                "length": 0,
                                "velocity": 100
                            },
                            "240": {
                                "key": "C5",
                                "pitch": 84,
                                "length": 0,
                                "velocity": 100
                            },
                            "264": {
                                "key": "C5",
                                "pitch": 84,
                                "length": 0,
                                "velocity": 100
                            },
                            "288": {
                                "key": "C5",
                                "pitch": 84,
                                "length": 0,
                                "velocity": 100
                            },
                            "312": {
                                "key": "C5",
                                "pitch": 84,
                                "length": 0,
                                "velocity": 100
                            },
                            "336": {
                                "key": "C5",
                                "pitch": 84,
                                "length": 0,
                                "velocity": 100
                            },
                            "360": {
                                "key": "C5",
                                "pitch": 84,
                                "length": 0,
                                "velocity": 100
                            }
                        },
                        "length": 0
                    }
                },
                "24960": {
                    "length": 384,
                    "name": "hh",
                    "data": {
                        "notes": {
                            "0": {
                                "key": "C5",
                                "pitch": 84,
                                "length": 0,
                                "velocity": 100
                            },
                            "24": {
                                "key": "C5",
                                "pitch": 84,
                                "length": 0,
                                "velocity": 100
                            },
                            "48": {
                                "key": "C5",
                                "pitch": 84,
                                "length": 0,
                                "velocity": 100
                            },
                            "72": {
                                "key": "C5",
                                "pitch": 84,
                                "length": 0,
                                "velocity": 100
                            },
                            "96": {
                                "key": "C5",
                                "pitch": 84,
                                "length": 0,
                                "velocity": 100
                            },
                            "120": {
                                "key": "C5",
                                "pitch": 84,
                                "length": 0,
                                "velocity": 100
                            },
                            "144": {
                                "key": "C5",
                                "pitch": 84,
                                "length": 0,
                                "velocity": 100
                            },
                            "168": {
                                "key": "C5",
                                "pitch": 84,
                                "length": 0,
                                "velocity": 100
                            },
                            "192": {
                                "key": "C5",
                                "pitch": 84,
                                "length": 0,
                                "velocity": 100
                            },
                            "216": {
                                "key": "C5",
                                "pitch": 84,
                                "length": 0,
                                "velocity": 100
                            },
                            "240": {
                                "key": "C5",
                                "pitch": 84,
                                "length": 0,
                                "velocity": 100
                            },
                            "264": {
                                "key": "C5",
                                "pitch": 84,
                                "length": 0,
                                "velocity": 100
                            },
                            "288": {
                                "key": "C5",
                                "pitch": 84,
                                "length": 0,
                                "velocity": 100
                            },
                            "312": {
                                "key": "C5",
                                "pitch": 84,
                                "length": 0,
                                "velocity": 100
                            },
                            "336": {
                                "key": "C5",
                                "pitch": 84,
                                "length": 0,
                                "velocity": 100
                            },
                            "360": {
                                "key": "C5",
                                "pitch": 84,
                                "length": 0,
                                "velocity": 100
                            }
                        },
                        "length": 0
                    }
                },
                "25344": {
                    "length": 384,
                    "name": "hh",
                    "data": {
                        "notes": {
                            "0": {
                                "key": "C5",
                                "pitch": 84,
                                "length": 0,
                                "velocity": 100
                            },
                            "24": {
                                "key": "C5",
                                "pitch": 84,
                                "length": 0,
                                "velocity": 100
                            },
                            "48": {
                                "key": "C5",
                                "pitch": 84,
                                "length": 0,
                                "velocity": 100
                            },
                            "72": {
                                "key": "C5",
                                "pitch": 84,
                                "length": 0,
                                "velocity": 100
                            },
                            "96": {
                                "key": "C5",
                                "pitch": 84,
                                "length": 0,
                                "velocity": 100
                            },
                            "120": {
                                "key": "C5",
                                "pitch": 84,
                                "length": 0,
                                "velocity": 100
                            },
                            "144": {
                                "key": "C5",
                                "pitch": 84,
                                "length": 0,
                                "velocity": 100
                            },
                            "168": {
                                "key": "C5",
                                "pitch": 84,
                                "length": 0,
                                "velocity": 100
                            },
                            "192": {
                                "key": "C5",
                                "pitch": 84,
                                "length": 0,
                                "velocity": 100
                            },
                            "216": {
                                "key": "C5",
                                "pitch": 84,
                                "length": 0,
                                "velocity": 100
                            },
                            "240": {
                                "key": "C5",
                                "pitch": 84,
                                "length": 0,
                                "velocity": 100
                            },
                            "264": {
                                "key": "C5",
                                "pitch": 84,
                                "length": 0,
                                "velocity": 100
                            },
                            "288": {
                                "key": "C5",
                                "pitch": 84,
                                "length": 0,
                                "velocity": 100
                            },
                            "312": {
                                "key": "C5",
                                "pitch": 84,
                                "length": 0,
                                "velocity": 100
                            },
                            "336": {
                                "key": "C5",
                                "pitch": 84,
                                "length": 0,
                                "velocity": 100
                            },
                            "360": {
                                "key": "C5",
                                "pitch": 84,
                                "length": 0,
                                "velocity": 100
                            }
                        },
                        "length": 0
                    }
                },
                "25728": {
                    "length": 384,
                    "name": "hh",
                    "data": {
                        "notes": {
                            "0": {
                                "key": "C5",
                                "pitch": 84,
                                "length": 0,
                                "velocity": 100
                            },
                            "24": {
                                "key": "C5",
                                "pitch": 84,
                                "length": 0,
                                "velocity": 100
                            },
                            "48": {
                                "key": "C5",
                                "pitch": 84,
                                "length": 0,
                                "velocity": 100
                            },
                            "72": {
                                "key": "C5",
                                "pitch": 84,
                                "length": 0,
                                "velocity": 100
                            },
                            "96": {
                                "key": "C5",
                                "pitch": 84,
                                "length": 0,
                                "velocity": 100
                            },
                            "120": {
                                "key": "C5",
                                "pitch": 84,
                                "length": 0,
                                "velocity": 100
                            },
                            "144": {
                                "key": "C5",
                                "pitch": 84,
                                "length": 0,
                                "velocity": 100
                            },
                            "168": {
                                "key": "C5",
                                "pitch": 84,
                                "length": 0,
                                "velocity": 100
                            },
                            "192": {
                                "key": "C5",
                                "pitch": 84,
                                "length": 0,
                                "velocity": 100
                            },
                            "216": {
                                "key": "C5",
                                "pitch": 84,
                                "length": 0,
                                "velocity": 100
                            },
                            "240": {
                                "key": "C5",
                                "pitch": 84,
                                "length": 0,
                                "velocity": 100
                            },
                            "264": {
                                "key": "C5",
                                "pitch": 84,
                                "length": 0,
                                "velocity": 100
                            },
                            "288": {
                                "key": "C5",
                                "pitch": 84,
                                "length": 0,
                                "velocity": 100
                            },
                            "312": {
                                "key": "C5",
                                "pitch": 84,
                                "length": 0,
                                "velocity": 100
                            },
                            "336": {
                                "key": "C5",
                                "pitch": 84,
                                "length": 0,
                                "velocity": 100
                            },
                            "360": {
                                "key": "C5",
                                "pitch": 84,
                                "length": 0,
                                "velocity": 100
                            }
                        },
                        "length": 0
                    }
                },
                "26112": {
                    "length": 384,
                    "name": "hh",
                    "data": {
                        "notes": {
                            "0": {
                                "key": "C5",
                                "pitch": 84,
                                "length": 0,
                                "velocity": 100
                            },
                            "24": {
                                "key": "C5",
                                "pitch": 84,
                                "length": 0,
                                "velocity": 100
                            },
                            "48": {
                                "key": "C5",
                                "pitch": 84,
                                "length": 0,
                                "velocity": 100
                            },
                            "72": {
                                "key": "C5",
                                "pitch": 84,
                                "length": 0,
                                "velocity": 100
                            },
                            "96": {
                                "key": "C5",
                                "pitch": 84,
                                "length": 0,
                                "velocity": 100
                            },
                            "120": {
                                "key": "C5",
                                "pitch": 84,
                                "length": 0,
                                "velocity": 100
                            },
                            "144": {
                                "key": "C5",
                                "pitch": 84,
                                "length": 0,
                                "velocity": 100
                            },
                            "168": {
                                "key": "C5",
                                "pitch": 84,
                                "length": 0,
                                "velocity": 100
                            },
                            "192": {
                                "key": "C5",
                                "pitch": 84,
                                "length": 0,
                                "velocity": 100
                            },
                            "216": {
                                "key": "C5",
                                "pitch": 84,
                                "length": 0,
                                "velocity": 100
                            },
                            "240": {
                                "key": "C5",
                                "pitch": 84,
                                "length": 0,
                                "velocity": 100
                            },
                            "264": {
                                "key": "C5",
                                "pitch": 84,
                                "length": 0,
                                "velocity": 100
                            },
                            "288": {
                                "key": "C5",
                                "pitch": 84,
                                "length": 0,
                                "velocity": 100
                            },
                            "312": {
                                "key": "C5",
                                "pitch": 84,
                                "length": 0,
                                "velocity": 100
                            },
                            "336": {
                                "key": "C5",
                                "pitch": 84,
                                "length": 0,
                                "velocity": 100
                            },
                            "360": {
                                "key": "C5",
                                "pitch": 84,
                                "length": 0,
                                "velocity": 100
                            }
                        },
                        "length": 0
                    }
                },
                "26496": {
                    "length": 384,
                    "name": "hh",
                    "data": {
                        "notes": {
                            "0": {
                                "key": "C5",
                                "pitch": 84,
                                "length": 0,
                                "velocity": 100
                            },
                            "24": {
                                "key": "C5",
                                "pitch": 84,
                                "length": 0,
                                "velocity": 100
                            },
                            "48": {
                                "key": "C5",
                                "pitch": 84,
                                "length": 0,
                                "velocity": 100
                            },
                            "72": {
                                "key": "C5",
                                "pitch": 84,
                                "length": 0,
                                "velocity": 100
                            },
                            "96": {
                                "key": "C5",
                                "pitch": 84,
                                "length": 0,
                                "velocity": 100
                            },
                            "120": {
                                "key": "C5",
                                "pitch": 84,
                                "length": 0,
                                "velocity": 100
                            },
                            "144": {
                                "key": "C5",
                                "pitch": 84,
                                "length": 0,
                                "velocity": 100
                            },
                            "168": {
                                "key": "C5",
                                "pitch": 84,
                                "length": 0,
                                "velocity": 100
                            },
                            "192": {
                                "key": "C5",
                                "pitch": 84,
                                "length": 0,
                                "velocity": 100
                            },
                            "216": {
                                "key": "C5",
                                "pitch": 84,
                                "length": 0,
                                "velocity": 100
                            },
                            "240": {
                                "key": "C5",
                                "pitch": 84,
                                "length": 0,
                                "velocity": 100
                            },
                            "264": {
                                "key": "C5",
                                "pitch": 84,
                                "length": 0,
                                "velocity": 100
                            },
                            "288": {
                                "key": "C5",
                                "pitch": 84,
                                "length": 0,
                                "velocity": 100
                            },
                            "312": {
                                "key": "C5",
                                "pitch": 84,
                                "length": 0,
                                "velocity": 100
                            },
                            "336": {
                                "key": "C5",
                                "pitch": 84,
                                "length": 0,
                                "velocity": 100
                            },
                            "360": {
                                "key": "C5",
                                "pitch": 84,
                                "length": 0,
                                "velocity": 100
                            }
                        },
                        "length": 0
                    }
                },
                "26880": {
                    "length": 384,
                    "name": "hh",
                    "data": {
                        "notes": {
                            "0": {
                                "key": "C5",
                                "pitch": 84,
                                "length": 0,
                                "velocity": 100
                            },
                            "24": {
                                "key": "C5",
                                "pitch": 84,
                                "length": 0,
                                "velocity": 100
                            },
                            "48": {
                                "key": "C5",
                                "pitch": 84,
                                "length": 0,
                                "velocity": 100
                            },
                            "72": {
                                "key": "C5",
                                "pitch": 84,
                                "length": 0,
                                "velocity": 100
                            },
                            "96": {
                                "key": "C5",
                                "pitch": 84,
                                "length": 0,
                                "velocity": 100
                            },
                            "120": {
                                "key": "C5",
                                "pitch": 84,
                                "length": 0,
                                "velocity": 100
                            },
                            "144": {
                                "key": "C5",
                                "pitch": 84,
                                "length": 0,
                                "velocity": 100
                            },
                            "168": {
                                "key": "C5",
                                "pitch": 84,
                                "length": 0,
                                "velocity": 100
                            },
                            "192": {
                                "key": "C5",
                                "pitch": 84,
                                "length": 0,
                                "velocity": 100
                            },
                            "216": {
                                "key": "C5",
                                "pitch": 84,
                                "length": 0,
                                "velocity": 100
                            },
                            "240": {
                                "key": "C5",
                                "pitch": 84,
                                "length": 0,
                                "velocity": 100
                            },
                            "264": {
                                "key": "C5",
                                "pitch": 84,
                                "length": 0,
                                "velocity": 100
                            },
                            "288": {
                                "key": "C5",
                                "pitch": 84,
                                "length": 0,
                                "velocity": 100
                            },
                            "312": {
                                "key": "C5",
                                "pitch": 84,
                                "length": 0,
                                "velocity": 100
                            },
                            "336": {
                                "key": "C5",
                                "pitch": 84,
                                "length": 0,
                                "velocity": 100
                            },
                            "360": {
                                "key": "C5",
                                "pitch": 84,
                                "length": 0,
                                "velocity": 100
                            }
                        },
                        "length": 0
                    }
                },
                "27264": {
                    "length": 384,
                    "name": "hh",
                    "data": {
                        "notes": {
                            "0": {
                                "key": "C5",
                                "pitch": 84,
                                "length": 0,
                                "velocity": 100
                            },
                            "24": {
                                "key": "C5",
                                "pitch": 84,
                                "length": 0,
                                "velocity": 100
                            },
                            "48": {
                                "key": "C5",
                                "pitch": 84,
                                "length": 0,
                                "velocity": 100
                            },
                            "72": {
                                "key": "C5",
                                "pitch": 84,
                                "length": 0,
                                "velocity": 100
                            },
                            "96": {
                                "key": "C5",
                                "pitch": 84,
                                "length": 0,
                                "velocity": 100
                            },
                            "120": {
                                "key": "C5",
                                "pitch": 84,
                                "length": 0,
                                "velocity": 100
                            },
                            "144": {
                                "key": "C5",
                                "pitch": 84,
                                "length": 0,
                                "velocity": 100
                            },
                            "168": {
                                "key": "C5",
                                "pitch": 84,
                                "length": 0,
                                "velocity": 100
                            },
                            "192": {
                                "key": "C5",
                                "pitch": 84,
                                "length": 0,
                                "velocity": 100
                            },
                            "216": {
                                "key": "C5",
                                "pitch": 84,
                                "length": 0,
                                "velocity": 100
                            },
                            "240": {
                                "key": "C5",
                                "pitch": 84,
                                "length": 0,
                                "velocity": 100
                            },
                            "264": {
                                "key": "C5",
                                "pitch": 84,
                                "length": 0,
                                "velocity": 100
                            },
                            "288": {
                                "key": "C5",
                                "pitch": 84,
                                "length": 0,
                                "velocity": 100
                            },
                            "312": {
                                "key": "C5",
                                "pitch": 84,
                                "length": 0,
                                "velocity": 100
                            },
                            "336": {
                                "key": "C5",
                                "pitch": 84,
                                "length": 0,
                                "velocity": 100
                            },
                            "360": {
                                "key": "C5",
                                "pitch": 84,
                                "length": 0,
                                "velocity": 100
                            }
                        },
                        "length": 0
                    }
                },
                "27648": {
                    "length": 384,
                    "name": "hh",
                    "data": {
                        "notes": {
                            "0": {
                                "key": "C5",
                                "pitch": 84,
                                "length": 0,
                                "velocity": 100
                            },
                            "24": {
                                "key": "C5",
                                "pitch": 84,
                                "length": 0,
                                "velocity": 100
                            },
                            "48": {
                                "key": "C5",
                                "pitch": 84,
                                "length": 0,
                                "velocity": 100
                            },
                            "72": {
                                "key": "C5",
                                "pitch": 84,
                                "length": 0,
                                "velocity": 100
                            },
                            "96": {
                                "key": "C5",
                                "pitch": 84,
                                "length": 0,
                                "velocity": 100
                            },
                            "120": {
                                "key": "C5",
                                "pitch": 84,
                                "length": 0,
                                "velocity": 100
                            },
                            "144": {
                                "key": "C5",
                                "pitch": 84,
                                "length": 0,
                                "velocity": 100
                            },
                            "168": {
                                "key": "C5",
                                "pitch": 84,
                                "length": 0,
                                "velocity": 100
                            },
                            "192": {
                                "key": "C5",
                                "pitch": 84,
                                "length": 0,
                                "velocity": 100
                            },
                            "216": {
                                "key": "C5",
                                "pitch": 84,
                                "length": 0,
                                "velocity": 100
                            },
                            "240": {
                                "key": "C5",
                                "pitch": 84,
                                "length": 0,
                                "velocity": 100
                            },
                            "264": {
                                "key": "C5",
                                "pitch": 84,
                                "length": 0,
                                "velocity": 100
                            },
                            "288": {
                                "key": "C5",
                                "pitch": 84,
                                "length": 0,
                                "velocity": 100
                            },
                            "312": {
                                "key": "C5",
                                "pitch": 84,
                                "length": 0,
                                "velocity": 100
                            },
                            "336": {
                                "key": "C5",
                                "pitch": 84,
                                "length": 0,
                                "velocity": 100
                            },
                            "360": {
                                "key": "C5",
                                "pitch": 84,
                                "length": 0,
                                "velocity": 100
                            }
                        },
                        "length": 0
                    }
                },
                "28032": {
                    "length": 384,
                    "name": "hh",
                    "data": {
                        "notes": {
                            "0": {
                                "key": "C5",
                                "pitch": 84,
                                "length": 0,
                                "velocity": 100
                            },
                            "24": {
                                "key": "C5",
                                "pitch": 84,
                                "length": 0,
                                "velocity": 100
                            },
                            "48": {
                                "key": "C5",
                                "pitch": 84,
                                "length": 0,
                                "velocity": 100
                            },
                            "72": {
                                "key": "C5",
                                "pitch": 84,
                                "length": 0,
                                "velocity": 100
                            },
                            "96": {
                                "key": "C5",
                                "pitch": 84,
                                "length": 0,
                                "velocity": 100
                            },
                            "120": {
                                "key": "C5",
                                "pitch": 84,
                                "length": 0,
                                "velocity": 100
                            },
                            "144": {
                                "key": "C5",
                                "pitch": 84,
                                "length": 0,
                                "velocity": 100
                            },
                            "168": {
                                "key": "C5",
                                "pitch": 84,
                                "length": 0,
                                "velocity": 100
                            },
                            "192": {
                                "key": "C5",
                                "pitch": 84,
                                "length": 0,
                                "velocity": 100
                            },
                            "216": {
                                "key": "C5",
                                "pitch": 84,
                                "length": 0,
                                "velocity": 100
                            },
                            "240": {
                                "key": "C5",
                                "pitch": 84,
                                "length": 0,
                                "velocity": 100
                            },
                            "264": {
                                "key": "C5",
                                "pitch": 84,
                                "length": 0,
                                "velocity": 100
                            },
                            "288": {
                                "key": "C5",
                                "pitch": 84,
                                "length": 0,
                                "velocity": 100
                            },
                            "312": {
                                "key": "C5",
                                "pitch": 84,
                                "length": 0,
                                "velocity": 100
                            },
                            "336": {
                                "key": "C5",
                                "pitch": 84,
                                "length": 0,
                                "velocity": 100
                            },
                            "360": {
                                "key": "C5",
                                "pitch": 84,
                                "length": 0,
                                "velocity": 100
                            }
                        },
                        "length": 0
                    }
                },
                "28416": {
                    "length": 384,
                    "name": "hh",
                    "data": {
                        "notes": {
                            "0": {
                                "key": "C5",
                                "pitch": 84,
                                "length": 0,
                                "velocity": 100
                            },
                            "24": {
                                "key": "C5",
                                "pitch": 84,
                                "length": 0,
                                "velocity": 100
                            },
                            "48": {
                                "key": "C5",
                                "pitch": 84,
                                "length": 0,
                                "velocity": 100
                            },
                            "72": {
                                "key": "C5",
                                "pitch": 84,
                                "length": 0,
                                "velocity": 100
                            },
                            "96": {
                                "key": "C5",
                                "pitch": 84,
                                "length": 0,
                                "velocity": 100
                            },
                            "120": {
                                "key": "C5",
                                "pitch": 84,
                                "length": 0,
                                "velocity": 100
                            },
                            "144": {
                                "key": "C5",
                                "pitch": 84,
                                "length": 0,
                                "velocity": 100
                            },
                            "168": {
                                "key": "C5",
                                "pitch": 84,
                                "length": 0,
                                "velocity": 100
                            },
                            "192": {
                                "key": "C5",
                                "pitch": 84,
                                "length": 0,
                                "velocity": 100
                            },
                            "216": {
                                "key": "C5",
                                "pitch": 84,
                                "length": 0,
                                "velocity": 100
                            },
                            "240": {
                                "key": "C5",
                                "pitch": 84,
                                "length": 0,
                                "velocity": 100
                            },
                            "264": {
                                "key": "C5",
                                "pitch": 84,
                                "length": 0,
                                "velocity": 100
                            },
                            "288": {
                                "key": "C5",
                                "pitch": 84,
                                "length": 0,
                                "velocity": 100
                            },
                            "312": {
                                "key": "C5",
                                "pitch": 84,
                                "length": 0,
                                "velocity": 100
                            },
                            "336": {
                                "key": "C5",
                                "pitch": 84,
                                "length": 0,
                                "velocity": 100
                            },
                            "360": {
                                "key": "C5",
                                "pitch": 84,
                                "length": 0,
                                "velocity": 100
                            }
                        },
                        "length": 0
                    }
                },
                "28800": {
                    "length": 384,
                    "name": "hh",
                    "data": {
                        "notes": {
                            "0": {
                                "key": "C5",
                                "pitch": 84,
                                "length": 0,
                                "velocity": 100
                            },
                            "24": {
                                "key": "C5",
                                "pitch": 84,
                                "length": 0,
                                "velocity": 100
                            },
                            "48": {
                                "key": "C5",
                                "pitch": 84,
                                "length": 0,
                                "velocity": 100
                            },
                            "72": {
                                "key": "C5",
                                "pitch": 84,
                                "length": 0,
                                "velocity": 100
                            },
                            "96": {
                                "key": "C5",
                                "pitch": 84,
                                "length": 0,
                                "velocity": 100
                            },
                            "120": {
                                "key": "C5",
                                "pitch": 84,
                                "length": 0,
                                "velocity": 100
                            },
                            "144": {
                                "key": "C5",
                                "pitch": 84,
                                "length": 0,
                                "velocity": 100
                            },
                            "168": {
                                "key": "C5",
                                "pitch": 84,
                                "length": 0,
                                "velocity": 100
                            },
                            "192": {
                                "key": "C5",
                                "pitch": 84,
                                "length": 0,
                                "velocity": 100
                            },
                            "216": {
                                "key": "C5",
                                "pitch": 84,
                                "length": 0,
                                "velocity": 100
                            },
                            "240": {
                                "key": "C5",
                                "pitch": 84,
                                "length": 0,
                                "velocity": 100
                            },
                            "264": {
                                "key": "C5",
                                "pitch": 84,
                                "length": 0,
                                "velocity": 100
                            },
                            "288": {
                                "key": "C5",
                                "pitch": 84,
                                "length": 0,
                                "velocity": 100
                            },
                            "312": {
                                "key": "C5",
                                "pitch": 84,
                                "length": 0,
                                "velocity": 100
                            },
                            "336": {
                                "key": "C5",
                                "pitch": 84,
                                "length": 0,
                                "velocity": 100
                            },
                            "360": {
                                "key": "C5",
                                "pitch": 84,
                                "length": 0,
                                "velocity": 100
                            }
                        },
                        "length": 0
                    }
                },
                "29184": {
                    "length": 384,
                    "name": "hh",
                    "data": {
                        "notes": {
                            "0": {
                                "key": "C5",
                                "pitch": 84,
                                "length": 0,
                                "velocity": 100
                            },
                            "24": {
                                "key": "C5",
                                "pitch": 84,
                                "length": 0,
                                "velocity": 100
                            },
                            "48": {
                                "key": "C5",
                                "pitch": 84,
                                "length": 0,
                                "velocity": 100
                            },
                            "72": {
                                "key": "C5",
                                "pitch": 84,
                                "length": 0,
                                "velocity": 100
                            },
                            "96": {
                                "key": "C5",
                                "pitch": 84,
                                "length": 0,
                                "velocity": 100
                            },
                            "120": {
                                "key": "C5",
                                "pitch": 84,
                                "length": 0,
                                "velocity": 100
                            },
                            "144": {
                                "key": "C5",
                                "pitch": 84,
                                "length": 0,
                                "velocity": 100
                            },
                            "168": {
                                "key": "C5",
                                "pitch": 84,
                                "length": 0,
                                "velocity": 100
                            },
                            "192": {
                                "key": "C5",
                                "pitch": 84,
                                "length": 0,
                                "velocity": 100
                            },
                            "216": {
                                "key": "C5",
                                "pitch": 84,
                                "length": 0,
                                "velocity": 100
                            },
                            "240": {
                                "key": "C5",
                                "pitch": 84,
                                "length": 0,
                                "velocity": 100
                            },
                            "264": {
                                "key": "C5",
                                "pitch": 84,
                                "length": 0,
                                "velocity": 100
                            },
                            "288": {
                                "key": "C5",
                                "pitch": 84,
                                "length": 0,
                                "velocity": 100
                            },
                            "312": {
                                "key": "C5",
                                "pitch": 84,
                                "length": 0,
                                "velocity": 100
                            },
                            "336": {
                                "key": "C5",
                                "pitch": 84,
                                "length": 0,
                                "velocity": 100
                            },
                            "360": {
                                "key": "C5",
                                "pitch": 84,
                                "length": 0,
                                "velocity": 100
                            }
                        },
                        "length": 0
                    }
                },
                "29568": {
                    "length": 384,
                    "name": "hh",
                    "data": {
                        "notes": {
                            "0": {
                                "key": "C5",
                                "pitch": 84,
                                "length": 0,
                                "velocity": 100
                            },
                            "24": {
                                "key": "C5",
                                "pitch": 84,
                                "length": 0,
                                "velocity": 100
                            },
                            "48": {
                                "key": "C5",
                                "pitch": 84,
                                "length": 0,
                                "velocity": 100
                            },
                            "72": {
                                "key": "C5",
                                "pitch": 84,
                                "length": 0,
                                "velocity": 100
                            },
                            "96": {
                                "key": "C5",
                                "pitch": 84,
                                "length": 0,
                                "velocity": 100
                            },
                            "120": {
                                "key": "C5",
                                "pitch": 84,
                                "length": 0,
                                "velocity": 100
                            },
                            "144": {
                                "key": "C5",
                                "pitch": 84,
                                "length": 0,
                                "velocity": 100
                            },
                            "168": {
                                "key": "C5",
                                "pitch": 84,
                                "length": 0,
                                "velocity": 100
                            },
                            "192": {
                                "key": "C5",
                                "pitch": 84,
                                "length": 0,
                                "velocity": 100
                            },
                            "216": {
                                "key": "C5",
                                "pitch": 84,
                                "length": 0,
                                "velocity": 100
                            },
                            "240": {
                                "key": "C5",
                                "pitch": 84,
                                "length": 0,
                                "velocity": 100
                            },
                            "264": {
                                "key": "C5",
                                "pitch": 84,
                                "length": 0,
                                "velocity": 100
                            },
                            "288": {
                                "key": "C5",
                                "pitch": 84,
                                "length": 0,
                                "velocity": 100
                            },
                            "312": {
                                "key": "C5",
                                "pitch": 84,
                                "length": 0,
                                "velocity": 100
                            },
                            "336": {
                                "key": "C5",
                                "pitch": 84,
                                "length": 0,
                                "velocity": 100
                            },
                            "360": {
                                "key": "C5",
                                "pitch": 84,
                                "length": 0,
                                "velocity": 100
                            }
                        },
                        "length": 0
                    }
                },
                "29952": {
                    "length": 384,
                    "name": "hh",
                    "data": {
                        "notes": {
                            "0": {
                                "key": "C5",
                                "pitch": 84,
                                "length": 0,
                                "velocity": 100
                            },
                            "24": {
                                "key": "C5",
                                "pitch": 84,
                                "length": 0,
                                "velocity": 100
                            },
                            "48": {
                                "key": "C5",
                                "pitch": 84,
                                "length": 0,
                                "velocity": 100
                            },
                            "72": {
                                "key": "C5",
                                "pitch": 84,
                                "length": 0,
                                "velocity": 100
                            },
                            "96": {
                                "key": "C5",
                                "pitch": 84,
                                "length": 0,
                                "velocity": 100
                            },
                            "120": {
                                "key": "C5",
                                "pitch": 84,
                                "length": 0,
                                "velocity": 100
                            },
                            "144": {
                                "key": "C5",
                                "pitch": 84,
                                "length": 0,
                                "velocity": 100
                            },
                            "168": {
                                "key": "C5",
                                "pitch": 84,
                                "length": 0,
                                "velocity": 100
                            },
                            "192": {
                                "key": "C5",
                                "pitch": 84,
                                "length": 0,
                                "velocity": 100
                            },
                            "216": {
                                "key": "C5",
                                "pitch": 84,
                                "length": 0,
                                "velocity": 100
                            },
                            "240": {
                                "key": "C5",
                                "pitch": 84,
                                "length": 0,
                                "velocity": 100
                            },
                            "264": {
                                "key": "C5",
                                "pitch": 84,
                                "length": 0,
                                "velocity": 100
                            },
                            "288": {
                                "key": "C5",
                                "pitch": 84,
                                "length": 0,
                                "velocity": 100
                            },
                            "312": {
                                "key": "C5",
                                "pitch": 84,
                                "length": 0,
                                "velocity": 100
                            },
                            "336": {
                                "key": "C5",
                                "pitch": 84,
                                "length": 0,
                                "velocity": 100
                            },
                            "360": {
                                "key": "C5",
                                "pitch": 84,
                                "length": 0,
                                "velocity": 100
                            }
                        },
                        "length": 0
                    }
                },
                "30336": {
                    "length": 384,
                    "name": "hh",
                    "data": {
                        "notes": {
                            "0": {
                                "key": "C5",
                                "pitch": 84,
                                "length": 0,
                                "velocity": 100
                            },
                            "24": {
                                "key": "C5",
                                "pitch": 84,
                                "length": 0,
                                "velocity": 100
                            },
                            "48": {
                                "key": "C5",
                                "pitch": 84,
                                "length": 0,
                                "velocity": 100
                            },
                            "72": {
                                "key": "C5",
                                "pitch": 84,
                                "length": 0,
                                "velocity": 100
                            },
                            "96": {
                                "key": "C5",
                                "pitch": 84,
                                "length": 0,
                                "velocity": 100
                            },
                            "120": {
                                "key": "C5",
                                "pitch": 84,
                                "length": 0,
                                "velocity": 100
                            },
                            "144": {
                                "key": "C5",
                                "pitch": 84,
                                "length": 0,
                                "velocity": 100
                            },
                            "168": {
                                "key": "C5",
                                "pitch": 84,
                                "length": 0,
                                "velocity": 100
                            },
                            "192": {
                                "key": "C5",
                                "pitch": 84,
                                "length": 0,
                                "velocity": 100
                            },
                            "216": {
                                "key": "C5",
                                "pitch": 84,
                                "length": 0,
                                "velocity": 100
                            },
                            "240": {
                                "key": "C5",
                                "pitch": 84,
                                "length": 0,
                                "velocity": 100
                            },
                            "264": {
                                "key": "C5",
                                "pitch": 84,
                                "length": 0,
                                "velocity": 100
                            },
                            "288": {
                                "key": "C5",
                                "pitch": 84,
                                "length": 0,
                                "velocity": 100
                            },
                            "312": {
                                "key": "C5",
                                "pitch": 84,
                                "length": 0,
                                "velocity": 100
                            },
                            "336": {
                                "key": "C5",
                                "pitch": 84,
                                "length": 0,
                                "velocity": 100
                            },
                            "360": {
                                "key": "C5",
                                "pitch": 84,
                                "length": 0,
                                "velocity": 100
                            }
                        },
                        "length": 0
                    }
                },
                "30720": {
                    "length": 384,
                    "name": "hh",
                    "data": {
                        "notes": {
                            "0": {
                                "key": "C5",
                                "pitch": 84,
                                "length": 0,
                                "velocity": 100
                            },
                            "24": {
                                "key": "C5",
                                "pitch": 84,
                                "length": 0,
                                "velocity": 100
                            },
                            "48": {
                                "key": "C5",
                                "pitch": 84,
                                "length": 0,
                                "velocity": 100
                            },
                            "72": {
                                "key": "C5",
                                "pitch": 84,
                                "length": 0,
                                "velocity": 100
                            },
                            "96": {
                                "key": "C5",
                                "pitch": 84,
                                "length": 0,
                                "velocity": 100
                            },
                            "120": {
                                "key": "C5",
                                "pitch": 84,
                                "length": 0,
                                "velocity": 100
                            },
                            "144": {
                                "key": "C5",
                                "pitch": 84,
                                "length": 0,
                                "velocity": 100
                            },
                            "168": {
                                "key": "C5",
                                "pitch": 84,
                                "length": 0,
                                "velocity": 100
                            },
                            "192": {
                                "key": "C5",
                                "pitch": 84,
                                "length": 0,
                                "velocity": 100
                            },
                            "216": {
                                "key": "C5",
                                "pitch": 84,
                                "length": 0,
                                "velocity": 100
                            },
                            "240": {
                                "key": "C5",
                                "pitch": 84,
                                "length": 0,
                                "velocity": 100
                            },
                            "264": {
                                "key": "C5",
                                "pitch": 84,
                                "length": 0,
                                "velocity": 100
                            },
                            "288": {
                                "key": "C5",
                                "pitch": 84,
                                "length": 0,
                                "velocity": 100
                            },
                            "312": {
                                "key": "C5",
                                "pitch": 84,
                                "length": 0,
                                "velocity": 100
                            },
                            "336": {
                                "key": "C5",
                                "pitch": 84,
                                "length": 0,
                                "velocity": 100
                            },
                            "360": {
                                "key": "C5",
                                "pitch": 84,
                                "length": 0,
                                "velocity": 100
                            }
                        },
                        "length": 0
                    }
                },
                "31104": {
                    "length": 384,
                    "name": "hh",
                    "data": {
                        "notes": {
                            "0": {
                                "key": "C5",
                                "pitch": 84,
                                "length": 0,
                                "velocity": 100
                            },
                            "24": {
                                "key": "C5",
                                "pitch": 84,
                                "length": 0,
                                "velocity": 100
                            },
                            "48": {
                                "key": "C5",
                                "pitch": 84,
                                "length": 0,
                                "velocity": 100
                            },
                            "72": {
                                "key": "C5",
                                "pitch": 84,
                                "length": 0,
                                "velocity": 100
                            },
                            "96": {
                                "key": "C5",
                                "pitch": 84,
                                "length": 0,
                                "velocity": 100
                            },
                            "120": {
                                "key": "C5",
                                "pitch": 84,
                                "length": 0,
                                "velocity": 100
                            },
                            "144": {
                                "key": "C5",
                                "pitch": 84,
                                "length": 0,
                                "velocity": 100
                            },
                            "168": {
                                "key": "C5",
                                "pitch": 84,
                                "length": 0,
                                "velocity": 100
                            },
                            "192": {
                                "key": "C5",
                                "pitch": 84,
                                "length": 0,
                                "velocity": 100
                            },
                            "216": {
                                "key": "C5",
                                "pitch": 84,
                                "length": 0,
                                "velocity": 100
                            },
                            "240": {
                                "key": "C5",
                                "pitch": 84,
                                "length": 0,
                                "velocity": 100
                            },
                            "264": {
                                "key": "C5",
                                "pitch": 84,
                                "length": 0,
                                "velocity": 100
                            },
                            "288": {
                                "key": "C5",
                                "pitch": 84,
                                "length": 0,
                                "velocity": 100
                            },
                            "312": {
                                "key": "C5",
                                "pitch": 84,
                                "length": 0,
                                "velocity": 100
                            },
                            "336": {
                                "key": "C5",
                                "pitch": 84,
                                "length": 0,
                                "velocity": 100
                            },
                            "360": {
                                "key": "C5",
                                "pitch": 84,
                                "length": 0,
                                "velocity": 100
                            }
                        },
                        "length": 0
                    }
                },
                "31488": {
                    "length": 384,
                    "name": "hh",
                    "data": {
                        "notes": {
                            "0": {
                                "key": "C5",
                                "pitch": 84,
                                "length": 0,
                                "velocity": 100
                            },
                            "24": {
                                "key": "C5",
                                "pitch": 84,
                                "length": 0,
                                "velocity": 100
                            },
                            "48": {
                                "key": "C5",
                                "pitch": 84,
                                "length": 0,
                                "velocity": 100
                            },
                            "72": {
                                "key": "C5",
                                "pitch": 84,
                                "length": 0,
                                "velocity": 100
                            },
                            "96": {
                                "key": "C5",
                                "pitch": 84,
                                "length": 0,
                                "velocity": 100
                            },
                            "120": {
                                "key": "C5",
                                "pitch": 84,
                                "length": 0,
                                "velocity": 100
                            },
                            "144": {
                                "key": "C5",
                                "pitch": 84,
                                "length": 0,
                                "velocity": 100
                            },
                            "168": {
                                "key": "C5",
                                "pitch": 84,
                                "length": 0,
                                "velocity": 100
                            },
                            "192": {
                                "key": "C5",
                                "pitch": 84,
                                "length": 0,
                                "velocity": 100
                            },
                            "216": {
                                "key": "C5",
                                "pitch": 84,
                                "length": 0,
                                "velocity": 100
                            },
                            "240": {
                                "key": "C5",
                                "pitch": 84,
                                "length": 0,
                                "velocity": 100
                            },
                            "264": {
                                "key": "C5",
                                "pitch": 84,
                                "length": 0,
                                "velocity": 100
                            },
                            "288": {
                                "key": "C5",
                                "pitch": 84,
                                "length": 0,
                                "velocity": 100
                            },
                            "312": {
                                "key": "C5",
                                "pitch": 84,
                                "length": 0,
                                "velocity": 100
                            },
                            "336": {
                                "key": "C5",
                                "pitch": 84,
                                "length": 0,
                                "velocity": 100
                            },
                            "360": {
                                "key": "C5",
                                "pitch": 84,
                                "length": 0,
                                "velocity": 100
                            }
                        },
                        "length": 0
                    }
                },
                "31872": {
                    "length": 384,
                    "name": "hh",
                    "data": {
                        "notes": {
                            "0": {
                                "key": "C5",
                                "pitch": 84,
                                "length": 0,
                                "velocity": 100
                            },
                            "24": {
                                "key": "C5",
                                "pitch": 84,
                                "length": 0,
                                "velocity": 100
                            },
                            "48": {
                                "key": "C5",
                                "pitch": 84,
                                "length": 0,
                                "velocity": 100
                            },
                            "72": {
                                "key": "C5",
                                "pitch": 84,
                                "length": 0,
                                "velocity": 100
                            },
                            "96": {
                                "key": "C5",
                                "pitch": 84,
                                "length": 0,
                                "velocity": 100
                            },
                            "120": {
                                "key": "C5",
                                "pitch": 84,
                                "length": 0,
                                "velocity": 100
                            },
                            "144": {
                                "key": "C5",
                                "pitch": 84,
                                "length": 0,
                                "velocity": 100
                            },
                            "168": {
                                "key": "C5",
                                "pitch": 84,
                                "length": 0,
                                "velocity": 100
                            },
                            "192": {
                                "key": "C5",
                                "pitch": 84,
                                "length": 0,
                                "velocity": 100
                            },
                            "216": {
                                "key": "C5",
                                "pitch": 84,
                                "length": 0,
                                "velocity": 100
                            },
                            "240": {
                                "key": "C5",
                                "pitch": 84,
                                "length": 0,
                                "velocity": 100
                            },
                            "264": {
                                "key": "C5",
                                "pitch": 84,
                                "length": 0,
                                "velocity": 100
                            },
                            "288": {
                                "key": "C5",
                                "pitch": 84,
                                "length": 0,
                                "velocity": 100
                            },
                            "312": {
                                "key": "C5",
                                "pitch": 84,
                                "length": 0,
                                "velocity": 100
                            },
                            "336": {
                                "key": "C5",
                                "pitch": 84,
                                "length": 0,
                                "velocity": 100
                            },
                            "360": {
                                "key": "C5",
                                "pitch": 84,
                                "length": 0,
                                "velocity": 100
                            }
                        },
                        "length": 0
                    }
                },
                "32256": {
                    "length": 384,
                    "name": "hh",
                    "data": {
                        "notes": {
                            "0": {
                                "key": "C5",
                                "pitch": 84,
                                "length": 0,
                                "velocity": 100
                            },
                            "24": {
                                "key": "C5",
                                "pitch": 84,
                                "length": 0,
                                "velocity": 100
                            },
                            "48": {
                                "key": "C5",
                                "pitch": 84,
                                "length": 0,
                                "velocity": 100
                            },
                            "72": {
                                "key": "C5",
                                "pitch": 84,
                                "length": 0,
                                "velocity": 100
                            },
                            "96": {
                                "key": "C5",
                                "pitch": 84,
                                "length": 0,
                                "velocity": 100
                            },
                            "120": {
                                "key": "C5",
                                "pitch": 84,
                                "length": 0,
                                "velocity": 100
                            },
                            "144": {
                                "key": "C5",
                                "pitch": 84,
                                "length": 0,
                                "velocity": 100
                            },
                            "168": {
                                "key": "C5",
                                "pitch": 84,
                                "length": 0,
                                "velocity": 100
                            },
                            "192": {
                                "key": "C5",
                                "pitch": 84,
                                "length": 0,
                                "velocity": 100
                            },
                            "216": {
                                "key": "C5",
                                "pitch": 84,
                                "length": 0,
                                "velocity": 100
                            },
                            "240": {
                                "key": "C5",
                                "pitch": 84,
                                "length": 0,
                                "velocity": 100
                            },
                            "264": {
                                "key": "C5",
                                "pitch": 84,
                                "length": 0,
                                "velocity": 100
                            },
                            "288": {
                                "key": "C5",
                                "pitch": 84,
                                "length": 0,
                                "velocity": 100
                            },
                            "312": {
                                "key": "C5",
                                "pitch": 84,
                                "length": 0,
                                "velocity": 100
                            },
                            "336": {
                                "key": "C5",
                                "pitch": 84,
                                "length": 0,
                                "velocity": 100
                            },
                            "360": {
                                "key": "C5",
                                "pitch": 84,
                                "length": 0,
                                "velocity": 100
                            }
                        },
                        "length": 0
                    }
                },
                "32640": {
                    "length": 384,
                    "name": "hh",
                    "data": {
                        "notes": {
                            "0": {
                                "key": "C5",
                                "pitch": 84,
                                "length": 0,
                                "velocity": 100
                            },
                            "24": {
                                "key": "C5",
                                "pitch": 84,
                                "length": 0,
                                "velocity": 100
                            },
                            "48": {
                                "key": "C5",
                                "pitch": 84,
                                "length": 0,
                                "velocity": 100
                            },
                            "72": {
                                "key": "C5",
                                "pitch": 84,
                                "length": 0,
                                "velocity": 100
                            },
                            "96": {
                                "key": "C5",
                                "pitch": 84,
                                "length": 0,
                                "velocity": 100
                            },
                            "120": {
                                "key": "C5",
                                "pitch": 84,
                                "length": 0,
                                "velocity": 100
                            },
                            "144": {
                                "key": "C5",
                                "pitch": 84,
                                "length": 0,
                                "velocity": 100
                            },
                            "168": {
                                "key": "C5",
                                "pitch": 84,
                                "length": 0,
                                "velocity": 100
                            },
                            "192": {
                                "key": "C5",
                                "pitch": 84,
                                "length": 0,
                                "velocity": 100
                            },
                            "216": {
                                "key": "C5",
                                "pitch": 84,
                                "length": 0,
                                "velocity": 100
                            },
                            "240": {
                                "key": "C5",
                                "pitch": 84,
                                "length": 0,
                                "velocity": 100
                            },
                            "264": {
                                "key": "C5",
                                "pitch": 84,
                                "length": 0,
                                "velocity": 100
                            },
                            "288": {
                                "key": "C5",
                                "pitch": 84,
                                "length": 0,
                                "velocity": 100
                            },
                            "312": {
                                "key": "C5",
                                "pitch": 84,
                                "length": 0,
                                "velocity": 100
                            },
                            "336": {
                                "key": "C5",
                                "pitch": 84,
                                "length": 0,
                                "velocity": 100
                            },
                            "360": {
                                "key": "C5",
                                "pitch": 84,
                                "length": 0,
                                "velocity": 100
                            }
                        },
                        "length": 0
                    }
                },
                "33024": {
                    "length": 384,
                    "name": "hh",
                    "data": {
                        "notes": {
                            "0": {
                                "key": "C5",
                                "pitch": 84,
                                "length": 0,
                                "velocity": 100
                            },
                            "24": {
                                "key": "C5",
                                "pitch": 84,
                                "length": 0,
                                "velocity": 100
                            },
                            "48": {
                                "key": "C5",
                                "pitch": 84,
                                "length": 0,
                                "velocity": 100
                            },
                            "72": {
                                "key": "C5",
                                "pitch": 84,
                                "length": 0,
                                "velocity": 100
                            },
                            "96": {
                                "key": "C5",
                                "pitch": 84,
                                "length": 0,
                                "velocity": 100
                            },
                            "120": {
                                "key": "C5",
                                "pitch": 84,
                                "length": 0,
                                "velocity": 100
                            },
                            "144": {
                                "key": "C5",
                                "pitch": 84,
                                "length": 0,
                                "velocity": 100
                            },
                            "168": {
                                "key": "C5",
                                "pitch": 84,
                                "length": 0,
                                "velocity": 100
                            },
                            "192": {
                                "key": "C5",
                                "pitch": 84,
                                "length": 0,
                                "velocity": 100
                            },
                            "216": {
                                "key": "C5",
                                "pitch": 84,
                                "length": 0,
                                "velocity": 100
                            },
                            "240": {
                                "key": "C5",
                                "pitch": 84,
                                "length": 0,
                                "velocity": 100
                            },
                            "264": {
                                "key": "C5",
                                "pitch": 84,
                                "length": 0,
                                "velocity": 100
                            },
                            "288": {
                                "key": "C5",
                                "pitch": 84,
                                "length": 0,
                                "velocity": 100
                            },
                            "312": {
                                "key": "C5",
                                "pitch": 84,
                                "length": 0,
                                "velocity": 100
                            },
                            "336": {
                                "key": "C5",
                                "pitch": 84,
                                "length": 0,
                                "velocity": 100
                            },
                            "360": {
                                "key": "C5",
                                "pitch": 84,
                                "length": 0,
                                "velocity": 100
                            }
                        },
                        "length": 0
                    }
                },
                "33408": {
                    "length": 384,
                    "name": "hh",
                    "data": {
                        "notes": {
                            "0": {
                                "key": "C5",
                                "pitch": 84,
                                "length": 0,
                                "velocity": 100
                            },
                            "24": {
                                "key": "C5",
                                "pitch": 84,
                                "length": 0,
                                "velocity": 100
                            },
                            "48": {
                                "key": "C5",
                                "pitch": 84,
                                "length": 0,
                                "velocity": 100
                            },
                            "72": {
                                "key": "C5",
                                "pitch": 84,
                                "length": 0,
                                "velocity": 100
                            },
                            "96": {
                                "key": "C5",
                                "pitch": 84,
                                "length": 0,
                                "velocity": 100
                            },
                            "120": {
                                "key": "C5",
                                "pitch": 84,
                                "length": 0,
                                "velocity": 100
                            },
                            "144": {
                                "key": "C5",
                                "pitch": 84,
                                "length": 0,
                                "velocity": 100
                            },
                            "168": {
                                "key": "C5",
                                "pitch": 84,
                                "length": 0,
                                "velocity": 100
                            },
                            "192": {
                                "key": "C5",
                                "pitch": 84,
                                "length": 0,
                                "velocity": 100
                            },
                            "216": {
                                "key": "C5",
                                "pitch": 84,
                                "length": 0,
                                "velocity": 100
                            },
                            "240": {
                                "key": "C5",
                                "pitch": 84,
                                "length": 0,
                                "velocity": 100
                            },
                            "264": {
                                "key": "C5",
                                "pitch": 84,
                                "length": 0,
                                "velocity": 100
                            },
                            "288": {
                                "key": "C5",
                                "pitch": 84,
                                "length": 0,
                                "velocity": 100
                            },
                            "312": {
                                "key": "C5",
                                "pitch": 84,
                                "length": 0,
                                "velocity": 100
                            },
                            "336": {
                                "key": "C5",
                                "pitch": 84,
                                "length": 0,
                                "velocity": 100
                            },
                            "360": {
                                "key": "C5",
                                "pitch": 84,
                                "length": 0,
                                "velocity": 100
                            }
                        },
                        "length": 0
                    }
                }
            },
            "Regents-Canal-Bridge-Dalston-8-Hands-Clap--Hand-Clap-Sample--(Shure-KSM141-cardioid)": {
                "21504": {
                    "length": 384,
                    "name": "secondlap",
                    "data": {
                        "notes": {
                            "96": {
                                "key": "C5",
                                "pitch": 84,
                                "length": 0,
                                "velocity": 100
                            },
                            "168": {
                                "key": "C5",
                                "pitch": 84,
                                "length": 0,
                                "velocity": 100
                            },
                            "288": {
                                "key": "C5",
                                "pitch": 84,
                                "length": 0,
                                "velocity": 100
                            }
                        },
                        "length": 0
                    }
                },
                "21888": {
                    "length": 384,
                    "name": "secondlap",
                    "data": {
                        "notes": {
                            "96": {
                                "key": "C5",
                                "pitch": 84,
                                "length": 0,
                                "velocity": 100
                            },
                            "168": {
                                "key": "C5",
                                "pitch": 84,
                                "length": 0,
                                "velocity": 100
                            },
                            "288": {
                                "key": "C5",
                                "pitch": 84,
                                "length": 0,
                                "velocity": 100
                            }
                        },
                        "length": 0
                    }
                },
                "22272": {
                    "length": 384,
                    "name": "secondlap",
                    "data": {
                        "notes": {
                            "96": {
                                "key": "C5",
                                "pitch": 84,
                                "length": 0,
                                "velocity": 100
                            },
                            "168": {
                                "key": "C5",
                                "pitch": 84,
                                "length": 0,
                                "velocity": 100
                            },
                            "288": {
                                "key": "C5",
                                "pitch": 84,
                                "length": 0,
                                "velocity": 100
                            }
                        },
                        "length": 0
                    }
                },
                "22656": {
                    "length": 384,
                    "name": "secondlap",
                    "data": {
                        "notes": {
                            "96": {
                                "key": "C5",
                                "pitch": 84,
                                "length": 0,
                                "velocity": 100
                            },
                            "168": {
                                "key": "C5",
                                "pitch": 84,
                                "length": 0,
                                "velocity": 100
                            },
                            "288": {
                                "key": "C5",
                                "pitch": 84,
                                "length": 0,
                                "velocity": 100
                            }
                        },
                        "length": 0
                    }
                },
                "23040": {
                    "length": 384,
                    "name": "secondlap",
                    "data": {
                        "notes": {
                            "96": {
                                "key": "C5",
                                "pitch": 84,
                                "length": 0,
                                "velocity": 100
                            },
                            "168": {
                                "key": "C5",
                                "pitch": 84,
                                "length": 0,
                                "velocity": 100
                            },
                            "288": {
                                "key": "C5",
                                "pitch": 84,
                                "length": 0,
                                "velocity": 100
                            }
                        },
                        "length": 0
                    }
                },
                "23424": {
                    "length": 384,
                    "name": "secondlap",
                    "data": {
                        "notes": {
                            "96": {
                                "key": "C5",
                                "pitch": 84,
                                "length": 0,
                                "velocity": 100
                            },
                            "168": {
                                "key": "C5",
                                "pitch": 84,
                                "length": 0,
                                "velocity": 100
                            },
                            "288": {
                                "key": "C5",
                                "pitch": 84,
                                "length": 0,
                                "velocity": 100
                            }
                        },
                        "length": 0
                    }
                },
                "23808": {
                    "length": 384,
                    "name": "secondlap",
                    "data": {
                        "notes": {
                            "96": {
                                "key": "C5",
                                "pitch": 84,
                                "length": 0,
                                "velocity": 100
                            },
                            "168": {
                                "key": "C5",
                                "pitch": 84,
                                "length": 0,
                                "velocity": 100
                            },
                            "288": {
                                "key": "C5",
                                "pitch": 84,
                                "length": 0,
                                "velocity": 100
                            }
                        },
                        "length": 0
                    }
                },
                "24192": {
                    "length": 384,
                    "name": "secondlap",
                    "data": {
                        "notes": {
                            "96": {
                                "key": "C5",
                                "pitch": 84,
                                "length": 0,
                                "velocity": 100
                            },
                            "168": {
                                "key": "C5",
                                "pitch": 84,
                                "length": 0,
                                "velocity": 100
                            },
                            "288": {
                                "key": "C5",
                                "pitch": 84,
                                "length": 0,
                                "velocity": 100
                            }
                        },
                        "length": 0
                    }
                },
                "24576": {
                    "length": 384,
                    "name": "secondlap",
                    "data": {
                        "notes": {
                            "96": {
                                "key": "C5",
                                "pitch": 84,
                                "length": 0,
                                "velocity": 100
                            },
                            "168": {
                                "key": "C5",
                                "pitch": 84,
                                "length": 0,
                                "velocity": 100
                            },
                            "288": {
                                "key": "C5",
                                "pitch": 84,
                                "length": 0,
                                "velocity": 100
                            }
                        },
                        "length": 0
                    }
                },
                "24960": {
                    "length": 384,
                    "name": "secondlap",
                    "data": {
                        "notes": {
                            "96": {
                                "key": "C5",
                                "pitch": 84,
                                "length": 0,
                                "velocity": 100
                            },
                            "168": {
                                "key": "C5",
                                "pitch": 84,
                                "length": 0,
                                "velocity": 100
                            },
                            "288": {
                                "key": "C5",
                                "pitch": 84,
                                "length": 0,
                                "velocity": 100
                            }
                        },
                        "length": 0
                    }
                },
                "25344": {
                    "length": 384,
                    "name": "secondlap",
                    "data": {
                        "notes": {
                            "96": {
                                "key": "C5",
                                "pitch": 84,
                                "length": 0,
                                "velocity": 100
                            },
                            "168": {
                                "key": "C5",
                                "pitch": 84,
                                "length": 0,
                                "velocity": 100
                            },
                            "288": {
                                "key": "C5",
                                "pitch": 84,
                                "length": 0,
                                "velocity": 100
                            }
                        },
                        "length": 0
                    }
                },
                "25728": {
                    "length": 384,
                    "name": "secondlap",
                    "data": {
                        "notes": {
                            "96": {
                                "key": "C5",
                                "pitch": 84,
                                "length": 0,
                                "velocity": 100
                            },
                            "168": {
                                "key": "C5",
                                "pitch": 84,
                                "length": 0,
                                "velocity": 100
                            },
                            "288": {
                                "key": "C5",
                                "pitch": 84,
                                "length": 0,
                                "velocity": 100
                            }
                        },
                        "length": 0
                    }
                },
                "26112": {
                    "length": 384,
                    "name": "secondlap",
                    "data": {
                        "notes": {
                            "96": {
                                "key": "C5",
                                "pitch": 84,
                                "length": 0,
                                "velocity": 100
                            },
                            "168": {
                                "key": "C5",
                                "pitch": 84,
                                "length": 0,
                                "velocity": 100
                            },
                            "288": {
                                "key": "C5",
                                "pitch": 84,
                                "length": 0,
                                "velocity": 100
                            }
                        },
                        "length": 0
                    }
                },
                "26496": {
                    "length": 384,
                    "name": "secondlap",
                    "data": {
                        "notes": {
                            "96": {
                                "key": "C5",
                                "pitch": 84,
                                "length": 0,
                                "velocity": 100
                            },
                            "168": {
                                "key": "C5",
                                "pitch": 84,
                                "length": 0,
                                "velocity": 100
                            },
                            "288": {
                                "key": "C5",
                                "pitch": 84,
                                "length": 0,
                                "velocity": 100
                            }
                        },
                        "length": 0
                    }
                },
                "26880": {
                    "length": 384,
                    "name": "secondlap",
                    "data": {
                        "notes": {
                            "96": {
                                "key": "C5",
                                "pitch": 84,
                                "length": 0,
                                "velocity": 100
                            },
                            "168": {
                                "key": "C5",
                                "pitch": 84,
                                "length": 0,
                                "velocity": 100
                            },
                            "288": {
                                "key": "C5",
                                "pitch": 84,
                                "length": 0,
                                "velocity": 100
                            }
                        },
                        "length": 0
                    }
                },
                "27264": {
                    "length": 384,
                    "name": "secondlap",
                    "data": {
                        "notes": {
                            "96": {
                                "key": "C5",
                                "pitch": 84,
                                "length": 0,
                                "velocity": 100
                            },
                            "168": {
                                "key": "C5",
                                "pitch": 84,
                                "length": 0,
                                "velocity": 100
                            },
                            "288": {
                                "key": "C5",
                                "pitch": 84,
                                "length": 0,
                                "velocity": 100
                            }
                        },
                        "length": 0
                    }
                },
                "27648": {
                    "length": 384,
                    "name": "secondlap",
                    "data": {
                        "notes": {
                            "96": {
                                "key": "C5",
                                "pitch": 84,
                                "length": 0,
                                "velocity": 100
                            },
                            "168": {
                                "key": "C5",
                                "pitch": 84,
                                "length": 0,
                                "velocity": 100
                            },
                            "288": {
                                "key": "C5",
                                "pitch": 84,
                                "length": 0,
                                "velocity": 100
                            }
                        },
                        "length": 0
                    }
                },
                "28032": {
                    "length": 384,
                    "name": "secondlap",
                    "data": {
                        "notes": {
                            "96": {
                                "key": "C5",
                                "pitch": 84,
                                "length": 0,
                                "velocity": 100
                            },
                            "168": {
                                "key": "C5",
                                "pitch": 84,
                                "length": 0,
                                "velocity": 100
                            },
                            "288": {
                                "key": "C5",
                                "pitch": 84,
                                "length": 0,
                                "velocity": 100
                            }
                        },
                        "length": 0
                    }
                },
                "28416": {
                    "length": 384,
                    "name": "secondlap",
                    "data": {
                        "notes": {
                            "96": {
                                "key": "C5",
                                "pitch": 84,
                                "length": 0,
                                "velocity": 100
                            },
                            "168": {
                                "key": "C5",
                                "pitch": 84,
                                "length": 0,
                                "velocity": 100
                            },
                            "288": {
                                "key": "C5",
                                "pitch": 84,
                                "length": 0,
                                "velocity": 100
                            }
                        },
                        "length": 0
                    }
                },
                "28800": {
                    "length": 384,
                    "name": "secondlap",
                    "data": {
                        "notes": {
                            "96": {
                                "key": "C5",
                                "pitch": 84,
                                "length": 0,
                                "velocity": 100
                            },
                            "168": {
                                "key": "C5",
                                "pitch": 84,
                                "length": 0,
                                "velocity": 100
                            },
                            "288": {
                                "key": "C5",
                                "pitch": 84,
                                "length": 0,
                                "velocity": 100
                            }
                        },
                        "length": 0
                    }
                },
                "29184": {
                    "length": 384,
                    "name": "secondlap",
                    "data": {
                        "notes": {
                            "96": {
                                "key": "C5",
                                "pitch": 84,
                                "length": 0,
                                "velocity": 100
                            },
                            "168": {
                                "key": "C5",
                                "pitch": 84,
                                "length": 0,
                                "velocity": 100
                            },
                            "288": {
                                "key": "C5",
                                "pitch": 84,
                                "length": 0,
                                "velocity": 100
                            }
                        },
                        "length": 0
                    }
                },
                "29568": {
                    "length": 384,
                    "name": "secondlap",
                    "data": {
                        "notes": {
                            "96": {
                                "key": "C5",
                                "pitch": 84,
                                "length": 0,
                                "velocity": 100
                            },
                            "168": {
                                "key": "C5",
                                "pitch": 84,
                                "length": 0,
                                "velocity": 100
                            },
                            "288": {
                                "key": "C5",
                                "pitch": 84,
                                "length": 0,
                                "velocity": 100
                            }
                        },
                        "length": 0
                    }
                },
                "29952": {
                    "length": 384,
                    "name": "secondlap",
                    "data": {
                        "notes": {
                            "96": {
                                "key": "C5",
                                "pitch": 84,
                                "length": 0,
                                "velocity": 100
                            },
                            "168": {
                                "key": "C5",
                                "pitch": 84,
                                "length": 0,
                                "velocity": 100
                            },
                            "288": {
                                "key": "C5",
                                "pitch": 84,
                                "length": 0,
                                "velocity": 100
                            }
                        },
                        "length": 0
                    }
                },
                "30336": {
                    "length": 384,
                    "name": "secondlap",
                    "data": {
                        "notes": {
                            "96": {
                                "key": "C5",
                                "pitch": 84,
                                "length": 0,
                                "velocity": 100
                            },
                            "168": {
                                "key": "C5",
                                "pitch": 84,
                                "length": 0,
                                "velocity": 100
                            },
                            "288": {
                                "key": "C5",
                                "pitch": 84,
                                "length": 0,
                                "velocity": 100
                            }
                        },
                        "length": 0
                    }
                },
                "30720": {
                    "length": 384,
                    "name": "secondlap",
                    "data": {
                        "notes": {
                            "96": {
                                "key": "C5",
                                "pitch": 84,
                                "length": 0,
                                "velocity": 100
                            },
                            "168": {
                                "key": "C5",
                                "pitch": 84,
                                "length": 0,
                                "velocity": 100
                            },
                            "288": {
                                "key": "C5",
                                "pitch": 84,
                                "length": 0,
                                "velocity": 100
                            }
                        },
                        "length": 0
                    }
                },
                "31104": {
                    "length": 384,
                    "name": "secondlap",
                    "data": {
                        "notes": {
                            "96": {
                                "key": "C5",
                                "pitch": 84,
                                "length": 0,
                                "velocity": 100
                            },
                            "168": {
                                "key": "C5",
                                "pitch": 84,
                                "length": 0,
                                "velocity": 100
                            },
                            "288": {
                                "key": "C5",
                                "pitch": 84,
                                "length": 0,
                                "velocity": 100
                            }
                        },
                        "length": 0
                    }
                },
                "31488": {
                    "length": 384,
                    "name": "secondlap",
                    "data": {
                        "notes": {
                            "96": {
                                "key": "C5",
                                "pitch": 84,
                                "length": 0,
                                "velocity": 100
                            },
                            "168": {
                                "key": "C5",
                                "pitch": 84,
                                "length": 0,
                                "velocity": 100
                            },
                            "288": {
                                "key": "C5",
                                "pitch": 84,
                                "length": 0,
                                "velocity": 100
                            }
                        },
                        "length": 0
                    }
                },
                "31872": {
                    "length": 384,
                    "name": "secondlap",
                    "data": {
                        "notes": {
                            "96": {
                                "key": "C5",
                                "pitch": 84,
                                "length": 0,
                                "velocity": 100
                            },
                            "168": {
                                "key": "C5",
                                "pitch": 84,
                                "length": 0,
                                "velocity": 100
                            },
                            "288": {
                                "key": "C5",
                                "pitch": 84,
                                "length": 0,
                                "velocity": 100
                            }
                        },
                        "length": 0
                    }
                },
                "32256": {
                    "length": 384,
                    "name": "secondlap",
                    "data": {
                        "notes": {
                            "96": {
                                "key": "C5",
                                "pitch": 84,
                                "length": 0,
                                "velocity": 100
                            },
                            "168": {
                                "key": "C5",
                                "pitch": 84,
                                "length": 0,
                                "velocity": 100
                            },
                            "288": {
                                "key": "C5",
                                "pitch": 84,
                                "length": 0,
                                "velocity": 100
                            }
                        },
                        "length": 0
                    }
                },
                "32640": {
                    "length": 384,
                    "name": "secondlap",
                    "data": {
                        "notes": {
                            "96": {
                                "key": "C5",
                                "pitch": 84,
                                "length": 0,
                                "velocity": 100
                            },
                            "168": {
                                "key": "C5",
                                "pitch": 84,
                                "length": 0,
                                "velocity": 100
                            },
                            "288": {
                                "key": "C5",
                                "pitch": 84,
                                "length": 0,
                                "velocity": 100
                            }
                        },
                        "length": 0
                    }
                },
                "33024": {
                    "length": 384,
                    "name": "secondlap",
                    "data": {
                        "notes": {
                            "96": {
                                "key": "C5",
                                "pitch": 84,
                                "length": 0,
                                "velocity": 100
                            },
                            "168": {
                                "key": "C5",
                                "pitch": 84,
                                "length": 0,
                                "velocity": 100
                            },
                            "288": {
                                "key": "C5",
                                "pitch": 84,
                                "length": 0,
                                "velocity": 100
                            }
                        },
                        "length": 0
                    }
                },
                "33408": {
                    "length": 384,
                    "name": "secondlap",
                    "data": {
                        "notes": {
                            "96": {
                                "key": "C5",
                                "pitch": 84,
                                "length": 0,
                                "velocity": 100
                            },
                            "168": {
                                "key": "C5",
                                "pitch": 84,
                                "length": 0,
                                "velocity": 100
                            },
                            "288": {
                                "key": "C5",
                                "pitch": 84,
                                "length": 0,
                                "velocity": 100
                            }
                        },
                        "length": 0
                    }
                }
            },
            "Pianoteq 7 #2": {
                "15312": {
                    "length": 18480,
                    "name": "Insert 3 - Volume",
                    "data": {
                        "0.0": 0.0,
                        "32.5": 0.800000011920929,
                        "348.5": 0.800000011920929
                    }
                }
            },
            "arp": {
                "0": {
                    "length": 1536,
                    "name": "arp",
                    "data": {
                        "notes": {
                            "0": {
                                "key": "A4",
                                "pitch": 81,
                                "length": 552,
                                "velocity": 73
                            },
                            "552": {
                                "key": "B4",
                                "pitch": 83,
                                "length": 144,
                                "velocity": 72
                            },
                            "696": {
                                "key": "C5",
                                "pitch": 84,
                                "length": 72,
                                "velocity": 81
                            },
                            "768": {
                                "key": "A4",
                                "pitch": 81,
                                "length": 528,
                                "velocity": 81
                            },
                            "1296": {
                                "key": "E5",
                                "pitch": 88,
                                "length": 144,
                                "velocity": 77
                            },
                            "1440": {
                                "key": "D5",
                                "pitch": 86,
                                "length": 96,
                                "velocity": 69
                            }
                        },
                        "length": 0
                    }
                },
                "1536": {
                    "length": 1536,
                    "name": "arp",
                    "data": {
                        "notes": {
                            "0": {
                                "key": "A4",
                                "pitch": 81,
                                "length": 552,
                                "velocity": 73
                            },
                            "552": {
                                "key": "B4",
                                "pitch": 83,
                                "length": 144,
                                "velocity": 72
                            },
                            "696": {
                                "key": "C5",
                                "pitch": 84,
                                "length": 72,
                                "velocity": 81
                            },
                            "768": {
                                "key": "A4",
                                "pitch": 81,
                                "length": 528,
                                "velocity": 81
                            },
                            "1296": {
                                "key": "E5",
                                "pitch": 88,
                                "length": 144,
                                "velocity": 77
                            },
                            "1440": {
                                "key": "D5",
                                "pitch": 86,
                                "length": 96,
                                "velocity": 69
                            }
                        },
                        "length": 0
                    }
                },
                "3072": {
                    "length": 1536,
                    "name": "arp",
                    "data": {
                        "notes": {
                            "0": {
                                "key": "A4",
                                "pitch": 81,
                                "length": 552,
                                "velocity": 73
                            },
                            "552": {
                                "key": "B4",
                                "pitch": 83,
                                "length": 144,
                                "velocity": 72
                            },
                            "696": {
                                "key": "C5",
                                "pitch": 84,
                                "length": 72,
                                "velocity": 81
                            },
                            "768": {
                                "key": "A4",
                                "pitch": 81,
                                "length": 528,
                                "velocity": 81
                            },
                            "1296": {
                                "key": "E5",
                                "pitch": 88,
                                "length": 144,
                                "velocity": 77
                            },
                            "1440": {
                                "key": "D5",
                                "pitch": 86,
                                "length": 96,
                                "velocity": 69
                            }
                        },
                        "length": 0
                    }
                },
                "4608": {
                    "length": 1536,
                    "name": "arp",
                    "data": {
                        "notes": {
                            "0": {
                                "key": "A4",
                                "pitch": 81,
                                "length": 552,
                                "velocity": 73
                            },
                            "552": {
                                "key": "B4",
                                "pitch": 83,
                                "length": 144,
                                "velocity": 72
                            },
                            "696": {
                                "key": "C5",
                                "pitch": 84,
                                "length": 72,
                                "velocity": 81
                            },
                            "768": {
                                "key": "A4",
                                "pitch": 81,
                                "length": 528,
                                "velocity": 81
                            },
                            "1296": {
                                "key": "E5",
                                "pitch": 88,
                                "length": 144,
                                "velocity": 77
                            },
                            "1440": {
                                "key": "D5",
                                "pitch": 86,
                                "length": 96,
                                "velocity": 69
                            }
                        },
                        "length": 0
                    }
                },
                "6144": {
                    "length": 1536,
                    "name": "arp",
                    "data": {
                        "notes": {
                            "0": {
                                "key": "A4",
                                "pitch": 81,
                                "length": 552,
                                "velocity": 73
                            },
                            "552": {
                                "key": "B4",
                                "pitch": 83,
                                "length": 144,
                                "velocity": 72
                            },
                            "696": {
                                "key": "C5",
                                "pitch": 84,
                                "length": 72,
                                "velocity": 81
                            },
                            "768": {
                                "key": "A4",
                                "pitch": 81,
                                "length": 528,
                                "velocity": 81
                            },
                            "1296": {
                                "key": "E5",
                                "pitch": 88,
                                "length": 144,
                                "velocity": 77
                            },
                            "1440": {
                                "key": "D5",
                                "pitch": 86,
                                "length": 96,
                                "velocity": 69
                            }
                        },
                        "length": 0
                    }
                },
                "7680": {
                    "length": 1536,
                    "name": "arp",
                    "data": {
                        "notes": {
                            "0": {
                                "key": "A4",
                                "pitch": 81,
                                "length": 552,
                                "velocity": 73
                            },
                            "552": {
                                "key": "B4",
                                "pitch": 83,
                                "length": 144,
                                "velocity": 72
                            },
                            "696": {
                                "key": "C5",
                                "pitch": 84,
                                "length": 72,
                                "velocity": 81
                            },
                            "768": {
                                "key": "A4",
                                "pitch": 81,
                                "length": 528,
                                "velocity": 81
                            },
                            "1296": {
                                "key": "E5",
                                "pitch": 88,
                                "length": 144,
                                "velocity": 77
                            },
                            "1440": {
                                "key": "D5",
                                "pitch": 86,
                                "length": 96,
                                "velocity": 69
                            }
                        },
                        "length": 0
                    }
                },
                "9216": {
                    "length": 3072,
                    "name": "arp #4",
                    "data": {
                        "notes": {
                            "0": {
                                "key": "A3",
                                "pitch": 69,
                                "length": 768,
                                "velocity": 59
                            },
                            "552": {
                                "key": "B4",
                                "pitch": 83,
                                "length": 144,
                                "velocity": 72
                            },
                            "696": {
                                "key": "C5",
                                "pitch": 84,
                                "length": 72,
                                "velocity": 81
                            },
                            "768": {
                                "key": "C4",
                                "pitch": 72,
                                "length": 768,
                                "velocity": 73
                            },
                            "1296": {
                                "key": "E5",
                                "pitch": 88,
                                "length": 144,
                                "velocity": 77
                            },
                            "1440": {
                                "key": "D5",
                                "pitch": 86,
                                "length": 96,
                                "velocity": 69
                            },
                            "1536": {
                                "key": "G3",
                                "pitch": 67,
                                "length": 768,
                                "velocity": 59
                            },
                            "2064": {
                                "key": "C5",
                                "pitch": 84,
                                "length": 144,
                                "velocity": 59
                            },
                            "2208": {
                                "key": "D5",
                                "pitch": 86,
                                "length": 96,
                                "velocity": 59
                            },
                            "2304": {
                                "key": "C5",
                                "pitch": 84,
                                "length": 528,
                                "velocity": 59
                            },
                            "2832": {
                                "key": "B4",
                                "pitch": 83,
                                "length": 96,
                                "velocity": 59
                            },
                            "2928": {
                                "key": "A4",
                                "pitch": 81,
                                "length": 144,
                                "velocity": 59
                            }
                        },
                        "length": 0
                    }
                },
                "18432": {
                    "length": 3072,
                    "name": "arp #4",
                    "data": {
                        "notes": {
                            "0": {
                                "key": "A3",
                                "pitch": 69,
                                "length": 768,
                                "velocity": 59
                            },
                            "552": {
                                "key": "B4",
                                "pitch": 83,
                                "length": 144,
                                "velocity": 72
                            },
                            "696": {
                                "key": "C5",
                                "pitch": 84,
                                "length": 72,
                                "velocity": 81
                            },
                            "768": {
                                "key": "C4",
                                "pitch": 72,
                                "length": 768,
                                "velocity": 73
                            },
                            "1296": {
                                "key": "E5",
                                "pitch": 88,
                                "length": 144,
                                "velocity": 77
                            },
                            "1440": {
                                "key": "D5",
                                "pitch": 86,
                                "length": 96,
                                "velocity": 69
                            },
                            "1536": {
                                "key": "G3",
                                "pitch": 67,
                                "length": 768,
                                "velocity": 59
                            },
                            "2064": {
                                "key": "C5",
                                "pitch": 84,
                                "length": 144,
                                "velocity": 59
                            },
                            "2208": {
                                "key": "D5",
                                "pitch": 86,
                                "length": 96,
                                "velocity": 59
                            },
                            "2304": {
                                "key": "C5",
                                "pitch": 84,
                                "length": 528,
                                "velocity": 59
                            },
                            "2832": {
                                "key": "B4",
                                "pitch": 83,
                                "length": 96,
                                "velocity": 59
                            },
                            "2928": {
                                "key": "A4",
                                "pitch": 81,
                                "length": 144,
                                "velocity": 59
                            }
                        },
                        "length": 0
                    }
                },
                "21504": {
                    "length": 3072,
                    "name": "arp #4",
                    "data": {
                        "notes": {
                            "0": {
                                "key": "A3",
                                "pitch": 69,
                                "length": 768,
                                "velocity": 59
                            },
                            "552": {
                                "key": "B4",
                                "pitch": 83,
                                "length": 144,
                                "velocity": 72
                            },
                            "696": {
                                "key": "C5",
                                "pitch": 84,
                                "length": 72,
                                "velocity": 81
                            },
                            "768": {
                                "key": "C4",
                                "pitch": 72,
                                "length": 768,
                                "velocity": 73
                            },
                            "1296": {
                                "key": "E5",
                                "pitch": 88,
                                "length": 144,
                                "velocity": 77
                            },
                            "1440": {
                                "key": "D5",
                                "pitch": 86,
                                "length": 96,
                                "velocity": 69
                            },
                            "1536": {
                                "key": "G3",
                                "pitch": 67,
                                "length": 768,
                                "velocity": 59
                            },
                            "2064": {
                                "key": "C5",
                                "pitch": 84,
                                "length": 144,
                                "velocity": 59
                            },
                            "2208": {
                                "key": "D5",
                                "pitch": 86,
                                "length": 96,
                                "velocity": 59
                            },
                            "2304": {
                                "key": "C5",
                                "pitch": 84,
                                "length": 528,
                                "velocity": 59
                            },
                            "2832": {
                                "key": "B4",
                                "pitch": 83,
                                "length": 96,
                                "velocity": 59
                            },
                            "2928": {
                                "key": "A4",
                                "pitch": 81,
                                "length": 144,
                                "velocity": 59
                            }
                        },
                        "length": 0
                    }
                },
                "24576": {
                    "length": 3072,
                    "name": "arp #4",
                    "data": {
                        "notes": {
                            "0": {
                                "key": "A3",
                                "pitch": 69,
                                "length": 768,
                                "velocity": 59
                            },
                            "552": {
                                "key": "B4",
                                "pitch": 83,
                                "length": 144,
                                "velocity": 72
                            },
                            "696": {
                                "key": "C5",
                                "pitch": 84,
                                "length": 72,
                                "velocity": 81
                            },
                            "768": {
                                "key": "C4",
                                "pitch": 72,
                                "length": 768,
                                "velocity": 73
                            },
                            "1296": {
                                "key": "E5",
                                "pitch": 88,
                                "length": 144,
                                "velocity": 77
                            },
                            "1440": {
                                "key": "D5",
                                "pitch": 86,
                                "length": 96,
                                "velocity": 69
                            },
                            "1536": {
                                "key": "G3",
                                "pitch": 67,
                                "length": 768,
                                "velocity": 59
                            },
                            "2064": {
                                "key": "C5",
                                "pitch": 84,
                                "length": 144,
                                "velocity": 59
                            },
                            "2208": {
                                "key": "D5",
                                "pitch": 86,
                                "length": 96,
                                "velocity": 59
                            },
                            "2304": {
                                "key": "C5",
                                "pitch": 84,
                                "length": 528,
                                "velocity": 59
                            },
                            "2832": {
                                "key": "B4",
                                "pitch": 83,
                                "length": 96,
                                "velocity": 59
                            },
                            "2928": {
                                "key": "A4",
                                "pitch": 81,
                                "length": 144,
                                "velocity": 59
                            }
                        },
                        "length": 0
                    }
                },
                "27648": {
                    "length": 3072,
                    "name": "arp #4",
                    "data": {
                        "notes": {
                            "0": {
                                "key": "A3",
                                "pitch": 69,
                                "length": 768,
                                "velocity": 59
                            },
                            "552": {
                                "key": "B4",
                                "pitch": 83,
                                "length": 144,
                                "velocity": 72
                            },
                            "696": {
                                "key": "C5",
                                "pitch": 84,
                                "length": 72,
                                "velocity": 81
                            },
                            "768": {
                                "key": "C4",
                                "pitch": 72,
                                "length": 768,
                                "velocity": 73
                            },
                            "1296": {
                                "key": "E5",
                                "pitch": 88,
                                "length": 144,
                                "velocity": 77
                            },
                            "1440": {
                                "key": "D5",
                                "pitch": 86,
                                "length": 96,
                                "velocity": 69
                            },
                            "1536": {
                                "key": "G3",
                                "pitch": 67,
                                "length": 768,
                                "velocity": 59
                            },
                            "2064": {
                                "key": "C5",
                                "pitch": 84,
                                "length": 144,
                                "velocity": 59
                            },
                            "2208": {
                                "key": "D5",
                                "pitch": 86,
                                "length": 96,
                                "velocity": 59
                            },
                            "2304": {
                                "key": "C5",
                                "pitch": 84,
                                "length": 528,
                                "velocity": 59
                            },
                            "2832": {
                                "key": "B4",
                                "pitch": 83,
                                "length": 96,
                                "velocity": 59
                            },
                            "2928": {
                                "key": "A4",
                                "pitch": 81,
                                "length": 144,
                                "velocity": 59
                            }
                        },
                        "length": 0
                    }
                },
                "30720": {
                    "length": 3072,
                    "name": "arp #4",
                    "data": {
                        "notes": {
                            "0": {
                                "key": "A3",
                                "pitch": 69,
                                "length": 768,
                                "velocity": 59
                            },
                            "552": {
                                "key": "B4",
                                "pitch": 83,
                                "length": 144,
                                "velocity": 72
                            },
                            "696": {
                                "key": "C5",
                                "pitch": 84,
                                "length": 72,
                                "velocity": 81
                            },
                            "768": {
                                "key": "C4",
                                "pitch": 72,
                                "length": 768,
                                "velocity": 73
                            },
                            "1296": {
                                "key": "E5",
                                "pitch": 88,
                                "length": 144,
                                "velocity": 77
                            },
                            "1440": {
                                "key": "D5",
                                "pitch": 86,
                                "length": 96,
                                "velocity": 69
                            },
                            "1536": {
                                "key": "G3",
                                "pitch": 67,
                                "length": 768,
                                "velocity": 59
                            },
                            "2064": {
                                "key": "C5",
                                "pitch": 84,
                                "length": 144,
                                "velocity": 59
                            },
                            "2208": {
                                "key": "D5",
                                "pitch": 86,
                                "length": 96,
                                "velocity": 59
                            },
                            "2304": {
                                "key": "C5",
                                "pitch": 84,
                                "length": 528,
                                "velocity": 59
                            },
                            "2832": {
                                "key": "B4",
                                "pitch": 83,
                                "length": 96,
                                "velocity": 59
                            },
                            "2928": {
                                "key": "A4",
                                "pitch": 81,
                                "length": 144,
                                "velocity": 59
                            }
                        },
                        "length": 0
                    }
                },
                "33792": {
                    "length": 3072,
                    "name": "arp #4",
                    "data": {
                        "notes": {
                            "0": {
                                "key": "A3",
                                "pitch": 69,
                                "length": 768,
                                "velocity": 59
                            },
                            "552": {
                                "key": "B4",
                                "pitch": 83,
                                "length": 144,
                                "velocity": 72
                            },
                            "696": {
                                "key": "C5",
                                "pitch": 84,
                                "length": 72,
                                "velocity": 81
                            },
                            "768": {
                                "key": "C4",
                                "pitch": 72,
                                "length": 768,
                                "velocity": 73
                            },
                            "1296": {
                                "key": "E5",
                                "pitch": 88,
                                "length": 144,
                                "velocity": 77
                            },
                            "1440": {
                                "key": "D5",
                                "pitch": 86,
                                "length": 96,
                                "velocity": 69
                            },
                            "1536": {
                                "key": "G3",
                                "pitch": 67,
                                "length": 768,
                                "velocity": 59
                            },
                            "2064": {
                                "key": "C5",
                                "pitch": 84,
                                "length": 144,
                                "velocity": 59
                            },
                            "2208": {
                                "key": "D5",
                                "pitch": 86,
                                "length": 96,
                                "velocity": 59
                            },
                            "2304": {
                                "key": "C5",
                                "pitch": 84,
                                "length": 528,
                                "velocity": 59
                            },
                            "2832": {
                                "key": "B4",
                                "pitch": 83,
                                "length": 96,
                                "velocity": 59
                            },
                            "2928": {
                                "key": "A4",
                                "pitch": 81,
                                "length": 144,
                                "velocity": 59
                            }
                        },
                        "length": 0
                    }
                }
            },
            "bass": {
                "4608": {
                    "length": 1536,
                    "name": "bass",
                    "data": {
                        "notes": {
                            "0": {
                                "key": "A3",
                                "pitch": 69,
                                "length": 24,
                                "velocity": 59
                            },
                            "24": {
                                "key": "A3",
                                "pitch": 69,
                                "length": 24,
                                "velocity": 59
                            },
                            "48": {
                                "key": "A3",
                                "pitch": 69,
                                "length": 24,
                                "velocity": 59
                            },
                            "72": {
                                "key": "A3",
                                "pitch": 69,
                                "length": 24,
                                "velocity": 59
                            },
                            "96": {
                                "key": "A3",
                                "pitch": 69,
                                "length": 24,
                                "velocity": 59
                            },
                            "120": {
                                "key": "A3",
                                "pitch": 69,
                                "length": 24,
                                "velocity": 59
                            },
                            "144": {
                                "key": "A3",
                                "pitch": 69,
                                "length": 24,
                                "velocity": 59
                            },
                            "168": {
                                "key": "A3",
                                "pitch": 69,
                                "length": 24,
                                "velocity": 59
                            },
                            "192": {
                                "key": "A3",
                                "pitch": 69,
                                "length": 24,
                                "velocity": 59
                            },
                            "216": {
                                "key": "A3",
                                "pitch": 69,
                                "length": 24,
                                "velocity": 59
                            },
                            "240": {
                                "key": "A3",
                                "pitch": 69,
                                "length": 24,
                                "velocity": 59
                            },
                            "264": {
                                "key": "A3",
                                "pitch": 69,
                                "length": 24,
                                "velocity": 59
                            },
                            "288": {
                                "key": "A3",
                                "pitch": 69,
                                "length": 24,
                                "velocity": 59
                            },
                            "312": {
                                "key": "A3",
                                "pitch": 69,
                                "length": 24,
                                "velocity": 59
                            },
                            "336": {
                                "key": "A3",
                                "pitch": 69,
                                "length": 24,
                                "velocity": 59
                            },
                            "360": {
                                "key": "A3",
                                "pitch": 69,
                                "length": 24,
                                "velocity": 59
                            },
                            "384": {
                                "key": "A3",
                                "pitch": 69,
                                "length": 24,
                                "velocity": 59
                            },
                            "408": {
                                "key": "A3",
                                "pitch": 69,
                                "length": 24,
                                "velocity": 59
                            },
                            "432": {
                                "key": "A3",
                                "pitch": 69,
                                "length": 24,
                                "velocity": 59
                            },
                            "456": {
                                "key": "A3",
                                "pitch": 69,
                                "length": 24,
                                "velocity": 59
                            },
                            "480": {
                                "key": "A3",
                                "pitch": 69,
                                "length": 24,
                                "velocity": 59
                            },
                            "504": {
                                "key": "A3",
                                "pitch": 69,
                                "length": 24,
                                "velocity": 59
                            },
                            "528": {
                                "key": "A3",
                                "pitch": 69,
                                "length": 24,
                                "velocity": 59
                            },
                            "552": {
                                "key": "A3",
                                "pitch": 69,
                                "length": 24,
                                "velocity": 59
                            },
                            "576": {
                                "key": "A3",
                                "pitch": 69,
                                "length": 24,
                                "velocity": 59
                            },
                            "600": {
                                "key": "A3",
                                "pitch": 69,
                                "length": 24,
                                "velocity": 59
                            },
                            "624": {
                                "key": "A3",
                                "pitch": 69,
                                "length": 24,
                                "velocity": 59
                            },
                            "648": {
                                "key": "A3",
                                "pitch": 69,
                                "length": 24,
                                "velocity": 59
                            },
                            "672": {
                                "key": "A3",
                                "pitch": 69,
                                "length": 24,
                                "velocity": 59
                            },
                            "696": {
                                "key": "A3",
                                "pitch": 69,
                                "length": 24,
                                "velocity": 59
                            },
                            "720": {
                                "key": "A3",
                                "pitch": 69,
                                "length": 24,
                                "velocity": 59
                            },
                            "744": {
                                "key": "A3",
                                "pitch": 69,
                                "length": 24,
                                "velocity": 59
                            },
                            "768": {
                                "key": "F3",
                                "pitch": 65,
                                "length": 24,
                                "velocity": 52
                            },
                            "792": {
                                "key": "F3",
                                "pitch": 65,
                                "length": 24,
                                "velocity": 52
                            },
                            "816": {
                                "key": "F3",
                                "pitch": 65,
                                "length": 24,
                                "velocity": 52
                            },
                            "840": {
                                "key": "F3",
                                "pitch": 65,
                                "length": 24,
                                "velocity": 52
                            },
                            "864": {
                                "key": "F3",
                                "pitch": 65,
                                "length": 24,
                                "velocity": 52
                            },
                            "888": {
                                "key": "F3",
                                "pitch": 65,
                                "length": 24,
                                "velocity": 52
                            },
                            "912": {
                                "key": "F3",
                                "pitch": 65,
                                "length": 24,
                                "velocity": 52
                            },
                            "936": {
                                "key": "F3",
                                "pitch": 65,
                                "length": 24,
                                "velocity": 52
                            },
                            "960": {
                                "key": "F3",
                                "pitch": 65,
                                "length": 24,
                                "velocity": 52
                            },
                            "984": {
                                "key": "F3",
                                "pitch": 65,
                                "length": 24,
                                "velocity": 52
                            },
                            "1008": {
                                "key": "F3",
                                "pitch": 65,
                                "length": 24,
                                "velocity": 52
                            },
                            "1032": {
                                "key": "F3",
                                "pitch": 65,
                                "length": 24,
                                "velocity": 52
                            },
                            "1056": {
                                "key": "F3",
                                "pitch": 65,
                                "length": 24,
                                "velocity": 52
                            },
                            "1080": {
                                "key": "F3",
                                "pitch": 65,
                                "length": 24,
                                "velocity": 52
                            },
                            "1104": {
                                "key": "F3",
                                "pitch": 65,
                                "length": 24,
                                "velocity": 52
                            },
                            "1128": {
                                "key": "F3",
                                "pitch": 65,
                                "length": 24,
                                "velocity": 52
                            },
                            "1152": {
                                "key": "F3",
                                "pitch": 65,
                                "length": 24,
                                "velocity": 52
                            },
                            "1176": {
                                "key": "F3",
                                "pitch": 65,
                                "length": 24,
                                "velocity": 52
                            },
                            "1200": {
                                "key": "F3",
                                "pitch": 65,
                                "length": 24,
                                "velocity": 52
                            },
                            "1224": {
                                "key": "F3",
                                "pitch": 65,
                                "length": 24,
                                "velocity": 52
                            },
                            "1248": {
                                "key": "F3",
                                "pitch": 65,
                                "length": 24,
                                "velocity": 52
                            },
                            "1272": {
                                "key": "F3",
                                "pitch": 65,
                                "length": 24,
                                "velocity": 52
                            },
                            "1296": {
                                "key": "F3",
                                "pitch": 65,
                                "length": 24,
                                "velocity": 52
                            },
                            "1320": {
                                "key": "F3",
                                "pitch": 65,
                                "length": 24,
                                "velocity": 52
                            },
                            "1344": {
                                "key": "F3",
                                "pitch": 65,
                                "length": 24,
                                "velocity": 52
                            },
                            "1368": {
                                "key": "F3",
                                "pitch": 65,
                                "length": 24,
                                "velocity": 52
                            },
                            "1392": {
                                "key": "F3",
                                "pitch": 65,
                                "length": 24,
                                "velocity": 52
                            },
                            "1416": {
                                "key": "F3",
                                "pitch": 65,
                                "length": 24,
                                "velocity": 52
                            },
                            "1440": {
                                "key": "F3",
                                "pitch": 65,
                                "length": 24,
                                "velocity": 52
                            },
                            "1464": {
                                "key": "F3",
                                "pitch": 65,
                                "length": 24,
                                "velocity": 52
                            },
                            "1488": {
                                "key": "F3",
                                "pitch": 65,
                                "length": 24,
                                "velocity": 52
                            },
                            "1512": {
                                "key": "F3",
                                "pitch": 65,
                                "length": 24,
                                "velocity": 52
                            }
                        },
                        "length": 0
                    }
                },
                "6144": {
                    "length": 1536,
                    "name": "bass",
                    "data": {
                        "notes": {
                            "0": {
                                "key": "A3",
                                "pitch": 69,
                                "length": 24,
                                "velocity": 59
                            },
                            "24": {
                                "key": "A3",
                                "pitch": 69,
                                "length": 24,
                                "velocity": 59
                            },
                            "48": {
                                "key": "A3",
                                "pitch": 69,
                                "length": 24,
                                "velocity": 59
                            },
                            "72": {
                                "key": "A3",
                                "pitch": 69,
                                "length": 24,
                                "velocity": 59
                            },
                            "96": {
                                "key": "A3",
                                "pitch": 69,
                                "length": 24,
                                "velocity": 59
                            },
                            "120": {
                                "key": "A3",
                                "pitch": 69,
                                "length": 24,
                                "velocity": 59
                            },
                            "144": {
                                "key": "A3",
                                "pitch": 69,
                                "length": 24,
                                "velocity": 59
                            },
                            "168": {
                                "key": "A3",
                                "pitch": 69,
                                "length": 24,
                                "velocity": 59
                            },
                            "192": {
                                "key": "A3",
                                "pitch": 69,
                                "length": 24,
                                "velocity": 59
                            },
                            "216": {
                                "key": "A3",
                                "pitch": 69,
                                "length": 24,
                                "velocity": 59
                            },
                            "240": {
                                "key": "A3",
                                "pitch": 69,
                                "length": 24,
                                "velocity": 59
                            },
                            "264": {
                                "key": "A3",
                                "pitch": 69,
                                "length": 24,
                                "velocity": 59
                            },
                            "288": {
                                "key": "A3",
                                "pitch": 69,
                                "length": 24,
                                "velocity": 59
                            },
                            "312": {
                                "key": "A3",
                                "pitch": 69,
                                "length": 24,
                                "velocity": 59
                            },
                            "336": {
                                "key": "A3",
                                "pitch": 69,
                                "length": 24,
                                "velocity": 59
                            },
                            "360": {
                                "key": "A3",
                                "pitch": 69,
                                "length": 24,
                                "velocity": 59
                            },
                            "384": {
                                "key": "A3",
                                "pitch": 69,
                                "length": 24,
                                "velocity": 59
                            },
                            "408": {
                                "key": "A3",
                                "pitch": 69,
                                "length": 24,
                                "velocity": 59
                            },
                            "432": {
                                "key": "A3",
                                "pitch": 69,
                                "length": 24,
                                "velocity": 59
                            },
                            "456": {
                                "key": "A3",
                                "pitch": 69,
                                "length": 24,
                                "velocity": 59
                            },
                            "480": {
                                "key": "A3",
                                "pitch": 69,
                                "length": 24,
                                "velocity": 59
                            },
                            "504": {
                                "key": "A3",
                                "pitch": 69,
                                "length": 24,
                                "velocity": 59
                            },
                            "528": {
                                "key": "A3",
                                "pitch": 69,
                                "length": 24,
                                "velocity": 59
                            },
                            "552": {
                                "key": "A3",
                                "pitch": 69,
                                "length": 24,
                                "velocity": 59
                            },
                            "576": {
                                "key": "A3",
                                "pitch": 69,
                                "length": 24,
                                "velocity": 59
                            },
                            "600": {
                                "key": "A3",
                                "pitch": 69,
                                "length": 24,
                                "velocity": 59
                            },
                            "624": {
                                "key": "A3",
                                "pitch": 69,
                                "length": 24,
                                "velocity": 59
                            },
                            "648": {
                                "key": "A3",
                                "pitch": 69,
                                "length": 24,
                                "velocity": 59
                            },
                            "672": {
                                "key": "A3",
                                "pitch": 69,
                                "length": 24,
                                "velocity": 59
                            },
                            "696": {
                                "key": "A3",
                                "pitch": 69,
                                "length": 24,
                                "velocity": 59
                            },
                            "720": {
                                "key": "A3",
                                "pitch": 69,
                                "length": 24,
                                "velocity": 59
                            },
                            "744": {
                                "key": "A3",
                                "pitch": 69,
                                "length": 24,
                                "velocity": 59
                            },
                            "768": {
                                "key": "F3",
                                "pitch": 65,
                                "length": 24,
                                "velocity": 52
                            },
                            "792": {
                                "key": "F3",
                                "pitch": 65,
                                "length": 24,
                                "velocity": 52
                            },
                            "816": {
                                "key": "F3",
                                "pitch": 65,
                                "length": 24,
                                "velocity": 52
                            },
                            "840": {
                                "key": "F3",
                                "pitch": 65,
                                "length": 24,
                                "velocity": 52
                            },
                            "864": {
                                "key": "F3",
                                "pitch": 65,
                                "length": 24,
                                "velocity": 52
                            },
                            "888": {
                                "key": "F3",
                                "pitch": 65,
                                "length": 24,
                                "velocity": 52
                            },
                            "912": {
                                "key": "F3",
                                "pitch": 65,
                                "length": 24,
                                "velocity": 52
                            },
                            "936": {
                                "key": "F3",
                                "pitch": 65,
                                "length": 24,
                                "velocity": 52
                            },
                            "960": {
                                "key": "F3",
                                "pitch": 65,
                                "length": 24,
                                "velocity": 52
                            },
                            "984": {
                                "key": "F3",
                                "pitch": 65,
                                "length": 24,
                                "velocity": 52
                            },
                            "1008": {
                                "key": "F3",
                                "pitch": 65,
                                "length": 24,
                                "velocity": 52
                            },
                            "1032": {
                                "key": "F3",
                                "pitch": 65,
                                "length": 24,
                                "velocity": 52
                            },
                            "1056": {
                                "key": "F3",
                                "pitch": 65,
                                "length": 24,
                                "velocity": 52
                            },
                            "1080": {
                                "key": "F3",
                                "pitch": 65,
                                "length": 24,
                                "velocity": 52
                            },
                            "1104": {
                                "key": "F3",
                                "pitch": 65,
                                "length": 24,
                                "velocity": 52
                            },
                            "1128": {
                                "key": "F3",
                                "pitch": 65,
                                "length": 24,
                                "velocity": 52
                            },
                            "1152": {
                                "key": "F3",
                                "pitch": 65,
                                "length": 24,
                                "velocity": 52
                            },
                            "1176": {
                                "key": "F3",
                                "pitch": 65,
                                "length": 24,
                                "velocity": 52
                            },
                            "1200": {
                                "key": "F3",
                                "pitch": 65,
                                "length": 24,
                                "velocity": 52
                            },
                            "1224": {
                                "key": "F3",
                                "pitch": 65,
                                "length": 24,
                                "velocity": 52
                            },
                            "1248": {
                                "key": "F3",
                                "pitch": 65,
                                "length": 24,
                                "velocity": 52
                            },
                            "1272": {
                                "key": "F3",
                                "pitch": 65,
                                "length": 24,
                                "velocity": 52
                            },
                            "1296": {
                                "key": "F3",
                                "pitch": 65,
                                "length": 24,
                                "velocity": 52
                            },
                            "1320": {
                                "key": "F3",
                                "pitch": 65,
                                "length": 24,
                                "velocity": 52
                            },
                            "1344": {
                                "key": "F3",
                                "pitch": 65,
                                "length": 24,
                                "velocity": 52
                            },
                            "1368": {
                                "key": "F3",
                                "pitch": 65,
                                "length": 24,
                                "velocity": 52
                            },
                            "1392": {
                                "key": "F3",
                                "pitch": 65,
                                "length": 24,
                                "velocity": 52
                            },
                            "1416": {
                                "key": "F3",
                                "pitch": 65,
                                "length": 24,
                                "velocity": 52
                            },
                            "1440": {
                                "key": "F3",
                                "pitch": 65,
                                "length": 24,
                                "velocity": 52
                            },
                            "1464": {
                                "key": "F3",
                                "pitch": 65,
                                "length": 24,
                                "velocity": 52
                            },
                            "1488": {
                                "key": "F3",
                                "pitch": 65,
                                "length": 24,
                                "velocity": 52
                            },
                            "1512": {
                                "key": "F3",
                                "pitch": 65,
                                "length": 24,
                                "velocity": 52
                            }
                        },
                        "length": 0
                    }
                },
                "7680": {
                    "length": 1536,
                    "name": "bass",
                    "data": {
                        "notes": {
                            "0": {
                                "key": "A3",
                                "pitch": 69,
                                "length": 24,
                                "velocity": 59
                            },
                            "24": {
                                "key": "A3",
                                "pitch": 69,
                                "length": 24,
                                "velocity": 59
                            },
                            "48": {
                                "key": "A3",
                                "pitch": 69,
                                "length": 24,
                                "velocity": 59
                            },
                            "72": {
                                "key": "A3",
                                "pitch": 69,
                                "length": 24,
                                "velocity": 59
                            },
                            "96": {
                                "key": "A3",
                                "pitch": 69,
                                "length": 24,
                                "velocity": 59
                            },
                            "120": {
                                "key": "A3",
                                "pitch": 69,
                                "length": 24,
                                "velocity": 59
                            },
                            "144": {
                                "key": "A3",
                                "pitch": 69,
                                "length": 24,
                                "velocity": 59
                            },
                            "168": {
                                "key": "A3",
                                "pitch": 69,
                                "length": 24,
                                "velocity": 59
                            },
                            "192": {
                                "key": "A3",
                                "pitch": 69,
                                "length": 24,
                                "velocity": 59
                            },
                            "216": {
                                "key": "A3",
                                "pitch": 69,
                                "length": 24,
                                "velocity": 59
                            },
                            "240": {
                                "key": "A3",
                                "pitch": 69,
                                "length": 24,
                                "velocity": 59
                            },
                            "264": {
                                "key": "A3",
                                "pitch": 69,
                                "length": 24,
                                "velocity": 59
                            },
                            "288": {
                                "key": "A3",
                                "pitch": 69,
                                "length": 24,
                                "velocity": 59
                            },
                            "312": {
                                "key": "A3",
                                "pitch": 69,
                                "length": 24,
                                "velocity": 59
                            },
                            "336": {
                                "key": "A3",
                                "pitch": 69,
                                "length": 24,
                                "velocity": 59
                            },
                            "360": {
                                "key": "A3",
                                "pitch": 69,
                                "length": 24,
                                "velocity": 59
                            },
                            "384": {
                                "key": "A3",
                                "pitch": 69,
                                "length": 24,
                                "velocity": 59
                            },
                            "408": {
                                "key": "A3",
                                "pitch": 69,
                                "length": 24,
                                "velocity": 59
                            },
                            "432": {
                                "key": "A3",
                                "pitch": 69,
                                "length": 24,
                                "velocity": 59
                            },
                            "456": {
                                "key": "A3",
                                "pitch": 69,
                                "length": 24,
                                "velocity": 59
                            },
                            "480": {
                                "key": "A3",
                                "pitch": 69,
                                "length": 24,
                                "velocity": 59
                            },
                            "504": {
                                "key": "A3",
                                "pitch": 69,
                                "length": 24,
                                "velocity": 59
                            },
                            "528": {
                                "key": "A3",
                                "pitch": 69,
                                "length": 24,
                                "velocity": 59
                            },
                            "552": {
                                "key": "A3",
                                "pitch": 69,
                                "length": 24,
                                "velocity": 59
                            },
                            "576": {
                                "key": "A3",
                                "pitch": 69,
                                "length": 24,
                                "velocity": 59
                            },
                            "600": {
                                "key": "A3",
                                "pitch": 69,
                                "length": 24,
                                "velocity": 59
                            },
                            "624": {
                                "key": "A3",
                                "pitch": 69,
                                "length": 24,
                                "velocity": 59
                            },
                            "648": {
                                "key": "A3",
                                "pitch": 69,
                                "length": 24,
                                "velocity": 59
                            },
                            "672": {
                                "key": "A3",
                                "pitch": 69,
                                "length": 24,
                                "velocity": 59
                            },
                            "696": {
                                "key": "A3",
                                "pitch": 69,
                                "length": 24,
                                "velocity": 59
                            },
                            "720": {
                                "key": "A3",
                                "pitch": 69,
                                "length": 24,
                                "velocity": 59
                            },
                            "744": {
                                "key": "A3",
                                "pitch": 69,
                                "length": 24,
                                "velocity": 59
                            },
                            "768": {
                                "key": "F3",
                                "pitch": 65,
                                "length": 24,
                                "velocity": 52
                            },
                            "792": {
                                "key": "F3",
                                "pitch": 65,
                                "length": 24,
                                "velocity": 52
                            },
                            "816": {
                                "key": "F3",
                                "pitch": 65,
                                "length": 24,
                                "velocity": 52
                            },
                            "840": {
                                "key": "F3",
                                "pitch": 65,
                                "length": 24,
                                "velocity": 52
                            },
                            "864": {
                                "key": "F3",
                                "pitch": 65,
                                "length": 24,
                                "velocity": 52
                            },
                            "888": {
                                "key": "F3",
                                "pitch": 65,
                                "length": 24,
                                "velocity": 52
                            },
                            "912": {
                                "key": "F3",
                                "pitch": 65,
                                "length": 24,
                                "velocity": 52
                            },
                            "936": {
                                "key": "F3",
                                "pitch": 65,
                                "length": 24,
                                "velocity": 52
                            },
                            "960": {
                                "key": "F3",
                                "pitch": 65,
                                "length": 24,
                                "velocity": 52
                            },
                            "984": {
                                "key": "F3",
                                "pitch": 65,
                                "length": 24,
                                "velocity": 52
                            },
                            "1008": {
                                "key": "F3",
                                "pitch": 65,
                                "length": 24,
                                "velocity": 52
                            },
                            "1032": {
                                "key": "F3",
                                "pitch": 65,
                                "length": 24,
                                "velocity": 52
                            },
                            "1056": {
                                "key": "F3",
                                "pitch": 65,
                                "length": 24,
                                "velocity": 52
                            },
                            "1080": {
                                "key": "F3",
                                "pitch": 65,
                                "length": 24,
                                "velocity": 52
                            },
                            "1104": {
                                "key": "F3",
                                "pitch": 65,
                                "length": 24,
                                "velocity": 52
                            },
                            "1128": {
                                "key": "F3",
                                "pitch": 65,
                                "length": 24,
                                "velocity": 52
                            },
                            "1152": {
                                "key": "F3",
                                "pitch": 65,
                                "length": 24,
                                "velocity": 52
                            },
                            "1176": {
                                "key": "F3",
                                "pitch": 65,
                                "length": 24,
                                "velocity": 52
                            },
                            "1200": {
                                "key": "F3",
                                "pitch": 65,
                                "length": 24,
                                "velocity": 52
                            },
                            "1224": {
                                "key": "F3",
                                "pitch": 65,
                                "length": 24,
                                "velocity": 52
                            },
                            "1248": {
                                "key": "F3",
                                "pitch": 65,
                                "length": 24,
                                "velocity": 52
                            },
                            "1272": {
                                "key": "F3",
                                "pitch": 65,
                                "length": 24,
                                "velocity": 52
                            },
                            "1296": {
                                "key": "F3",
                                "pitch": 65,
                                "length": 24,
                                "velocity": 52
                            },
                            "1320": {
                                "key": "F3",
                                "pitch": 65,
                                "length": 24,
                                "velocity": 52
                            },
                            "1344": {
                                "key": "F3",
                                "pitch": 65,
                                "length": 24,
                                "velocity": 52
                            },
                            "1368": {
                                "key": "F3",
                                "pitch": 65,
                                "length": 24,
                                "velocity": 52
                            },
                            "1392": {
                                "key": "F3",
                                "pitch": 65,
                                "length": 24,
                                "velocity": 52
                            },
                            "1416": {
                                "key": "F3",
                                "pitch": 65,
                                "length": 24,
                                "velocity": 52
                            },
                            "1440": {
                                "key": "F3",
                                "pitch": 65,
                                "length": 24,
                                "velocity": 52
                            },
                            "1464": {
                                "key": "F3",
                                "pitch": 65,
                                "length": 24,
                                "velocity": 52
                            },
                            "1488": {
                                "key": "F3",
                                "pitch": 65,
                                "length": 24,
                                "velocity": 52
                            },
                            "1512": {
                                "key": "F3",
                                "pitch": 65,
                                "length": 24,
                                "velocity": 52
                            }
                        },
                        "length": 0
                    }
                },
                "9216": {
                    "length": 1536,
                    "name": "bass",
                    "data": {
                        "notes": {
                            "0": {
                                "key": "A3",
                                "pitch": 69,
                                "length": 24,
                                "velocity": 59
                            },
                            "24": {
                                "key": "A3",
                                "pitch": 69,
                                "length": 24,
                                "velocity": 59
                            },
                            "48": {
                                "key": "A3",
                                "pitch": 69,
                                "length": 24,
                                "velocity": 59
                            },
                            "72": {
                                "key": "A3",
                                "pitch": 69,
                                "length": 24,
                                "velocity": 59
                            },
                            "96": {
                                "key": "A3",
                                "pitch": 69,
                                "length": 24,
                                "velocity": 59
                            },
                            "120": {
                                "key": "A3",
                                "pitch": 69,
                                "length": 24,
                                "velocity": 59
                            },
                            "144": {
                                "key": "A3",
                                "pitch": 69,
                                "length": 24,
                                "velocity": 59
                            },
                            "168": {
                                "key": "A3",
                                "pitch": 69,
                                "length": 24,
                                "velocity": 59
                            },
                            "192": {
                                "key": "A3",
                                "pitch": 69,
                                "length": 24,
                                "velocity": 59
                            },
                            "216": {
                                "key": "A3",
                                "pitch": 69,
                                "length": 24,
                                "velocity": 59
                            },
                            "240": {
                                "key": "A3",
                                "pitch": 69,
                                "length": 24,
                                "velocity": 59
                            },
                            "264": {
                                "key": "A3",
                                "pitch": 69,
                                "length": 24,
                                "velocity": 59
                            },
                            "288": {
                                "key": "A3",
                                "pitch": 69,
                                "length": 24,
                                "velocity": 59
                            },
                            "312": {
                                "key": "A3",
                                "pitch": 69,
                                "length": 24,
                                "velocity": 59
                            },
                            "336": {
                                "key": "A3",
                                "pitch": 69,
                                "length": 24,
                                "velocity": 59
                            },
                            "360": {
                                "key": "A3",
                                "pitch": 69,
                                "length": 24,
                                "velocity": 59
                            },
                            "384": {
                                "key": "A3",
                                "pitch": 69,
                                "length": 24,
                                "velocity": 59
                            },
                            "408": {
                                "key": "A3",
                                "pitch": 69,
                                "length": 24,
                                "velocity": 59
                            },
                            "432": {
                                "key": "A3",
                                "pitch": 69,
                                "length": 24,
                                "velocity": 59
                            },
                            "456": {
                                "key": "A3",
                                "pitch": 69,
                                "length": 24,
                                "velocity": 59
                            },
                            "480": {
                                "key": "A3",
                                "pitch": 69,
                                "length": 24,
                                "velocity": 59
                            },
                            "504": {
                                "key": "A3",
                                "pitch": 69,
                                "length": 24,
                                "velocity": 59
                            },
                            "528": {
                                "key": "A3",
                                "pitch": 69,
                                "length": 24,
                                "velocity": 59
                            },
                            "552": {
                                "key": "A3",
                                "pitch": 69,
                                "length": 24,
                                "velocity": 59
                            },
                            "576": {
                                "key": "A3",
                                "pitch": 69,
                                "length": 24,
                                "velocity": 59
                            },
                            "600": {
                                "key": "A3",
                                "pitch": 69,
                                "length": 24,
                                "velocity": 59
                            },
                            "624": {
                                "key": "A3",
                                "pitch": 69,
                                "length": 24,
                                "velocity": 59
                            },
                            "648": {
                                "key": "A3",
                                "pitch": 69,
                                "length": 24,
                                "velocity": 59
                            },
                            "672": {
                                "key": "A3",
                                "pitch": 69,
                                "length": 24,
                                "velocity": 59
                            },
                            "696": {
                                "key": "A3",
                                "pitch": 69,
                                "length": 24,
                                "velocity": 59
                            },
                            "720": {
                                "key": "A3",
                                "pitch": 69,
                                "length": 24,
                                "velocity": 59
                            },
                            "744": {
                                "key": "A3",
                                "pitch": 69,
                                "length": 24,
                                "velocity": 59
                            },
                            "768": {
                                "key": "F3",
                                "pitch": 65,
                                "length": 24,
                                "velocity": 52
                            },
                            "792": {
                                "key": "F3",
                                "pitch": 65,
                                "length": 24,
                                "velocity": 52
                            },
                            "816": {
                                "key": "F3",
                                "pitch": 65,
                                "length": 24,
                                "velocity": 52
                            },
                            "840": {
                                "key": "F3",
                                "pitch": 65,
                                "length": 24,
                                "velocity": 52
                            },
                            "864": {
                                "key": "F3",
                                "pitch": 65,
                                "length": 24,
                                "velocity": 52
                            },
                            "888": {
                                "key": "F3",
                                "pitch": 65,
                                "length": 24,
                                "velocity": 52
                            },
                            "912": {
                                "key": "F3",
                                "pitch": 65,
                                "length": 24,
                                "velocity": 52
                            },
                            "936": {
                                "key": "F3",
                                "pitch": 65,
                                "length": 24,
                                "velocity": 52
                            },
                            "960": {
                                "key": "F3",
                                "pitch": 65,
                                "length": 24,
                                "velocity": 52
                            },
                            "984": {
                                "key": "F3",
                                "pitch": 65,
                                "length": 24,
                                "velocity": 52
                            },
                            "1008": {
                                "key": "F3",
                                "pitch": 65,
                                "length": 24,
                                "velocity": 52
                            },
                            "1032": {
                                "key": "F3",
                                "pitch": 65,
                                "length": 24,
                                "velocity": 52
                            },
                            "1056": {
                                "key": "F3",
                                "pitch": 65,
                                "length": 24,
                                "velocity": 52
                            },
                            "1080": {
                                "key": "F3",
                                "pitch": 65,
                                "length": 24,
                                "velocity": 52
                            },
                            "1104": {
                                "key": "F3",
                                "pitch": 65,
                                "length": 24,
                                "velocity": 52
                            },
                            "1128": {
                                "key": "F3",
                                "pitch": 65,
                                "length": 24,
                                "velocity": 52
                            },
                            "1152": {
                                "key": "F3",
                                "pitch": 65,
                                "length": 24,
                                "velocity": 52
                            },
                            "1176": {
                                "key": "F3",
                                "pitch": 65,
                                "length": 24,
                                "velocity": 52
                            },
                            "1200": {
                                "key": "F3",
                                "pitch": 65,
                                "length": 24,
                                "velocity": 52
                            },
                            "1224": {
                                "key": "F3",
                                "pitch": 65,
                                "length": 24,
                                "velocity": 52
                            },
                            "1248": {
                                "key": "F3",
                                "pitch": 65,
                                "length": 24,
                                "velocity": 52
                            },
                            "1272": {
                                "key": "F3",
                                "pitch": 65,
                                "length": 24,
                                "velocity": 52
                            },
                            "1296": {
                                "key": "F3",
                                "pitch": 65,
                                "length": 24,
                                "velocity": 52
                            },
                            "1320": {
                                "key": "F3",
                                "pitch": 65,
                                "length": 24,
                                "velocity": 52
                            },
                            "1344": {
                                "key": "F3",
                                "pitch": 65,
                                "length": 24,
                                "velocity": 52
                            },
                            "1368": {
                                "key": "F3",
                                "pitch": 65,
                                "length": 24,
                                "velocity": 52
                            },
                            "1392": {
                                "key": "F3",
                                "pitch": 65,
                                "length": 24,
                                "velocity": 52
                            },
                            "1416": {
                                "key": "F3",
                                "pitch": 65,
                                "length": 24,
                                "velocity": 52
                            },
                            "1440": {
                                "key": "F3",
                                "pitch": 65,
                                "length": 24,
                                "velocity": 52
                            },
                            "1464": {
                                "key": "F3",
                                "pitch": 65,
                                "length": 24,
                                "velocity": 52
                            },
                            "1488": {
                                "key": "F3",
                                "pitch": 65,
                                "length": 24,
                                "velocity": 52
                            },
                            "1512": {
                                "key": "F3",
                                "pitch": 65,
                                "length": 24,
                                "velocity": 52
                            }
                        },
                        "length": 0
                    }
                },
                "10752": {
                    "length": 1536,
                    "name": "bass #4",
                    "data": {
                        "notes": {
                            "0": {
                                "key": "G3",
                                "pitch": 67,
                                "length": 24,
                                "velocity": 59
                            },
                            "24": {
                                "key": "G3",
                                "pitch": 67,
                                "length": 24,
                                "velocity": 59
                            },
                            "48": {
                                "key": "G3",
                                "pitch": 67,
                                "length": 24,
                                "velocity": 59
                            },
                            "72": {
                                "key": "G3",
                                "pitch": 67,
                                "length": 24,
                                "velocity": 59
                            },
                            "96": {
                                "key": "G3",
                                "pitch": 67,
                                "length": 24,
                                "velocity": 59
                            },
                            "120": {
                                "key": "G3",
                                "pitch": 67,
                                "length": 24,
                                "velocity": 59
                            },
                            "144": {
                                "key": "G3",
                                "pitch": 67,
                                "length": 24,
                                "velocity": 59
                            },
                            "168": {
                                "key": "G3",
                                "pitch": 67,
                                "length": 24,
                                "velocity": 59
                            },
                            "192": {
                                "key": "G3",
                                "pitch": 67,
                                "length": 24,
                                "velocity": 59
                            },
                            "216": {
                                "key": "G3",
                                "pitch": 67,
                                "length": 24,
                                "velocity": 59
                            },
                            "240": {
                                "key": "G3",
                                "pitch": 67,
                                "length": 24,
                                "velocity": 59
                            },
                            "264": {
                                "key": "G3",
                                "pitch": 67,
                                "length": 24,
                                "velocity": 59
                            },
                            "288": {
                                "key": "G3",
                                "pitch": 67,
                                "length": 24,
                                "velocity": 59
                            },
                            "312": {
                                "key": "G3",
                                "pitch": 67,
                                "length": 24,
                                "velocity": 59
                            },
                            "336": {
                                "key": "G3",
                                "pitch": 67,
                                "length": 24,
                                "velocity": 59
                            },
                            "360": {
                                "key": "G3",
                                "pitch": 67,
                                "length": 24,
                                "velocity": 59
                            },
                            "384": {
                                "key": "G3",
                                "pitch": 67,
                                "length": 24,
                                "velocity": 59
                            },
                            "408": {
                                "key": "G3",
                                "pitch": 67,
                                "length": 24,
                                "velocity": 59
                            },
                            "432": {
                                "key": "G3",
                                "pitch": 67,
                                "length": 24,
                                "velocity": 59
                            },
                            "456": {
                                "key": "G3",
                                "pitch": 67,
                                "length": 24,
                                "velocity": 59
                            },
                            "480": {
                                "key": "G3",
                                "pitch": 67,
                                "length": 24,
                                "velocity": 59
                            },
                            "504": {
                                "key": "G3",
                                "pitch": 67,
                                "length": 24,
                                "velocity": 59
                            },
                            "528": {
                                "key": "G3",
                                "pitch": 67,
                                "length": 24,
                                "velocity": 59
                            },
                            "552": {
                                "key": "G3",
                                "pitch": 67,
                                "length": 24,
                                "velocity": 59
                            },
                            "576": {
                                "key": "G3",
                                "pitch": 67,
                                "length": 24,
                                "velocity": 59
                            },
                            "600": {
                                "key": "G3",
                                "pitch": 67,
                                "length": 24,
                                "velocity": 59
                            },
                            "624": {
                                "key": "G3",
                                "pitch": 67,
                                "length": 24,
                                "velocity": 59
                            },
                            "648": {
                                "key": "G3",
                                "pitch": 67,
                                "length": 24,
                                "velocity": 59
                            },
                            "672": {
                                "key": "G3",
                                "pitch": 67,
                                "length": 24,
                                "velocity": 59
                            },
                            "696": {
                                "key": "G3",
                                "pitch": 67,
                                "length": 24,
                                "velocity": 59
                            },
                            "720": {
                                "key": "G3",
                                "pitch": 67,
                                "length": 24,
                                "velocity": 59
                            },
                            "744": {
                                "key": "G3",
                                "pitch": 67,
                                "length": 24,
                                "velocity": 59
                            },
                            "768": {
                                "key": "D3",
                                "pitch": 62,
                                "length": 24,
                                "velocity": 52
                            },
                            "792": {
                                "key": "D3",
                                "pitch": 62,
                                "length": 24,
                                "velocity": 52
                            },
                            "816": {
                                "key": "D3",
                                "pitch": 62,
                                "length": 24,
                                "velocity": 52
                            },
                            "840": {
                                "key": "D3",
                                "pitch": 62,
                                "length": 24,
                                "velocity": 52
                            },
                            "864": {
                                "key": "D3",
                                "pitch": 62,
                                "length": 24,
                                "velocity": 52
                            },
                            "888": {
                                "key": "D3",
                                "pitch": 62,
                                "length": 24,
                                "velocity": 52
                            },
                            "912": {
                                "key": "D3",
                                "pitch": 62,
                                "length": 24,
                                "velocity": 52
                            },
                            "936": {
                                "key": "D3",
                                "pitch": 62,
                                "length": 24,
                                "velocity": 52
                            },
                            "960": {
                                "key": "D3",
                                "pitch": 62,
                                "length": 24,
                                "velocity": 52
                            },
                            "984": {
                                "key": "D3",
                                "pitch": 62,
                                "length": 24,
                                "velocity": 52
                            },
                            "1008": {
                                "key": "D3",
                                "pitch": 62,
                                "length": 24,
                                "velocity": 52
                            },
                            "1032": {
                                "key": "D3",
                                "pitch": 62,
                                "length": 24,
                                "velocity": 52
                            },
                            "1056": {
                                "key": "D3",
                                "pitch": 62,
                                "length": 24,
                                "velocity": 52
                            },
                            "1080": {
                                "key": "D3",
                                "pitch": 62,
                                "length": 24,
                                "velocity": 52
                            },
                            "1104": {
                                "key": "D3",
                                "pitch": 62,
                                "length": 24,
                                "velocity": 52
                            },
                            "1128": {
                                "key": "D3",
                                "pitch": 62,
                                "length": 24,
                                "velocity": 52
                            },
                            "1152": {
                                "key": "D3",
                                "pitch": 62,
                                "length": 24,
                                "velocity": 52
                            },
                            "1176": {
                                "key": "D3",
                                "pitch": 62,
                                "length": 24,
                                "velocity": 52
                            },
                            "1200": {
                                "key": "D3",
                                "pitch": 62,
                                "length": 24,
                                "velocity": 52
                            },
                            "1224": {
                                "key": "D3",
                                "pitch": 62,
                                "length": 24,
                                "velocity": 52
                            },
                            "1248": {
                                "key": "D3",
                                "pitch": 62,
                                "length": 24,
                                "velocity": 52
                            },
                            "1272": {
                                "key": "D3",
                                "pitch": 62,
                                "length": 24,
                                "velocity": 52
                            },
                            "1296": {
                                "key": "D3",
                                "pitch": 62,
                                "length": 24,
                                "velocity": 52
                            },
                            "1320": {
                                "key": "D3",
                                "pitch": 62,
                                "length": 24,
                                "velocity": 52
                            },
                            "1344": {
                                "key": "D3",
                                "pitch": 62,
                                "length": 24,
                                "velocity": 52
                            },
                            "1368": {
                                "key": "D3",
                                "pitch": 62,
                                "length": 24,
                                "velocity": 52
                            },
                            "1392": {
                                "key": "D3",
                                "pitch": 62,
                                "length": 24,
                                "velocity": 52
                            },
                            "1416": {
                                "key": "D3",
                                "pitch": 62,
                                "length": 24,
                                "velocity": 52
                            },
                            "1440": {
                                "key": "D3",
                                "pitch": 62,
                                "length": 24,
                                "velocity": 52
                            },
                            "1464": {
                                "key": "D3",
                                "pitch": 62,
                                "length": 24,
                                "velocity": 52
                            },
                            "1488": {
                                "key": "D3",
                                "pitch": 62,
                                "length": 24,
                                "velocity": 52
                            },
                            "1512": {
                                "key": "D3",
                                "pitch": 62,
                                "length": 24,
                                "velocity": 52
                            }
                        },
                        "length": 0
                    }
                },
                "12288": {
                    "length": 1536,
                    "name": "bass",
                    "data": {
                        "notes": {
                            "0": {
                                "key": "A3",
                                "pitch": 69,
                                "length": 24,
                                "velocity": 59
                            },
                            "24": {
                                "key": "A3",
                                "pitch": 69,
                                "length": 24,
                                "velocity": 59
                            },
                            "48": {
                                "key": "A3",
                                "pitch": 69,
                                "length": 24,
                                "velocity": 59
                            },
                            "72": {
                                "key": "A3",
                                "pitch": 69,
                                "length": 24,
                                "velocity": 59
                            },
                            "96": {
                                "key": "A3",
                                "pitch": 69,
                                "length": 24,
                                "velocity": 59
                            },
                            "120": {
                                "key": "A3",
                                "pitch": 69,
                                "length": 24,
                                "velocity": 59
                            },
                            "144": {
                                "key": "A3",
                                "pitch": 69,
                                "length": 24,
                                "velocity": 59
                            },
                            "168": {
                                "key": "A3",
                                "pitch": 69,
                                "length": 24,
                                "velocity": 59
                            },
                            "192": {
                                "key": "A3",
                                "pitch": 69,
                                "length": 24,
                                "velocity": 59
                            },
                            "216": {
                                "key": "A3",
                                "pitch": 69,
                                "length": 24,
                                "velocity": 59
                            },
                            "240": {
                                "key": "A3",
                                "pitch": 69,
                                "length": 24,
                                "velocity": 59
                            },
                            "264": {
                                "key": "A3",
                                "pitch": 69,
                                "length": 24,
                                "velocity": 59
                            },
                            "288": {
                                "key": "A3",
                                "pitch": 69,
                                "length": 24,
                                "velocity": 59
                            },
                            "312": {
                                "key": "A3",
                                "pitch": 69,
                                "length": 24,
                                "velocity": 59
                            },
                            "336": {
                                "key": "A3",
                                "pitch": 69,
                                "length": 24,
                                "velocity": 59
                            },
                            "360": {
                                "key": "A3",
                                "pitch": 69,
                                "length": 24,
                                "velocity": 59
                            },
                            "384": {
                                "key": "A3",
                                "pitch": 69,
                                "length": 24,
                                "velocity": 59
                            },
                            "408": {
                                "key": "A3",
                                "pitch": 69,
                                "length": 24,
                                "velocity": 59
                            },
                            "432": {
                                "key": "A3",
                                "pitch": 69,
                                "length": 24,
                                "velocity": 59
                            },
                            "456": {
                                "key": "A3",
                                "pitch": 69,
                                "length": 24,
                                "velocity": 59
                            },
                            "480": {
                                "key": "A3",
                                "pitch": 69,
                                "length": 24,
                                "velocity": 59
                            },
                            "504": {
                                "key": "A3",
                                "pitch": 69,
                                "length": 24,
                                "velocity": 59
                            },
                            "528": {
                                "key": "A3",
                                "pitch": 69,
                                "length": 24,
                                "velocity": 59
                            },
                            "552": {
                                "key": "A3",
                                "pitch": 69,
                                "length": 24,
                                "velocity": 59
                            },
                            "576": {
                                "key": "A3",
                                "pitch": 69,
                                "length": 24,
                                "velocity": 59
                            },
                            "600": {
                                "key": "A3",
                                "pitch": 69,
                                "length": 24,
                                "velocity": 59
                            },
                            "624": {
                                "key": "A3",
                                "pitch": 69,
                                "length": 24,
                                "velocity": 59
                            },
                            "648": {
                                "key": "A3",
                                "pitch": 69,
                                "length": 24,
                                "velocity": 59
                            },
                            "672": {
                                "key": "A3",
                                "pitch": 69,
                                "length": 24,
                                "velocity": 59
                            },
                            "696": {
                                "key": "A3",
                                "pitch": 69,
                                "length": 24,
                                "velocity": 59
                            },
                            "720": {
                                "key": "A3",
                                "pitch": 69,
                                "length": 24,
                                "velocity": 59
                            },
                            "744": {
                                "key": "A3",
                                "pitch": 69,
                                "length": 24,
                                "velocity": 59
                            },
                            "768": {
                                "key": "F3",
                                "pitch": 65,
                                "length": 24,
                                "velocity": 52
                            },
                            "792": {
                                "key": "F3",
                                "pitch": 65,
                                "length": 24,
                                "velocity": 52
                            },
                            "816": {
                                "key": "F3",
                                "pitch": 65,
                                "length": 24,
                                "velocity": 52
                            },
                            "840": {
                                "key": "F3",
                                "pitch": 65,
                                "length": 24,
                                "velocity": 52
                            },
                            "864": {
                                "key": "F3",
                                "pitch": 65,
                                "length": 24,
                                "velocity": 52
                            },
                            "888": {
                                "key": "F3",
                                "pitch": 65,
                                "length": 24,
                                "velocity": 52
                            },
                            "912": {
                                "key": "F3",
                                "pitch": 65,
                                "length": 24,
                                "velocity": 52
                            },
                            "936": {
                                "key": "F3",
                                "pitch": 65,
                                "length": 24,
                                "velocity": 52
                            },
                            "960": {
                                "key": "F3",
                                "pitch": 65,
                                "length": 24,
                                "velocity": 52
                            },
                            "984": {
                                "key": "F3",
                                "pitch": 65,
                                "length": 24,
                                "velocity": 52
                            },
                            "1008": {
                                "key": "F3",
                                "pitch": 65,
                                "length": 24,
                                "velocity": 52
                            },
                            "1032": {
                                "key": "F3",
                                "pitch": 65,
                                "length": 24,
                                "velocity": 52
                            },
                            "1056": {
                                "key": "F3",
                                "pitch": 65,
                                "length": 24,
                                "velocity": 52
                            },
                            "1080": {
                                "key": "F3",
                                "pitch": 65,
                                "length": 24,
                                "velocity": 52
                            },
                            "1104": {
                                "key": "F3",
                                "pitch": 65,
                                "length": 24,
                                "velocity": 52
                            },
                            "1128": {
                                "key": "F3",
                                "pitch": 65,
                                "length": 24,
                                "velocity": 52
                            },
                            "1152": {
                                "key": "F3",
                                "pitch": 65,
                                "length": 24,
                                "velocity": 52
                            },
                            "1176": {
                                "key": "F3",
                                "pitch": 65,
                                "length": 24,
                                "velocity": 52
                            },
                            "1200": {
                                "key": "F3",
                                "pitch": 65,
                                "length": 24,
                                "velocity": 52
                            },
                            "1224": {
                                "key": "F3",
                                "pitch": 65,
                                "length": 24,
                                "velocity": 52
                            },
                            "1248": {
                                "key": "F3",
                                "pitch": 65,
                                "length": 24,
                                "velocity": 52
                            },
                            "1272": {
                                "key": "F3",
                                "pitch": 65,
                                "length": 24,
                                "velocity": 52
                            },
                            "1296": {
                                "key": "F3",
                                "pitch": 65,
                                "length": 24,
                                "velocity": 52
                            },
                            "1320": {
                                "key": "F3",
                                "pitch": 65,
                                "length": 24,
                                "velocity": 52
                            },
                            "1344": {
                                "key": "F3",
                                "pitch": 65,
                                "length": 24,
                                "velocity": 52
                            },
                            "1368": {
                                "key": "F3",
                                "pitch": 65,
                                "length": 24,
                                "velocity": 52
                            },
                            "1392": {
                                "key": "F3",
                                "pitch": 65,
                                "length": 24,
                                "velocity": 52
                            },
                            "1416": {
                                "key": "F3",
                                "pitch": 65,
                                "length": 24,
                                "velocity": 52
                            },
                            "1440": {
                                "key": "F3",
                                "pitch": 65,
                                "length": 24,
                                "velocity": 52
                            },
                            "1464": {
                                "key": "F3",
                                "pitch": 65,
                                "length": 24,
                                "velocity": 52
                            },
                            "1488": {
                                "key": "F3",
                                "pitch": 65,
                                "length": 24,
                                "velocity": 52
                            },
                            "1512": {
                                "key": "F3",
                                "pitch": 65,
                                "length": 24,
                                "velocity": 52
                            }
                        },
                        "length": 0
                    }
                },
                "13824": {
                    "length": 1536,
                    "name": "bass #4",
                    "data": {
                        "notes": {
                            "0": {
                                "key": "G3",
                                "pitch": 67,
                                "length": 24,
                                "velocity": 59
                            },
                            "24": {
                                "key": "G3",
                                "pitch": 67,
                                "length": 24,
                                "velocity": 59
                            },
                            "48": {
                                "key": "G3",
                                "pitch": 67,
                                "length": 24,
                                "velocity": 59
                            },
                            "72": {
                                "key": "G3",
                                "pitch": 67,
                                "length": 24,
                                "velocity": 59
                            },
                            "96": {
                                "key": "G3",
                                "pitch": 67,
                                "length": 24,
                                "velocity": 59
                            },
                            "120": {
                                "key": "G3",
                                "pitch": 67,
                                "length": 24,
                                "velocity": 59
                            },
                            "144": {
                                "key": "G3",
                                "pitch": 67,
                                "length": 24,
                                "velocity": 59
                            },
                            "168": {
                                "key": "G3",
                                "pitch": 67,
                                "length": 24,
                                "velocity": 59
                            },
                            "192": {
                                "key": "G3",
                                "pitch": 67,
                                "length": 24,
                                "velocity": 59
                            },
                            "216": {
                                "key": "G3",
                                "pitch": 67,
                                "length": 24,
                                "velocity": 59
                            },
                            "240": {
                                "key": "G3",
                                "pitch": 67,
                                "length": 24,
                                "velocity": 59
                            },
                            "264": {
                                "key": "G3",
                                "pitch": 67,
                                "length": 24,
                                "velocity": 59
                            },
                            "288": {
                                "key": "G3",
                                "pitch": 67,
                                "length": 24,
                                "velocity": 59
                            },
                            "312": {
                                "key": "G3",
                                "pitch": 67,
                                "length": 24,
                                "velocity": 59
                            },
                            "336": {
                                "key": "G3",
                                "pitch": 67,
                                "length": 24,
                                "velocity": 59
                            },
                            "360": {
                                "key": "G3",
                                "pitch": 67,
                                "length": 24,
                                "velocity": 59
                            },
                            "384": {
                                "key": "G3",
                                "pitch": 67,
                                "length": 24,
                                "velocity": 59
                            },
                            "408": {
                                "key": "G3",
                                "pitch": 67,
                                "length": 24,
                                "velocity": 59
                            },
                            "432": {
                                "key": "G3",
                                "pitch": 67,
                                "length": 24,
                                "velocity": 59
                            },
                            "456": {
                                "key": "G3",
                                "pitch": 67,
                                "length": 24,
                                "velocity": 59
                            },
                            "480": {
                                "key": "G3",
                                "pitch": 67,
                                "length": 24,
                                "velocity": 59
                            },
                            "504": {
                                "key": "G3",
                                "pitch": 67,
                                "length": 24,
                                "velocity": 59
                            },
                            "528": {
                                "key": "G3",
                                "pitch": 67,
                                "length": 24,
                                "velocity": 59
                            },
                            "552": {
                                "key": "G3",
                                "pitch": 67,
                                "length": 24,
                                "velocity": 59
                            },
                            "576": {
                                "key": "G3",
                                "pitch": 67,
                                "length": 24,
                                "velocity": 59
                            },
                            "600": {
                                "key": "G3",
                                "pitch": 67,
                                "length": 24,
                                "velocity": 59
                            },
                            "624": {
                                "key": "G3",
                                "pitch": 67,
                                "length": 24,
                                "velocity": 59
                            },
                            "648": {
                                "key": "G3",
                                "pitch": 67,
                                "length": 24,
                                "velocity": 59
                            },
                            "672": {
                                "key": "G3",
                                "pitch": 67,
                                "length": 24,
                                "velocity": 59
                            },
                            "696": {
                                "key": "G3",
                                "pitch": 67,
                                "length": 24,
                                "velocity": 59
                            },
                            "720": {
                                "key": "G3",
                                "pitch": 67,
                                "length": 24,
                                "velocity": 59
                            },
                            "744": {
                                "key": "G3",
                                "pitch": 67,
                                "length": 24,
                                "velocity": 59
                            },
                            "768": {
                                "key": "D3",
                                "pitch": 62,
                                "length": 24,
                                "velocity": 52
                            },
                            "792": {
                                "key": "D3",
                                "pitch": 62,
                                "length": 24,
                                "velocity": 52
                            },
                            "816": {
                                "key": "D3",
                                "pitch": 62,
                                "length": 24,
                                "velocity": 52
                            },
                            "840": {
                                "key": "D3",
                                "pitch": 62,
                                "length": 24,
                                "velocity": 52
                            },
                            "864": {
                                "key": "D3",
                                "pitch": 62,
                                "length": 24,
                                "velocity": 52
                            },
                            "888": {
                                "key": "D3",
                                "pitch": 62,
                                "length": 24,
                                "velocity": 52
                            },
                            "912": {
                                "key": "D3",
                                "pitch": 62,
                                "length": 24,
                                "velocity": 52
                            },
                            "936": {
                                "key": "D3",
                                "pitch": 62,
                                "length": 24,
                                "velocity": 52
                            },
                            "960": {
                                "key": "D3",
                                "pitch": 62,
                                "length": 24,
                                "velocity": 52
                            },
                            "984": {
                                "key": "D3",
                                "pitch": 62,
                                "length": 24,
                                "velocity": 52
                            },
                            "1008": {
                                "key": "D3",
                                "pitch": 62,
                                "length": 24,
                                "velocity": 52
                            },
                            "1032": {
                                "key": "D3",
                                "pitch": 62,
                                "length": 24,
                                "velocity": 52
                            },
                            "1056": {
                                "key": "D3",
                                "pitch": 62,
                                "length": 24,
                                "velocity": 52
                            },
                            "1080": {
                                "key": "D3",
                                "pitch": 62,
                                "length": 24,
                                "velocity": 52
                            },
                            "1104": {
                                "key": "D3",
                                "pitch": 62,
                                "length": 24,
                                "velocity": 52
                            },
                            "1128": {
                                "key": "D3",
                                "pitch": 62,
                                "length": 24,
                                "velocity": 52
                            },
                            "1152": {
                                "key": "D3",
                                "pitch": 62,
                                "length": 24,
                                "velocity": 52
                            },
                            "1176": {
                                "key": "D3",
                                "pitch": 62,
                                "length": 24,
                                "velocity": 52
                            },
                            "1200": {
                                "key": "D3",
                                "pitch": 62,
                                "length": 24,
                                "velocity": 52
                            },
                            "1224": {
                                "key": "D3",
                                "pitch": 62,
                                "length": 24,
                                "velocity": 52
                            },
                            "1248": {
                                "key": "D3",
                                "pitch": 62,
                                "length": 24,
                                "velocity": 52
                            },
                            "1272": {
                                "key": "D3",
                                "pitch": 62,
                                "length": 24,
                                "velocity": 52
                            },
                            "1296": {
                                "key": "D3",
                                "pitch": 62,
                                "length": 24,
                                "velocity": 52
                            },
                            "1320": {
                                "key": "D3",
                                "pitch": 62,
                                "length": 24,
                                "velocity": 52
                            },
                            "1344": {
                                "key": "D3",
                                "pitch": 62,
                                "length": 24,
                                "velocity": 52
                            },
                            "1368": {
                                "key": "D3",
                                "pitch": 62,
                                "length": 24,
                                "velocity": 52
                            },
                            "1392": {
                                "key": "D3",
                                "pitch": 62,
                                "length": 24,
                                "velocity": 52
                            },
                            "1416": {
                                "key": "D3",
                                "pitch": 62,
                                "length": 24,
                                "velocity": 52
                            },
                            "1440": {
                                "key": "D3",
                                "pitch": 62,
                                "length": 24,
                                "velocity": 52
                            },
                            "1464": {
                                "key": "D3",
                                "pitch": 62,
                                "length": 24,
                                "velocity": 52
                            },
                            "1488": {
                                "key": "D3",
                                "pitch": 62,
                                "length": 24,
                                "velocity": 52
                            },
                            "1512": {
                                "key": "D3",
                                "pitch": 62,
                                "length": 24,
                                "velocity": 52
                            }
                        },
                        "length": 0
                    }
                },
                "15360": {
                    "length": 1536,
                    "name": "bass",
                    "data": {
                        "notes": {
                            "0": {
                                "key": "A3",
                                "pitch": 69,
                                "length": 24,
                                "velocity": 59
                            },
                            "24": {
                                "key": "A3",
                                "pitch": 69,
                                "length": 24,
                                "velocity": 59
                            },
                            "48": {
                                "key": "A3",
                                "pitch": 69,
                                "length": 24,
                                "velocity": 59
                            },
                            "72": {
                                "key": "A3",
                                "pitch": 69,
                                "length": 24,
                                "velocity": 59
                            },
                            "96": {
                                "key": "A3",
                                "pitch": 69,
                                "length": 24,
                                "velocity": 59
                            },
                            "120": {
                                "key": "A3",
                                "pitch": 69,
                                "length": 24,
                                "velocity": 59
                            },
                            "144": {
                                "key": "A3",
                                "pitch": 69,
                                "length": 24,
                                "velocity": 59
                            },
                            "168": {
                                "key": "A3",
                                "pitch": 69,
                                "length": 24,
                                "velocity": 59
                            },
                            "192": {
                                "key": "A3",
                                "pitch": 69,
                                "length": 24,
                                "velocity": 59
                            },
                            "216": {
                                "key": "A3",
                                "pitch": 69,
                                "length": 24,
                                "velocity": 59
                            },
                            "240": {
                                "key": "A3",
                                "pitch": 69,
                                "length": 24,
                                "velocity": 59
                            },
                            "264": {
                                "key": "A3",
                                "pitch": 69,
                                "length": 24,
                                "velocity": 59
                            },
                            "288": {
                                "key": "A3",
                                "pitch": 69,
                                "length": 24,
                                "velocity": 59
                            },
                            "312": {
                                "key": "A3",
                                "pitch": 69,
                                "length": 24,
                                "velocity": 59
                            },
                            "336": {
                                "key": "A3",
                                "pitch": 69,
                                "length": 24,
                                "velocity": 59
                            },
                            "360": {
                                "key": "A3",
                                "pitch": 69,
                                "length": 24,
                                "velocity": 59
                            },
                            "384": {
                                "key": "A3",
                                "pitch": 69,
                                "length": 24,
                                "velocity": 59
                            },
                            "408": {
                                "key": "A3",
                                "pitch": 69,
                                "length": 24,
                                "velocity": 59
                            },
                            "432": {
                                "key": "A3",
                                "pitch": 69,
                                "length": 24,
                                "velocity": 59
                            },
                            "456": {
                                "key": "A3",
                                "pitch": 69,
                                "length": 24,
                                "velocity": 59
                            },
                            "480": {
                                "key": "A3",
                                "pitch": 69,
                                "length": 24,
                                "velocity": 59
                            },
                            "504": {
                                "key": "A3",
                                "pitch": 69,
                                "length": 24,
                                "velocity": 59
                            },
                            "528": {
                                "key": "A3",
                                "pitch": 69,
                                "length": 24,
                                "velocity": 59
                            },
                            "552": {
                                "key": "A3",
                                "pitch": 69,
                                "length": 24,
                                "velocity": 59
                            },
                            "576": {
                                "key": "A3",
                                "pitch": 69,
                                "length": 24,
                                "velocity": 59
                            },
                            "600": {
                                "key": "A3",
                                "pitch": 69,
                                "length": 24,
                                "velocity": 59
                            },
                            "624": {
                                "key": "A3",
                                "pitch": 69,
                                "length": 24,
                                "velocity": 59
                            },
                            "648": {
                                "key": "A3",
                                "pitch": 69,
                                "length": 24,
                                "velocity": 59
                            },
                            "672": {
                                "key": "A3",
                                "pitch": 69,
                                "length": 24,
                                "velocity": 59
                            },
                            "696": {
                                "key": "A3",
                                "pitch": 69,
                                "length": 24,
                                "velocity": 59
                            },
                            "720": {
                                "key": "A3",
                                "pitch": 69,
                                "length": 24,
                                "velocity": 59
                            },
                            "744": {
                                "key": "A3",
                                "pitch": 69,
                                "length": 24,
                                "velocity": 59
                            },
                            "768": {
                                "key": "F3",
                                "pitch": 65,
                                "length": 24,
                                "velocity": 52
                            },
                            "792": {
                                "key": "F3",
                                "pitch": 65,
                                "length": 24,
                                "velocity": 52
                            },
                            "816": {
                                "key": "F3",
                                "pitch": 65,
                                "length": 24,
                                "velocity": 52
                            },
                            "840": {
                                "key": "F3",
                                "pitch": 65,
                                "length": 24,
                                "velocity": 52
                            },
                            "864": {
                                "key": "F3",
                                "pitch": 65,
                                "length": 24,
                                "velocity": 52
                            },
                            "888": {
                                "key": "F3",
                                "pitch": 65,
                                "length": 24,
                                "velocity": 52
                            },
                            "912": {
                                "key": "F3",
                                "pitch": 65,
                                "length": 24,
                                "velocity": 52
                            },
                            "936": {
                                "key": "F3",
                                "pitch": 65,
                                "length": 24,
                                "velocity": 52
                            },
                            "960": {
                                "key": "F3",
                                "pitch": 65,
                                "length": 24,
                                "velocity": 52
                            },
                            "984": {
                                "key": "F3",
                                "pitch": 65,
                                "length": 24,
                                "velocity": 52
                            },
                            "1008": {
                                "key": "F3",
                                "pitch": 65,
                                "length": 24,
                                "velocity": 52
                            },
                            "1032": {
                                "key": "F3",
                                "pitch": 65,
                                "length": 24,
                                "velocity": 52
                            },
                            "1056": {
                                "key": "F3",
                                "pitch": 65,
                                "length": 24,
                                "velocity": 52
                            },
                            "1080": {
                                "key": "F3",
                                "pitch": 65,
                                "length": 24,
                                "velocity": 52
                            },
                            "1104": {
                                "key": "F3",
                                "pitch": 65,
                                "length": 24,
                                "velocity": 52
                            },
                            "1128": {
                                "key": "F3",
                                "pitch": 65,
                                "length": 24,
                                "velocity": 52
                            },
                            "1152": {
                                "key": "F3",
                                "pitch": 65,
                                "length": 24,
                                "velocity": 52
                            },
                            "1176": {
                                "key": "F3",
                                "pitch": 65,
                                "length": 24,
                                "velocity": 52
                            },
                            "1200": {
                                "key": "F3",
                                "pitch": 65,
                                "length": 24,
                                "velocity": 52
                            },
                            "1224": {
                                "key": "F3",
                                "pitch": 65,
                                "length": 24,
                                "velocity": 52
                            },
                            "1248": {
                                "key": "F3",
                                "pitch": 65,
                                "length": 24,
                                "velocity": 52
                            },
                            "1272": {
                                "key": "F3",
                                "pitch": 65,
                                "length": 24,
                                "velocity": 52
                            },
                            "1296": {
                                "key": "F3",
                                "pitch": 65,
                                "length": 24,
                                "velocity": 52
                            },
                            "1320": {
                                "key": "F3",
                                "pitch": 65,
                                "length": 24,
                                "velocity": 52
                            },
                            "1344": {
                                "key": "F3",
                                "pitch": 65,
                                "length": 24,
                                "velocity": 52
                            },
                            "1368": {
                                "key": "F3",
                                "pitch": 65,
                                "length": 24,
                                "velocity": 52
                            },
                            "1392": {
                                "key": "F3",
                                "pitch": 65,
                                "length": 24,
                                "velocity": 52
                            },
                            "1416": {
                                "key": "F3",
                                "pitch": 65,
                                "length": 24,
                                "velocity": 52
                            },
                            "1440": {
                                "key": "F3",
                                "pitch": 65,
                                "length": 24,
                                "velocity": 52
                            },
                            "1464": {
                                "key": "F3",
                                "pitch": 65,
                                "length": 24,
                                "velocity": 52
                            },
                            "1488": {
                                "key": "F3",
                                "pitch": 65,
                                "length": 24,
                                "velocity": 52
                            },
                            "1512": {
                                "key": "F3",
                                "pitch": 65,
                                "length": 24,
                                "velocity": 52
                            }
                        },
                        "length": 0
                    }
                },
                "16896": {
                    "length": 1536,
                    "name": "bass #4",
                    "data": {
                        "notes": {
                            "0": {
                                "key": "G3",
                                "pitch": 67,
                                "length": 24,
                                "velocity": 59
                            },
                            "24": {
                                "key": "G3",
                                "pitch": 67,
                                "length": 24,
                                "velocity": 59
                            },
                            "48": {
                                "key": "G3",
                                "pitch": 67,
                                "length": 24,
                                "velocity": 59
                            },
                            "72": {
                                "key": "G3",
                                "pitch": 67,
                                "length": 24,
                                "velocity": 59
                            },
                            "96": {
                                "key": "G3",
                                "pitch": 67,
                                "length": 24,
                                "velocity": 59
                            },
                            "120": {
                                "key": "G3",
                                "pitch": 67,
                                "length": 24,
                                "velocity": 59
                            },
                            "144": {
                                "key": "G3",
                                "pitch": 67,
                                "length": 24,
                                "velocity": 59
                            },
                            "168": {
                                "key": "G3",
                                "pitch": 67,
                                "length": 24,
                                "velocity": 59
                            },
                            "192": {
                                "key": "G3",
                                "pitch": 67,
                                "length": 24,
                                "velocity": 59
                            },
                            "216": {
                                "key": "G3",
                                "pitch": 67,
                                "length": 24,
                                "velocity": 59
                            },
                            "240": {
                                "key": "G3",
                                "pitch": 67,
                                "length": 24,
                                "velocity": 59
                            },
                            "264": {
                                "key": "G3",
                                "pitch": 67,
                                "length": 24,
                                "velocity": 59
                            },
                            "288": {
                                "key": "G3",
                                "pitch": 67,
                                "length": 24,
                                "velocity": 59
                            },
                            "312": {
                                "key": "G3",
                                "pitch": 67,
                                "length": 24,
                                "velocity": 59
                            },
                            "336": {
                                "key": "G3",
                                "pitch": 67,
                                "length": 24,
                                "velocity": 59
                            },
                            "360": {
                                "key": "G3",
                                "pitch": 67,
                                "length": 24,
                                "velocity": 59
                            },
                            "384": {
                                "key": "G3",
                                "pitch": 67,
                                "length": 24,
                                "velocity": 59
                            },
                            "408": {
                                "key": "G3",
                                "pitch": 67,
                                "length": 24,
                                "velocity": 59
                            },
                            "432": {
                                "key": "G3",
                                "pitch": 67,
                                "length": 24,
                                "velocity": 59
                            },
                            "456": {
                                "key": "G3",
                                "pitch": 67,
                                "length": 24,
                                "velocity": 59
                            },
                            "480": {
                                "key": "G3",
                                "pitch": 67,
                                "length": 24,
                                "velocity": 59
                            },
                            "504": {
                                "key": "G3",
                                "pitch": 67,
                                "length": 24,
                                "velocity": 59
                            },
                            "528": {
                                "key": "G3",
                                "pitch": 67,
                                "length": 24,
                                "velocity": 59
                            },
                            "552": {
                                "key": "G3",
                                "pitch": 67,
                                "length": 24,
                                "velocity": 59
                            },
                            "576": {
                                "key": "G3",
                                "pitch": 67,
                                "length": 24,
                                "velocity": 59
                            },
                            "600": {
                                "key": "G3",
                                "pitch": 67,
                                "length": 24,
                                "velocity": 59
                            },
                            "624": {
                                "key": "G3",
                                "pitch": 67,
                                "length": 24,
                                "velocity": 59
                            },
                            "648": {
                                "key": "G3",
                                "pitch": 67,
                                "length": 24,
                                "velocity": 59
                            },
                            "672": {
                                "key": "G3",
                                "pitch": 67,
                                "length": 24,
                                "velocity": 59
                            },
                            "696": {
                                "key": "G3",
                                "pitch": 67,
                                "length": 24,
                                "velocity": 59
                            },
                            "720": {
                                "key": "G3",
                                "pitch": 67,
                                "length": 24,
                                "velocity": 59
                            },
                            "744": {
                                "key": "G3",
                                "pitch": 67,
                                "length": 24,
                                "velocity": 59
                            },
                            "768": {
                                "key": "D3",
                                "pitch": 62,
                                "length": 24,
                                "velocity": 52
                            },
                            "792": {
                                "key": "D3",
                                "pitch": 62,
                                "length": 24,
                                "velocity": 52
                            },
                            "816": {
                                "key": "D3",
                                "pitch": 62,
                                "length": 24,
                                "velocity": 52
                            },
                            "840": {
                                "key": "D3",
                                "pitch": 62,
                                "length": 24,
                                "velocity": 52
                            },
                            "864": {
                                "key": "D3",
                                "pitch": 62,
                                "length": 24,
                                "velocity": 52
                            },
                            "888": {
                                "key": "D3",
                                "pitch": 62,
                                "length": 24,
                                "velocity": 52
                            },
                            "912": {
                                "key": "D3",
                                "pitch": 62,
                                "length": 24,
                                "velocity": 52
                            },
                            "936": {
                                "key": "D3",
                                "pitch": 62,
                                "length": 24,
                                "velocity": 52
                            },
                            "960": {
                                "key": "D3",
                                "pitch": 62,
                                "length": 24,
                                "velocity": 52
                            },
                            "984": {
                                "key": "D3",
                                "pitch": 62,
                                "length": 24,
                                "velocity": 52
                            },
                            "1008": {
                                "key": "D3",
                                "pitch": 62,
                                "length": 24,
                                "velocity": 52
                            },
                            "1032": {
                                "key": "D3",
                                "pitch": 62,
                                "length": 24,
                                "velocity": 52
                            },
                            "1056": {
                                "key": "D3",
                                "pitch": 62,
                                "length": 24,
                                "velocity": 52
                            },
                            "1080": {
                                "key": "D3",
                                "pitch": 62,
                                "length": 24,
                                "velocity": 52
                            },
                            "1104": {
                                "key": "D3",
                                "pitch": 62,
                                "length": 24,
                                "velocity": 52
                            },
                            "1128": {
                                "key": "D3",
                                "pitch": 62,
                                "length": 24,
                                "velocity": 52
                            },
                            "1152": {
                                "key": "D3",
                                "pitch": 62,
                                "length": 24,
                                "velocity": 52
                            },
                            "1176": {
                                "key": "D3",
                                "pitch": 62,
                                "length": 24,
                                "velocity": 52
                            },
                            "1200": {
                                "key": "D3",
                                "pitch": 62,
                                "length": 24,
                                "velocity": 52
                            },
                            "1224": {
                                "key": "D3",
                                "pitch": 62,
                                "length": 24,
                                "velocity": 52
                            },
                            "1248": {
                                "key": "D3",
                                "pitch": 62,
                                "length": 24,
                                "velocity": 52
                            },
                            "1272": {
                                "key": "D3",
                                "pitch": 62,
                                "length": 24,
                                "velocity": 52
                            },
                            "1296": {
                                "key": "D3",
                                "pitch": 62,
                                "length": 24,
                                "velocity": 52
                            },
                            "1320": {
                                "key": "D3",
                                "pitch": 62,
                                "length": 24,
                                "velocity": 52
                            },
                            "1344": {
                                "key": "D3",
                                "pitch": 62,
                                "length": 24,
                                "velocity": 52
                            },
                            "1368": {
                                "key": "D3",
                                "pitch": 62,
                                "length": 24,
                                "velocity": 52
                            },
                            "1392": {
                                "key": "D3",
                                "pitch": 62,
                                "length": 24,
                                "velocity": 52
                            },
                            "1416": {
                                "key": "D3",
                                "pitch": 62,
                                "length": 24,
                                "velocity": 52
                            },
                            "1440": {
                                "key": "D3",
                                "pitch": 62,
                                "length": 24,
                                "velocity": 52
                            },
                            "1464": {
                                "key": "D3",
                                "pitch": 62,
                                "length": 24,
                                "velocity": 52
                            },
                            "1488": {
                                "key": "D3",
                                "pitch": 62,
                                "length": 24,
                                "velocity": 52
                            },
                            "1512": {
                                "key": "D3",
                                "pitch": 62,
                                "length": 24,
                                "velocity": 52
                            }
                        },
                        "length": 0
                    }
                },
                "18432": {
                    "length": 1536,
                    "name": "bass",
                    "data": {
                        "notes": {
                            "0": {
                                "key": "A3",
                                "pitch": 69,
                                "length": 24,
                                "velocity": 59
                            },
                            "24": {
                                "key": "A3",
                                "pitch": 69,
                                "length": 24,
                                "velocity": 59
                            },
                            "48": {
                                "key": "A3",
                                "pitch": 69,
                                "length": 24,
                                "velocity": 59
                            },
                            "72": {
                                "key": "A3",
                                "pitch": 69,
                                "length": 24,
                                "velocity": 59
                            },
                            "96": {
                                "key": "A3",
                                "pitch": 69,
                                "length": 24,
                                "velocity": 59
                            },
                            "120": {
                                "key": "A3",
                                "pitch": 69,
                                "length": 24,
                                "velocity": 59
                            },
                            "144": {
                                "key": "A3",
                                "pitch": 69,
                                "length": 24,
                                "velocity": 59
                            },
                            "168": {
                                "key": "A3",
                                "pitch": 69,
                                "length": 24,
                                "velocity": 59
                            },
                            "192": {
                                "key": "A3",
                                "pitch": 69,
                                "length": 24,
                                "velocity": 59
                            },
                            "216": {
                                "key": "A3",
                                "pitch": 69,
                                "length": 24,
                                "velocity": 59
                            },
                            "240": {
                                "key": "A3",
                                "pitch": 69,
                                "length": 24,
                                "velocity": 59
                            },
                            "264": {
                                "key": "A3",
                                "pitch": 69,
                                "length": 24,
                                "velocity": 59
                            },
                            "288": {
                                "key": "A3",
                                "pitch": 69,
                                "length": 24,
                                "velocity": 59
                            },
                            "312": {
                                "key": "A3",
                                "pitch": 69,
                                "length": 24,
                                "velocity": 59
                            },
                            "336": {
                                "key": "A3",
                                "pitch": 69,
                                "length": 24,
                                "velocity": 59
                            },
                            "360": {
                                "key": "A3",
                                "pitch": 69,
                                "length": 24,
                                "velocity": 59
                            },
                            "384": {
                                "key": "A3",
                                "pitch": 69,
                                "length": 24,
                                "velocity": 59
                            },
                            "408": {
                                "key": "A3",
                                "pitch": 69,
                                "length": 24,
                                "velocity": 59
                            },
                            "432": {
                                "key": "A3",
                                "pitch": 69,
                                "length": 24,
                                "velocity": 59
                            },
                            "456": {
                                "key": "A3",
                                "pitch": 69,
                                "length": 24,
                                "velocity": 59
                            },
                            "480": {
                                "key": "A3",
                                "pitch": 69,
                                "length": 24,
                                "velocity": 59
                            },
                            "504": {
                                "key": "A3",
                                "pitch": 69,
                                "length": 24,
                                "velocity": 59
                            },
                            "528": {
                                "key": "A3",
                                "pitch": 69,
                                "length": 24,
                                "velocity": 59
                            },
                            "552": {
                                "key": "A3",
                                "pitch": 69,
                                "length": 24,
                                "velocity": 59
                            },
                            "576": {
                                "key": "A3",
                                "pitch": 69,
                                "length": 24,
                                "velocity": 59
                            },
                            "600": {
                                "key": "A3",
                                "pitch": 69,
                                "length": 24,
                                "velocity": 59
                            },
                            "624": {
                                "key": "A3",
                                "pitch": 69,
                                "length": 24,
                                "velocity": 59
                            },
                            "648": {
                                "key": "A3",
                                "pitch": 69,
                                "length": 24,
                                "velocity": 59
                            },
                            "672": {
                                "key": "A3",
                                "pitch": 69,
                                "length": 24,
                                "velocity": 59
                            },
                            "696": {
                                "key": "A3",
                                "pitch": 69,
                                "length": 24,
                                "velocity": 59
                            },
                            "720": {
                                "key": "A3",
                                "pitch": 69,
                                "length": 24,
                                "velocity": 59
                            },
                            "744": {
                                "key": "A3",
                                "pitch": 69,
                                "length": 24,
                                "velocity": 59
                            },
                            "768": {
                                "key": "F3",
                                "pitch": 65,
                                "length": 24,
                                "velocity": 52
                            },
                            "792": {
                                "key": "F3",
                                "pitch": 65,
                                "length": 24,
                                "velocity": 52
                            },
                            "816": {
                                "key": "F3",
                                "pitch": 65,
                                "length": 24,
                                "velocity": 52
                            },
                            "840": {
                                "key": "F3",
                                "pitch": 65,
                                "length": 24,
                                "velocity": 52
                            },
                            "864": {
                                "key": "F3",
                                "pitch": 65,
                                "length": 24,
                                "velocity": 52
                            },
                            "888": {
                                "key": "F3",
                                "pitch": 65,
                                "length": 24,
                                "velocity": 52
                            },
                            "912": {
                                "key": "F3",
                                "pitch": 65,
                                "length": 24,
                                "velocity": 52
                            },
                            "936": {
                                "key": "F3",
                                "pitch": 65,
                                "length": 24,
                                "velocity": 52
                            },
                            "960": {
                                "key": "F3",
                                "pitch": 65,
                                "length": 24,
                                "velocity": 52
                            },
                            "984": {
                                "key": "F3",
                                "pitch": 65,
                                "length": 24,
                                "velocity": 52
                            },
                            "1008": {
                                "key": "F3",
                                "pitch": 65,
                                "length": 24,
                                "velocity": 52
                            },
                            "1032": {
                                "key": "F3",
                                "pitch": 65,
                                "length": 24,
                                "velocity": 52
                            },
                            "1056": {
                                "key": "F3",
                                "pitch": 65,
                                "length": 24,
                                "velocity": 52
                            },
                            "1080": {
                                "key": "F3",
                                "pitch": 65,
                                "length": 24,
                                "velocity": 52
                            },
                            "1104": {
                                "key": "F3",
                                "pitch": 65,
                                "length": 24,
                                "velocity": 52
                            },
                            "1128": {
                                "key": "F3",
                                "pitch": 65,
                                "length": 24,
                                "velocity": 52
                            },
                            "1152": {
                                "key": "F3",
                                "pitch": 65,
                                "length": 24,
                                "velocity": 52
                            },
                            "1176": {
                                "key": "F3",
                                "pitch": 65,
                                "length": 24,
                                "velocity": 52
                            },
                            "1200": {
                                "key": "F3",
                                "pitch": 65,
                                "length": 24,
                                "velocity": 52
                            },
                            "1224": {
                                "key": "F3",
                                "pitch": 65,
                                "length": 24,
                                "velocity": 52
                            },
                            "1248": {
                                "key": "F3",
                                "pitch": 65,
                                "length": 24,
                                "velocity": 52
                            },
                            "1272": {
                                "key": "F3",
                                "pitch": 65,
                                "length": 24,
                                "velocity": 52
                            },
                            "1296": {
                                "key": "F3",
                                "pitch": 65,
                                "length": 24,
                                "velocity": 52
                            },
                            "1320": {
                                "key": "F3",
                                "pitch": 65,
                                "length": 24,
                                "velocity": 52
                            },
                            "1344": {
                                "key": "F3",
                                "pitch": 65,
                                "length": 24,
                                "velocity": 52
                            },
                            "1368": {
                                "key": "F3",
                                "pitch": 65,
                                "length": 24,
                                "velocity": 52
                            },
                            "1392": {
                                "key": "F3",
                                "pitch": 65,
                                "length": 24,
                                "velocity": 52
                            },
                            "1416": {
                                "key": "F3",
                                "pitch": 65,
                                "length": 24,
                                "velocity": 52
                            },
                            "1440": {
                                "key": "F3",
                                "pitch": 65,
                                "length": 24,
                                "velocity": 52
                            },
                            "1464": {
                                "key": "F3",
                                "pitch": 65,
                                "length": 24,
                                "velocity": 52
                            },
                            "1488": {
                                "key": "F3",
                                "pitch": 65,
                                "length": 24,
                                "velocity": 52
                            },
                            "1512": {
                                "key": "F3",
                                "pitch": 65,
                                "length": 24,
                                "velocity": 52
                            }
                        },
                        "length": 0
                    }
                },
                "19968": {
                    "length": 1536,
                    "name": "bass #4",
                    "data": {
                        "notes": {
                            "0": {
                                "key": "G3",
                                "pitch": 67,
                                "length": 24,
                                "velocity": 59
                            },
                            "24": {
                                "key": "G3",
                                "pitch": 67,
                                "length": 24,
                                "velocity": 59
                            },
                            "48": {
                                "key": "G3",
                                "pitch": 67,
                                "length": 24,
                                "velocity": 59
                            },
                            "72": {
                                "key": "G3",
                                "pitch": 67,
                                "length": 24,
                                "velocity": 59
                            },
                            "96": {
                                "key": "G3",
                                "pitch": 67,
                                "length": 24,
                                "velocity": 59
                            },
                            "120": {
                                "key": "G3",
                                "pitch": 67,
                                "length": 24,
                                "velocity": 59
                            },
                            "144": {
                                "key": "G3",
                                "pitch": 67,
                                "length": 24,
                                "velocity": 59
                            },
                            "168": {
                                "key": "G3",
                                "pitch": 67,
                                "length": 24,
                                "velocity": 59
                            },
                            "192": {
                                "key": "G3",
                                "pitch": 67,
                                "length": 24,
                                "velocity": 59
                            },
                            "216": {
                                "key": "G3",
                                "pitch": 67,
                                "length": 24,
                                "velocity": 59
                            },
                            "240": {
                                "key": "G3",
                                "pitch": 67,
                                "length": 24,
                                "velocity": 59
                            },
                            "264": {
                                "key": "G3",
                                "pitch": 67,
                                "length": 24,
                                "velocity": 59
                            },
                            "288": {
                                "key": "G3",
                                "pitch": 67,
                                "length": 24,
                                "velocity": 59
                            },
                            "312": {
                                "key": "G3",
                                "pitch": 67,
                                "length": 24,
                                "velocity": 59
                            },
                            "336": {
                                "key": "G3",
                                "pitch": 67,
                                "length": 24,
                                "velocity": 59
                            },
                            "360": {
                                "key": "G3",
                                "pitch": 67,
                                "length": 24,
                                "velocity": 59
                            },
                            "384": {
                                "key": "G3",
                                "pitch": 67,
                                "length": 24,
                                "velocity": 59
                            },
                            "408": {
                                "key": "G3",
                                "pitch": 67,
                                "length": 24,
                                "velocity": 59
                            },
                            "432": {
                                "key": "G3",
                                "pitch": 67,
                                "length": 24,
                                "velocity": 59
                            },
                            "456": {
                                "key": "G3",
                                "pitch": 67,
                                "length": 24,
                                "velocity": 59
                            },
                            "480": {
                                "key": "G3",
                                "pitch": 67,
                                "length": 24,
                                "velocity": 59
                            },
                            "504": {
                                "key": "G3",
                                "pitch": 67,
                                "length": 24,
                                "velocity": 59
                            },
                            "528": {
                                "key": "G3",
                                "pitch": 67,
                                "length": 24,
                                "velocity": 59
                            },
                            "552": {
                                "key": "G3",
                                "pitch": 67,
                                "length": 24,
                                "velocity": 59
                            },
                            "576": {
                                "key": "G3",
                                "pitch": 67,
                                "length": 24,
                                "velocity": 59
                            },
                            "600": {
                                "key": "G3",
                                "pitch": 67,
                                "length": 24,
                                "velocity": 59
                            },
                            "624": {
                                "key": "G3",
                                "pitch": 67,
                                "length": 24,
                                "velocity": 59
                            },
                            "648": {
                                "key": "G3",
                                "pitch": 67,
                                "length": 24,
                                "velocity": 59
                            },
                            "672": {
                                "key": "G3",
                                "pitch": 67,
                                "length": 24,
                                "velocity": 59
                            },
                            "696": {
                                "key": "G3",
                                "pitch": 67,
                                "length": 24,
                                "velocity": 59
                            },
                            "720": {
                                "key": "G3",
                                "pitch": 67,
                                "length": 24,
                                "velocity": 59
                            },
                            "744": {
                                "key": "G3",
                                "pitch": 67,
                                "length": 24,
                                "velocity": 59
                            },
                            "768": {
                                "key": "D3",
                                "pitch": 62,
                                "length": 24,
                                "velocity": 52
                            },
                            "792": {
                                "key": "D3",
                                "pitch": 62,
                                "length": 24,
                                "velocity": 52
                            },
                            "816": {
                                "key": "D3",
                                "pitch": 62,
                                "length": 24,
                                "velocity": 52
                            },
                            "840": {
                                "key": "D3",
                                "pitch": 62,
                                "length": 24,
                                "velocity": 52
                            },
                            "864": {
                                "key": "D3",
                                "pitch": 62,
                                "length": 24,
                                "velocity": 52
                            },
                            "888": {
                                "key": "D3",
                                "pitch": 62,
                                "length": 24,
                                "velocity": 52
                            },
                            "912": {
                                "key": "D3",
                                "pitch": 62,
                                "length": 24,
                                "velocity": 52
                            },
                            "936": {
                                "key": "D3",
                                "pitch": 62,
                                "length": 24,
                                "velocity": 52
                            },
                            "960": {
                                "key": "D3",
                                "pitch": 62,
                                "length": 24,
                                "velocity": 52
                            },
                            "984": {
                                "key": "D3",
                                "pitch": 62,
                                "length": 24,
                                "velocity": 52
                            },
                            "1008": {
                                "key": "D3",
                                "pitch": 62,
                                "length": 24,
                                "velocity": 52
                            },
                            "1032": {
                                "key": "D3",
                                "pitch": 62,
                                "length": 24,
                                "velocity": 52
                            },
                            "1056": {
                                "key": "D3",
                                "pitch": 62,
                                "length": 24,
                                "velocity": 52
                            },
                            "1080": {
                                "key": "D3",
                                "pitch": 62,
                                "length": 24,
                                "velocity": 52
                            },
                            "1104": {
                                "key": "D3",
                                "pitch": 62,
                                "length": 24,
                                "velocity": 52
                            },
                            "1128": {
                                "key": "D3",
                                "pitch": 62,
                                "length": 24,
                                "velocity": 52
                            },
                            "1152": {
                                "key": "D3",
                                "pitch": 62,
                                "length": 24,
                                "velocity": 52
                            },
                            "1176": {
                                "key": "D3",
                                "pitch": 62,
                                "length": 24,
                                "velocity": 52
                            },
                            "1200": {
                                "key": "D3",
                                "pitch": 62,
                                "length": 24,
                                "velocity": 52
                            },
                            "1224": {
                                "key": "D3",
                                "pitch": 62,
                                "length": 24,
                                "velocity": 52
                            },
                            "1248": {
                                "key": "D3",
                                "pitch": 62,
                                "length": 24,
                                "velocity": 52
                            },
                            "1272": {
                                "key": "D3",
                                "pitch": 62,
                                "length": 24,
                                "velocity": 52
                            },
                            "1296": {
                                "key": "D3",
                                "pitch": 62,
                                "length": 24,
                                "velocity": 52
                            },
                            "1320": {
                                "key": "D3",
                                "pitch": 62,
                                "length": 24,
                                "velocity": 52
                            },
                            "1344": {
                                "key": "D3",
                                "pitch": 62,
                                "length": 24,
                                "velocity": 52
                            },
                            "1368": {
                                "key": "D3",
                                "pitch": 62,
                                "length": 24,
                                "velocity": 52
                            },
                            "1392": {
                                "key": "D3",
                                "pitch": 62,
                                "length": 24,
                                "velocity": 52
                            },
                            "1416": {
                                "key": "D3",
                                "pitch": 62,
                                "length": 24,
                                "velocity": 52
                            },
                            "1440": {
                                "key": "D3",
                                "pitch": 62,
                                "length": 24,
                                "velocity": 52
                            },
                            "1464": {
                                "key": "D3",
                                "pitch": 62,
                                "length": 24,
                                "velocity": 52
                            },
                            "1488": {
                                "key": "D3",
                                "pitch": 62,
                                "length": 24,
                                "velocity": 52
                            },
                            "1512": {
                                "key": "D3",
                                "pitch": 62,
                                "length": 24,
                                "velocity": 52
                            }
                        },
                        "length": 0
                    }
                },
                "21504": {
                    "length": 1536,
                    "name": "bass",
                    "data": {
                        "notes": {
                            "0": {
                                "key": "A3",
                                "pitch": 69,
                                "length": 24,
                                "velocity": 59
                            },
                            "24": {
                                "key": "A3",
                                "pitch": 69,
                                "length": 24,
                                "velocity": 59
                            },
                            "48": {
                                "key": "A3",
                                "pitch": 69,
                                "length": 24,
                                "velocity": 59
                            },
                            "72": {
                                "key": "A3",
                                "pitch": 69,
                                "length": 24,
                                "velocity": 59
                            },
                            "96": {
                                "key": "A3",
                                "pitch": 69,
                                "length": 24,
                                "velocity": 59
                            },
                            "120": {
                                "key": "A3",
                                "pitch": 69,
                                "length": 24,
                                "velocity": 59
                            },
                            "144": {
                                "key": "A3",
                                "pitch": 69,
                                "length": 24,
                                "velocity": 59
                            },
                            "168": {
                                "key": "A3",
                                "pitch": 69,
                                "length": 24,
                                "velocity": 59
                            },
                            "192": {
                                "key": "A3",
                                "pitch": 69,
                                "length": 24,
                                "velocity": 59
                            },
                            "216": {
                                "key": "A3",
                                "pitch": 69,
                                "length": 24,
                                "velocity": 59
                            },
                            "240": {
                                "key": "A3",
                                "pitch": 69,
                                "length": 24,
                                "velocity": 59
                            },
                            "264": {
                                "key": "A3",
                                "pitch": 69,
                                "length": 24,
                                "velocity": 59
                            },
                            "288": {
                                "key": "A3",
                                "pitch": 69,
                                "length": 24,
                                "velocity": 59
                            },
                            "312": {
                                "key": "A3",
                                "pitch": 69,
                                "length": 24,
                                "velocity": 59
                            },
                            "336": {
                                "key": "A3",
                                "pitch": 69,
                                "length": 24,
                                "velocity": 59
                            },
                            "360": {
                                "key": "A3",
                                "pitch": 69,
                                "length": 24,
                                "velocity": 59
                            },
                            "384": {
                                "key": "A3",
                                "pitch": 69,
                                "length": 24,
                                "velocity": 59
                            },
                            "408": {
                                "key": "A3",
                                "pitch": 69,
                                "length": 24,
                                "velocity": 59
                            },
                            "432": {
                                "key": "A3",
                                "pitch": 69,
                                "length": 24,
                                "velocity": 59
                            },
                            "456": {
                                "key": "A3",
                                "pitch": 69,
                                "length": 24,
                                "velocity": 59
                            },
                            "480": {
                                "key": "A3",
                                "pitch": 69,
                                "length": 24,
                                "velocity": 59
                            },
                            "504": {
                                "key": "A3",
                                "pitch": 69,
                                "length": 24,
                                "velocity": 59
                            },
                            "528": {
                                "key": "A3",
                                "pitch": 69,
                                "length": 24,
                                "velocity": 59
                            },
                            "552": {
                                "key": "A3",
                                "pitch": 69,
                                "length": 24,
                                "velocity": 59
                            },
                            "576": {
                                "key": "A3",
                                "pitch": 69,
                                "length": 24,
                                "velocity": 59
                            },
                            "600": {
                                "key": "A3",
                                "pitch": 69,
                                "length": 24,
                                "velocity": 59
                            },
                            "624": {
                                "key": "A3",
                                "pitch": 69,
                                "length": 24,
                                "velocity": 59
                            },
                            "648": {
                                "key": "A3",
                                "pitch": 69,
                                "length": 24,
                                "velocity": 59
                            },
                            "672": {
                                "key": "A3",
                                "pitch": 69,
                                "length": 24,
                                "velocity": 59
                            },
                            "696": {
                                "key": "A3",
                                "pitch": 69,
                                "length": 24,
                                "velocity": 59
                            },
                            "720": {
                                "key": "A3",
                                "pitch": 69,
                                "length": 24,
                                "velocity": 59
                            },
                            "744": {
                                "key": "A3",
                                "pitch": 69,
                                "length": 24,
                                "velocity": 59
                            },
                            "768": {
                                "key": "F3",
                                "pitch": 65,
                                "length": 24,
                                "velocity": 52
                            },
                            "792": {
                                "key": "F3",
                                "pitch": 65,
                                "length": 24,
                                "velocity": 52
                            },
                            "816": {
                                "key": "F3",
                                "pitch": 65,
                                "length": 24,
                                "velocity": 52
                            },
                            "840": {
                                "key": "F3",
                                "pitch": 65,
                                "length": 24,
                                "velocity": 52
                            },
                            "864": {
                                "key": "F3",
                                "pitch": 65,
                                "length": 24,
                                "velocity": 52
                            },
                            "888": {
                                "key": "F3",
                                "pitch": 65,
                                "length": 24,
                                "velocity": 52
                            },
                            "912": {
                                "key": "F3",
                                "pitch": 65,
                                "length": 24,
                                "velocity": 52
                            },
                            "936": {
                                "key": "F3",
                                "pitch": 65,
                                "length": 24,
                                "velocity": 52
                            },
                            "960": {
                                "key": "F3",
                                "pitch": 65,
                                "length": 24,
                                "velocity": 52
                            },
                            "984": {
                                "key": "F3",
                                "pitch": 65,
                                "length": 24,
                                "velocity": 52
                            },
                            "1008": {
                                "key": "F3",
                                "pitch": 65,
                                "length": 24,
                                "velocity": 52
                            },
                            "1032": {
                                "key": "F3",
                                "pitch": 65,
                                "length": 24,
                                "velocity": 52
                            },
                            "1056": {
                                "key": "F3",
                                "pitch": 65,
                                "length": 24,
                                "velocity": 52
                            },
                            "1080": {
                                "key": "F3",
                                "pitch": 65,
                                "length": 24,
                                "velocity": 52
                            },
                            "1104": {
                                "key": "F3",
                                "pitch": 65,
                                "length": 24,
                                "velocity": 52
                            },
                            "1128": {
                                "key": "F3",
                                "pitch": 65,
                                "length": 24,
                                "velocity": 52
                            },
                            "1152": {
                                "key": "F3",
                                "pitch": 65,
                                "length": 24,
                                "velocity": 52
                            },
                            "1176": {
                                "key": "F3",
                                "pitch": 65,
                                "length": 24,
                                "velocity": 52
                            },
                            "1200": {
                                "key": "F3",
                                "pitch": 65,
                                "length": 24,
                                "velocity": 52
                            },
                            "1224": {
                                "key": "F3",
                                "pitch": 65,
                                "length": 24,
                                "velocity": 52
                            },
                            "1248": {
                                "key": "F3",
                                "pitch": 65,
                                "length": 24,
                                "velocity": 52
                            },
                            "1272": {
                                "key": "F3",
                                "pitch": 65,
                                "length": 24,
                                "velocity": 52
                            },
                            "1296": {
                                "key": "F3",
                                "pitch": 65,
                                "length": 24,
                                "velocity": 52
                            },
                            "1320": {
                                "key": "F3",
                                "pitch": 65,
                                "length": 24,
                                "velocity": 52
                            },
                            "1344": {
                                "key": "F3",
                                "pitch": 65,
                                "length": 24,
                                "velocity": 52
                            },
                            "1368": {
                                "key": "F3",
                                "pitch": 65,
                                "length": 24,
                                "velocity": 52
                            },
                            "1392": {
                                "key": "F3",
                                "pitch": 65,
                                "length": 24,
                                "velocity": 52
                            },
                            "1416": {
                                "key": "F3",
                                "pitch": 65,
                                "length": 24,
                                "velocity": 52
                            },
                            "1440": {
                                "key": "F3",
                                "pitch": 65,
                                "length": 24,
                                "velocity": 52
                            },
                            "1464": {
                                "key": "F3",
                                "pitch": 65,
                                "length": 24,
                                "velocity": 52
                            },
                            "1488": {
                                "key": "F3",
                                "pitch": 65,
                                "length": 24,
                                "velocity": 52
                            },
                            "1512": {
                                "key": "F3",
                                "pitch": 65,
                                "length": 24,
                                "velocity": 52
                            }
                        },
                        "length": 0
                    }
                },
                "23040": {
                    "length": 1536,
                    "name": "bass #4",
                    "data": {
                        "notes": {
                            "0": {
                                "key": "G3",
                                "pitch": 67,
                                "length": 24,
                                "velocity": 59
                            },
                            "24": {
                                "key": "G3",
                                "pitch": 67,
                                "length": 24,
                                "velocity": 59
                            },
                            "48": {
                                "key": "G3",
                                "pitch": 67,
                                "length": 24,
                                "velocity": 59
                            },
                            "72": {
                                "key": "G3",
                                "pitch": 67,
                                "length": 24,
                                "velocity": 59
                            },
                            "96": {
                                "key": "G3",
                                "pitch": 67,
                                "length": 24,
                                "velocity": 59
                            },
                            "120": {
                                "key": "G3",
                                "pitch": 67,
                                "length": 24,
                                "velocity": 59
                            },
                            "144": {
                                "key": "G3",
                                "pitch": 67,
                                "length": 24,
                                "velocity": 59
                            },
                            "168": {
                                "key": "G3",
                                "pitch": 67,
                                "length": 24,
                                "velocity": 59
                            },
                            "192": {
                                "key": "G3",
                                "pitch": 67,
                                "length": 24,
                                "velocity": 59
                            },
                            "216": {
                                "key": "G3",
                                "pitch": 67,
                                "length": 24,
                                "velocity": 59
                            },
                            "240": {
                                "key": "G3",
                                "pitch": 67,
                                "length": 24,
                                "velocity": 59
                            },
                            "264": {
                                "key": "G3",
                                "pitch": 67,
                                "length": 24,
                                "velocity": 59
                            },
                            "288": {
                                "key": "G3",
                                "pitch": 67,
                                "length": 24,
                                "velocity": 59
                            },
                            "312": {
                                "key": "G3",
                                "pitch": 67,
                                "length": 24,
                                "velocity": 59
                            },
                            "336": {
                                "key": "G3",
                                "pitch": 67,
                                "length": 24,
                                "velocity": 59
                            },
                            "360": {
                                "key": "G3",
                                "pitch": 67,
                                "length": 24,
                                "velocity": 59
                            },
                            "384": {
                                "key": "G3",
                                "pitch": 67,
                                "length": 24,
                                "velocity": 59
                            },
                            "408": {
                                "key": "G3",
                                "pitch": 67,
                                "length": 24,
                                "velocity": 59
                            },
                            "432": {
                                "key": "G3",
                                "pitch": 67,
                                "length": 24,
                                "velocity": 59
                            },
                            "456": {
                                "key": "G3",
                                "pitch": 67,
                                "length": 24,
                                "velocity": 59
                            },
                            "480": {
                                "key": "G3",
                                "pitch": 67,
                                "length": 24,
                                "velocity": 59
                            },
                            "504": {
                                "key": "G3",
                                "pitch": 67,
                                "length": 24,
                                "velocity": 59
                            },
                            "528": {
                                "key": "G3",
                                "pitch": 67,
                                "length": 24,
                                "velocity": 59
                            },
                            "552": {
                                "key": "G3",
                                "pitch": 67,
                                "length": 24,
                                "velocity": 59
                            },
                            "576": {
                                "key": "G3",
                                "pitch": 67,
                                "length": 24,
                                "velocity": 59
                            },
                            "600": {
                                "key": "G3",
                                "pitch": 67,
                                "length": 24,
                                "velocity": 59
                            },
                            "624": {
                                "key": "G3",
                                "pitch": 67,
                                "length": 24,
                                "velocity": 59
                            },
                            "648": {
                                "key": "G3",
                                "pitch": 67,
                                "length": 24,
                                "velocity": 59
                            },
                            "672": {
                                "key": "G3",
                                "pitch": 67,
                                "length": 24,
                                "velocity": 59
                            },
                            "696": {
                                "key": "G3",
                                "pitch": 67,
                                "length": 24,
                                "velocity": 59
                            },
                            "720": {
                                "key": "G3",
                                "pitch": 67,
                                "length": 24,
                                "velocity": 59
                            },
                            "744": {
                                "key": "G3",
                                "pitch": 67,
                                "length": 24,
                                "velocity": 59
                            },
                            "768": {
                                "key": "D3",
                                "pitch": 62,
                                "length": 24,
                                "velocity": 52
                            },
                            "792": {
                                "key": "D3",
                                "pitch": 62,
                                "length": 24,
                                "velocity": 52
                            },
                            "816": {
                                "key": "D3",
                                "pitch": 62,
                                "length": 24,
                                "velocity": 52
                            },
                            "840": {
                                "key": "D3",
                                "pitch": 62,
                                "length": 24,
                                "velocity": 52
                            },
                            "864": {
                                "key": "D3",
                                "pitch": 62,
                                "length": 24,
                                "velocity": 52
                            },
                            "888": {
                                "key": "D3",
                                "pitch": 62,
                                "length": 24,
                                "velocity": 52
                            },
                            "912": {
                                "key": "D3",
                                "pitch": 62,
                                "length": 24,
                                "velocity": 52
                            },
                            "936": {
                                "key": "D3",
                                "pitch": 62,
                                "length": 24,
                                "velocity": 52
                            },
                            "960": {
                                "key": "D3",
                                "pitch": 62,
                                "length": 24,
                                "velocity": 52
                            },
                            "984": {
                                "key": "D3",
                                "pitch": 62,
                                "length": 24,
                                "velocity": 52
                            },
                            "1008": {
                                "key": "D3",
                                "pitch": 62,
                                "length": 24,
                                "velocity": 52
                            },
                            "1032": {
                                "key": "D3",
                                "pitch": 62,
                                "length": 24,
                                "velocity": 52
                            },
                            "1056": {
                                "key": "D3",
                                "pitch": 62,
                                "length": 24,
                                "velocity": 52
                            },
                            "1080": {
                                "key": "D3",
                                "pitch": 62,
                                "length": 24,
                                "velocity": 52
                            },
                            "1104": {
                                "key": "D3",
                                "pitch": 62,
                                "length": 24,
                                "velocity": 52
                            },
                            "1128": {
                                "key": "D3",
                                "pitch": 62,
                                "length": 24,
                                "velocity": 52
                            },
                            "1152": {
                                "key": "D3",
                                "pitch": 62,
                                "length": 24,
                                "velocity": 52
                            },
                            "1176": {
                                "key": "D3",
                                "pitch": 62,
                                "length": 24,
                                "velocity": 52
                            },
                            "1200": {
                                "key": "D3",
                                "pitch": 62,
                                "length": 24,
                                "velocity": 52
                            },
                            "1224": {
                                "key": "D3",
                                "pitch": 62,
                                "length": 24,
                                "velocity": 52
                            },
                            "1248": {
                                "key": "D3",
                                "pitch": 62,
                                "length": 24,
                                "velocity": 52
                            },
                            "1272": {
                                "key": "D3",
                                "pitch": 62,
                                "length": 24,
                                "velocity": 52
                            },
                            "1296": {
                                "key": "D3",
                                "pitch": 62,
                                "length": 24,
                                "velocity": 52
                            },
                            "1320": {
                                "key": "D3",
                                "pitch": 62,
                                "length": 24,
                                "velocity": 52
                            },
                            "1344": {
                                "key": "D3",
                                "pitch": 62,
                                "length": 24,
                                "velocity": 52
                            },
                            "1368": {
                                "key": "D3",
                                "pitch": 62,
                                "length": 24,
                                "velocity": 52
                            },
                            "1392": {
                                "key": "D3",
                                "pitch": 62,
                                "length": 24,
                                "velocity": 52
                            },
                            "1416": {
                                "key": "D3",
                                "pitch": 62,
                                "length": 24,
                                "velocity": 52
                            },
                            "1440": {
                                "key": "D3",
                                "pitch": 62,
                                "length": 24,
                                "velocity": 52
                            },
                            "1464": {
                                "key": "D3",
                                "pitch": 62,
                                "length": 24,
                                "velocity": 52
                            },
                            "1488": {
                                "key": "D3",
                                "pitch": 62,
                                "length": 24,
                                "velocity": 52
                            },
                            "1512": {
                                "key": "D3",
                                "pitch": 62,
                                "length": 24,
                                "velocity": 52
                            }
                        },
                        "length": 0
                    }
                },
                "24576": {
                    "length": 1536,
                    "name": "bass",
                    "data": {
                        "notes": {
                            "0": {
                                "key": "A3",
                                "pitch": 69,
                                "length": 24,
                                "velocity": 59
                            },
                            "24": {
                                "key": "A3",
                                "pitch": 69,
                                "length": 24,
                                "velocity": 59
                            },
                            "48": {
                                "key": "A3",
                                "pitch": 69,
                                "length": 24,
                                "velocity": 59
                            },
                            "72": {
                                "key": "A3",
                                "pitch": 69,
                                "length": 24,
                                "velocity": 59
                            },
                            "96": {
                                "key": "A3",
                                "pitch": 69,
                                "length": 24,
                                "velocity": 59
                            },
                            "120": {
                                "key": "A3",
                                "pitch": 69,
                                "length": 24,
                                "velocity": 59
                            },
                            "144": {
                                "key": "A3",
                                "pitch": 69,
                                "length": 24,
                                "velocity": 59
                            },
                            "168": {
                                "key": "A3",
                                "pitch": 69,
                                "length": 24,
                                "velocity": 59
                            },
                            "192": {
                                "key": "A3",
                                "pitch": 69,
                                "length": 24,
                                "velocity": 59
                            },
                            "216": {
                                "key": "A3",
                                "pitch": 69,
                                "length": 24,
                                "velocity": 59
                            },
                            "240": {
                                "key": "A3",
                                "pitch": 69,
                                "length": 24,
                                "velocity": 59
                            },
                            "264": {
                                "key": "A3",
                                "pitch": 69,
                                "length": 24,
                                "velocity": 59
                            },
                            "288": {
                                "key": "A3",
                                "pitch": 69,
                                "length": 24,
                                "velocity": 59
                            },
                            "312": {
                                "key": "A3",
                                "pitch": 69,
                                "length": 24,
                                "velocity": 59
                            },
                            "336": {
                                "key": "A3",
                                "pitch": 69,
                                "length": 24,
                                "velocity": 59
                            },
                            "360": {
                                "key": "A3",
                                "pitch": 69,
                                "length": 24,
                                "velocity": 59
                            },
                            "384": {
                                "key": "A3",
                                "pitch": 69,
                                "length": 24,
                                "velocity": 59
                            },
                            "408": {
                                "key": "A3",
                                "pitch": 69,
                                "length": 24,
                                "velocity": 59
                            },
                            "432": {
                                "key": "A3",
                                "pitch": 69,
                                "length": 24,
                                "velocity": 59
                            },
                            "456": {
                                "key": "A3",
                                "pitch": 69,
                                "length": 24,
                                "velocity": 59
                            },
                            "480": {
                                "key": "A3",
                                "pitch": 69,
                                "length": 24,
                                "velocity": 59
                            },
                            "504": {
                                "key": "A3",
                                "pitch": 69,
                                "length": 24,
                                "velocity": 59
                            },
                            "528": {
                                "key": "A3",
                                "pitch": 69,
                                "length": 24,
                                "velocity": 59
                            },
                            "552": {
                                "key": "A3",
                                "pitch": 69,
                                "length": 24,
                                "velocity": 59
                            },
                            "576": {
                                "key": "A3",
                                "pitch": 69,
                                "length": 24,
                                "velocity": 59
                            },
                            "600": {
                                "key": "A3",
                                "pitch": 69,
                                "length": 24,
                                "velocity": 59
                            },
                            "624": {
                                "key": "A3",
                                "pitch": 69,
                                "length": 24,
                                "velocity": 59
                            },
                            "648": {
                                "key": "A3",
                                "pitch": 69,
                                "length": 24,
                                "velocity": 59
                            },
                            "672": {
                                "key": "A3",
                                "pitch": 69,
                                "length": 24,
                                "velocity": 59
                            },
                            "696": {
                                "key": "A3",
                                "pitch": 69,
                                "length": 24,
                                "velocity": 59
                            },
                            "720": {
                                "key": "A3",
                                "pitch": 69,
                                "length": 24,
                                "velocity": 59
                            },
                            "744": {
                                "key": "A3",
                                "pitch": 69,
                                "length": 24,
                                "velocity": 59
                            },
                            "768": {
                                "key": "F3",
                                "pitch": 65,
                                "length": 24,
                                "velocity": 52
                            },
                            "792": {
                                "key": "F3",
                                "pitch": 65,
                                "length": 24,
                                "velocity": 52
                            },
                            "816": {
                                "key": "F3",
                                "pitch": 65,
                                "length": 24,
                                "velocity": 52
                            },
                            "840": {
                                "key": "F3",
                                "pitch": 65,
                                "length": 24,
                                "velocity": 52
                            },
                            "864": {
                                "key": "F3",
                                "pitch": 65,
                                "length": 24,
                                "velocity": 52
                            },
                            "888": {
                                "key": "F3",
                                "pitch": 65,
                                "length": 24,
                                "velocity": 52
                            },
                            "912": {
                                "key": "F3",
                                "pitch": 65,
                                "length": 24,
                                "velocity": 52
                            },
                            "936": {
                                "key": "F3",
                                "pitch": 65,
                                "length": 24,
                                "velocity": 52
                            },
                            "960": {
                                "key": "F3",
                                "pitch": 65,
                                "length": 24,
                                "velocity": 52
                            },
                            "984": {
                                "key": "F3",
                                "pitch": 65,
                                "length": 24,
                                "velocity": 52
                            },
                            "1008": {
                                "key": "F3",
                                "pitch": 65,
                                "length": 24,
                                "velocity": 52
                            },
                            "1032": {
                                "key": "F3",
                                "pitch": 65,
                                "length": 24,
                                "velocity": 52
                            },
                            "1056": {
                                "key": "F3",
                                "pitch": 65,
                                "length": 24,
                                "velocity": 52
                            },
                            "1080": {
                                "key": "F3",
                                "pitch": 65,
                                "length": 24,
                                "velocity": 52
                            },
                            "1104": {
                                "key": "F3",
                                "pitch": 65,
                                "length": 24,
                                "velocity": 52
                            },
                            "1128": {
                                "key": "F3",
                                "pitch": 65,
                                "length": 24,
                                "velocity": 52
                            },
                            "1152": {
                                "key": "F3",
                                "pitch": 65,
                                "length": 24,
                                "velocity": 52
                            },
                            "1176": {
                                "key": "F3",
                                "pitch": 65,
                                "length": 24,
                                "velocity": 52
                            },
                            "1200": {
                                "key": "F3",
                                "pitch": 65,
                                "length": 24,
                                "velocity": 52
                            },
                            "1224": {
                                "key": "F3",
                                "pitch": 65,
                                "length": 24,
                                "velocity": 52
                            },
                            "1248": {
                                "key": "F3",
                                "pitch": 65,
                                "length": 24,
                                "velocity": 52
                            },
                            "1272": {
                                "key": "F3",
                                "pitch": 65,
                                "length": 24,
                                "velocity": 52
                            },
                            "1296": {
                                "key": "F3",
                                "pitch": 65,
                                "length": 24,
                                "velocity": 52
                            },
                            "1320": {
                                "key": "F3",
                                "pitch": 65,
                                "length": 24,
                                "velocity": 52
                            },
                            "1344": {
                                "key": "F3",
                                "pitch": 65,
                                "length": 24,
                                "velocity": 52
                            },
                            "1368": {
                                "key": "F3",
                                "pitch": 65,
                                "length": 24,
                                "velocity": 52
                            },
                            "1392": {
                                "key": "F3",
                                "pitch": 65,
                                "length": 24,
                                "velocity": 52
                            },
                            "1416": {
                                "key": "F3",
                                "pitch": 65,
                                "length": 24,
                                "velocity": 52
                            },
                            "1440": {
                                "key": "F3",
                                "pitch": 65,
                                "length": 24,
                                "velocity": 52
                            },
                            "1464": {
                                "key": "F3",
                                "pitch": 65,
                                "length": 24,
                                "velocity": 52
                            },
                            "1488": {
                                "key": "F3",
                                "pitch": 65,
                                "length": 24,
                                "velocity": 52
                            },
                            "1512": {
                                "key": "F3",
                                "pitch": 65,
                                "length": 24,
                                "velocity": 52
                            }
                        },
                        "length": 0
                    }
                },
                "26112": {
                    "length": 1536,
                    "name": "bass #4",
                    "data": {
                        "notes": {
                            "0": {
                                "key": "G3",
                                "pitch": 67,
                                "length": 24,
                                "velocity": 59
                            },
                            "24": {
                                "key": "G3",
                                "pitch": 67,
                                "length": 24,
                                "velocity": 59
                            },
                            "48": {
                                "key": "G3",
                                "pitch": 67,
                                "length": 24,
                                "velocity": 59
                            },
                            "72": {
                                "key": "G3",
                                "pitch": 67,
                                "length": 24,
                                "velocity": 59
                            },
                            "96": {
                                "key": "G3",
                                "pitch": 67,
                                "length": 24,
                                "velocity": 59
                            },
                            "120": {
                                "key": "G3",
                                "pitch": 67,
                                "length": 24,
                                "velocity": 59
                            },
                            "144": {
                                "key": "G3",
                                "pitch": 67,
                                "length": 24,
                                "velocity": 59
                            },
                            "168": {
                                "key": "G3",
                                "pitch": 67,
                                "length": 24,
                                "velocity": 59
                            },
                            "192": {
                                "key": "G3",
                                "pitch": 67,
                                "length": 24,
                                "velocity": 59
                            },
                            "216": {
                                "key": "G3",
                                "pitch": 67,
                                "length": 24,
                                "velocity": 59
                            },
                            "240": {
                                "key": "G3",
                                "pitch": 67,
                                "length": 24,
                                "velocity": 59
                            },
                            "264": {
                                "key": "G3",
                                "pitch": 67,
                                "length": 24,
                                "velocity": 59
                            },
                            "288": {
                                "key": "G3",
                                "pitch": 67,
                                "length": 24,
                                "velocity": 59
                            },
                            "312": {
                                "key": "G3",
                                "pitch": 67,
                                "length": 24,
                                "velocity": 59
                            },
                            "336": {
                                "key": "G3",
                                "pitch": 67,
                                "length": 24,
                                "velocity": 59
                            },
                            "360": {
                                "key": "G3",
                                "pitch": 67,
                                "length": 24,
                                "velocity": 59
                            },
                            "384": {
                                "key": "G3",
                                "pitch": 67,
                                "length": 24,
                                "velocity": 59
                            },
                            "408": {
                                "key": "G3",
                                "pitch": 67,
                                "length": 24,
                                "velocity": 59
                            },
                            "432": {
                                "key": "G3",
                                "pitch": 67,
                                "length": 24,
                                "velocity": 59
                            },
                            "456": {
                                "key": "G3",
                                "pitch": 67,
                                "length": 24,
                                "velocity": 59
                            },
                            "480": {
                                "key": "G3",
                                "pitch": 67,
                                "length": 24,
                                "velocity": 59
                            },
                            "504": {
                                "key": "G3",
                                "pitch": 67,
                                "length": 24,
                                "velocity": 59
                            },
                            "528": {
                                "key": "G3",
                                "pitch": 67,
                                "length": 24,
                                "velocity": 59
                            },
                            "552": {
                                "key": "G3",
                                "pitch": 67,
                                "length": 24,
                                "velocity": 59
                            },
                            "576": {
                                "key": "G3",
                                "pitch": 67,
                                "length": 24,
                                "velocity": 59
                            },
                            "600": {
                                "key": "G3",
                                "pitch": 67,
                                "length": 24,
                                "velocity": 59
                            },
                            "624": {
                                "key": "G3",
                                "pitch": 67,
                                "length": 24,
                                "velocity": 59
                            },
                            "648": {
                                "key": "G3",
                                "pitch": 67,
                                "length": 24,
                                "velocity": 59
                            },
                            "672": {
                                "key": "G3",
                                "pitch": 67,
                                "length": 24,
                                "velocity": 59
                            },
                            "696": {
                                "key": "G3",
                                "pitch": 67,
                                "length": 24,
                                "velocity": 59
                            },
                            "720": {
                                "key": "G3",
                                "pitch": 67,
                                "length": 24,
                                "velocity": 59
                            },
                            "744": {
                                "key": "G3",
                                "pitch": 67,
                                "length": 24,
                                "velocity": 59
                            },
                            "768": {
                                "key": "D3",
                                "pitch": 62,
                                "length": 24,
                                "velocity": 52
                            },
                            "792": {
                                "key": "D3",
                                "pitch": 62,
                                "length": 24,
                                "velocity": 52
                            },
                            "816": {
                                "key": "D3",
                                "pitch": 62,
                                "length": 24,
                                "velocity": 52
                            },
                            "840": {
                                "key": "D3",
                                "pitch": 62,
                                "length": 24,
                                "velocity": 52
                            },
                            "864": {
                                "key": "D3",
                                "pitch": 62,
                                "length": 24,
                                "velocity": 52
                            },
                            "888": {
                                "key": "D3",
                                "pitch": 62,
                                "length": 24,
                                "velocity": 52
                            },
                            "912": {
                                "key": "D3",
                                "pitch": 62,
                                "length": 24,
                                "velocity": 52
                            },
                            "936": {
                                "key": "D3",
                                "pitch": 62,
                                "length": 24,
                                "velocity": 52
                            },
                            "960": {
                                "key": "D3",
                                "pitch": 62,
                                "length": 24,
                                "velocity": 52
                            },
                            "984": {
                                "key": "D3",
                                "pitch": 62,
                                "length": 24,
                                "velocity": 52
                            },
                            "1008": {
                                "key": "D3",
                                "pitch": 62,
                                "length": 24,
                                "velocity": 52
                            },
                            "1032": {
                                "key": "D3",
                                "pitch": 62,
                                "length": 24,
                                "velocity": 52
                            },
                            "1056": {
                                "key": "D3",
                                "pitch": 62,
                                "length": 24,
                                "velocity": 52
                            },
                            "1080": {
                                "key": "D3",
                                "pitch": 62,
                                "length": 24,
                                "velocity": 52
                            },
                            "1104": {
                                "key": "D3",
                                "pitch": 62,
                                "length": 24,
                                "velocity": 52
                            },
                            "1128": {
                                "key": "D3",
                                "pitch": 62,
                                "length": 24,
                                "velocity": 52
                            },
                            "1152": {
                                "key": "D3",
                                "pitch": 62,
                                "length": 24,
                                "velocity": 52
                            },
                            "1176": {
                                "key": "D3",
                                "pitch": 62,
                                "length": 24,
                                "velocity": 52
                            },
                            "1200": {
                                "key": "D3",
                                "pitch": 62,
                                "length": 24,
                                "velocity": 52
                            },
                            "1224": {
                                "key": "D3",
                                "pitch": 62,
                                "length": 24,
                                "velocity": 52
                            },
                            "1248": {
                                "key": "D3",
                                "pitch": 62,
                                "length": 24,
                                "velocity": 52
                            },
                            "1272": {
                                "key": "D3",
                                "pitch": 62,
                                "length": 24,
                                "velocity": 52
                            },
                            "1296": {
                                "key": "D3",
                                "pitch": 62,
                                "length": 24,
                                "velocity": 52
                            },
                            "1320": {
                                "key": "D3",
                                "pitch": 62,
                                "length": 24,
                                "velocity": 52
                            },
                            "1344": {
                                "key": "D3",
                                "pitch": 62,
                                "length": 24,
                                "velocity": 52
                            },
                            "1368": {
                                "key": "D3",
                                "pitch": 62,
                                "length": 24,
                                "velocity": 52
                            },
                            "1392": {
                                "key": "D3",
                                "pitch": 62,
                                "length": 24,
                                "velocity": 52
                            },
                            "1416": {
                                "key": "D3",
                                "pitch": 62,
                                "length": 24,
                                "velocity": 52
                            },
                            "1440": {
                                "key": "D3",
                                "pitch": 62,
                                "length": 24,
                                "velocity": 52
                            },
                            "1464": {
                                "key": "D3",
                                "pitch": 62,
                                "length": 24,
                                "velocity": 52
                            },
                            "1488": {
                                "key": "D3",
                                "pitch": 62,
                                "length": 24,
                                "velocity": 52
                            },
                            "1512": {
                                "key": "D3",
                                "pitch": 62,
                                "length": 24,
                                "velocity": 52
                            }
                        },
                        "length": 0
                    }
                },
                "27648": {
                    "length": 1536,
                    "name": "bass",
                    "data": {
                        "notes": {
                            "0": {
                                "key": "A3",
                                "pitch": 69,
                                "length": 24,
                                "velocity": 59
                            },
                            "24": {
                                "key": "A3",
                                "pitch": 69,
                                "length": 24,
                                "velocity": 59
                            },
                            "48": {
                                "key": "A3",
                                "pitch": 69,
                                "length": 24,
                                "velocity": 59
                            },
                            "72": {
                                "key": "A3",
                                "pitch": 69,
                                "length": 24,
                                "velocity": 59
                            },
                            "96": {
                                "key": "A3",
                                "pitch": 69,
                                "length": 24,
                                "velocity": 59
                            },
                            "120": {
                                "key": "A3",
                                "pitch": 69,
                                "length": 24,
                                "velocity": 59
                            },
                            "144": {
                                "key": "A3",
                                "pitch": 69,
                                "length": 24,
                                "velocity": 59
                            },
                            "168": {
                                "key": "A3",
                                "pitch": 69,
                                "length": 24,
                                "velocity": 59
                            },
                            "192": {
                                "key": "A3",
                                "pitch": 69,
                                "length": 24,
                                "velocity": 59
                            },
                            "216": {
                                "key": "A3",
                                "pitch": 69,
                                "length": 24,
                                "velocity": 59
                            },
                            "240": {
                                "key": "A3",
                                "pitch": 69,
                                "length": 24,
                                "velocity": 59
                            },
                            "264": {
                                "key": "A3",
                                "pitch": 69,
                                "length": 24,
                                "velocity": 59
                            },
                            "288": {
                                "key": "A3",
                                "pitch": 69,
                                "length": 24,
                                "velocity": 59
                            },
                            "312": {
                                "key": "A3",
                                "pitch": 69,
                                "length": 24,
                                "velocity": 59
                            },
                            "336": {
                                "key": "A3",
                                "pitch": 69,
                                "length": 24,
                                "velocity": 59
                            },
                            "360": {
                                "key": "A3",
                                "pitch": 69,
                                "length": 24,
                                "velocity": 59
                            },
                            "384": {
                                "key": "A3",
                                "pitch": 69,
                                "length": 24,
                                "velocity": 59
                            },
                            "408": {
                                "key": "A3",
                                "pitch": 69,
                                "length": 24,
                                "velocity": 59
                            },
                            "432": {
                                "key": "A3",
                                "pitch": 69,
                                "length": 24,
                                "velocity": 59
                            },
                            "456": {
                                "key": "A3",
                                "pitch": 69,
                                "length": 24,
                                "velocity": 59
                            },
                            "480": {
                                "key": "A3",
                                "pitch": 69,
                                "length": 24,
                                "velocity": 59
                            },
                            "504": {
                                "key": "A3",
                                "pitch": 69,
                                "length": 24,
                                "velocity": 59
                            },
                            "528": {
                                "key": "A3",
                                "pitch": 69,
                                "length": 24,
                                "velocity": 59
                            },
                            "552": {
                                "key": "A3",
                                "pitch": 69,
                                "length": 24,
                                "velocity": 59
                            },
                            "576": {
                                "key": "A3",
                                "pitch": 69,
                                "length": 24,
                                "velocity": 59
                            },
                            "600": {
                                "key": "A3",
                                "pitch": 69,
                                "length": 24,
                                "velocity": 59
                            },
                            "624": {
                                "key": "A3",
                                "pitch": 69,
                                "length": 24,
                                "velocity": 59
                            },
                            "648": {
                                "key": "A3",
                                "pitch": 69,
                                "length": 24,
                                "velocity": 59
                            },
                            "672": {
                                "key": "A3",
                                "pitch": 69,
                                "length": 24,
                                "velocity": 59
                            },
                            "696": {
                                "key": "A3",
                                "pitch": 69,
                                "length": 24,
                                "velocity": 59
                            },
                            "720": {
                                "key": "A3",
                                "pitch": 69,
                                "length": 24,
                                "velocity": 59
                            },
                            "744": {
                                "key": "A3",
                                "pitch": 69,
                                "length": 24,
                                "velocity": 59
                            },
                            "768": {
                                "key": "F3",
                                "pitch": 65,
                                "length": 24,
                                "velocity": 52
                            },
                            "792": {
                                "key": "F3",
                                "pitch": 65,
                                "length": 24,
                                "velocity": 52
                            },
                            "816": {
                                "key": "F3",
                                "pitch": 65,
                                "length": 24,
                                "velocity": 52
                            },
                            "840": {
                                "key": "F3",
                                "pitch": 65,
                                "length": 24,
                                "velocity": 52
                            },
                            "864": {
                                "key": "F3",
                                "pitch": 65,
                                "length": 24,
                                "velocity": 52
                            },
                            "888": {
                                "key": "F3",
                                "pitch": 65,
                                "length": 24,
                                "velocity": 52
                            },
                            "912": {
                                "key": "F3",
                                "pitch": 65,
                                "length": 24,
                                "velocity": 52
                            },
                            "936": {
                                "key": "F3",
                                "pitch": 65,
                                "length": 24,
                                "velocity": 52
                            },
                            "960": {
                                "key": "F3",
                                "pitch": 65,
                                "length": 24,
                                "velocity": 52
                            },
                            "984": {
                                "key": "F3",
                                "pitch": 65,
                                "length": 24,
                                "velocity": 52
                            },
                            "1008": {
                                "key": "F3",
                                "pitch": 65,
                                "length": 24,
                                "velocity": 52
                            },
                            "1032": {
                                "key": "F3",
                                "pitch": 65,
                                "length": 24,
                                "velocity": 52
                            },
                            "1056": {
                                "key": "F3",
                                "pitch": 65,
                                "length": 24,
                                "velocity": 52
                            },
                            "1080": {
                                "key": "F3",
                                "pitch": 65,
                                "length": 24,
                                "velocity": 52
                            },
                            "1104": {
                                "key": "F3",
                                "pitch": 65,
                                "length": 24,
                                "velocity": 52
                            },
                            "1128": {
                                "key": "F3",
                                "pitch": 65,
                                "length": 24,
                                "velocity": 52
                            },
                            "1152": {
                                "key": "F3",
                                "pitch": 65,
                                "length": 24,
                                "velocity": 52
                            },
                            "1176": {
                                "key": "F3",
                                "pitch": 65,
                                "length": 24,
                                "velocity": 52
                            },
                            "1200": {
                                "key": "F3",
                                "pitch": 65,
                                "length": 24,
                                "velocity": 52
                            },
                            "1224": {
                                "key": "F3",
                                "pitch": 65,
                                "length": 24,
                                "velocity": 52
                            },
                            "1248": {
                                "key": "F3",
                                "pitch": 65,
                                "length": 24,
                                "velocity": 52
                            },
                            "1272": {
                                "key": "F3",
                                "pitch": 65,
                                "length": 24,
                                "velocity": 52
                            },
                            "1296": {
                                "key": "F3",
                                "pitch": 65,
                                "length": 24,
                                "velocity": 52
                            },
                            "1320": {
                                "key": "F3",
                                "pitch": 65,
                                "length": 24,
                                "velocity": 52
                            },
                            "1344": {
                                "key": "F3",
                                "pitch": 65,
                                "length": 24,
                                "velocity": 52
                            },
                            "1368": {
                                "key": "F3",
                                "pitch": 65,
                                "length": 24,
                                "velocity": 52
                            },
                            "1392": {
                                "key": "F3",
                                "pitch": 65,
                                "length": 24,
                                "velocity": 52
                            },
                            "1416": {
                                "key": "F3",
                                "pitch": 65,
                                "length": 24,
                                "velocity": 52
                            },
                            "1440": {
                                "key": "F3",
                                "pitch": 65,
                                "length": 24,
                                "velocity": 52
                            },
                            "1464": {
                                "key": "F3",
                                "pitch": 65,
                                "length": 24,
                                "velocity": 52
                            },
                            "1488": {
                                "key": "F3",
                                "pitch": 65,
                                "length": 24,
                                "velocity": 52
                            },
                            "1512": {
                                "key": "F3",
                                "pitch": 65,
                                "length": 24,
                                "velocity": 52
                            }
                        },
                        "length": 0
                    }
                },
                "29184": {
                    "length": 1536,
                    "name": "bass #4",
                    "data": {
                        "notes": {
                            "0": {
                                "key": "G3",
                                "pitch": 67,
                                "length": 24,
                                "velocity": 59
                            },
                            "24": {
                                "key": "G3",
                                "pitch": 67,
                                "length": 24,
                                "velocity": 59
                            },
                            "48": {
                                "key": "G3",
                                "pitch": 67,
                                "length": 24,
                                "velocity": 59
                            },
                            "72": {
                                "key": "G3",
                                "pitch": 67,
                                "length": 24,
                                "velocity": 59
                            },
                            "96": {
                                "key": "G3",
                                "pitch": 67,
                                "length": 24,
                                "velocity": 59
                            },
                            "120": {
                                "key": "G3",
                                "pitch": 67,
                                "length": 24,
                                "velocity": 59
                            },
                            "144": {
                                "key": "G3",
                                "pitch": 67,
                                "length": 24,
                                "velocity": 59
                            },
                            "168": {
                                "key": "G3",
                                "pitch": 67,
                                "length": 24,
                                "velocity": 59
                            },
                            "192": {
                                "key": "G3",
                                "pitch": 67,
                                "length": 24,
                                "velocity": 59
                            },
                            "216": {
                                "key": "G3",
                                "pitch": 67,
                                "length": 24,
                                "velocity": 59
                            },
                            "240": {
                                "key": "G3",
                                "pitch": 67,
                                "length": 24,
                                "velocity": 59
                            },
                            "264": {
                                "key": "G3",
                                "pitch": 67,
                                "length": 24,
                                "velocity": 59
                            },
                            "288": {
                                "key": "G3",
                                "pitch": 67,
                                "length": 24,
                                "velocity": 59
                            },
                            "312": {
                                "key": "G3",
                                "pitch": 67,
                                "length": 24,
                                "velocity": 59
                            },
                            "336": {
                                "key": "G3",
                                "pitch": 67,
                                "length": 24,
                                "velocity": 59
                            },
                            "360": {
                                "key": "G3",
                                "pitch": 67,
                                "length": 24,
                                "velocity": 59
                            },
                            "384": {
                                "key": "G3",
                                "pitch": 67,
                                "length": 24,
                                "velocity": 59
                            },
                            "408": {
                                "key": "G3",
                                "pitch": 67,
                                "length": 24,
                                "velocity": 59
                            },
                            "432": {
                                "key": "G3",
                                "pitch": 67,
                                "length": 24,
                                "velocity": 59
                            },
                            "456": {
                                "key": "G3",
                                "pitch": 67,
                                "length": 24,
                                "velocity": 59
                            },
                            "480": {
                                "key": "G3",
                                "pitch": 67,
                                "length": 24,
                                "velocity": 59
                            },
                            "504": {
                                "key": "G3",
                                "pitch": 67,
                                "length": 24,
                                "velocity": 59
                            },
                            "528": {
                                "key": "G3",
                                "pitch": 67,
                                "length": 24,
                                "velocity": 59
                            },
                            "552": {
                                "key": "G3",
                                "pitch": 67,
                                "length": 24,
                                "velocity": 59
                            },
                            "576": {
                                "key": "G3",
                                "pitch": 67,
                                "length": 24,
                                "velocity": 59
                            },
                            "600": {
                                "key": "G3",
                                "pitch": 67,
                                "length": 24,
                                "velocity": 59
                            },
                            "624": {
                                "key": "G3",
                                "pitch": 67,
                                "length": 24,
                                "velocity": 59
                            },
                            "648": {
                                "key": "G3",
                                "pitch": 67,
                                "length": 24,
                                "velocity": 59
                            },
                            "672": {
                                "key": "G3",
                                "pitch": 67,
                                "length": 24,
                                "velocity": 59
                            },
                            "696": {
                                "key": "G3",
                                "pitch": 67,
                                "length": 24,
                                "velocity": 59
                            },
                            "720": {
                                "key": "G3",
                                "pitch": 67,
                                "length": 24,
                                "velocity": 59
                            },
                            "744": {
                                "key": "G3",
                                "pitch": 67,
                                "length": 24,
                                "velocity": 59
                            },
                            "768": {
                                "key": "D3",
                                "pitch": 62,
                                "length": 24,
                                "velocity": 52
                            },
                            "792": {
                                "key": "D3",
                                "pitch": 62,
                                "length": 24,
                                "velocity": 52
                            },
                            "816": {
                                "key": "D3",
                                "pitch": 62,
                                "length": 24,
                                "velocity": 52
                            },
                            "840": {
                                "key": "D3",
                                "pitch": 62,
                                "length": 24,
                                "velocity": 52
                            },
                            "864": {
                                "key": "D3",
                                "pitch": 62,
                                "length": 24,
                                "velocity": 52
                            },
                            "888": {
                                "key": "D3",
                                "pitch": 62,
                                "length": 24,
                                "velocity": 52
                            },
                            "912": {
                                "key": "D3",
                                "pitch": 62,
                                "length": 24,
                                "velocity": 52
                            },
                            "936": {
                                "key": "D3",
                                "pitch": 62,
                                "length": 24,
                                "velocity": 52
                            },
                            "960": {
                                "key": "D3",
                                "pitch": 62,
                                "length": 24,
                                "velocity": 52
                            },
                            "984": {
                                "key": "D3",
                                "pitch": 62,
                                "length": 24,
                                "velocity": 52
                            },
                            "1008": {
                                "key": "D3",
                                "pitch": 62,
                                "length": 24,
                                "velocity": 52
                            },
                            "1032": {
                                "key": "D3",
                                "pitch": 62,
                                "length": 24,
                                "velocity": 52
                            },
                            "1056": {
                                "key": "D3",
                                "pitch": 62,
                                "length": 24,
                                "velocity": 52
                            },
                            "1080": {
                                "key": "D3",
                                "pitch": 62,
                                "length": 24,
                                "velocity": 52
                            },
                            "1104": {
                                "key": "D3",
                                "pitch": 62,
                                "length": 24,
                                "velocity": 52
                            },
                            "1128": {
                                "key": "D3",
                                "pitch": 62,
                                "length": 24,
                                "velocity": 52
                            },
                            "1152": {
                                "key": "D3",
                                "pitch": 62,
                                "length": 24,
                                "velocity": 52
                            },
                            "1176": {
                                "key": "D3",
                                "pitch": 62,
                                "length": 24,
                                "velocity": 52
                            },
                            "1200": {
                                "key": "D3",
                                "pitch": 62,
                                "length": 24,
                                "velocity": 52
                            },
                            "1224": {
                                "key": "D3",
                                "pitch": 62,
                                "length": 24,
                                "velocity": 52
                            },
                            "1248": {
                                "key": "D3",
                                "pitch": 62,
                                "length": 24,
                                "velocity": 52
                            },
                            "1272": {
                                "key": "D3",
                                "pitch": 62,
                                "length": 24,
                                "velocity": 52
                            },
                            "1296": {
                                "key": "D3",
                                "pitch": 62,
                                "length": 24,
                                "velocity": 52
                            },
                            "1320": {
                                "key": "D3",
                                "pitch": 62,
                                "length": 24,
                                "velocity": 52
                            },
                            "1344": {
                                "key": "D3",
                                "pitch": 62,
                                "length": 24,
                                "velocity": 52
                            },
                            "1368": {
                                "key": "D3",
                                "pitch": 62,
                                "length": 24,
                                "velocity": 52
                            },
                            "1392": {
                                "key": "D3",
                                "pitch": 62,
                                "length": 24,
                                "velocity": 52
                            },
                            "1416": {
                                "key": "D3",
                                "pitch": 62,
                                "length": 24,
                                "velocity": 52
                            },
                            "1440": {
                                "key": "D3",
                                "pitch": 62,
                                "length": 24,
                                "velocity": 52
                            },
                            "1464": {
                                "key": "D3",
                                "pitch": 62,
                                "length": 24,
                                "velocity": 52
                            },
                            "1488": {
                                "key": "D3",
                                "pitch": 62,
                                "length": 24,
                                "velocity": 52
                            },
                            "1512": {
                                "key": "D3",
                                "pitch": 62,
                                "length": 24,
                                "velocity": 52
                            }
                        },
                        "length": 0
                    }
                },
                "30720": {
                    "length": 1536,
                    "name": "bass",
                    "data": {
                        "notes": {
                            "0": {
                                "key": "A3",
                                "pitch": 69,
                                "length": 24,
                                "velocity": 59
                            },
                            "24": {
                                "key": "A3",
                                "pitch": 69,
                                "length": 24,
                                "velocity": 59
                            },
                            "48": {
                                "key": "A3",
                                "pitch": 69,
                                "length": 24,
                                "velocity": 59
                            },
                            "72": {
                                "key": "A3",
                                "pitch": 69,
                                "length": 24,
                                "velocity": 59
                            },
                            "96": {
                                "key": "A3",
                                "pitch": 69,
                                "length": 24,
                                "velocity": 59
                            },
                            "120": {
                                "key": "A3",
                                "pitch": 69,
                                "length": 24,
                                "velocity": 59
                            },
                            "144": {
                                "key": "A3",
                                "pitch": 69,
                                "length": 24,
                                "velocity": 59
                            },
                            "168": {
                                "key": "A3",
                                "pitch": 69,
                                "length": 24,
                                "velocity": 59
                            },
                            "192": {
                                "key": "A3",
                                "pitch": 69,
                                "length": 24,
                                "velocity": 59
                            },
                            "216": {
                                "key": "A3",
                                "pitch": 69,
                                "length": 24,
                                "velocity": 59
                            },
                            "240": {
                                "key": "A3",
                                "pitch": 69,
                                "length": 24,
                                "velocity": 59
                            },
                            "264": {
                                "key": "A3",
                                "pitch": 69,
                                "length": 24,
                                "velocity": 59
                            },
                            "288": {
                                "key": "A3",
                                "pitch": 69,
                                "length": 24,
                                "velocity": 59
                            },
                            "312": {
                                "key": "A3",
                                "pitch": 69,
                                "length": 24,
                                "velocity": 59
                            },
                            "336": {
                                "key": "A3",
                                "pitch": 69,
                                "length": 24,
                                "velocity": 59
                            },
                            "360": {
                                "key": "A3",
                                "pitch": 69,
                                "length": 24,
                                "velocity": 59
                            },
                            "384": {
                                "key": "A3",
                                "pitch": 69,
                                "length": 24,
                                "velocity": 59
                            },
                            "408": {
                                "key": "A3",
                                "pitch": 69,
                                "length": 24,
                                "velocity": 59
                            },
                            "432": {
                                "key": "A3",
                                "pitch": 69,
                                "length": 24,
                                "velocity": 59
                            },
                            "456": {
                                "key": "A3",
                                "pitch": 69,
                                "length": 24,
                                "velocity": 59
                            },
                            "480": {
                                "key": "A3",
                                "pitch": 69,
                                "length": 24,
                                "velocity": 59
                            },
                            "504": {
                                "key": "A3",
                                "pitch": 69,
                                "length": 24,
                                "velocity": 59
                            },
                            "528": {
                                "key": "A3",
                                "pitch": 69,
                                "length": 24,
                                "velocity": 59
                            },
                            "552": {
                                "key": "A3",
                                "pitch": 69,
                                "length": 24,
                                "velocity": 59
                            },
                            "576": {
                                "key": "A3",
                                "pitch": 69,
                                "length": 24,
                                "velocity": 59
                            },
                            "600": {
                                "key": "A3",
                                "pitch": 69,
                                "length": 24,
                                "velocity": 59
                            },
                            "624": {
                                "key": "A3",
                                "pitch": 69,
                                "length": 24,
                                "velocity": 59
                            },
                            "648": {
                                "key": "A3",
                                "pitch": 69,
                                "length": 24,
                                "velocity": 59
                            },
                            "672": {
                                "key": "A3",
                                "pitch": 69,
                                "length": 24,
                                "velocity": 59
                            },
                            "696": {
                                "key": "A3",
                                "pitch": 69,
                                "length": 24,
                                "velocity": 59
                            },
                            "720": {
                                "key": "A3",
                                "pitch": 69,
                                "length": 24,
                                "velocity": 59
                            },
                            "744": {
                                "key": "A3",
                                "pitch": 69,
                                "length": 24,
                                "velocity": 59
                            },
                            "768": {
                                "key": "F3",
                                "pitch": 65,
                                "length": 24,
                                "velocity": 52
                            },
                            "792": {
                                "key": "F3",
                                "pitch": 65,
                                "length": 24,
                                "velocity": 52
                            },
                            "816": {
                                "key": "F3",
                                "pitch": 65,
                                "length": 24,
                                "velocity": 52
                            },
                            "840": {
                                "key": "F3",
                                "pitch": 65,
                                "length": 24,
                                "velocity": 52
                            },
                            "864": {
                                "key": "F3",
                                "pitch": 65,
                                "length": 24,
                                "velocity": 52
                            },
                            "888": {
                                "key": "F3",
                                "pitch": 65,
                                "length": 24,
                                "velocity": 52
                            },
                            "912": {
                                "key": "F3",
                                "pitch": 65,
                                "length": 24,
                                "velocity": 52
                            },
                            "936": {
                                "key": "F3",
                                "pitch": 65,
                                "length": 24,
                                "velocity": 52
                            },
                            "960": {
                                "key": "F3",
                                "pitch": 65,
                                "length": 24,
                                "velocity": 52
                            },
                            "984": {
                                "key": "F3",
                                "pitch": 65,
                                "length": 24,
                                "velocity": 52
                            },
                            "1008": {
                                "key": "F3",
                                "pitch": 65,
                                "length": 24,
                                "velocity": 52
                            },
                            "1032": {
                                "key": "F3",
                                "pitch": 65,
                                "length": 24,
                                "velocity": 52
                            },
                            "1056": {
                                "key": "F3",
                                "pitch": 65,
                                "length": 24,
                                "velocity": 52
                            },
                            "1080": {
                                "key": "F3",
                                "pitch": 65,
                                "length": 24,
                                "velocity": 52
                            },
                            "1104": {
                                "key": "F3",
                                "pitch": 65,
                                "length": 24,
                                "velocity": 52
                            },
                            "1128": {
                                "key": "F3",
                                "pitch": 65,
                                "length": 24,
                                "velocity": 52
                            },
                            "1152": {
                                "key": "F3",
                                "pitch": 65,
                                "length": 24,
                                "velocity": 52
                            },
                            "1176": {
                                "key": "F3",
                                "pitch": 65,
                                "length": 24,
                                "velocity": 52
                            },
                            "1200": {
                                "key": "F3",
                                "pitch": 65,
                                "length": 24,
                                "velocity": 52
                            },
                            "1224": {
                                "key": "F3",
                                "pitch": 65,
                                "length": 24,
                                "velocity": 52
                            },
                            "1248": {
                                "key": "F3",
                                "pitch": 65,
                                "length": 24,
                                "velocity": 52
                            },
                            "1272": {
                                "key": "F3",
                                "pitch": 65,
                                "length": 24,
                                "velocity": 52
                            },
                            "1296": {
                                "key": "F3",
                                "pitch": 65,
                                "length": 24,
                                "velocity": 52
                            },
                            "1320": {
                                "key": "F3",
                                "pitch": 65,
                                "length": 24,
                                "velocity": 52
                            },
                            "1344": {
                                "key": "F3",
                                "pitch": 65,
                                "length": 24,
                                "velocity": 52
                            },
                            "1368": {
                                "key": "F3",
                                "pitch": 65,
                                "length": 24,
                                "velocity": 52
                            },
                            "1392": {
                                "key": "F3",
                                "pitch": 65,
                                "length": 24,
                                "velocity": 52
                            },
                            "1416": {
                                "key": "F3",
                                "pitch": 65,
                                "length": 24,
                                "velocity": 52
                            },
                            "1440": {
                                "key": "F3",
                                "pitch": 65,
                                "length": 24,
                                "velocity": 52
                            },
                            "1464": {
                                "key": "F3",
                                "pitch": 65,
                                "length": 24,
                                "velocity": 52
                            },
                            "1488": {
                                "key": "F3",
                                "pitch": 65,
                                "length": 24,
                                "velocity": 52
                            },
                            "1512": {
                                "key": "F3",
                                "pitch": 65,
                                "length": 24,
                                "velocity": 52
                            }
                        },
                        "length": 0
                    }
                },
                "32256": {
                    "length": 1536,
                    "name": "bass #4",
                    "data": {
                        "notes": {
                            "0": {
                                "key": "G3",
                                "pitch": 67,
                                "length": 24,
                                "velocity": 59
                            },
                            "24": {
                                "key": "G3",
                                "pitch": 67,
                                "length": 24,
                                "velocity": 59
                            },
                            "48": {
                                "key": "G3",
                                "pitch": 67,
                                "length": 24,
                                "velocity": 59
                            },
                            "72": {
                                "key": "G3",
                                "pitch": 67,
                                "length": 24,
                                "velocity": 59
                            },
                            "96": {
                                "key": "G3",
                                "pitch": 67,
                                "length": 24,
                                "velocity": 59
                            },
                            "120": {
                                "key": "G3",
                                "pitch": 67,
                                "length": 24,
                                "velocity": 59
                            },
                            "144": {
                                "key": "G3",
                                "pitch": 67,
                                "length": 24,
                                "velocity": 59
                            },
                            "168": {
                                "key": "G3",
                                "pitch": 67,
                                "length": 24,
                                "velocity": 59
                            },
                            "192": {
                                "key": "G3",
                                "pitch": 67,
                                "length": 24,
                                "velocity": 59
                            },
                            "216": {
                                "key": "G3",
                                "pitch": 67,
                                "length": 24,
                                "velocity": 59
                            },
                            "240": {
                                "key": "G3",
                                "pitch": 67,
                                "length": 24,
                                "velocity": 59
                            },
                            "264": {
                                "key": "G3",
                                "pitch": 67,
                                "length": 24,
                                "velocity": 59
                            },
                            "288": {
                                "key": "G3",
                                "pitch": 67,
                                "length": 24,
                                "velocity": 59
                            },
                            "312": {
                                "key": "G3",
                                "pitch": 67,
                                "length": 24,
                                "velocity": 59
                            },
                            "336": {
                                "key": "G3",
                                "pitch": 67,
                                "length": 24,
                                "velocity": 59
                            },
                            "360": {
                                "key": "G3",
                                "pitch": 67,
                                "length": 24,
                                "velocity": 59
                            },
                            "384": {
                                "key": "G3",
                                "pitch": 67,
                                "length": 24,
                                "velocity": 59
                            },
                            "408": {
                                "key": "G3",
                                "pitch": 67,
                                "length": 24,
                                "velocity": 59
                            },
                            "432": {
                                "key": "G3",
                                "pitch": 67,
                                "length": 24,
                                "velocity": 59
                            },
                            "456": {
                                "key": "G3",
                                "pitch": 67,
                                "length": 24,
                                "velocity": 59
                            },
                            "480": {
                                "key": "G3",
                                "pitch": 67,
                                "length": 24,
                                "velocity": 59
                            },
                            "504": {
                                "key": "G3",
                                "pitch": 67,
                                "length": 24,
                                "velocity": 59
                            },
                            "528": {
                                "key": "G3",
                                "pitch": 67,
                                "length": 24,
                                "velocity": 59
                            },
                            "552": {
                                "key": "G3",
                                "pitch": 67,
                                "length": 24,
                                "velocity": 59
                            },
                            "576": {
                                "key": "G3",
                                "pitch": 67,
                                "length": 24,
                                "velocity": 59
                            },
                            "600": {
                                "key": "G3",
                                "pitch": 67,
                                "length": 24,
                                "velocity": 59
                            },
                            "624": {
                                "key": "G3",
                                "pitch": 67,
                                "length": 24,
                                "velocity": 59
                            },
                            "648": {
                                "key": "G3",
                                "pitch": 67,
                                "length": 24,
                                "velocity": 59
                            },
                            "672": {
                                "key": "G3",
                                "pitch": 67,
                                "length": 24,
                                "velocity": 59
                            },
                            "696": {
                                "key": "G3",
                                "pitch": 67,
                                "length": 24,
                                "velocity": 59
                            },
                            "720": {
                                "key": "G3",
                                "pitch": 67,
                                "length": 24,
                                "velocity": 59
                            },
                            "744": {
                                "key": "G3",
                                "pitch": 67,
                                "length": 24,
                                "velocity": 59
                            },
                            "768": {
                                "key": "D3",
                                "pitch": 62,
                                "length": 24,
                                "velocity": 52
                            },
                            "792": {
                                "key": "D3",
                                "pitch": 62,
                                "length": 24,
                                "velocity": 52
                            },
                            "816": {
                                "key": "D3",
                                "pitch": 62,
                                "length": 24,
                                "velocity": 52
                            },
                            "840": {
                                "key": "D3",
                                "pitch": 62,
                                "length": 24,
                                "velocity": 52
                            },
                            "864": {
                                "key": "D3",
                                "pitch": 62,
                                "length": 24,
                                "velocity": 52
                            },
                            "888": {
                                "key": "D3",
                                "pitch": 62,
                                "length": 24,
                                "velocity": 52
                            },
                            "912": {
                                "key": "D3",
                                "pitch": 62,
                                "length": 24,
                                "velocity": 52
                            },
                            "936": {
                                "key": "D3",
                                "pitch": 62,
                                "length": 24,
                                "velocity": 52
                            },
                            "960": {
                                "key": "D3",
                                "pitch": 62,
                                "length": 24,
                                "velocity": 52
                            },
                            "984": {
                                "key": "D3",
                                "pitch": 62,
                                "length": 24,
                                "velocity": 52
                            },
                            "1008": {
                                "key": "D3",
                                "pitch": 62,
                                "length": 24,
                                "velocity": 52
                            },
                            "1032": {
                                "key": "D3",
                                "pitch": 62,
                                "length": 24,
                                "velocity": 52
                            },
                            "1056": {
                                "key": "D3",
                                "pitch": 62,
                                "length": 24,
                                "velocity": 52
                            },
                            "1080": {
                                "key": "D3",
                                "pitch": 62,
                                "length": 24,
                                "velocity": 52
                            },
                            "1104": {
                                "key": "D3",
                                "pitch": 62,
                                "length": 24,
                                "velocity": 52
                            },
                            "1128": {
                                "key": "D3",
                                "pitch": 62,
                                "length": 24,
                                "velocity": 52
                            },
                            "1152": {
                                "key": "D3",
                                "pitch": 62,
                                "length": 24,
                                "velocity": 52
                            },
                            "1176": {
                                "key": "D3",
                                "pitch": 62,
                                "length": 24,
                                "velocity": 52
                            },
                            "1200": {
                                "key": "D3",
                                "pitch": 62,
                                "length": 24,
                                "velocity": 52
                            },
                            "1224": {
                                "key": "D3",
                                "pitch": 62,
                                "length": 24,
                                "velocity": 52
                            },
                            "1248": {
                                "key": "D3",
                                "pitch": 62,
                                "length": 24,
                                "velocity": 52
                            },
                            "1272": {
                                "key": "D3",
                                "pitch": 62,
                                "length": 24,
                                "velocity": 52
                            },
                            "1296": {
                                "key": "D3",
                                "pitch": 62,
                                "length": 24,
                                "velocity": 52
                            },
                            "1320": {
                                "key": "D3",
                                "pitch": 62,
                                "length": 24,
                                "velocity": 52
                            },
                            "1344": {
                                "key": "D3",
                                "pitch": 62,
                                "length": 24,
                                "velocity": 52
                            },
                            "1368": {
                                "key": "D3",
                                "pitch": 62,
                                "length": 24,
                                "velocity": 52
                            },
                            "1392": {
                                "key": "D3",
                                "pitch": 62,
                                "length": 24,
                                "velocity": 52
                            },
                            "1416": {
                                "key": "D3",
                                "pitch": 62,
                                "length": 24,
                                "velocity": 52
                            },
                            "1440": {
                                "key": "D3",
                                "pitch": 62,
                                "length": 24,
                                "velocity": 52
                            },
                            "1464": {
                                "key": "D3",
                                "pitch": 62,
                                "length": 24,
                                "velocity": 52
                            },
                            "1488": {
                                "key": "D3",
                                "pitch": 62,
                                "length": 24,
                                "velocity": 52
                            },
                            "1512": {
                                "key": "D3",
                                "pitch": 62,
                                "length": 24,
                                "velocity": 52
                            }
                        },
                        "length": 0
                    }
                }
            },
            "Pianoteq 7": {
                "12288": {
                    "length": 3072,
                    "name": null,
                    "data": {
                        "notes": {
                            "0": {
                                "key": "A4",
                                "pitch": 81,
                                "length": 24,
                                "velocity": 67
                            },
                            "24": {
                                "key": "E5",
                                "pitch": 88,
                                "length": 24,
                                "velocity": 59
                            },
                            "48": {
                                "key": "A5",
                                "pitch": 93,
                                "length": 24,
                                "velocity": 70
                            },
                            "72": {
                                "key": "A4",
                                "pitch": 81,
                                "length": 24,
                                "velocity": 48
                            },
                            "96": {
                                "key": "E5",
                                "pitch": 88,
                                "length": 24,
                                "velocity": 53
                            },
                            "120": {
                                "key": "A5",
                                "pitch": 93,
                                "length": 24,
                                "velocity": 67
                            },
                            "144": {
                                "key": "A4",
                                "pitch": 81,
                                "length": 24,
                                "velocity": 49
                            },
                            "168": {
                                "key": "E5",
                                "pitch": 88,
                                "length": 24,
                                "velocity": 55
                            },
                            "192": {
                                "key": "A5",
                                "pitch": 93,
                                "length": 24,
                                "velocity": 72
                            },
                            "216": {
                                "key": "A4",
                                "pitch": 81,
                                "length": 24,
                                "velocity": 54
                            },
                            "240": {
                                "key": "E5",
                                "pitch": 88,
                                "length": 24,
                                "velocity": 54
                            },
                            "264": {
                                "key": "A5",
                                "pitch": 93,
                                "length": 24,
                                "velocity": 81
                            },
                            "288": {
                                "key": "A4",
                                "pitch": 81,
                                "length": 24,
                                "velocity": 66
                            },
                            "312": {
                                "key": "E5",
                                "pitch": 88,
                                "length": 24,
                                "velocity": 67
                            },
                            "336": {
                                "key": "A5",
                                "pitch": 93,
                                "length": 24,
                                "velocity": 102
                            },
                            "360": {
                                "key": "A4",
                                "pitch": 81,
                                "length": 24,
                                "velocity": 74
                            },
                            "384": {
                                "key": "E5",
                                "pitch": 88,
                                "length": 24,
                                "velocity": 81
                            },
                            "408": {
                                "key": "A5",
                                "pitch": 93,
                                "length": 24,
                                "velocity": 105
                            },
                            "432": {
                                "key": "A4",
                                "pitch": 81,
                                "length": 24,
                                "velocity": 81
                            },
                            "456": {
                                "key": "E5",
                                "pitch": 88,
                                "length": 24,
                                "velocity": 69
                            },
                            "480": {
                                "key": "A5",
                                "pitch": 93,
                                "length": 24,
                                "velocity": 105
                            },
                            "504": {
                                "key": "A4",
                                "pitch": 81,
                                "length": 24,
                                "velocity": 88
                            },
                            "528": {
                                "key": "E5",
                                "pitch": 88,
                                "length": 24,
                                "velocity": 81
                            },
                            "552": {
                                "key": "B5",
                                "pitch": 95,
                                "length": 24,
                                "velocity": 112
                            },
                            "576": {
                                "key": "A4",
                                "pitch": 81,
                                "length": 24,
                                "velocity": 97
                            },
                            "600": {
                                "key": "E5",
                                "pitch": 88,
                                "length": 24,
                                "velocity": 90
                            },
                            "624": {
                                "key": "B5",
                                "pitch": 95,
                                "length": 24,
                                "velocity": 88
                            },
                            "648": {
                                "key": "A4",
                                "pitch": 81,
                                "length": 24,
                                "velocity": 97
                            },
                            "672": {
                                "key": "E5",
                                "pitch": 88,
                                "length": 24,
                                "velocity": 86
                            },
                            "696": {
                                "key": "C6",
                                "pitch": 96,
                                "length": 24,
                                "velocity": 115
                            },
                            "720": {
                                "key": "A4",
                                "pitch": 81,
                                "length": 24,
                                "velocity": 99
                            },
                            "744": {
                                "key": "E5",
                                "pitch": 88,
                                "length": 24,
                                "velocity": 83
                            },
                            "768": {
                                "key": "A5",
                                "pitch": 93,
                                "length": 24,
                                "velocity": 105
                            },
                            "792": {
                                "key": "F4",
                                "pitch": 77,
                                "length": 24,
                                "velocity": 55
                            },
                            "816": {
                                "key": "E5",
                                "pitch": 88,
                                "length": 24,
                                "velocity": 73
                            },
                            "840": {
                                "key": "A5",
                                "pitch": 93,
                                "length": 24,
                                "velocity": 49
                            },
                            "864": {
                                "key": "F4",
                                "pitch": 77,
                                "length": 24,
                                "velocity": 61
                            },
                            "888": {
                                "key": "E5",
                                "pitch": 88,
                                "length": 24,
                                "velocity": 49
                            },
                            "912": {
                                "key": "A5",
                                "pitch": 93,
                                "length": 24,
                                "velocity": 52
                            },
                            "936": {
                                "key": "F4",
                                "pitch": 77,
                                "length": 24,
                                "velocity": 54
                            },
                            "960": {
                                "key": "E5",
                                "pitch": 88,
                                "length": 24,
                                "velocity": 54
                            },
                            "984": {
                                "key": "A5",
                                "pitch": 93,
                                "length": 24,
                                "velocity": 61
                            },
                            "1008": {
                                "key": "F4",
                                "pitch": 77,
                                "length": 24,
                                "velocity": 57
                            },
                            "1032": {
                                "key": "E5",
                                "pitch": 88,
                                "length": 24,
                                "velocity": 81
                            },
                            "1056": {
                                "key": "A5",
                                "pitch": 93,
                                "length": 24,
                                "velocity": 102
                            },
                            "1080": {
                                "key": "F4",
                                "pitch": 77,
                                "length": 24,
                                "velocity": 64
                            },
                            "1104": {
                                "key": "E5",
                                "pitch": 88,
                                "length": 24,
                                "velocity": 74
                            },
                            "1128": {
                                "key": "A5",
                                "pitch": 93,
                                "length": 24,
                                "velocity": 102
                            },
                            "1152": {
                                "key": "F4",
                                "pitch": 77,
                                "length": 24,
                                "velocity": 88
                            },
                            "1176": {
                                "key": "E5",
                                "pitch": 88,
                                "length": 24,
                                "velocity": 81
                            },
                            "1200": {
                                "key": "A5",
                                "pitch": 93,
                                "length": 24,
                                "velocity": 102
                            },
                            "1224": {
                                "key": "F4",
                                "pitch": 77,
                                "length": 24,
                                "velocity": 83
                            },
                            "1248": {
                                "key": "E5",
                                "pitch": 88,
                                "length": 24,
                                "velocity": 53
                            },
                            "1272": {
                                "key": "E6",
                                "pitch": 100,
                                "length": 24,
                                "velocity": 105
                            },
                            "1296": {
                                "key": "F4",
                                "pitch": 77,
                                "length": 24,
                                "velocity": 88
                            },
                            "1320": {
                                "key": "E5",
                                "pitch": 88,
                                "length": 24,
                                "velocity": 75
                            },
                            "1344": {
                                "key": "E6",
                                "pitch": 100,
                                "length": 24,
                                "velocity": 105
                            },
                            "1368": {
                                "key": "F4",
                                "pitch": 77,
                                "length": 24,
                                "velocity": 97
                            },
                            "1392": {
                                "key": "E5",
                                "pitch": 88,
                                "length": 24,
                                "velocity": 84
                            },
                            "1416": {
                                "key": "F4",
                                "pitch": 77,
                                "length": 24,
                                "velocity": 84
                            },
                            "1440": {
                                "key": "C6",
                                "pitch": 96,
                                "length": 24,
                                "velocity": 108
                            },
                            "1464": {
                                "key": "F4",
                                "pitch": 77,
                                "length": 28,
                                "velocity": 97
                            },
                            "1488": {
                                "key": "E5",
                                "pitch": 88,
                                "length": 24,
                                "velocity": 75
                            },
                            "1512": {
                                "key": "C6",
                                "pitch": 96,
                                "length": 24,
                                "velocity": 108
                            },
                            "1536": {
                                "key": "G4",
                                "pitch": 79,
                                "length": 24,
                                "velocity": 88
                            },
                            "1560": {
                                "key": "E5",
                                "pitch": 88,
                                "length": 48,
                                "velocity": 74
                            },
                            "1608": {
                                "key": "C6",
                                "pitch": 96,
                                "length": 24,
                                "velocity": 42
                            },
                            "1632": {
                                "key": "G4",
                                "pitch": 79,
                                "length": 24,
                                "velocity": 60
                            },
                            "1656": {
                                "key": "E5",
                                "pitch": 88,
                                "length": 24,
                                "velocity": 55
                            },
                            "1680": {
                                "key": "C6",
                                "pitch": 96,
                                "length": 24,
                                "velocity": 73
                            },
                            "1704": {
                                "key": "G4",
                                "pitch": 79,
                                "length": 24,
                                "velocity": 52
                            },
                            "1728": {
                                "key": "E5",
                                "pitch": 88,
                                "length": 24,
                                "velocity": 51
                            },
                            "1752": {
                                "key": "C6",
                                "pitch": 96,
                                "length": 24,
                                "velocity": 78
                            },
                            "1776": {
                                "key": "G4",
                                "pitch": 79,
                                "length": 24,
                                "velocity": 67
                            },
                            "1800": {
                                "key": "E5",
                                "pitch": 88,
                                "length": 24,
                                "velocity": 60
                            },
                            "1824": {
                                "key": "C6",
                                "pitch": 96,
                                "length": 24,
                                "velocity": 84
                            },
                            "1848": {
                                "key": "G4",
                                "pitch": 79,
                                "length": 24,
                                "velocity": 77
                            },
                            "1872": {
                                "key": "E5",
                                "pitch": 88,
                                "length": 24,
                                "velocity": 81
                            },
                            "1896": {
                                "key": "C6",
                                "pitch": 96,
                                "length": 24,
                                "velocity": 105
                            },
                            "1920": {
                                "key": "G4",
                                "pitch": 79,
                                "length": 28,
                                "velocity": 84
                            },
                            "1944": {
                                "key": "E5",
                                "pitch": 88,
                                "length": 24,
                                "velocity": 83
                            },
                            "1968": {
                                "key": "C6",
                                "pitch": 96,
                                "length": 28,
                                "velocity": 97
                            },
                            "1992": {
                                "key": "G4",
                                "pitch": 79,
                                "length": 28,
                                "velocity": 86
                            },
                            "2016": {
                                "key": "E5",
                                "pitch": 88,
                                "length": 24,
                                "velocity": 78
                            },
                            "2040": {
                                "key": "C6",
                                "pitch": 96,
                                "length": 24,
                                "velocity": 74
                            },
                            "2064": {
                                "key": "G4",
                                "pitch": 79,
                                "length": 28,
                                "velocity": 88
                            },
                            "2088": {
                                "key": "E5",
                                "pitch": 88,
                                "length": 24,
                                "velocity": 77
                            },
                            "2112": {
                                "key": "B5",
                                "pitch": 95,
                                "length": 28,
                                "velocity": 108
                            },
                            "2136": {
                                "key": "G4",
                                "pitch": 79,
                                "length": 28,
                                "velocity": 97
                            },
                            "2160": {
                                "key": "B5",
                                "pitch": 95,
                                "length": 24,
                                "velocity": 102
                            },
                            "2184": {
                                "key": "G4",
                                "pitch": 79,
                                "length": 24,
                                "velocity": 102
                            },
                            "2208": {
                                "key": "E5",
                                "pitch": 88,
                                "length": 24,
                                "velocity": 84
                            },
                            "2232": {
                                "key": "C6",
                                "pitch": 96,
                                "length": 48,
                                "velocity": 102
                            },
                            "2304": {
                                "key": "D4",
                                "pitch": 74,
                                "length": 24,
                                "velocity": 62
                            },
                            "2328": {
                                "key": "E5",
                                "pitch": 88,
                                "length": 24,
                                "velocity": 50
                            },
                            "2352": {
                                "key": "B5",
                                "pitch": 95,
                                "length": 24,
                                "velocity": 59
                            },
                            "2376": {
                                "key": "D4",
                                "pitch": 74,
                                "length": 24,
                                "velocity": 62
                            },
                            "2400": {
                                "key": "E5",
                                "pitch": 88,
                                "length": 24,
                                "velocity": 72
                            },
                            "2424": {
                                "key": "B5",
                                "pitch": 95,
                                "length": 24,
                                "velocity": 83
                            },
                            "2448": {
                                "key": "D4",
                                "pitch": 74,
                                "length": 24,
                                "velocity": 63
                            },
                            "2472": {
                                "key": "E5",
                                "pitch": 88,
                                "length": 24,
                                "velocity": 74
                            },
                            "2496": {
                                "key": "B5",
                                "pitch": 95,
                                "length": 24,
                                "velocity": 74
                            },
                            "2520": {
                                "key": "D4",
                                "pitch": 74,
                                "length": 24,
                                "velocity": 79
                            },
                            "2544": {
                                "key": "E5",
                                "pitch": 88,
                                "length": 24,
                                "velocity": 74
                            },
                            "2568": {
                                "key": "B5",
                                "pitch": 95,
                                "length": 24,
                                "velocity": 64
                            },
                            "2592": {
                                "key": "D4",
                                "pitch": 74,
                                "length": 24,
                                "velocity": 83
                            },
                            "2616": {
                                "key": "E5",
                                "pitch": 88,
                                "length": 24,
                                "velocity": 65
                            },
                            "2640": {
                                "key": "B5",
                                "pitch": 95,
                                "length": 24,
                                "velocity": 90
                            },
                            "2664": {
                                "key": "D4",
                                "pitch": 74,
                                "length": 24,
                                "velocity": 86
                            },
                            "2688": {
                                "key": "E5",
                                "pitch": 88,
                                "length": 24,
                                "velocity": 65
                            },
                            "2712": {
                                "key": "B5",
                                "pitch": 95,
                                "length": 24,
                                "velocity": 102
                            },
                            "2736": {
                                "key": "D4",
                                "pitch": 74,
                                "length": 28,
                                "velocity": 88
                            },
                            "2760": {
                                "key": "E5",
                                "pitch": 88,
                                "length": 24,
                                "velocity": 79
                            },
                            "2784": {
                                "key": "B5",
                                "pitch": 95,
                                "length": 24,
                                "velocity": 102
                            },
                            "2832": {
                                "key": "D4",
                                "pitch": 74,
                                "length": 28,
                                "velocity": 88
                            },
                            "2856": {
                                "key": "E5",
                                "pitch": 88,
                                "length": 24,
                                "velocity": 81
                            },
                            "2880": {
                                "key": "C6",
                                "pitch": 96,
                                "length": 28,
                                "velocity": 83
                            },
                            "2904": {
                                "key": "D4",
                                "pitch": 74,
                                "length": 28,
                                "velocity": 90
                            },
                            "2928": {
                                "key": "E5",
                                "pitch": 88,
                                "length": 24,
                                "velocity": 47
                            },
                            "2952": {
                                "key": "C6",
                                "pitch": 96,
                                "length": 24,
                                "velocity": 67
                            },
                            "2976": {
                                "key": "D4",
                                "pitch": 74,
                                "length": 24,
                                "velocity": 94
                            },
                            "3000": {
                                "key": "E5",
                                "pitch": 88,
                                "length": 24,
                                "velocity": 70
                            },
                            "3024": {
                                "key": "B5",
                                "pitch": 95,
                                "length": 24,
                                "velocity": 105
                            }
                        },
                        "length": null
                    }
                },
                "15360": {
                    "length": 3072,
                    "name": null,
                    "data": {
                        "notes": {
                            "0": {
                                "key": "A4",
                                "pitch": 81,
                                "length": 24,
                                "velocity": 67
                            },
                            "24": {
                                "key": "E5",
                                "pitch": 88,
                                "length": 24,
                                "velocity": 59
                            },
                            "48": {
                                "key": "A5",
                                "pitch": 93,
                                "length": 24,
                                "velocity": 70
                            },
                            "72": {
                                "key": "A4",
                                "pitch": 81,
                                "length": 24,
                                "velocity": 48
                            },
                            "96": {
                                "key": "E5",
                                "pitch": 88,
                                "length": 24,
                                "velocity": 53
                            },
                            "120": {
                                "key": "A5",
                                "pitch": 93,
                                "length": 24,
                                "velocity": 67
                            },
                            "144": {
                                "key": "A4",
                                "pitch": 81,
                                "length": 24,
                                "velocity": 49
                            },
                            "168": {
                                "key": "E5",
                                "pitch": 88,
                                "length": 24,
                                "velocity": 55
                            },
                            "192": {
                                "key": "A5",
                                "pitch": 93,
                                "length": 24,
                                "velocity": 72
                            },
                            "216": {
                                "key": "A4",
                                "pitch": 81,
                                "length": 24,
                                "velocity": 54
                            },
                            "240": {
                                "key": "E5",
                                "pitch": 88,
                                "length": 24,
                                "velocity": 54
                            },
                            "264": {
                                "key": "A5",
                                "pitch": 93,
                                "length": 24,
                                "velocity": 81
                            },
                            "288": {
                                "key": "A4",
                                "pitch": 81,
                                "length": 24,
                                "velocity": 66
                            },
                            "312": {
                                "key": "E5",
                                "pitch": 88,
                                "length": 24,
                                "velocity": 67
                            },
                            "336": {
                                "key": "A5",
                                "pitch": 93,
                                "length": 24,
                                "velocity": 102
                            },
                            "360": {
                                "key": "A4",
                                "pitch": 81,
                                "length": 24,
                                "velocity": 74
                            },
                            "384": {
                                "key": "E5",
                                "pitch": 88,
                                "length": 24,
                                "velocity": 81
                            },
                            "408": {
                                "key": "A5",
                                "pitch": 93,
                                "length": 24,
                                "velocity": 105
                            },
                            "432": {
                                "key": "A4",
                                "pitch": 81,
                                "length": 24,
                                "velocity": 81
                            },
                            "456": {
                                "key": "E5",
                                "pitch": 88,
                                "length": 24,
                                "velocity": 69
                            },
                            "480": {
                                "key": "A5",
                                "pitch": 93,
                                "length": 24,
                                "velocity": 105
                            },
                            "504": {
                                "key": "A4",
                                "pitch": 81,
                                "length": 24,
                                "velocity": 88
                            },
                            "528": {
                                "key": "E5",
                                "pitch": 88,
                                "length": 24,
                                "velocity": 81
                            },
                            "552": {
                                "key": "B5",
                                "pitch": 95,
                                "length": 24,
                                "velocity": 112
                            },
                            "576": {
                                "key": "A4",
                                "pitch": 81,
                                "length": 24,
                                "velocity": 97
                            },
                            "600": {
                                "key": "E5",
                                "pitch": 88,
                                "length": 24,
                                "velocity": 90
                            },
                            "624": {
                                "key": "B5",
                                "pitch": 95,
                                "length": 24,
                                "velocity": 88
                            },
                            "648": {
                                "key": "A4",
                                "pitch": 81,
                                "length": 24,
                                "velocity": 97
                            },
                            "672": {
                                "key": "E5",
                                "pitch": 88,
                                "length": 24,
                                "velocity": 86
                            },
                            "696": {
                                "key": "C6",
                                "pitch": 96,
                                "length": 24,
                                "velocity": 115
                            },
                            "720": {
                                "key": "A4",
                                "pitch": 81,
                                "length": 24,
                                "velocity": 99
                            },
                            "744": {
                                "key": "E5",
                                "pitch": 88,
                                "length": 24,
                                "velocity": 83
                            },
                            "768": {
                                "key": "A5",
                                "pitch": 93,
                                "length": 24,
                                "velocity": 105
                            },
                            "792": {
                                "key": "F4",
                                "pitch": 77,
                                "length": 24,
                                "velocity": 55
                            },
                            "816": {
                                "key": "E5",
                                "pitch": 88,
                                "length": 24,
                                "velocity": 73
                            },
                            "840": {
                                "key": "A5",
                                "pitch": 93,
                                "length": 24,
                                "velocity": 49
                            },
                            "864": {
                                "key": "F4",
                                "pitch": 77,
                                "length": 24,
                                "velocity": 61
                            },
                            "888": {
                                "key": "E5",
                                "pitch": 88,
                                "length": 24,
                                "velocity": 49
                            },
                            "912": {
                                "key": "A5",
                                "pitch": 93,
                                "length": 24,
                                "velocity": 52
                            },
                            "936": {
                                "key": "F4",
                                "pitch": 77,
                                "length": 24,
                                "velocity": 54
                            },
                            "960": {
                                "key": "E5",
                                "pitch": 88,
                                "length": 24,
                                "velocity": 54
                            },
                            "984": {
                                "key": "A5",
                                "pitch": 93,
                                "length": 24,
                                "velocity": 61
                            },
                            "1008": {
                                "key": "F4",
                                "pitch": 77,
                                "length": 24,
                                "velocity": 57
                            },
                            "1032": {
                                "key": "E5",
                                "pitch": 88,
                                "length": 24,
                                "velocity": 81
                            },
                            "1056": {
                                "key": "A5",
                                "pitch": 93,
                                "length": 24,
                                "velocity": 102
                            },
                            "1080": {
                                "key": "F4",
                                "pitch": 77,
                                "length": 24,
                                "velocity": 64
                            },
                            "1104": {
                                "key": "E5",
                                "pitch": 88,
                                "length": 24,
                                "velocity": 74
                            },
                            "1128": {
                                "key": "A5",
                                "pitch": 93,
                                "length": 24,
                                "velocity": 102
                            },
                            "1152": {
                                "key": "F4",
                                "pitch": 77,
                                "length": 24,
                                "velocity": 88
                            },
                            "1176": {
                                "key": "E5",
                                "pitch": 88,
                                "length": 24,
                                "velocity": 81
                            },
                            "1200": {
                                "key": "A5",
                                "pitch": 93,
                                "length": 24,
                                "velocity": 102
                            },
                            "1224": {
                                "key": "F4",
                                "pitch": 77,
                                "length": 24,
                                "velocity": 83
                            },
                            "1248": {
                                "key": "E5",
                                "pitch": 88,
                                "length": 24,
                                "velocity": 53
                            },
                            "1272": {
                                "key": "E6",
                                "pitch": 100,
                                "length": 24,
                                "velocity": 105
                            },
                            "1296": {
                                "key": "F4",
                                "pitch": 77,
                                "length": 24,
                                "velocity": 88
                            },
                            "1320": {
                                "key": "E5",
                                "pitch": 88,
                                "length": 24,
                                "velocity": 75
                            },
                            "1344": {
                                "key": "E6",
                                "pitch": 100,
                                "length": 24,
                                "velocity": 105
                            },
                            "1368": {
                                "key": "F4",
                                "pitch": 77,
                                "length": 24,
                                "velocity": 97
                            },
                            "1392": {
                                "key": "E5",
                                "pitch": 88,
                                "length": 24,
                                "velocity": 84
                            },
                            "1416": {
                                "key": "F4",
                                "pitch": 77,
                                "length": 24,
                                "velocity": 84
                            },
                            "1440": {
                                "key": "C6",
                                "pitch": 96,
                                "length": 24,
                                "velocity": 108
                            },
                            "1464": {
                                "key": "F4",
                                "pitch": 77,
                                "length": 28,
                                "velocity": 97
                            },
                            "1488": {
                                "key": "E5",
                                "pitch": 88,
                                "length": 24,
                                "velocity": 75
                            },
                            "1512": {
                                "key": "C6",
                                "pitch": 96,
                                "length": 24,
                                "velocity": 108
                            },
                            "1536": {
                                "key": "G4",
                                "pitch": 79,
                                "length": 24,
                                "velocity": 88
                            },
                            "1560": {
                                "key": "E5",
                                "pitch": 88,
                                "length": 48,
                                "velocity": 74
                            },
                            "1608": {
                                "key": "C6",
                                "pitch": 96,
                                "length": 24,
                                "velocity": 42
                            },
                            "1632": {
                                "key": "G4",
                                "pitch": 79,
                                "length": 24,
                                "velocity": 60
                            },
                            "1656": {
                                "key": "E5",
                                "pitch": 88,
                                "length": 24,
                                "velocity": 55
                            },
                            "1680": {
                                "key": "C6",
                                "pitch": 96,
                                "length": 24,
                                "velocity": 73
                            },
                            "1704": {
                                "key": "G4",
                                "pitch": 79,
                                "length": 24,
                                "velocity": 52
                            },
                            "1728": {
                                "key": "E5",
                                "pitch": 88,
                                "length": 24,
                                "velocity": 51
                            },
                            "1752": {
                                "key": "C6",
                                "pitch": 96,
                                "length": 24,
                                "velocity": 78
                            },
                            "1776": {
                                "key": "G4",
                                "pitch": 79,
                                "length": 24,
                                "velocity": 67
                            },
                            "1800": {
                                "key": "E5",
                                "pitch": 88,
                                "length": 24,
                                "velocity": 60
                            },
                            "1824": {
                                "key": "C6",
                                "pitch": 96,
                                "length": 24,
                                "velocity": 84
                            },
                            "1848": {
                                "key": "G4",
                                "pitch": 79,
                                "length": 24,
                                "velocity": 77
                            },
                            "1872": {
                                "key": "E5",
                                "pitch": 88,
                                "length": 24,
                                "velocity": 81
                            },
                            "1896": {
                                "key": "C6",
                                "pitch": 96,
                                "length": 24,
                                "velocity": 105
                            },
                            "1920": {
                                "key": "G4",
                                "pitch": 79,
                                "length": 28,
                                "velocity": 84
                            },
                            "1944": {
                                "key": "E5",
                                "pitch": 88,
                                "length": 24,
                                "velocity": 83
                            },
                            "1968": {
                                "key": "C6",
                                "pitch": 96,
                                "length": 28,
                                "velocity": 97
                            },
                            "1992": {
                                "key": "G4",
                                "pitch": 79,
                                "length": 28,
                                "velocity": 86
                            },
                            "2016": {
                                "key": "E5",
                                "pitch": 88,
                                "length": 24,
                                "velocity": 78
                            },
                            "2040": {
                                "key": "C6",
                                "pitch": 96,
                                "length": 24,
                                "velocity": 74
                            },
                            "2064": {
                                "key": "G4",
                                "pitch": 79,
                                "length": 28,
                                "velocity": 88
                            },
                            "2088": {
                                "key": "E5",
                                "pitch": 88,
                                "length": 24,
                                "velocity": 77
                            },
                            "2112": {
                                "key": "B5",
                                "pitch": 95,
                                "length": 28,
                                "velocity": 108
                            },
                            "2136": {
                                "key": "G4",
                                "pitch": 79,
                                "length": 28,
                                "velocity": 97
                            },
                            "2160": {
                                "key": "B5",
                                "pitch": 95,
                                "length": 24,
                                "velocity": 102
                            },
                            "2184": {
                                "key": "G4",
                                "pitch": 79,
                                "length": 24,
                                "velocity": 102
                            },
                            "2208": {
                                "key": "E5",
                                "pitch": 88,
                                "length": 24,
                                "velocity": 84
                            },
                            "2232": {
                                "key": "C6",
                                "pitch": 96,
                                "length": 48,
                                "velocity": 102
                            },
                            "2304": {
                                "key": "D4",
                                "pitch": 74,
                                "length": 24,
                                "velocity": 62
                            },
                            "2328": {
                                "key": "E5",
                                "pitch": 88,
                                "length": 24,
                                "velocity": 50
                            },
                            "2352": {
                                "key": "B5",
                                "pitch": 95,
                                "length": 24,
                                "velocity": 59
                            },
                            "2376": {
                                "key": "D4",
                                "pitch": 74,
                                "length": 24,
                                "velocity": 62
                            },
                            "2400": {
                                "key": "E5",
                                "pitch": 88,
                                "length": 24,
                                "velocity": 72
                            },
                            "2424": {
                                "key": "B5",
                                "pitch": 95,
                                "length": 24,
                                "velocity": 83
                            },
                            "2448": {
                                "key": "D4",
                                "pitch": 74,
                                "length": 24,
                                "velocity": 63
                            },
                            "2472": {
                                "key": "E5",
                                "pitch": 88,
                                "length": 24,
                                "velocity": 74
                            },
                            "2496": {
                                "key": "B5",
                                "pitch": 95,
                                "length": 24,
                                "velocity": 74
                            },
                            "2520": {
                                "key": "D4",
                                "pitch": 74,
                                "length": 24,
                                "velocity": 79
                            },
                            "2544": {
                                "key": "E5",
                                "pitch": 88,
                                "length": 24,
                                "velocity": 74
                            },
                            "2568": {
                                "key": "B5",
                                "pitch": 95,
                                "length": 24,
                                "velocity": 64
                            },
                            "2592": {
                                "key": "D4",
                                "pitch": 74,
                                "length": 24,
                                "velocity": 83
                            },
                            "2616": {
                                "key": "E5",
                                "pitch": 88,
                                "length": 24,
                                "velocity": 65
                            },
                            "2640": {
                                "key": "B5",
                                "pitch": 95,
                                "length": 24,
                                "velocity": 90
                            },
                            "2664": {
                                "key": "D4",
                                "pitch": 74,
                                "length": 24,
                                "velocity": 86
                            },
                            "2688": {
                                "key": "E5",
                                "pitch": 88,
                                "length": 24,
                                "velocity": 65
                            },
                            "2712": {
                                "key": "B5",
                                "pitch": 95,
                                "length": 24,
                                "velocity": 102
                            },
                            "2736": {
                                "key": "D4",
                                "pitch": 74,
                                "length": 28,
                                "velocity": 88
                            },
                            "2760": {
                                "key": "E5",
                                "pitch": 88,
                                "length": 24,
                                "velocity": 79
                            },
                            "2784": {
                                "key": "B5",
                                "pitch": 95,
                                "length": 24,
                                "velocity": 102
                            },
                            "2832": {
                                "key": "D4",
                                "pitch": 74,
                                "length": 28,
                                "velocity": 88
                            },
                            "2856": {
                                "key": "E5",
                                "pitch": 88,
                                "length": 24,
                                "velocity": 81
                            },
                            "2880": {
                                "key": "C6",
                                "pitch": 96,
                                "length": 28,
                                "velocity": 83
                            },
                            "2904": {
                                "key": "D4",
                                "pitch": 74,
                                "length": 28,
                                "velocity": 90
                            },
                            "2928": {
                                "key": "E5",
                                "pitch": 88,
                                "length": 24,
                                "velocity": 47
                            },
                            "2952": {
                                "key": "C6",
                                "pitch": 96,
                                "length": 24,
                                "velocity": 67
                            },
                            "2976": {
                                "key": "D4",
                                "pitch": 74,
                                "length": 24,
                                "velocity": 94
                            },
                            "3000": {
                                "key": "E5",
                                "pitch": 88,
                                "length": 24,
                                "velocity": 70
                            },
                            "3024": {
                                "key": "B5",
                                "pitch": 95,
                                "length": 24,
                                "velocity": 105
                            }
                        },
                        "length": null
                    }
                },
                "18432": {
                    "length": 3072,
                    "name": null,
                    "data": {
                        "notes": {
                            "0": {
                                "key": "A4",
                                "pitch": 81,
                                "length": 24,
                                "velocity": 67
                            },
                            "24": {
                                "key": "E5",
                                "pitch": 88,
                                "length": 24,
                                "velocity": 59
                            },
                            "48": {
                                "key": "A5",
                                "pitch": 93,
                                "length": 24,
                                "velocity": 70
                            },
                            "72": {
                                "key": "A4",
                                "pitch": 81,
                                "length": 24,
                                "velocity": 48
                            },
                            "96": {
                                "key": "E5",
                                "pitch": 88,
                                "length": 24,
                                "velocity": 53
                            },
                            "120": {
                                "key": "A5",
                                "pitch": 93,
                                "length": 24,
                                "velocity": 67
                            },
                            "144": {
                                "key": "A4",
                                "pitch": 81,
                                "length": 24,
                                "velocity": 49
                            },
                            "168": {
                                "key": "E5",
                                "pitch": 88,
                                "length": 24,
                                "velocity": 55
                            },
                            "192": {
                                "key": "A5",
                                "pitch": 93,
                                "length": 24,
                                "velocity": 72
                            },
                            "216": {
                                "key": "A4",
                                "pitch": 81,
                                "length": 24,
                                "velocity": 54
                            },
                            "240": {
                                "key": "E5",
                                "pitch": 88,
                                "length": 24,
                                "velocity": 54
                            },
                            "264": {
                                "key": "A5",
                                "pitch": 93,
                                "length": 24,
                                "velocity": 81
                            },
                            "288": {
                                "key": "A4",
                                "pitch": 81,
                                "length": 24,
                                "velocity": 66
                            },
                            "312": {
                                "key": "E5",
                                "pitch": 88,
                                "length": 24,
                                "velocity": 67
                            },
                            "336": {
                                "key": "A5",
                                "pitch": 93,
                                "length": 24,
                                "velocity": 102
                            },
                            "360": {
                                "key": "A4",
                                "pitch": 81,
                                "length": 24,
                                "velocity": 74
                            },
                            "384": {
                                "key": "E5",
                                "pitch": 88,
                                "length": 24,
                                "velocity": 81
                            },
                            "408": {
                                "key": "A5",
                                "pitch": 93,
                                "length": 24,
                                "velocity": 105
                            },
                            "432": {
                                "key": "A4",
                                "pitch": 81,
                                "length": 24,
                                "velocity": 81
                            },
                            "456": {
                                "key": "E5",
                                "pitch": 88,
                                "length": 24,
                                "velocity": 69
                            },
                            "480": {
                                "key": "A5",
                                "pitch": 93,
                                "length": 24,
                                "velocity": 105
                            },
                            "504": {
                                "key": "A4",
                                "pitch": 81,
                                "length": 24,
                                "velocity": 88
                            },
                            "528": {
                                "key": "E5",
                                "pitch": 88,
                                "length": 24,
                                "velocity": 81
                            },
                            "552": {
                                "key": "B5",
                                "pitch": 95,
                                "length": 24,
                                "velocity": 112
                            },
                            "576": {
                                "key": "A4",
                                "pitch": 81,
                                "length": 24,
                                "velocity": 97
                            },
                            "600": {
                                "key": "E5",
                                "pitch": 88,
                                "length": 24,
                                "velocity": 90
                            },
                            "624": {
                                "key": "B5",
                                "pitch": 95,
                                "length": 24,
                                "velocity": 88
                            },
                            "648": {
                                "key": "A4",
                                "pitch": 81,
                                "length": 24,
                                "velocity": 97
                            },
                            "672": {
                                "key": "E5",
                                "pitch": 88,
                                "length": 24,
                                "velocity": 86
                            },
                            "696": {
                                "key": "C6",
                                "pitch": 96,
                                "length": 24,
                                "velocity": 115
                            },
                            "720": {
                                "key": "A4",
                                "pitch": 81,
                                "length": 24,
                                "velocity": 99
                            },
                            "744": {
                                "key": "E5",
                                "pitch": 88,
                                "length": 24,
                                "velocity": 83
                            },
                            "768": {
                                "key": "A5",
                                "pitch": 93,
                                "length": 24,
                                "velocity": 105
                            },
                            "792": {
                                "key": "F4",
                                "pitch": 77,
                                "length": 24,
                                "velocity": 55
                            },
                            "816": {
                                "key": "E5",
                                "pitch": 88,
                                "length": 24,
                                "velocity": 73
                            },
                            "840": {
                                "key": "A5",
                                "pitch": 93,
                                "length": 24,
                                "velocity": 49
                            },
                            "864": {
                                "key": "F4",
                                "pitch": 77,
                                "length": 24,
                                "velocity": 61
                            },
                            "888": {
                                "key": "E5",
                                "pitch": 88,
                                "length": 24,
                                "velocity": 49
                            },
                            "912": {
                                "key": "A5",
                                "pitch": 93,
                                "length": 24,
                                "velocity": 52
                            },
                            "936": {
                                "key": "F4",
                                "pitch": 77,
                                "length": 24,
                                "velocity": 54
                            },
                            "960": {
                                "key": "E5",
                                "pitch": 88,
                                "length": 24,
                                "velocity": 54
                            },
                            "984": {
                                "key": "A5",
                                "pitch": 93,
                                "length": 24,
                                "velocity": 61
                            },
                            "1008": {
                                "key": "F4",
                                "pitch": 77,
                                "length": 24,
                                "velocity": 57
                            },
                            "1032": {
                                "key": "E5",
                                "pitch": 88,
                                "length": 24,
                                "velocity": 81
                            },
                            "1056": {
                                "key": "A5",
                                "pitch": 93,
                                "length": 24,
                                "velocity": 102
                            },
                            "1080": {
                                "key": "F4",
                                "pitch": 77,
                                "length": 24,
                                "velocity": 64
                            },
                            "1104": {
                                "key": "E5",
                                "pitch": 88,
                                "length": 24,
                                "velocity": 74
                            },
                            "1128": {
                                "key": "A5",
                                "pitch": 93,
                                "length": 24,
                                "velocity": 102
                            },
                            "1152": {
                                "key": "F4",
                                "pitch": 77,
                                "length": 24,
                                "velocity": 88
                            },
                            "1176": {
                                "key": "E5",
                                "pitch": 88,
                                "length": 24,
                                "velocity": 81
                            },
                            "1200": {
                                "key": "A5",
                                "pitch": 93,
                                "length": 24,
                                "velocity": 102
                            },
                            "1224": {
                                "key": "F4",
                                "pitch": 77,
                                "length": 24,
                                "velocity": 83
                            },
                            "1248": {
                                "key": "E5",
                                "pitch": 88,
                                "length": 24,
                                "velocity": 53
                            },
                            "1272": {
                                "key": "E6",
                                "pitch": 100,
                                "length": 24,
                                "velocity": 105
                            },
                            "1296": {
                                "key": "F4",
                                "pitch": 77,
                                "length": 24,
                                "velocity": 88
                            },
                            "1320": {
                                "key": "E5",
                                "pitch": 88,
                                "length": 24,
                                "velocity": 75
                            },
                            "1344": {
                                "key": "E6",
                                "pitch": 100,
                                "length": 24,
                                "velocity": 105
                            },
                            "1368": {
                                "key": "F4",
                                "pitch": 77,
                                "length": 24,
                                "velocity": 97
                            },
                            "1392": {
                                "key": "E5",
                                "pitch": 88,
                                "length": 24,
                                "velocity": 84
                            },
                            "1416": {
                                "key": "F4",
                                "pitch": 77,
                                "length": 24,
                                "velocity": 84
                            },
                            "1440": {
                                "key": "C6",
                                "pitch": 96,
                                "length": 24,
                                "velocity": 108
                            },
                            "1464": {
                                "key": "F4",
                                "pitch": 77,
                                "length": 28,
                                "velocity": 97
                            },
                            "1488": {
                                "key": "E5",
                                "pitch": 88,
                                "length": 24,
                                "velocity": 75
                            },
                            "1512": {
                                "key": "C6",
                                "pitch": 96,
                                "length": 24,
                                "velocity": 108
                            },
                            "1536": {
                                "key": "G4",
                                "pitch": 79,
                                "length": 24,
                                "velocity": 88
                            },
                            "1560": {
                                "key": "E5",
                                "pitch": 88,
                                "length": 48,
                                "velocity": 74
                            },
                            "1608": {
                                "key": "C6",
                                "pitch": 96,
                                "length": 24,
                                "velocity": 42
                            },
                            "1632": {
                                "key": "G4",
                                "pitch": 79,
                                "length": 24,
                                "velocity": 60
                            },
                            "1656": {
                                "key": "E5",
                                "pitch": 88,
                                "length": 24,
                                "velocity": 55
                            },
                            "1680": {
                                "key": "C6",
                                "pitch": 96,
                                "length": 24,
                                "velocity": 73
                            },
                            "1704": {
                                "key": "G4",
                                "pitch": 79,
                                "length": 24,
                                "velocity": 52
                            },
                            "1728": {
                                "key": "E5",
                                "pitch": 88,
                                "length": 24,
                                "velocity": 51
                            },
                            "1752": {
                                "key": "C6",
                                "pitch": 96,
                                "length": 24,
                                "velocity": 78
                            },
                            "1776": {
                                "key": "G4",
                                "pitch": 79,
                                "length": 24,
                                "velocity": 67
                            },
                            "1800": {
                                "key": "E5",
                                "pitch": 88,
                                "length": 24,
                                "velocity": 60
                            },
                            "1824": {
                                "key": "C6",
                                "pitch": 96,
                                "length": 24,
                                "velocity": 84
                            },
                            "1848": {
                                "key": "G4",
                                "pitch": 79,
                                "length": 24,
                                "velocity": 77
                            },
                            "1872": {
                                "key": "E5",
                                "pitch": 88,
                                "length": 24,
                                "velocity": 81
                            },
                            "1896": {
                                "key": "C6",
                                "pitch": 96,
                                "length": 24,
                                "velocity": 105
                            },
                            "1920": {
                                "key": "G4",
                                "pitch": 79,
                                "length": 28,
                                "velocity": 84
                            },
                            "1944": {
                                "key": "E5",
                                "pitch": 88,
                                "length": 24,
                                "velocity": 83
                            },
                            "1968": {
                                "key": "C6",
                                "pitch": 96,
                                "length": 28,
                                "velocity": 97
                            },
                            "1992": {
                                "key": "G4",
                                "pitch": 79,
                                "length": 28,
                                "velocity": 86
                            },
                            "2016": {
                                "key": "E5",
                                "pitch": 88,
                                "length": 24,
                                "velocity": 78
                            },
                            "2040": {
                                "key": "C6",
                                "pitch": 96,
                                "length": 24,
                                "velocity": 74
                            },
                            "2064": {
                                "key": "G4",
                                "pitch": 79,
                                "length": 28,
                                "velocity": 88
                            },
                            "2088": {
                                "key": "E5",
                                "pitch": 88,
                                "length": 24,
                                "velocity": 77
                            },
                            "2112": {
                                "key": "B5",
                                "pitch": 95,
                                "length": 28,
                                "velocity": 108
                            },
                            "2136": {
                                "key": "G4",
                                "pitch": 79,
                                "length": 28,
                                "velocity": 97
                            },
                            "2160": {
                                "key": "B5",
                                "pitch": 95,
                                "length": 24,
                                "velocity": 102
                            },
                            "2184": {
                                "key": "G4",
                                "pitch": 79,
                                "length": 24,
                                "velocity": 102
                            },
                            "2208": {
                                "key": "E5",
                                "pitch": 88,
                                "length": 24,
                                "velocity": 84
                            },
                            "2232": {
                                "key": "C6",
                                "pitch": 96,
                                "length": 48,
                                "velocity": 102
                            },
                            "2304": {
                                "key": "D4",
                                "pitch": 74,
                                "length": 24,
                                "velocity": 62
                            },
                            "2328": {
                                "key": "E5",
                                "pitch": 88,
                                "length": 24,
                                "velocity": 50
                            },
                            "2352": {
                                "key": "B5",
                                "pitch": 95,
                                "length": 24,
                                "velocity": 59
                            },
                            "2376": {
                                "key": "D4",
                                "pitch": 74,
                                "length": 24,
                                "velocity": 62
                            },
                            "2400": {
                                "key": "E5",
                                "pitch": 88,
                                "length": 24,
                                "velocity": 72
                            },
                            "2424": {
                                "key": "B5",
                                "pitch": 95,
                                "length": 24,
                                "velocity": 83
                            },
                            "2448": {
                                "key": "D4",
                                "pitch": 74,
                                "length": 24,
                                "velocity": 63
                            },
                            "2472": {
                                "key": "E5",
                                "pitch": 88,
                                "length": 24,
                                "velocity": 74
                            },
                            "2496": {
                                "key": "B5",
                                "pitch": 95,
                                "length": 24,
                                "velocity": 74
                            },
                            "2520": {
                                "key": "D4",
                                "pitch": 74,
                                "length": 24,
                                "velocity": 79
                            },
                            "2544": {
                                "key": "E5",
                                "pitch": 88,
                                "length": 24,
                                "velocity": 74
                            },
                            "2568": {
                                "key": "B5",
                                "pitch": 95,
                                "length": 24,
                                "velocity": 64
                            },
                            "2592": {
                                "key": "D4",
                                "pitch": 74,
                                "length": 24,
                                "velocity": 83
                            },
                            "2616": {
                                "key": "E5",
                                "pitch": 88,
                                "length": 24,
                                "velocity": 65
                            },
                            "2640": {
                                "key": "B5",
                                "pitch": 95,
                                "length": 24,
                                "velocity": 90
                            },
                            "2664": {
                                "key": "D4",
                                "pitch": 74,
                                "length": 24,
                                "velocity": 86
                            },
                            "2688": {
                                "key": "E5",
                                "pitch": 88,
                                "length": 24,
                                "velocity": 65
                            },
                            "2712": {
                                "key": "B5",
                                "pitch": 95,
                                "length": 24,
                                "velocity": 102
                            },
                            "2736": {
                                "key": "D4",
                                "pitch": 74,
                                "length": 28,
                                "velocity": 88
                            },
                            "2760": {
                                "key": "E5",
                                "pitch": 88,
                                "length": 24,
                                "velocity": 79
                            },
                            "2784": {
                                "key": "B5",
                                "pitch": 95,
                                "length": 24,
                                "velocity": 102
                            },
                            "2832": {
                                "key": "D4",
                                "pitch": 74,
                                "length": 28,
                                "velocity": 88
                            },
                            "2856": {
                                "key": "E5",
                                "pitch": 88,
                                "length": 24,
                                "velocity": 81
                            },
                            "2880": {
                                "key": "C6",
                                "pitch": 96,
                                "length": 28,
                                "velocity": 83
                            },
                            "2904": {
                                "key": "D4",
                                "pitch": 74,
                                "length": 28,
                                "velocity": 90
                            },
                            "2928": {
                                "key": "E5",
                                "pitch": 88,
                                "length": 24,
                                "velocity": 47
                            },
                            "2952": {
                                "key": "C6",
                                "pitch": 96,
                                "length": 24,
                                "velocity": 67
                            },
                            "2976": {
                                "key": "D4",
                                "pitch": 74,
                                "length": 24,
                                "velocity": 94
                            },
                            "3000": {
                                "key": "E5",
                                "pitch": 88,
                                "length": 24,
                                "velocity": 70
                            },
                            "3024": {
                                "key": "B5",
                                "pitch": 95,
                                "length": 24,
                                "velocity": 105
                            }
                        },
                        "length": null
                    }
                },
                "21504": {
                    "length": 3072,
                    "name": null,
                    "data": {
                        "notes": {
                            "0": {
                                "key": "A4",
                                "pitch": 81,
                                "length": 24,
                                "velocity": 67
                            },
                            "24": {
                                "key": "E5",
                                "pitch": 88,
                                "length": 24,
                                "velocity": 59
                            },
                            "48": {
                                "key": "A5",
                                "pitch": 93,
                                "length": 24,
                                "velocity": 70
                            },
                            "72": {
                                "key": "A4",
                                "pitch": 81,
                                "length": 24,
                                "velocity": 48
                            },
                            "96": {
                                "key": "E5",
                                "pitch": 88,
                                "length": 24,
                                "velocity": 53
                            },
                            "120": {
                                "key": "A5",
                                "pitch": 93,
                                "length": 24,
                                "velocity": 67
                            },
                            "144": {
                                "key": "A4",
                                "pitch": 81,
                                "length": 24,
                                "velocity": 49
                            },
                            "168": {
                                "key": "E5",
                                "pitch": 88,
                                "length": 24,
                                "velocity": 55
                            },
                            "192": {
                                "key": "A5",
                                "pitch": 93,
                                "length": 24,
                                "velocity": 72
                            },
                            "216": {
                                "key": "A4",
                                "pitch": 81,
                                "length": 24,
                                "velocity": 54
                            },
                            "240": {
                                "key": "E5",
                                "pitch": 88,
                                "length": 24,
                                "velocity": 54
                            },
                            "264": {
                                "key": "A5",
                                "pitch": 93,
                                "length": 24,
                                "velocity": 81
                            },
                            "288": {
                                "key": "A4",
                                "pitch": 81,
                                "length": 24,
                                "velocity": 66
                            },
                            "312": {
                                "key": "E5",
                                "pitch": 88,
                                "length": 24,
                                "velocity": 67
                            },
                            "336": {
                                "key": "A5",
                                "pitch": 93,
                                "length": 24,
                                "velocity": 102
                            },
                            "360": {
                                "key": "A4",
                                "pitch": 81,
                                "length": 24,
                                "velocity": 74
                            },
                            "384": {
                                "key": "E5",
                                "pitch": 88,
                                "length": 24,
                                "velocity": 81
                            },
                            "408": {
                                "key": "A5",
                                "pitch": 93,
                                "length": 24,
                                "velocity": 105
                            },
                            "432": {
                                "key": "A4",
                                "pitch": 81,
                                "length": 24,
                                "velocity": 81
                            },
                            "456": {
                                "key": "E5",
                                "pitch": 88,
                                "length": 24,
                                "velocity": 69
                            },
                            "480": {
                                "key": "A5",
                                "pitch": 93,
                                "length": 24,
                                "velocity": 105
                            },
                            "504": {
                                "key": "A4",
                                "pitch": 81,
                                "length": 24,
                                "velocity": 88
                            },
                            "528": {
                                "key": "E5",
                                "pitch": 88,
                                "length": 24,
                                "velocity": 81
                            },
                            "552": {
                                "key": "B5",
                                "pitch": 95,
                                "length": 24,
                                "velocity": 112
                            },
                            "576": {
                                "key": "A4",
                                "pitch": 81,
                                "length": 24,
                                "velocity": 97
                            },
                            "600": {
                                "key": "E5",
                                "pitch": 88,
                                "length": 24,
                                "velocity": 90
                            },
                            "624": {
                                "key": "B5",
                                "pitch": 95,
                                "length": 24,
                                "velocity": 88
                            },
                            "648": {
                                "key": "A4",
                                "pitch": 81,
                                "length": 24,
                                "velocity": 97
                            },
                            "672": {
                                "key": "E5",
                                "pitch": 88,
                                "length": 24,
                                "velocity": 86
                            },
                            "696": {
                                "key": "C6",
                                "pitch": 96,
                                "length": 24,
                                "velocity": 115
                            },
                            "720": {
                                "key": "A4",
                                "pitch": 81,
                                "length": 24,
                                "velocity": 99
                            },
                            "744": {
                                "key": "E5",
                                "pitch": 88,
                                "length": 24,
                                "velocity": 83
                            },
                            "768": {
                                "key": "A5",
                                "pitch": 93,
                                "length": 24,
                                "velocity": 105
                            },
                            "792": {
                                "key": "F4",
                                "pitch": 77,
                                "length": 24,
                                "velocity": 55
                            },
                            "816": {
                                "key": "E5",
                                "pitch": 88,
                                "length": 24,
                                "velocity": 73
                            },
                            "840": {
                                "key": "A5",
                                "pitch": 93,
                                "length": 24,
                                "velocity": 49
                            },
                            "864": {
                                "key": "F4",
                                "pitch": 77,
                                "length": 24,
                                "velocity": 61
                            },
                            "888": {
                                "key": "E5",
                                "pitch": 88,
                                "length": 24,
                                "velocity": 49
                            },
                            "912": {
                                "key": "A5",
                                "pitch": 93,
                                "length": 24,
                                "velocity": 52
                            },
                            "936": {
                                "key": "F4",
                                "pitch": 77,
                                "length": 24,
                                "velocity": 54
                            },
                            "960": {
                                "key": "E5",
                                "pitch": 88,
                                "length": 24,
                                "velocity": 54
                            },
                            "984": {
                                "key": "A5",
                                "pitch": 93,
                                "length": 24,
                                "velocity": 61
                            },
                            "1008": {
                                "key": "F4",
                                "pitch": 77,
                                "length": 24,
                                "velocity": 57
                            },
                            "1032": {
                                "key": "E5",
                                "pitch": 88,
                                "length": 24,
                                "velocity": 81
                            },
                            "1056": {
                                "key": "A5",
                                "pitch": 93,
                                "length": 24,
                                "velocity": 102
                            },
                            "1080": {
                                "key": "F4",
                                "pitch": 77,
                                "length": 24,
                                "velocity": 64
                            },
                            "1104": {
                                "key": "E5",
                                "pitch": 88,
                                "length": 24,
                                "velocity": 74
                            },
                            "1128": {
                                "key": "A5",
                                "pitch": 93,
                                "length": 24,
                                "velocity": 102
                            },
                            "1152": {
                                "key": "F4",
                                "pitch": 77,
                                "length": 24,
                                "velocity": 88
                            },
                            "1176": {
                                "key": "E5",
                                "pitch": 88,
                                "length": 24,
                                "velocity": 81
                            },
                            "1200": {
                                "key": "A5",
                                "pitch": 93,
                                "length": 24,
                                "velocity": 102
                            },
                            "1224": {
                                "key": "F4",
                                "pitch": 77,
                                "length": 24,
                                "velocity": 83
                            },
                            "1248": {
                                "key": "E5",
                                "pitch": 88,
                                "length": 24,
                                "velocity": 53
                            },
                            "1272": {
                                "key": "E6",
                                "pitch": 100,
                                "length": 24,
                                "velocity": 105
                            },
                            "1296": {
                                "key": "F4",
                                "pitch": 77,
                                "length": 24,
                                "velocity": 88
                            },
                            "1320": {
                                "key": "E5",
                                "pitch": 88,
                                "length": 24,
                                "velocity": 75
                            },
                            "1344": {
                                "key": "E6",
                                "pitch": 100,
                                "length": 24,
                                "velocity": 105
                            },
                            "1368": {
                                "key": "F4",
                                "pitch": 77,
                                "length": 24,
                                "velocity": 97
                            },
                            "1392": {
                                "key": "E5",
                                "pitch": 88,
                                "length": 24,
                                "velocity": 84
                            },
                            "1416": {
                                "key": "F4",
                                "pitch": 77,
                                "length": 24,
                                "velocity": 84
                            },
                            "1440": {
                                "key": "C6",
                                "pitch": 96,
                                "length": 24,
                                "velocity": 108
                            },
                            "1464": {
                                "key": "F4",
                                "pitch": 77,
                                "length": 28,
                                "velocity": 97
                            },
                            "1488": {
                                "key": "E5",
                                "pitch": 88,
                                "length": 24,
                                "velocity": 75
                            },
                            "1512": {
                                "key": "C6",
                                "pitch": 96,
                                "length": 24,
                                "velocity": 108
                            },
                            "1536": {
                                "key": "G4",
                                "pitch": 79,
                                "length": 24,
                                "velocity": 88
                            },
                            "1560": {
                                "key": "E5",
                                "pitch": 88,
                                "length": 48,
                                "velocity": 74
                            },
                            "1608": {
                                "key": "C6",
                                "pitch": 96,
                                "length": 24,
                                "velocity": 42
                            },
                            "1632": {
                                "key": "G4",
                                "pitch": 79,
                                "length": 24,
                                "velocity": 60
                            },
                            "1656": {
                                "key": "E5",
                                "pitch": 88,
                                "length": 24,
                                "velocity": 55
                            },
                            "1680": {
                                "key": "C6",
                                "pitch": 96,
                                "length": 24,
                                "velocity": 73
                            },
                            "1704": {
                                "key": "G4",
                                "pitch": 79,
                                "length": 24,
                                "velocity": 52
                            },
                            "1728": {
                                "key": "E5",
                                "pitch": 88,
                                "length": 24,
                                "velocity": 51
                            },
                            "1752": {
                                "key": "C6",
                                "pitch": 96,
                                "length": 24,
                                "velocity": 78
                            },
                            "1776": {
                                "key": "G4",
                                "pitch": 79,
                                "length": 24,
                                "velocity": 67
                            },
                            "1800": {
                                "key": "E5",
                                "pitch": 88,
                                "length": 24,
                                "velocity": 60
                            },
                            "1824": {
                                "key": "C6",
                                "pitch": 96,
                                "length": 24,
                                "velocity": 84
                            },
                            "1848": {
                                "key": "G4",
                                "pitch": 79,
                                "length": 24,
                                "velocity": 77
                            },
                            "1872": {
                                "key": "E5",
                                "pitch": 88,
                                "length": 24,
                                "velocity": 81
                            },
                            "1896": {
                                "key": "C6",
                                "pitch": 96,
                                "length": 24,
                                "velocity": 105
                            },
                            "1920": {
                                "key": "G4",
                                "pitch": 79,
                                "length": 28,
                                "velocity": 84
                            },
                            "1944": {
                                "key": "E5",
                                "pitch": 88,
                                "length": 24,
                                "velocity": 83
                            },
                            "1968": {
                                "key": "C6",
                                "pitch": 96,
                                "length": 28,
                                "velocity": 97
                            },
                            "1992": {
                                "key": "G4",
                                "pitch": 79,
                                "length": 28,
                                "velocity": 86
                            },
                            "2016": {
                                "key": "E5",
                                "pitch": 88,
                                "length": 24,
                                "velocity": 78
                            },
                            "2040": {
                                "key": "C6",
                                "pitch": 96,
                                "length": 24,
                                "velocity": 74
                            },
                            "2064": {
                                "key": "G4",
                                "pitch": 79,
                                "length": 28,
                                "velocity": 88
                            },
                            "2088": {
                                "key": "E5",
                                "pitch": 88,
                                "length": 24,
                                "velocity": 77
                            },
                            "2112": {
                                "key": "B5",
                                "pitch": 95,
                                "length": 28,
                                "velocity": 108
                            },
                            "2136": {
                                "key": "G4",
                                "pitch": 79,
                                "length": 28,
                                "velocity": 97
                            },
                            "2160": {
                                "key": "B5",
                                "pitch": 95,
                                "length": 24,
                                "velocity": 102
                            },
                            "2184": {
                                "key": "G4",
                                "pitch": 79,
                                "length": 24,
                                "velocity": 102
                            },
                            "2208": {
                                "key": "E5",
                                "pitch": 88,
                                "length": 24,
                                "velocity": 84
                            },
                            "2232": {
                                "key": "C6",
                                "pitch": 96,
                                "length": 48,
                                "velocity": 102
                            },
                            "2304": {
                                "key": "D4",
                                "pitch": 74,
                                "length": 24,
                                "velocity": 62
                            },
                            "2328": {
                                "key": "E5",
                                "pitch": 88,
                                "length": 24,
                                "velocity": 50
                            },
                            "2352": {
                                "key": "B5",
                                "pitch": 95,
                                "length": 24,
                                "velocity": 59
                            },
                            "2376": {
                                "key": "D4",
                                "pitch": 74,
                                "length": 24,
                                "velocity": 62
                            },
                            "2400": {
                                "key": "E5",
                                "pitch": 88,
                                "length": 24,
                                "velocity": 72
                            },
                            "2424": {
                                "key": "B5",
                                "pitch": 95,
                                "length": 24,
                                "velocity": 83
                            },
                            "2448": {
                                "key": "D4",
                                "pitch": 74,
                                "length": 24,
                                "velocity": 63
                            },
                            "2472": {
                                "key": "E5",
                                "pitch": 88,
                                "length": 24,
                                "velocity": 74
                            },
                            "2496": {
                                "key": "B5",
                                "pitch": 95,
                                "length": 24,
                                "velocity": 74
                            },
                            "2520": {
                                "key": "D4",
                                "pitch": 74,
                                "length": 24,
                                "velocity": 79
                            },
                            "2544": {
                                "key": "E5",
                                "pitch": 88,
                                "length": 24,
                                "velocity": 74
                            },
                            "2568": {
                                "key": "B5",
                                "pitch": 95,
                                "length": 24,
                                "velocity": 64
                            },
                            "2592": {
                                "key": "D4",
                                "pitch": 74,
                                "length": 24,
                                "velocity": 83
                            },
                            "2616": {
                                "key": "E5",
                                "pitch": 88,
                                "length": 24,
                                "velocity": 65
                            },
                            "2640": {
                                "key": "B5",
                                "pitch": 95,
                                "length": 24,
                                "velocity": 90
                            },
                            "2664": {
                                "key": "D4",
                                "pitch": 74,
                                "length": 24,
                                "velocity": 86
                            },
                            "2688": {
                                "key": "E5",
                                "pitch": 88,
                                "length": 24,
                                "velocity": 65
                            },
                            "2712": {
                                "key": "B5",
                                "pitch": 95,
                                "length": 24,
                                "velocity": 102
                            },
                            "2736": {
                                "key": "D4",
                                "pitch": 74,
                                "length": 28,
                                "velocity": 88
                            },
                            "2760": {
                                "key": "E5",
                                "pitch": 88,
                                "length": 24,
                                "velocity": 79
                            },
                            "2784": {
                                "key": "B5",
                                "pitch": 95,
                                "length": 24,
                                "velocity": 102
                            },
                            "2832": {
                                "key": "D4",
                                "pitch": 74,
                                "length": 28,
                                "velocity": 88
                            },
                            "2856": {
                                "key": "E5",
                                "pitch": 88,
                                "length": 24,
                                "velocity": 81
                            },
                            "2880": {
                                "key": "C6",
                                "pitch": 96,
                                "length": 28,
                                "velocity": 83
                            },
                            "2904": {
                                "key": "D4",
                                "pitch": 74,
                                "length": 28,
                                "velocity": 90
                            },
                            "2928": {
                                "key": "E5",
                                "pitch": 88,
                                "length": 24,
                                "velocity": 47
                            },
                            "2952": {
                                "key": "C6",
                                "pitch": 96,
                                "length": 24,
                                "velocity": 67
                            },
                            "2976": {
                                "key": "D4",
                                "pitch": 74,
                                "length": 24,
                                "velocity": 94
                            },
                            "3000": {
                                "key": "E5",
                                "pitch": 88,
                                "length": 24,
                                "velocity": 70
                            },
                            "3024": {
                                "key": "B5",
                                "pitch": 95,
                                "length": 24,
                                "velocity": 105
                            }
                        },
                        "length": null
                    }
                },
                "24576": {
                    "length": 3072,
                    "name": null,
                    "data": {
                        "notes": {
                            "0": {
                                "key": "A4",
                                "pitch": 81,
                                "length": 24,
                                "velocity": 67
                            },
                            "24": {
                                "key": "E5",
                                "pitch": 88,
                                "length": 24,
                                "velocity": 59
                            },
                            "48": {
                                "key": "A5",
                                "pitch": 93,
                                "length": 24,
                                "velocity": 70
                            },
                            "72": {
                                "key": "A4",
                                "pitch": 81,
                                "length": 24,
                                "velocity": 48
                            },
                            "96": {
                                "key": "E5",
                                "pitch": 88,
                                "length": 24,
                                "velocity": 53
                            },
                            "120": {
                                "key": "A5",
                                "pitch": 93,
                                "length": 24,
                                "velocity": 67
                            },
                            "144": {
                                "key": "A4",
                                "pitch": 81,
                                "length": 24,
                                "velocity": 49
                            },
                            "168": {
                                "key": "E5",
                                "pitch": 88,
                                "length": 24,
                                "velocity": 55
                            },
                            "192": {
                                "key": "A5",
                                "pitch": 93,
                                "length": 24,
                                "velocity": 72
                            },
                            "216": {
                                "key": "A4",
                                "pitch": 81,
                                "length": 24,
                                "velocity": 54
                            },
                            "240": {
                                "key": "E5",
                                "pitch": 88,
                                "length": 24,
                                "velocity": 54
                            },
                            "264": {
                                "key": "A5",
                                "pitch": 93,
                                "length": 24,
                                "velocity": 81
                            },
                            "288": {
                                "key": "A4",
                                "pitch": 81,
                                "length": 24,
                                "velocity": 66
                            },
                            "312": {
                                "key": "E5",
                                "pitch": 88,
                                "length": 24,
                                "velocity": 67
                            },
                            "336": {
                                "key": "A5",
                                "pitch": 93,
                                "length": 24,
                                "velocity": 102
                            },
                            "360": {
                                "key": "A4",
                                "pitch": 81,
                                "length": 24,
                                "velocity": 74
                            },
                            "384": {
                                "key": "E5",
                                "pitch": 88,
                                "length": 24,
                                "velocity": 81
                            },
                            "408": {
                                "key": "A5",
                                "pitch": 93,
                                "length": 24,
                                "velocity": 105
                            },
                            "432": {
                                "key": "A4",
                                "pitch": 81,
                                "length": 24,
                                "velocity": 81
                            },
                            "456": {
                                "key": "E5",
                                "pitch": 88,
                                "length": 24,
                                "velocity": 69
                            },
                            "480": {
                                "key": "A5",
                                "pitch": 93,
                                "length": 24,
                                "velocity": 105
                            },
                            "504": {
                                "key": "A4",
                                "pitch": 81,
                                "length": 24,
                                "velocity": 88
                            },
                            "528": {
                                "key": "E5",
                                "pitch": 88,
                                "length": 24,
                                "velocity": 81
                            },
                            "552": {
                                "key": "B5",
                                "pitch": 95,
                                "length": 24,
                                "velocity": 112
                            },
                            "576": {
                                "key": "A4",
                                "pitch": 81,
                                "length": 24,
                                "velocity": 97
                            },
                            "600": {
                                "key": "E5",
                                "pitch": 88,
                                "length": 24,
                                "velocity": 90
                            },
                            "624": {
                                "key": "B5",
                                "pitch": 95,
                                "length": 24,
                                "velocity": 88
                            },
                            "648": {
                                "key": "A4",
                                "pitch": 81,
                                "length": 24,
                                "velocity": 97
                            },
                            "672": {
                                "key": "E5",
                                "pitch": 88,
                                "length": 24,
                                "velocity": 86
                            },
                            "696": {
                                "key": "C6",
                                "pitch": 96,
                                "length": 24,
                                "velocity": 115
                            },
                            "720": {
                                "key": "A4",
                                "pitch": 81,
                                "length": 24,
                                "velocity": 99
                            },
                            "744": {
                                "key": "E5",
                                "pitch": 88,
                                "length": 24,
                                "velocity": 83
                            },
                            "768": {
                                "key": "A5",
                                "pitch": 93,
                                "length": 24,
                                "velocity": 105
                            },
                            "792": {
                                "key": "F4",
                                "pitch": 77,
                                "length": 24,
                                "velocity": 55
                            },
                            "816": {
                                "key": "E5",
                                "pitch": 88,
                                "length": 24,
                                "velocity": 73
                            },
                            "840": {
                                "key": "A5",
                                "pitch": 93,
                                "length": 24,
                                "velocity": 49
                            },
                            "864": {
                                "key": "F4",
                                "pitch": 77,
                                "length": 24,
                                "velocity": 61
                            },
                            "888": {
                                "key": "E5",
                                "pitch": 88,
                                "length": 24,
                                "velocity": 49
                            },
                            "912": {
                                "key": "A5",
                                "pitch": 93,
                                "length": 24,
                                "velocity": 52
                            },
                            "936": {
                                "key": "F4",
                                "pitch": 77,
                                "length": 24,
                                "velocity": 54
                            },
                            "960": {
                                "key": "E5",
                                "pitch": 88,
                                "length": 24,
                                "velocity": 54
                            },
                            "984": {
                                "key": "A5",
                                "pitch": 93,
                                "length": 24,
                                "velocity": 61
                            },
                            "1008": {
                                "key": "F4",
                                "pitch": 77,
                                "length": 24,
                                "velocity": 57
                            },
                            "1032": {
                                "key": "E5",
                                "pitch": 88,
                                "length": 24,
                                "velocity": 81
                            },
                            "1056": {
                                "key": "A5",
                                "pitch": 93,
                                "length": 24,
                                "velocity": 102
                            },
                            "1080": {
                                "key": "F4",
                                "pitch": 77,
                                "length": 24,
                                "velocity": 64
                            },
                            "1104": {
                                "key": "E5",
                                "pitch": 88,
                                "length": 24,
                                "velocity": 74
                            },
                            "1128": {
                                "key": "A5",
                                "pitch": 93,
                                "length": 24,
                                "velocity": 102
                            },
                            "1152": {
                                "key": "F4",
                                "pitch": 77,
                                "length": 24,
                                "velocity": 88
                            },
                            "1176": {
                                "key": "E5",
                                "pitch": 88,
                                "length": 24,
                                "velocity": 81
                            },
                            "1200": {
                                "key": "A5",
                                "pitch": 93,
                                "length": 24,
                                "velocity": 102
                            },
                            "1224": {
                                "key": "F4",
                                "pitch": 77,
                                "length": 24,
                                "velocity": 83
                            },
                            "1248": {
                                "key": "E5",
                                "pitch": 88,
                                "length": 24,
                                "velocity": 53
                            },
                            "1272": {
                                "key": "E6",
                                "pitch": 100,
                                "length": 24,
                                "velocity": 105
                            },
                            "1296": {
                                "key": "F4",
                                "pitch": 77,
                                "length": 24,
                                "velocity": 88
                            },
                            "1320": {
                                "key": "E5",
                                "pitch": 88,
                                "length": 24,
                                "velocity": 75
                            },
                            "1344": {
                                "key": "E6",
                                "pitch": 100,
                                "length": 24,
                                "velocity": 105
                            },
                            "1368": {
                                "key": "F4",
                                "pitch": 77,
                                "length": 24,
                                "velocity": 97
                            },
                            "1392": {
                                "key": "E5",
                                "pitch": 88,
                                "length": 24,
                                "velocity": 84
                            },
                            "1416": {
                                "key": "F4",
                                "pitch": 77,
                                "length": 24,
                                "velocity": 84
                            },
                            "1440": {
                                "key": "C6",
                                "pitch": 96,
                                "length": 24,
                                "velocity": 108
                            },
                            "1464": {
                                "key": "F4",
                                "pitch": 77,
                                "length": 28,
                                "velocity": 97
                            },
                            "1488": {
                                "key": "E5",
                                "pitch": 88,
                                "length": 24,
                                "velocity": 75
                            },
                            "1512": {
                                "key": "C6",
                                "pitch": 96,
                                "length": 24,
                                "velocity": 108
                            },
                            "1536": {
                                "key": "G4",
                                "pitch": 79,
                                "length": 24,
                                "velocity": 88
                            },
                            "1560": {
                                "key": "E5",
                                "pitch": 88,
                                "length": 48,
                                "velocity": 74
                            },
                            "1608": {
                                "key": "C6",
                                "pitch": 96,
                                "length": 24,
                                "velocity": 42
                            },
                            "1632": {
                                "key": "G4",
                                "pitch": 79,
                                "length": 24,
                                "velocity": 60
                            },
                            "1656": {
                                "key": "E5",
                                "pitch": 88,
                                "length": 24,
                                "velocity": 55
                            },
                            "1680": {
                                "key": "C6",
                                "pitch": 96,
                                "length": 24,
                                "velocity": 73
                            },
                            "1704": {
                                "key": "G4",
                                "pitch": 79,
                                "length": 24,
                                "velocity": 52
                            },
                            "1728": {
                                "key": "E5",
                                "pitch": 88,
                                "length": 24,
                                "velocity": 51
                            },
                            "1752": {
                                "key": "C6",
                                "pitch": 96,
                                "length": 24,
                                "velocity": 78
                            },
                            "1776": {
                                "key": "G4",
                                "pitch": 79,
                                "length": 24,
                                "velocity": 67
                            },
                            "1800": {
                                "key": "E5",
                                "pitch": 88,
                                "length": 24,
                                "velocity": 60
                            },
                            "1824": {
                                "key": "C6",
                                "pitch": 96,
                                "length": 24,
                                "velocity": 84
                            },
                            "1848": {
                                "key": "G4",
                                "pitch": 79,
                                "length": 24,
                                "velocity": 77
                            },
                            "1872": {
                                "key": "E5",
                                "pitch": 88,
                                "length": 24,
                                "velocity": 81
                            },
                            "1896": {
                                "key": "C6",
                                "pitch": 96,
                                "length": 24,
                                "velocity": 105
                            },
                            "1920": {
                                "key": "G4",
                                "pitch": 79,
                                "length": 28,
                                "velocity": 84
                            },
                            "1944": {
                                "key": "E5",
                                "pitch": 88,
                                "length": 24,
                                "velocity": 83
                            },
                            "1968": {
                                "key": "C6",
                                "pitch": 96,
                                "length": 28,
                                "velocity": 97
                            },
                            "1992": {
                                "key": "G4",
                                "pitch": 79,
                                "length": 28,
                                "velocity": 86
                            },
                            "2016": {
                                "key": "E5",
                                "pitch": 88,
                                "length": 24,
                                "velocity": 78
                            },
                            "2040": {
                                "key": "C6",
                                "pitch": 96,
                                "length": 24,
                                "velocity": 74
                            },
                            "2064": {
                                "key": "G4",
                                "pitch": 79,
                                "length": 28,
                                "velocity": 88
                            },
                            "2088": {
                                "key": "E5",
                                "pitch": 88,
                                "length": 24,
                                "velocity": 77
                            },
                            "2112": {
                                "key": "B5",
                                "pitch": 95,
                                "length": 28,
                                "velocity": 108
                            },
                            "2136": {
                                "key": "G4",
                                "pitch": 79,
                                "length": 28,
                                "velocity": 97
                            },
                            "2160": {
                                "key": "B5",
                                "pitch": 95,
                                "length": 24,
                                "velocity": 102
                            },
                            "2184": {
                                "key": "G4",
                                "pitch": 79,
                                "length": 24,
                                "velocity": 102
                            },
                            "2208": {
                                "key": "E5",
                                "pitch": 88,
                                "length": 24,
                                "velocity": 84
                            },
                            "2232": {
                                "key": "C6",
                                "pitch": 96,
                                "length": 48,
                                "velocity": 102
                            },
                            "2304": {
                                "key": "D4",
                                "pitch": 74,
                                "length": 24,
                                "velocity": 62
                            },
                            "2328": {
                                "key": "E5",
                                "pitch": 88,
                                "length": 24,
                                "velocity": 50
                            },
                            "2352": {
                                "key": "B5",
                                "pitch": 95,
                                "length": 24,
                                "velocity": 59
                            },
                            "2376": {
                                "key": "D4",
                                "pitch": 74,
                                "length": 24,
                                "velocity": 62
                            },
                            "2400": {
                                "key": "E5",
                                "pitch": 88,
                                "length": 24,
                                "velocity": 72
                            },
                            "2424": {
                                "key": "B5",
                                "pitch": 95,
                                "length": 24,
                                "velocity": 83
                            },
                            "2448": {
                                "key": "D4",
                                "pitch": 74,
                                "length": 24,
                                "velocity": 63
                            },
                            "2472": {
                                "key": "E5",
                                "pitch": 88,
                                "length": 24,
                                "velocity": 74
                            },
                            "2496": {
                                "key": "B5",
                                "pitch": 95,
                                "length": 24,
                                "velocity": 74
                            },
                            "2520": {
                                "key": "D4",
                                "pitch": 74,
                                "length": 24,
                                "velocity": 79
                            },
                            "2544": {
                                "key": "E5",
                                "pitch": 88,
                                "length": 24,
                                "velocity": 74
                            },
                            "2568": {
                                "key": "B5",
                                "pitch": 95,
                                "length": 24,
                                "velocity": 64
                            },
                            "2592": {
                                "key": "D4",
                                "pitch": 74,
                                "length": 24,
                                "velocity": 83
                            },
                            "2616": {
                                "key": "E5",
                                "pitch": 88,
                                "length": 24,
                                "velocity": 65
                            },
                            "2640": {
                                "key": "B5",
                                "pitch": 95,
                                "length": 24,
                                "velocity": 90
                            },
                            "2664": {
                                "key": "D4",
                                "pitch": 74,
                                "length": 24,
                                "velocity": 86
                            },
                            "2688": {
                                "key": "E5",
                                "pitch": 88,
                                "length": 24,
                                "velocity": 65
                            },
                            "2712": {
                                "key": "B5",
                                "pitch": 95,
                                "length": 24,
                                "velocity": 102
                            },
                            "2736": {
                                "key": "D4",
                                "pitch": 74,
                                "length": 28,
                                "velocity": 88
                            },
                            "2760": {
                                "key": "E5",
                                "pitch": 88,
                                "length": 24,
                                "velocity": 79
                            },
                            "2784": {
                                "key": "B5",
                                "pitch": 95,
                                "length": 24,
                                "velocity": 102
                            },
                            "2832": {
                                "key": "D4",
                                "pitch": 74,
                                "length": 28,
                                "velocity": 88
                            },
                            "2856": {
                                "key": "E5",
                                "pitch": 88,
                                "length": 24,
                                "velocity": 81
                            },
                            "2880": {
                                "key": "C6",
                                "pitch": 96,
                                "length": 28,
                                "velocity": 83
                            },
                            "2904": {
                                "key": "D4",
                                "pitch": 74,
                                "length": 28,
                                "velocity": 90
                            },
                            "2928": {
                                "key": "E5",
                                "pitch": 88,
                                "length": 24,
                                "velocity": 47
                            },
                            "2952": {
                                "key": "C6",
                                "pitch": 96,
                                "length": 24,
                                "velocity": 67
                            },
                            "2976": {
                                "key": "D4",
                                "pitch": 74,
                                "length": 24,
                                "velocity": 94
                            },
                            "3000": {
                                "key": "E5",
                                "pitch": 88,
                                "length": 24,
                                "velocity": 70
                            },
                            "3024": {
                                "key": "B5",
                                "pitch": 95,
                                "length": 24,
                                "velocity": 105
                            }
                        },
                        "length": null
                    }
                },
                "27648": {
                    "length": 3072,
                    "name": null,
                    "data": {
                        "notes": {
                            "0": {
                                "key": "A4",
                                "pitch": 81,
                                "length": 24,
                                "velocity": 67
                            },
                            "24": {
                                "key": "E5",
                                "pitch": 88,
                                "length": 24,
                                "velocity": 59
                            },
                            "48": {
                                "key": "A5",
                                "pitch": 93,
                                "length": 24,
                                "velocity": 70
                            },
                            "72": {
                                "key": "A4",
                                "pitch": 81,
                                "length": 24,
                                "velocity": 48
                            },
                            "96": {
                                "key": "E5",
                                "pitch": 88,
                                "length": 24,
                                "velocity": 53
                            },
                            "120": {
                                "key": "A5",
                                "pitch": 93,
                                "length": 24,
                                "velocity": 67
                            },
                            "144": {
                                "key": "A4",
                                "pitch": 81,
                                "length": 24,
                                "velocity": 49
                            },
                            "168": {
                                "key": "E5",
                                "pitch": 88,
                                "length": 24,
                                "velocity": 55
                            },
                            "192": {
                                "key": "A5",
                                "pitch": 93,
                                "length": 24,
                                "velocity": 72
                            },
                            "216": {
                                "key": "A4",
                                "pitch": 81,
                                "length": 24,
                                "velocity": 54
                            },
                            "240": {
                                "key": "E5",
                                "pitch": 88,
                                "length": 24,
                                "velocity": 54
                            },
                            "264": {
                                "key": "A5",
                                "pitch": 93,
                                "length": 24,
                                "velocity": 81
                            },
                            "288": {
                                "key": "A4",
                                "pitch": 81,
                                "length": 24,
                                "velocity": 66
                            },
                            "312": {
                                "key": "E5",
                                "pitch": 88,
                                "length": 24,
                                "velocity": 67
                            },
                            "336": {
                                "key": "A5",
                                "pitch": 93,
                                "length": 24,
                                "velocity": 102
                            },
                            "360": {
                                "key": "A4",
                                "pitch": 81,
                                "length": 24,
                                "velocity": 74
                            },
                            "384": {
                                "key": "E5",
                                "pitch": 88,
                                "length": 24,
                                "velocity": 81
                            },
                            "408": {
                                "key": "A5",
                                "pitch": 93,
                                "length": 24,
                                "velocity": 105
                            },
                            "432": {
                                "key": "A4",
                                "pitch": 81,
                                "length": 24,
                                "velocity": 81
                            },
                            "456": {
                                "key": "E5",
                                "pitch": 88,
                                "length": 24,
                                "velocity": 69
                            },
                            "480": {
                                "key": "A5",
                                "pitch": 93,
                                "length": 24,
                                "velocity": 105
                            },
                            "504": {
                                "key": "A4",
                                "pitch": 81,
                                "length": 24,
                                "velocity": 88
                            },
                            "528": {
                                "key": "E5",
                                "pitch": 88,
                                "length": 24,
                                "velocity": 81
                            },
                            "552": {
                                "key": "B5",
                                "pitch": 95,
                                "length": 24,
                                "velocity": 112
                            },
                            "576": {
                                "key": "A4",
                                "pitch": 81,
                                "length": 24,
                                "velocity": 97
                            },
                            "600": {
                                "key": "E5",
                                "pitch": 88,
                                "length": 24,
                                "velocity": 90
                            },
                            "624": {
                                "key": "B5",
                                "pitch": 95,
                                "length": 24,
                                "velocity": 88
                            },
                            "648": {
                                "key": "A4",
                                "pitch": 81,
                                "length": 24,
                                "velocity": 97
                            },
                            "672": {
                                "key": "E5",
                                "pitch": 88,
                                "length": 24,
                                "velocity": 86
                            },
                            "696": {
                                "key": "C6",
                                "pitch": 96,
                                "length": 24,
                                "velocity": 115
                            },
                            "720": {
                                "key": "A4",
                                "pitch": 81,
                                "length": 24,
                                "velocity": 99
                            },
                            "744": {
                                "key": "E5",
                                "pitch": 88,
                                "length": 24,
                                "velocity": 83
                            },
                            "768": {
                                "key": "A5",
                                "pitch": 93,
                                "length": 24,
                                "velocity": 105
                            },
                            "792": {
                                "key": "F4",
                                "pitch": 77,
                                "length": 24,
                                "velocity": 55
                            },
                            "816": {
                                "key": "E5",
                                "pitch": 88,
                                "length": 24,
                                "velocity": 73
                            },
                            "840": {
                                "key": "A5",
                                "pitch": 93,
                                "length": 24,
                                "velocity": 49
                            },
                            "864": {
                                "key": "F4",
                                "pitch": 77,
                                "length": 24,
                                "velocity": 61
                            },
                            "888": {
                                "key": "E5",
                                "pitch": 88,
                                "length": 24,
                                "velocity": 49
                            },
                            "912": {
                                "key": "A5",
                                "pitch": 93,
                                "length": 24,
                                "velocity": 52
                            },
                            "936": {
                                "key": "F4",
                                "pitch": 77,
                                "length": 24,
                                "velocity": 54
                            },
                            "960": {
                                "key": "E5",
                                "pitch": 88,
                                "length": 24,
                                "velocity": 54
                            },
                            "984": {
                                "key": "A5",
                                "pitch": 93,
                                "length": 24,
                                "velocity": 61
                            },
                            "1008": {
                                "key": "F4",
                                "pitch": 77,
                                "length": 24,
                                "velocity": 57
                            },
                            "1032": {
                                "key": "E5",
                                "pitch": 88,
                                "length": 24,
                                "velocity": 81
                            },
                            "1056": {
                                "key": "A5",
                                "pitch": 93,
                                "length": 24,
                                "velocity": 102
                            },
                            "1080": {
                                "key": "F4",
                                "pitch": 77,
                                "length": 24,
                                "velocity": 64
                            },
                            "1104": {
                                "key": "E5",
                                "pitch": 88,
                                "length": 24,
                                "velocity": 74
                            },
                            "1128": {
                                "key": "A5",
                                "pitch": 93,
                                "length": 24,
                                "velocity": 102
                            },
                            "1152": {
                                "key": "F4",
                                "pitch": 77,
                                "length": 24,
                                "velocity": 88
                            },
                            "1176": {
                                "key": "E5",
                                "pitch": 88,
                                "length": 24,
                                "velocity": 81
                            },
                            "1200": {
                                "key": "A5",
                                "pitch": 93,
                                "length": 24,
                                "velocity": 102
                            },
                            "1224": {
                                "key": "F4",
                                "pitch": 77,
                                "length": 24,
                                "velocity": 83
                            },
                            "1248": {
                                "key": "E5",
                                "pitch": 88,
                                "length": 24,
                                "velocity": 53
                            },
                            "1272": {
                                "key": "E6",
                                "pitch": 100,
                                "length": 24,
                                "velocity": 105
                            },
                            "1296": {
                                "key": "F4",
                                "pitch": 77,
                                "length": 24,
                                "velocity": 88
                            },
                            "1320": {
                                "key": "E5",
                                "pitch": 88,
                                "length": 24,
                                "velocity": 75
                            },
                            "1344": {
                                "key": "E6",
                                "pitch": 100,
                                "length": 24,
                                "velocity": 105
                            },
                            "1368": {
                                "key": "F4",
                                "pitch": 77,
                                "length": 24,
                                "velocity": 97
                            },
                            "1392": {
                                "key": "E5",
                                "pitch": 88,
                                "length": 24,
                                "velocity": 84
                            },
                            "1416": {
                                "key": "F4",
                                "pitch": 77,
                                "length": 24,
                                "velocity": 84
                            },
                            "1440": {
                                "key": "C6",
                                "pitch": 96,
                                "length": 24,
                                "velocity": 108
                            },
                            "1464": {
                                "key": "F4",
                                "pitch": 77,
                                "length": 28,
                                "velocity": 97
                            },
                            "1488": {
                                "key": "E5",
                                "pitch": 88,
                                "length": 24,
                                "velocity": 75
                            },
                            "1512": {
                                "key": "C6",
                                "pitch": 96,
                                "length": 24,
                                "velocity": 108
                            },
                            "1536": {
                                "key": "G4",
                                "pitch": 79,
                                "length": 24,
                                "velocity": 88
                            },
                            "1560": {
                                "key": "E5",
                                "pitch": 88,
                                "length": 48,
                                "velocity": 74
                            },
                            "1608": {
                                "key": "C6",
                                "pitch": 96,
                                "length": 24,
                                "velocity": 42
                            },
                            "1632": {
                                "key": "G4",
                                "pitch": 79,
                                "length": 24,
                                "velocity": 60
                            },
                            "1656": {
                                "key": "E5",
                                "pitch": 88,
                                "length": 24,
                                "velocity": 55
                            },
                            "1680": {
                                "key": "C6",
                                "pitch": 96,
                                "length": 24,
                                "velocity": 73
                            },
                            "1704": {
                                "key": "G4",
                                "pitch": 79,
                                "length": 24,
                                "velocity": 52
                            },
                            "1728": {
                                "key": "E5",
                                "pitch": 88,
                                "length": 24,
                                "velocity": 51
                            },
                            "1752": {
                                "key": "C6",
                                "pitch": 96,
                                "length": 24,
                                "velocity": 78
                            },
                            "1776": {
                                "key": "G4",
                                "pitch": 79,
                                "length": 24,
                                "velocity": 67
                            },
                            "1800": {
                                "key": "E5",
                                "pitch": 88,
                                "length": 24,
                                "velocity": 60
                            },
                            "1824": {
                                "key": "C6",
                                "pitch": 96,
                                "length": 24,
                                "velocity": 84
                            },
                            "1848": {
                                "key": "G4",
                                "pitch": 79,
                                "length": 24,
                                "velocity": 77
                            },
                            "1872": {
                                "key": "E5",
                                "pitch": 88,
                                "length": 24,
                                "velocity": 81
                            },
                            "1896": {
                                "key": "C6",
                                "pitch": 96,
                                "length": 24,
                                "velocity": 105
                            },
                            "1920": {
                                "key": "G4",
                                "pitch": 79,
                                "length": 28,
                                "velocity": 84
                            },
                            "1944": {
                                "key": "E5",
                                "pitch": 88,
                                "length": 24,
                                "velocity": 83
                            },
                            "1968": {
                                "key": "C6",
                                "pitch": 96,
                                "length": 28,
                                "velocity": 97
                            },
                            "1992": {
                                "key": "G4",
                                "pitch": 79,
                                "length": 28,
                                "velocity": 86
                            },
                            "2016": {
                                "key": "E5",
                                "pitch": 88,
                                "length": 24,
                                "velocity": 78
                            },
                            "2040": {
                                "key": "C6",
                                "pitch": 96,
                                "length": 24,
                                "velocity": 74
                            },
                            "2064": {
                                "key": "G4",
                                "pitch": 79,
                                "length": 28,
                                "velocity": 88
                            },
                            "2088": {
                                "key": "E5",
                                "pitch": 88,
                                "length": 24,
                                "velocity": 77
                            },
                            "2112": {
                                "key": "B5",
                                "pitch": 95,
                                "length": 28,
                                "velocity": 108
                            },
                            "2136": {
                                "key": "G4",
                                "pitch": 79,
                                "length": 28,
                                "velocity": 97
                            },
                            "2160": {
                                "key": "B5",
                                "pitch": 95,
                                "length": 24,
                                "velocity": 102
                            },
                            "2184": {
                                "key": "G4",
                                "pitch": 79,
                                "length": 24,
                                "velocity": 102
                            },
                            "2208": {
                                "key": "E5",
                                "pitch": 88,
                                "length": 24,
                                "velocity": 84
                            },
                            "2232": {
                                "key": "C6",
                                "pitch": 96,
                                "length": 48,
                                "velocity": 102
                            },
                            "2304": {
                                "key": "D4",
                                "pitch": 74,
                                "length": 24,
                                "velocity": 62
                            },
                            "2328": {
                                "key": "E5",
                                "pitch": 88,
                                "length": 24,
                                "velocity": 50
                            },
                            "2352": {
                                "key": "B5",
                                "pitch": 95,
                                "length": 24,
                                "velocity": 59
                            },
                            "2376": {
                                "key": "D4",
                                "pitch": 74,
                                "length": 24,
                                "velocity": 62
                            },
                            "2400": {
                                "key": "E5",
                                "pitch": 88,
                                "length": 24,
                                "velocity": 72
                            },
                            "2424": {
                                "key": "B5",
                                "pitch": 95,
                                "length": 24,
                                "velocity": 83
                            },
                            "2448": {
                                "key": "D4",
                                "pitch": 74,
                                "length": 24,
                                "velocity": 63
                            },
                            "2472": {
                                "key": "E5",
                                "pitch": 88,
                                "length": 24,
                                "velocity": 74
                            },
                            "2496": {
                                "key": "B5",
                                "pitch": 95,
                                "length": 24,
                                "velocity": 74
                            },
                            "2520": {
                                "key": "D4",
                                "pitch": 74,
                                "length": 24,
                                "velocity": 79
                            },
                            "2544": {
                                "key": "E5",
                                "pitch": 88,
                                "length": 24,
                                "velocity": 74
                            },
                            "2568": {
                                "key": "B5",
                                "pitch": 95,
                                "length": 24,
                                "velocity": 64
                            },
                            "2592": {
                                "key": "D4",
                                "pitch": 74,
                                "length": 24,
                                "velocity": 83
                            },
                            "2616": {
                                "key": "E5",
                                "pitch": 88,
                                "length": 24,
                                "velocity": 65
                            },
                            "2640": {
                                "key": "B5",
                                "pitch": 95,
                                "length": 24,
                                "velocity": 90
                            },
                            "2664": {
                                "key": "D4",
                                "pitch": 74,
                                "length": 24,
                                "velocity": 86
                            },
                            "2688": {
                                "key": "E5",
                                "pitch": 88,
                                "length": 24,
                                "velocity": 65
                            },
                            "2712": {
                                "key": "B5",
                                "pitch": 95,
                                "length": 24,
                                "velocity": 102
                            },
                            "2736": {
                                "key": "D4",
                                "pitch": 74,
                                "length": 28,
                                "velocity": 88
                            },
                            "2760": {
                                "key": "E5",
                                "pitch": 88,
                                "length": 24,
                                "velocity": 79
                            },
                            "2784": {
                                "key": "B5",
                                "pitch": 95,
                                "length": 24,
                                "velocity": 102
                            },
                            "2832": {
                                "key": "D4",
                                "pitch": 74,
                                "length": 28,
                                "velocity": 88
                            },
                            "2856": {
                                "key": "E5",
                                "pitch": 88,
                                "length": 24,
                                "velocity": 81
                            },
                            "2880": {
                                "key": "C6",
                                "pitch": 96,
                                "length": 28,
                                "velocity": 83
                            },
                            "2904": {
                                "key": "D4",
                                "pitch": 74,
                                "length": 28,
                                "velocity": 90
                            },
                            "2928": {
                                "key": "E5",
                                "pitch": 88,
                                "length": 24,
                                "velocity": 47
                            },
                            "2952": {
                                "key": "C6",
                                "pitch": 96,
                                "length": 24,
                                "velocity": 67
                            },
                            "2976": {
                                "key": "D4",
                                "pitch": 74,
                                "length": 24,
                                "velocity": 94
                            },
                            "3000": {
                                "key": "E5",
                                "pitch": 88,
                                "length": 24,
                                "velocity": 70
                            },
                            "3024": {
                                "key": "B5",
                                "pitch": 95,
                                "length": 24,
                                "velocity": 105
                            }
                        },
                        "length": null
                    }
                },
                "30720": {
                    "length": 3072,
                    "name": null,
                    "data": {
                        "notes": {
                            "0": {
                                "key": "A4",
                                "pitch": 81,
                                "length": 24,
                                "velocity": 67
                            },
                            "24": {
                                "key": "E5",
                                "pitch": 88,
                                "length": 24,
                                "velocity": 59
                            },
                            "48": {
                                "key": "A5",
                                "pitch": 93,
                                "length": 24,
                                "velocity": 70
                            },
                            "72": {
                                "key": "A4",
                                "pitch": 81,
                                "length": 24,
                                "velocity": 48
                            },
                            "96": {
                                "key": "E5",
                                "pitch": 88,
                                "length": 24,
                                "velocity": 53
                            },
                            "120": {
                                "key": "A5",
                                "pitch": 93,
                                "length": 24,
                                "velocity": 67
                            },
                            "144": {
                                "key": "A4",
                                "pitch": 81,
                                "length": 24,
                                "velocity": 49
                            },
                            "168": {
                                "key": "E5",
                                "pitch": 88,
                                "length": 24,
                                "velocity": 55
                            },
                            "192": {
                                "key": "A5",
                                "pitch": 93,
                                "length": 24,
                                "velocity": 72
                            },
                            "216": {
                                "key": "A4",
                                "pitch": 81,
                                "length": 24,
                                "velocity": 54
                            },
                            "240": {
                                "key": "E5",
                                "pitch": 88,
                                "length": 24,
                                "velocity": 54
                            },
                            "264": {
                                "key": "A5",
                                "pitch": 93,
                                "length": 24,
                                "velocity": 81
                            },
                            "288": {
                                "key": "A4",
                                "pitch": 81,
                                "length": 24,
                                "velocity": 66
                            },
                            "312": {
                                "key": "E5",
                                "pitch": 88,
                                "length": 24,
                                "velocity": 67
                            },
                            "336": {
                                "key": "A5",
                                "pitch": 93,
                                "length": 24,
                                "velocity": 102
                            },
                            "360": {
                                "key": "A4",
                                "pitch": 81,
                                "length": 24,
                                "velocity": 74
                            },
                            "384": {
                                "key": "E5",
                                "pitch": 88,
                                "length": 24,
                                "velocity": 81
                            },
                            "408": {
                                "key": "A5",
                                "pitch": 93,
                                "length": 24,
                                "velocity": 105
                            },
                            "432": {
                                "key": "A4",
                                "pitch": 81,
                                "length": 24,
                                "velocity": 81
                            },
                            "456": {
                                "key": "E5",
                                "pitch": 88,
                                "length": 24,
                                "velocity": 69
                            },
                            "480": {
                                "key": "A5",
                                "pitch": 93,
                                "length": 24,
                                "velocity": 105
                            },
                            "504": {
                                "key": "A4",
                                "pitch": 81,
                                "length": 24,
                                "velocity": 88
                            },
                            "528": {
                                "key": "E5",
                                "pitch": 88,
                                "length": 24,
                                "velocity": 81
                            },
                            "552": {
                                "key": "B5",
                                "pitch": 95,
                                "length": 24,
                                "velocity": 112
                            },
                            "576": {
                                "key": "A4",
                                "pitch": 81,
                                "length": 24,
                                "velocity": 97
                            },
                            "600": {
                                "key": "E5",
                                "pitch": 88,
                                "length": 24,
                                "velocity": 90
                            },
                            "624": {
                                "key": "B5",
                                "pitch": 95,
                                "length": 24,
                                "velocity": 88
                            },
                            "648": {
                                "key": "A4",
                                "pitch": 81,
                                "length": 24,
                                "velocity": 97
                            },
                            "672": {
                                "key": "E5",
                                "pitch": 88,
                                "length": 24,
                                "velocity": 86
                            },
                            "696": {
                                "key": "C6",
                                "pitch": 96,
                                "length": 24,
                                "velocity": 115
                            },
                            "720": {
                                "key": "A4",
                                "pitch": 81,
                                "length": 24,
                                "velocity": 99
                            },
                            "744": {
                                "key": "E5",
                                "pitch": 88,
                                "length": 24,
                                "velocity": 83
                            },
                            "768": {
                                "key": "A5",
                                "pitch": 93,
                                "length": 24,
                                "velocity": 105
                            },
                            "792": {
                                "key": "F4",
                                "pitch": 77,
                                "length": 24,
                                "velocity": 55
                            },
                            "816": {
                                "key": "E5",
                                "pitch": 88,
                                "length": 24,
                                "velocity": 73
                            },
                            "840": {
                                "key": "A5",
                                "pitch": 93,
                                "length": 24,
                                "velocity": 49
                            },
                            "864": {
                                "key": "F4",
                                "pitch": 77,
                                "length": 24,
                                "velocity": 61
                            },
                            "888": {
                                "key": "E5",
                                "pitch": 88,
                                "length": 24,
                                "velocity": 49
                            },
                            "912": {
                                "key": "A5",
                                "pitch": 93,
                                "length": 24,
                                "velocity": 52
                            },
                            "936": {
                                "key": "F4",
                                "pitch": 77,
                                "length": 24,
                                "velocity": 54
                            },
                            "960": {
                                "key": "E5",
                                "pitch": 88,
                                "length": 24,
                                "velocity": 54
                            },
                            "984": {
                                "key": "A5",
                                "pitch": 93,
                                "length": 24,
                                "velocity": 61
                            },
                            "1008": {
                                "key": "F4",
                                "pitch": 77,
                                "length": 24,
                                "velocity": 57
                            },
                            "1032": {
                                "key": "E5",
                                "pitch": 88,
                                "length": 24,
                                "velocity": 81
                            },
                            "1056": {
                                "key": "A5",
                                "pitch": 93,
                                "length": 24,
                                "velocity": 102
                            },
                            "1080": {
                                "key": "F4",
                                "pitch": 77,
                                "length": 24,
                                "velocity": 64
                            },
                            "1104": {
                                "key": "E5",
                                "pitch": 88,
                                "length": 24,
                                "velocity": 74
                            },
                            "1128": {
                                "key": "A5",
                                "pitch": 93,
                                "length": 24,
                                "velocity": 102
                            },
                            "1152": {
                                "key": "F4",
                                "pitch": 77,
                                "length": 24,
                                "velocity": 88
                            },
                            "1176": {
                                "key": "E5",
                                "pitch": 88,
                                "length": 24,
                                "velocity": 81
                            },
                            "1200": {
                                "key": "A5",
                                "pitch": 93,
                                "length": 24,
                                "velocity": 102
                            },
                            "1224": {
                                "key": "F4",
                                "pitch": 77,
                                "length": 24,
                                "velocity": 83
                            },
                            "1248": {
                                "key": "E5",
                                "pitch": 88,
                                "length": 24,
                                "velocity": 53
                            },
                            "1272": {
                                "key": "E6",
                                "pitch": 100,
                                "length": 24,
                                "velocity": 105
                            },
                            "1296": {
                                "key": "F4",
                                "pitch": 77,
                                "length": 24,
                                "velocity": 88
                            },
                            "1320": {
                                "key": "E5",
                                "pitch": 88,
                                "length": 24,
                                "velocity": 75
                            },
                            "1344": {
                                "key": "E6",
                                "pitch": 100,
                                "length": 24,
                                "velocity": 105
                            },
                            "1368": {
                                "key": "F4",
                                "pitch": 77,
                                "length": 24,
                                "velocity": 97
                            },
                            "1392": {
                                "key": "E5",
                                "pitch": 88,
                                "length": 24,
                                "velocity": 84
                            },
                            "1416": {
                                "key": "F4",
                                "pitch": 77,
                                "length": 24,
                                "velocity": 84
                            },
                            "1440": {
                                "key": "C6",
                                "pitch": 96,
                                "length": 24,
                                "velocity": 108
                            },
                            "1464": {
                                "key": "F4",
                                "pitch": 77,
                                "length": 28,
                                "velocity": 97
                            },
                            "1488": {
                                "key": "E5",
                                "pitch": 88,
                                "length": 24,
                                "velocity": 75
                            },
                            "1512": {
                                "key": "C6",
                                "pitch": 96,
                                "length": 24,
                                "velocity": 108
                            },
                            "1536": {
                                "key": "G4",
                                "pitch": 79,
                                "length": 24,
                                "velocity": 88
                            },
                            "1560": {
                                "key": "E5",
                                "pitch": 88,
                                "length": 48,
                                "velocity": 74
                            },
                            "1608": {
                                "key": "C6",
                                "pitch": 96,
                                "length": 24,
                                "velocity": 42
                            },
                            "1632": {
                                "key": "G4",
                                "pitch": 79,
                                "length": 24,
                                "velocity": 60
                            },
                            "1656": {
                                "key": "E5",
                                "pitch": 88,
                                "length": 24,
                                "velocity": 55
                            },
                            "1680": {
                                "key": "C6",
                                "pitch": 96,
                                "length": 24,
                                "velocity": 73
                            },
                            "1704": {
                                "key": "G4",
                                "pitch": 79,
                                "length": 24,
                                "velocity": 52
                            },
                            "1728": {
                                "key": "E5",
                                "pitch": 88,
                                "length": 24,
                                "velocity": 51
                            },
                            "1752": {
                                "key": "C6",
                                "pitch": 96,
                                "length": 24,
                                "velocity": 78
                            },
                            "1776": {
                                "key": "G4",
                                "pitch": 79,
                                "length": 24,
                                "velocity": 67
                            },
                            "1800": {
                                "key": "E5",
                                "pitch": 88,
                                "length": 24,
                                "velocity": 60
                            },
                            "1824": {
                                "key": "C6",
                                "pitch": 96,
                                "length": 24,
                                "velocity": 84
                            },
                            "1848": {
                                "key": "G4",
                                "pitch": 79,
                                "length": 24,
                                "velocity": 77
                            },
                            "1872": {
                                "key": "E5",
                                "pitch": 88,
                                "length": 24,
                                "velocity": 81
                            },
                            "1896": {
                                "key": "C6",
                                "pitch": 96,
                                "length": 24,
                                "velocity": 105
                            },
                            "1920": {
                                "key": "G4",
                                "pitch": 79,
                                "length": 28,
                                "velocity": 84
                            },
                            "1944": {
                                "key": "E5",
                                "pitch": 88,
                                "length": 24,
                                "velocity": 83
                            },
                            "1968": {
                                "key": "C6",
                                "pitch": 96,
                                "length": 28,
                                "velocity": 97
                            },
                            "1992": {
                                "key": "G4",
                                "pitch": 79,
                                "length": 28,
                                "velocity": 86
                            },
                            "2016": {
                                "key": "E5",
                                "pitch": 88,
                                "length": 24,
                                "velocity": 78
                            },
                            "2040": {
                                "key": "C6",
                                "pitch": 96,
                                "length": 24,
                                "velocity": 74
                            },
                            "2064": {
                                "key": "G4",
                                "pitch": 79,
                                "length": 28,
                                "velocity": 88
                            },
                            "2088": {
                                "key": "E5",
                                "pitch": 88,
                                "length": 24,
                                "velocity": 77
                            },
                            "2112": {
                                "key": "B5",
                                "pitch": 95,
                                "length": 28,
                                "velocity": 108
                            },
                            "2136": {
                                "key": "G4",
                                "pitch": 79,
                                "length": 28,
                                "velocity": 97
                            },
                            "2160": {
                                "key": "B5",
                                "pitch": 95,
                                "length": 24,
                                "velocity": 102
                            },
                            "2184": {
                                "key": "G4",
                                "pitch": 79,
                                "length": 24,
                                "velocity": 102
                            },
                            "2208": {
                                "key": "E5",
                                "pitch": 88,
                                "length": 24,
                                "velocity": 84
                            },
                            "2232": {
                                "key": "C6",
                                "pitch": 96,
                                "length": 48,
                                "velocity": 102
                            },
                            "2304": {
                                "key": "D4",
                                "pitch": 74,
                                "length": 24,
                                "velocity": 62
                            },
                            "2328": {
                                "key": "E5",
                                "pitch": 88,
                                "length": 24,
                                "velocity": 50
                            },
                            "2352": {
                                "key": "B5",
                                "pitch": 95,
                                "length": 24,
                                "velocity": 59
                            },
                            "2376": {
                                "key": "D4",
                                "pitch": 74,
                                "length": 24,
                                "velocity": 62
                            },
                            "2400": {
                                "key": "E5",
                                "pitch": 88,
                                "length": 24,
                                "velocity": 72
                            },
                            "2424": {
                                "key": "B5",
                                "pitch": 95,
                                "length": 24,
                                "velocity": 83
                            },
                            "2448": {
                                "key": "D4",
                                "pitch": 74,
                                "length": 24,
                                "velocity": 63
                            },
                            "2472": {
                                "key": "E5",
                                "pitch": 88,
                                "length": 24,
                                "velocity": 74
                            },
                            "2496": {
                                "key": "B5",
                                "pitch": 95,
                                "length": 24,
                                "velocity": 74
                            },
                            "2520": {
                                "key": "D4",
                                "pitch": 74,
                                "length": 24,
                                "velocity": 79
                            },
                            "2544": {
                                "key": "E5",
                                "pitch": 88,
                                "length": 24,
                                "velocity": 74
                            },
                            "2568": {
                                "key": "B5",
                                "pitch": 95,
                                "length": 24,
                                "velocity": 64
                            },
                            "2592": {
                                "key": "D4",
                                "pitch": 74,
                                "length": 24,
                                "velocity": 83
                            },
                            "2616": {
                                "key": "E5",
                                "pitch": 88,
                                "length": 24,
                                "velocity": 65
                            },
                            "2640": {
                                "key": "B5",
                                "pitch": 95,
                                "length": 24,
                                "velocity": 90
                            },
                            "2664": {
                                "key": "D4",
                                "pitch": 74,
                                "length": 24,
                                "velocity": 86
                            },
                            "2688": {
                                "key": "E5",
                                "pitch": 88,
                                "length": 24,
                                "velocity": 65
                            },
                            "2712": {
                                "key": "B5",
                                "pitch": 95,
                                "length": 24,
                                "velocity": 102
                            },
                            "2736": {
                                "key": "D4",
                                "pitch": 74,
                                "length": 28,
                                "velocity": 88
                            },
                            "2760": {
                                "key": "E5",
                                "pitch": 88,
                                "length": 24,
                                "velocity": 79
                            },
                            "2784": {
                                "key": "B5",
                                "pitch": 95,
                                "length": 24,
                                "velocity": 102
                            },
                            "2832": {
                                "key": "D4",
                                "pitch": 74,
                                "length": 28,
                                "velocity": 88
                            },
                            "2856": {
                                "key": "E5",
                                "pitch": 88,
                                "length": 24,
                                "velocity": 81
                            },
                            "2880": {
                                "key": "C6",
                                "pitch": 96,
                                "length": 28,
                                "velocity": 83
                            },
                            "2904": {
                                "key": "D4",
                                "pitch": 74,
                                "length": 28,
                                "velocity": 90
                            },
                            "2928": {
                                "key": "E5",
                                "pitch": 88,
                                "length": 24,
                                "velocity": 47
                            },
                            "2952": {
                                "key": "C6",
                                "pitch": 96,
                                "length": 24,
                                "velocity": 67
                            },
                            "2976": {
                                "key": "D4",
                                "pitch": 74,
                                "length": 24,
                                "velocity": 94
                            },
                            "3000": {
                                "key": "E5",
                                "pitch": 88,
                                "length": 24,
                                "velocity": 70
                            },
                            "3024": {
                                "key": "B5",
                                "pitch": 95,
                                "length": 24,
                                "velocity": 105
                            }
                        },
                        "length": null
                    }
                }
            },
            "Kepler": {
                "21504": {
                    "length": 12288,
                    "name": null,
                    "data": {
                        "notes": {
                            "0": {
                                "key": "C7",
                                "pitch": 108,
                                "length": 24,
                                "velocity": 97
                            },
                            "48": {
                                "key": "B6",
                                "pitch": 107,
                                "length": 24,
                                "velocity": 77
                            },
                            "72": {
                                "key": "A6",
                                "pitch": 105,
                                "length": 48,
                                "velocity": 54
                            },
                            "120": {
                                "key": "C7",
                                "pitch": 108,
                                "length": 48,
                                "velocity": 72
                            },
                            "168": {
                                "key": "B6",
                                "pitch": 107,
                                "length": 24,
                                "velocity": 62
                            },
                            "192": {
                                "key": "A6",
                                "pitch": 105,
                                "length": 48,
                                "velocity": 70
                            },
                            "240": {
                                "key": "C7",
                                "pitch": 108,
                                "length": 48,
                                "velocity": 102
                            },
                            "288": {
                                "key": "B6",
                                "pitch": 107,
                                "length": 24,
                                "velocity": 69
                            },
                            "312": {
                                "key": "A6",
                                "pitch": 105,
                                "length": 48,
                                "velocity": 67
                            },
                            "360": {
                                "key": "C7",
                                "pitch": 108,
                                "length": 48,
                                "velocity": 108
                            },
                            "408": {
                                "key": "B6",
                                "pitch": 107,
                                "length": 24,
                                "velocity": 74
                            },
                            "432": {
                                "key": "A6",
                                "pitch": 105,
                                "length": 24,
                                "velocity": 83
                            },
                            "480": {
                                "key": "C7",
                                "pitch": 108,
                                "length": 24,
                                "velocity": 105
                            },
                            "504": {
                                "key": "B6",
                                "pitch": 107,
                                "length": 24,
                                "velocity": 97
                            },
                            "528": {
                                "key": "A6",
                                "pitch": 105,
                                "length": 48,
                                "velocity": 73
                            },
                            "576": {
                                "key": "C7",
                                "pitch": 108,
                                "length": 48,
                                "velocity": 105
                            },
                            "624": {
                                "key": "B6",
                                "pitch": 107,
                                "length": 24,
                                "velocity": 77
                            },
                            "648": {
                                "key": "A6",
                                "pitch": 105,
                                "length": 24,
                                "velocity": 97
                            },
                            "720": {
                                "key": "C7",
                                "pitch": 108,
                                "length": 24,
                                "velocity": 112
                            },
                            "768": {
                                "key": "C7",
                                "pitch": 108,
                                "length": 48,
                                "velocity": 112
                            },
                            "816": {
                                "key": "B6",
                                "pitch": 107,
                                "length": 24,
                                "velocity": 81
                            },
                            "840": {
                                "key": "A6",
                                "pitch": 105,
                                "length": 48,
                                "velocity": 81
                            },
                            "888": {
                                "key": "C7",
                                "pitch": 108,
                                "length": 48,
                                "velocity": 112
                            },
                            "936": {
                                "key": "B6",
                                "pitch": 107,
                                "length": 24,
                                "velocity": 88
                            },
                            "960": {
                                "key": "A6",
                                "pitch": 105,
                                "length": 48,
                                "velocity": 77
                            },
                            "1008": {
                                "key": "C7",
                                "pitch": 108,
                                "length": 48,
                                "velocity": 105
                            },
                            "1056": {
                                "key": "B6",
                                "pitch": 107,
                                "length": 24,
                                "velocity": 86
                            },
                            "1080": {
                                "key": "A6",
                                "pitch": 105,
                                "length": 48,
                                "velocity": 67
                            },
                            "1128": {
                                "key": "D7",
                                "pitch": 110,
                                "length": 48,
                                "velocity": 105
                            },
                            "1176": {
                                "key": "C7",
                                "pitch": 108,
                                "length": 24,
                                "velocity": 97
                            },
                            "1200": {
                                "key": "B6",
                                "pitch": 107,
                                "length": 48,
                                "velocity": 73
                            },
                            "1248": {
                                "key": "D7",
                                "pitch": 110,
                                "length": 48,
                                "velocity": 105
                            },
                            "1296": {
                                "key": "C7",
                                "pitch": 108,
                                "length": 24,
                                "velocity": 99
                            },
                            "1320": {
                                "key": "B6",
                                "pitch": 107,
                                "length": 48,
                                "velocity": 81
                            },
                            "1368": {
                                "key": "D7",
                                "pitch": 110,
                                "length": 48,
                                "velocity": 102
                            },
                            "1416": {
                                "key": "C7",
                                "pitch": 108,
                                "length": 24,
                                "velocity": 99
                            },
                            "1440": {
                                "key": "B6",
                                "pitch": 107,
                                "length": 24,
                                "velocity": 94
                            },
                            "1488": {
                                "key": "E7",
                                "pitch": 112,
                                "length": 24,
                                "velocity": 105
                            },
                            "1536": {
                                "key": "E7",
                                "pitch": 112,
                                "length": 48,
                                "velocity": 112
                            },
                            "1584": {
                                "key": "D7",
                                "pitch": 110,
                                "length": 24,
                                "velocity": 81
                            },
                            "1608": {
                                "key": "C7",
                                "pitch": 108,
                                "length": 48,
                                "velocity": 94
                            },
                            "1656": {
                                "key": "E7",
                                "pitch": 112,
                                "length": 48,
                                "velocity": 108
                            },
                            "1704": {
                                "key": "D7",
                                "pitch": 110,
                                "length": 24,
                                "velocity": 97
                            },
                            "1728": {
                                "key": "C7",
                                "pitch": 108,
                                "length": 48,
                                "velocity": 83
                            },
                            "1776": {
                                "key": "E7",
                                "pitch": 112,
                                "length": 48,
                                "velocity": 105
                            },
                            "1824": {
                                "key": "D7",
                                "pitch": 110,
                                "length": 24,
                                "velocity": 99
                            },
                            "1848": {
                                "key": "C7",
                                "pitch": 108,
                                "length": 48,
                                "velocity": 78
                            },
                            "1896": {
                                "key": "F7",
                                "pitch": 113,
                                "length": 48,
                                "velocity": 105
                            },
                            "1944": {
                                "key": "D7",
                                "pitch": 110,
                                "length": 24,
                                "velocity": 88
                            },
                            "1968": {
                                "key": "C7",
                                "pitch": 108,
                                "length": 48,
                                "velocity": 94
                            },
                            "2016": {
                                "key": "F7",
                                "pitch": 113,
                                "length": 48,
                                "velocity": 108
                            },
                            "2064": {
                                "key": "D7",
                                "pitch": 110,
                                "length": 24,
                                "velocity": 102
                            },
                            "2088": {
                                "key": "C7",
                                "pitch": 108,
                                "length": 48,
                                "velocity": 90
                            },
                            "2136": {
                                "key": "E7",
                                "pitch": 112,
                                "length": 48,
                                "velocity": 108
                            },
                            "2184": {
                                "key": "D7",
                                "pitch": 110,
                                "length": 24,
                                "velocity": 73
                            },
                            "2208": {
                                "key": "C7",
                                "pitch": 108,
                                "length": 24,
                                "velocity": 74
                            },
                            "2256": {
                                "key": "E7",
                                "pitch": 112,
                                "length": 24,
                                "velocity": 105
                            },
                            "2304": {
                                "key": "E7",
                                "pitch": 112,
                                "length": 48,
                                "velocity": 108
                            },
                            "2352": {
                                "key": "D7",
                                "pitch": 110,
                                "length": 24,
                                "velocity": 77
                            },
                            "2376": {
                                "key": "C7",
                                "pitch": 108,
                                "length": 48,
                                "velocity": 73
                            },
                            "2424": {
                                "key": "E7",
                                "pitch": 112,
                                "length": 48,
                                "velocity": 102
                            },
                            "2472": {
                                "key": "C7",
                                "pitch": 108,
                                "length": 48,
                                "velocity": 92
                            },
                            "2520": {
                                "key": "E7",
                                "pitch": 112,
                                "length": 48,
                                "velocity": 102
                            },
                            "2568": {
                                "key": "D7",
                                "pitch": 110,
                                "length": 24,
                                "velocity": 108
                            },
                            "2616": {
                                "key": "D7",
                                "pitch": 110,
                                "length": 24,
                                "velocity": 94
                            },
                            "2640": {
                                "key": "C7",
                                "pitch": 108,
                                "length": 48,
                                "velocity": 88
                            },
                            "2688": {
                                "key": "B6",
                                "pitch": 107,
                                "length": 48,
                                "velocity": 74
                            },
                            "2736": {
                                "key": "D7",
                                "pitch": 110,
                                "length": 48,
                                "velocity": 97
                            },
                            "2784": {
                                "key": "C7",
                                "pitch": 108,
                                "length": 24,
                                "velocity": 83
                            },
                            "2808": {
                                "key": "B6",
                                "pitch": 107,
                                "length": 48,
                                "velocity": 83
                            },
                            "2856": {
                                "key": "C7",
                                "pitch": 108,
                                "length": 48,
                                "velocity": 97
                            },
                            "2904": {
                                "key": "B6",
                                "pitch": 107,
                                "length": 24,
                                "velocity": 86
                            },
                            "2928": {
                                "key": "A6",
                                "pitch": 105,
                                "length": 24,
                                "velocity": 81
                            },
                            "2976": {
                                "key": "C7",
                                "pitch": 108,
                                "length": 24,
                                "velocity": 108
                            },
                            "3024": {
                                "key": "C7",
                                "pitch": 108,
                                "length": 24,
                                "velocity": 108
                            },
                            "3072": {
                                "key": "C7",
                                "pitch": 108,
                                "length": 48,
                                "velocity": 112
                            },
                            "3120": {
                                "key": "D7",
                                "pitch": 110,
                                "length": 24,
                                "velocity": 99
                            },
                            "3168": {
                                "key": "C7",
                                "pitch": 108,
                                "length": 24,
                                "velocity": 97
                            },
                            "3216": {
                                "key": "D7",
                                "pitch": 110,
                                "length": 24,
                                "velocity": 108
                            },
                            "3264": {
                                "key": "D7",
                                "pitch": 110,
                                "length": 48,
                                "velocity": 112
                            },
                            "3312": {
                                "key": "C7",
                                "pitch": 108,
                                "length": 24,
                                "velocity": 92
                            },
                            "3360": {
                                "key": "B6",
                                "pitch": 107,
                                "length": 24,
                                "velocity": 102
                            },
                            "3408": {
                                "key": "C7",
                                "pitch": 108,
                                "length": 24,
                                "velocity": 102
                            },
                            "3432": {
                                "key": "B6",
                                "pitch": 107,
                                "length": 24,
                                "velocity": 112
                            },
                            "3504": {
                                "key": "C7",
                                "pitch": 108,
                                "length": 24,
                                "velocity": 112
                            },
                            "3552": {
                                "key": "C7",
                                "pitch": 108,
                                "length": 48,
                                "velocity": 115
                            },
                            "3600": {
                                "key": "B6",
                                "pitch": 107,
                                "length": 24,
                                "velocity": 94
                            },
                            "3648": {
                                "key": "A6",
                                "pitch": 105,
                                "length": 24,
                                "velocity": 108
                            },
                            "3696": {
                                "key": "B6",
                                "pitch": 107,
                                "length": 24,
                                "velocity": 102
                            },
                            "3744": {
                                "key": "A6",
                                "pitch": 105,
                                "length": 24,
                                "velocity": 112
                            },
                            "3792": {
                                "key": "B6",
                                "pitch": 107,
                                "length": 24,
                                "velocity": 115
                            },
                            "3816": {
                                "key": "C7",
                                "pitch": 108,
                                "length": 24,
                                "velocity": 112
                            },
                            "3840": {
                                "key": "B6",
                                "pitch": 107,
                                "length": 24,
                                "velocity": 105
                            },
                            "3888": {
                                "key": "A6",
                                "pitch": 105,
                                "length": 24,
                                "velocity": 108
                            },
                            "3936": {
                                "key": "B6",
                                "pitch": 107,
                                "length": 24,
                                "velocity": 112
                            },
                            "3984": {
                                "key": "C7",
                                "pitch": 108,
                                "length": 24,
                                "velocity": 105
                            },
                            "4008": {
                                "key": "B6",
                                "pitch": 107,
                                "length": 48,
                                "velocity": 112
                            },
                            "4056": {
                                "key": "A6",
                                "pitch": 105,
                                "length": 24,
                                "velocity": 99
                            },
                            "4104": {
                                "key": "B6",
                                "pitch": 107,
                                "length": 24,
                                "velocity": 105
                            },
                            "4128": {
                                "key": "C7",
                                "pitch": 108,
                                "length": 24,
                                "velocity": 112
                            },
                            "4176": {
                                "key": "B6",
                                "pitch": 107,
                                "length": 24,
                                "velocity": 108
                            },
                            "4224": {
                                "key": "A6",
                                "pitch": 105,
                                "length": 24,
                                "velocity": 105
                            },
                            "4248": {
                                "key": "B6",
                                "pitch": 107,
                                "length": 24,
                                "velocity": 112
                            },
                            "4296": {
                                "key": "C7",
                                "pitch": 108,
                                "length": 24,
                                "velocity": 112
                            },
                            "4320": {
                                "key": "B6",
                                "pitch": 107,
                                "length": 24,
                                "velocity": 115
                            },
                            "4368": {
                                "key": "A6",
                                "pitch": 105,
                                "length": 24,
                                "velocity": 105
                            },
                            "4416": {
                                "key": "B6",
                                "pitch": 107,
                                "length": 24,
                                "velocity": 115
                            },
                            "4440": {
                                "key": "C7",
                                "pitch": 108,
                                "length": 24,
                                "velocity": 112
                            },
                            "4488": {
                                "key": "B6",
                                "pitch": 107,
                                "length": 24,
                                "velocity": 115
                            },
                            "4536": {
                                "key": "A6",
                                "pitch": 105,
                                "length": 24,
                                "velocity": 90
                            },
                            "4584": {
                                "key": "B6",
                                "pitch": 107,
                                "length": 24,
                                "velocity": 88
                            },
                            "4632": {
                                "key": "C7",
                                "pitch": 108,
                                "length": 24,
                                "velocity": 115
                            },
                            "4680": {
                                "key": "D7",
                                "pitch": 110,
                                "length": 24,
                                "velocity": 102
                            },
                            "4704": {
                                "key": "C7",
                                "pitch": 108,
                                "length": 24,
                                "velocity": 105
                            },
                            "4728": {
                                "key": "D7",
                                "pitch": 110,
                                "length": 48,
                                "velocity": 105
                            },
                            "4776": {
                                "key": "C7",
                                "pitch": 108,
                                "length": 48,
                                "velocity": 112
                            },
                            "4824": {
                                "key": "B6",
                                "pitch": 107,
                                "length": 24,
                                "velocity": 83
                            },
                            "4872": {
                                "key": "C7",
                                "pitch": 108,
                                "length": 24,
                                "velocity": 108
                            },
                            "4896": {
                                "key": "D7",
                                "pitch": 110,
                                "length": 48,
                                "velocity": 108
                            },
                            "4944": {
                                "key": "C7",
                                "pitch": 108,
                                "length": 24,
                                "velocity": 102
                            },
                            "4968": {
                                "key": "B6",
                                "pitch": 107,
                                "length": 24,
                                "velocity": 105
                            },
                            "5016": {
                                "key": "C7",
                                "pitch": 108,
                                "length": 24,
                                "velocity": 112
                            },
                            "5064": {
                                "key": "D7",
                                "pitch": 110,
                                "length": 24,
                                "velocity": 105
                            },
                            "5088": {
                                "key": "C7",
                                "pitch": 108,
                                "length": 24,
                                "velocity": 115
                            },
                            "5136": {
                                "key": "B6",
                                "pitch": 107,
                                "length": 24,
                                "velocity": 97
                            },
                            "5184": {
                                "key": "C7",
                                "pitch": 108,
                                "length": 24,
                                "velocity": 112
                            },
                            "5208": {
                                "key": "D7",
                                "pitch": 110,
                                "length": 24,
                                "velocity": 108
                            },
                            "5256": {
                                "key": "C7",
                                "pitch": 108,
                                "length": 48,
                                "velocity": 108
                            },
                            "5304": {
                                "key": "A6",
                                "pitch": 105,
                                "length": 24,
                                "velocity": 92
                            },
                            "5352": {
                                "key": "D7",
                                "pitch": 110,
                                "length": 24,
                                "velocity": 105
                            },
                            "5376": {
                                "key": "E7",
                                "pitch": 112,
                                "length": 24,
                                "velocity": 112
                            },
                            "5424": {
                                "key": "E7",
                                "pitch": 112,
                                "length": 24,
                                "velocity": 105
                            },
                            "5448": {
                                "key": "E7",
                                "pitch": 112,
                                "length": 24,
                                "velocity": 102
                            },
                            "5496": {
                                "key": "E7",
                                "pitch": 112,
                                "length": 24,
                                "velocity": 112
                            },
                            "5544": {
                                "key": "E7",
                                "pitch": 112,
                                "length": 24,
                                "velocity": 112
                            },
                            "5616": {
                                "key": "D7",
                                "pitch": 110,
                                "length": 24,
                                "velocity": 112
                            },
                            "5664": {
                                "key": "E7",
                                "pitch": 112,
                                "length": 24,
                                "velocity": 108
                            },
                            "5688": {
                                "key": "F7",
                                "pitch": 113,
                                "length": 24,
                                "velocity": 112
                            },
                            "5712": {
                                "key": "E7",
                                "pitch": 112,
                                "length": 24,
                                "velocity": 115
                            },
                            "5760": {
                                "key": "E7",
                                "pitch": 112,
                                "length": 24,
                                "velocity": 115
                            },
                            "5832": {
                                "key": "E7",
                                "pitch": 112,
                                "length": 24,
                                "velocity": 108
                            },
                            "5904": {
                                "key": "E7",
                                "pitch": 112,
                                "length": 24,
                                "velocity": 115
                            },
                            "5952": {
                                "key": "E7",
                                "pitch": 112,
                                "length": 24,
                                "velocity": 115
                            },
                            "6000": {
                                "key": "D7",
                                "pitch": 110,
                                "length": 24,
                                "velocity": 112
                            },
                            "6024": {
                                "key": "E7",
                                "pitch": 112,
                                "length": 24,
                                "velocity": 112
                            },
                            "6048": {
                                "key": "G7",
                                "pitch": 115,
                                "length": 24,
                                "velocity": 115
                            },
                            "6096": {
                                "key": "E7",
                                "pitch": 112,
                                "length": 24,
                                "velocity": 115
                            },
                            "6144": {
                                "key": "E7",
                                "pitch": 112,
                                "length": 24,
                                "velocity": 115
                            },
                            "6192": {
                                "key": "E7",
                                "pitch": 112,
                                "length": 24,
                                "velocity": 108
                            },
                            "6216": {
                                "key": "E7",
                                "pitch": 112,
                                "length": 24,
                                "velocity": 105
                            },
                            "6264": {
                                "key": "E7",
                                "pitch": 112,
                                "length": 24,
                                "velocity": 115
                            },
                            "6336": {
                                "key": "E7",
                                "pitch": 112,
                                "length": 24,
                                "velocity": 115
                            },
                            "6384": {
                                "key": "D7",
                                "pitch": 110,
                                "length": 24,
                                "velocity": 105
                            },
                            "6408": {
                                "key": "E7",
                                "pitch": 112,
                                "length": 24,
                                "velocity": 105
                            },
                            "6432": {
                                "key": "F7",
                                "pitch": 113,
                                "length": 24,
                                "velocity": 108
                            },
                            "6480": {
                                "key": "F7",
                                "pitch": 113,
                                "length": 24,
                                "velocity": 105
                            },
                            "6528": {
                                "key": "E7",
                                "pitch": 112,
                                "length": 24,
                                "velocity": 115
                            },
                            "6576": {
                                "key": "E7",
                                "pitch": 112,
                                "length": 24,
                                "velocity": 112
                            },
                            "6600": {
                                "key": "E7",
                                "pitch": 112,
                                "length": 24,
                                "velocity": 112
                            },
                            "6648": {
                                "key": "E7",
                                "pitch": 112,
                                "length": 24,
                                "velocity": 115
                            },
                            "6720": {
                                "key": "E7",
                                "pitch": 112,
                                "length": 24,
                                "velocity": 115
                            },
                            "6768": {
                                "key": "D7",
                                "pitch": 110,
                                "length": 24,
                                "velocity": 97
                            },
                            "6792": {
                                "key": "E7",
                                "pitch": 112,
                                "length": 24,
                                "velocity": 112
                            },
                            "6840": {
                                "key": "A7",
                                "pitch": 117,
                                "length": 24,
                                "velocity": 112
                            },
                            "6888": {
                                "key": "G7",
                                "pitch": 115,
                                "length": 24,
                                "velocity": 97
                            },
                            "6912": {
                                "key": "E7",
                                "pitch": 112,
                                "length": 24,
                                "velocity": 115
                            },
                            "6960": {
                                "key": "E7",
                                "pitch": 112,
                                "length": 24,
                                "velocity": 94
                            },
                            "6984": {
                                "key": "E7",
                                "pitch": 112,
                                "length": 24,
                                "velocity": 112
                            },
                            "7032": {
                                "key": "E7",
                                "pitch": 112,
                                "length": 24,
                                "velocity": 108
                            },
                            "7080": {
                                "key": "E7",
                                "pitch": 112,
                                "length": 24,
                                "velocity": 112
                            },
                            "7128": {
                                "key": "D7",
                                "pitch": 110,
                                "length": 24,
                                "velocity": 105
                            },
                            "7176": {
                                "key": "E7",
                                "pitch": 112,
                                "length": 24,
                                "velocity": 112
                            },
                            "7200": {
                                "key": "F7",
                                "pitch": 113,
                                "length": 24,
                                "velocity": 112
                            },
                            "7248": {
                                "key": "F7",
                                "pitch": 113,
                                "length": 24,
                                "velocity": 108
                            },
                            "7296": {
                                "key": "E7",
                                "pitch": 112,
                                "length": 24,
                                "velocity": 115
                            },
                            "7344": {
                                "key": "E7",
                                "pitch": 112,
                                "length": 24,
                                "velocity": 112
                            },
                            "7368": {
                                "key": "E7",
                                "pitch": 112,
                                "length": 24,
                                "velocity": 112
                            },
                            "7416": {
                                "key": "E7",
                                "pitch": 112,
                                "length": 24,
                                "velocity": 115
                            },
                            "7464": {
                                "key": "D7",
                                "pitch": 110,
                                "length": 24,
                                "velocity": 108
                            },
                            "7512": {
                                "key": "D7",
                                "pitch": 110,
                                "length": 24,
                                "velocity": 105
                            },
                            "7560": {
                                "key": "C7",
                                "pitch": 108,
                                "length": 24,
                                "velocity": 108
                            },
                            "7584": {
                                "key": "A6",
                                "pitch": 105,
                                "length": 24,
                                "velocity": 112
                            },
                            "7608": {
                                "key": "C7",
                                "pitch": 108,
                                "length": 24,
                                "velocity": 102
                            },
                            "7632": {
                                "key": "A6",
                                "pitch": 105,
                                "length": 24,
                                "velocity": 105
                            },
                            "7680": {
                                "key": "A6",
                                "pitch": 105,
                                "length": 24,
                                "velocity": 108
                            },
                            "7728": {
                                "key": "A6",
                                "pitch": 105,
                                "length": 4,
                                "velocity": 112
                            },
                            "7776": {
                                "key": "A6",
                                "pitch": 105,
                                "length": 4,
                                "velocity": 112
                            },
                            "7800": {
                                "key": "A6",
                                "pitch": 105,
                                "length": 4,
                                "velocity": 112
                            },
                            "7848": {
                                "key": "A6",
                                "pitch": 105,
                                "length": 4,
                                "velocity": 108
                            },
                            "7896": {
                                "key": "A6",
                                "pitch": 105,
                                "length": 4,
                                "velocity": 112
                            },
                            "7944": {
                                "key": "B6",
                                "pitch": 107,
                                "length": 24,
                                "velocity": 115
                            },
                            "7992": {
                                "key": "C7",
                                "pitch": 108,
                                "length": 24,
                                "velocity": 119
                            },
                            "8040": {
                                "key": "A6",
                                "pitch": 105,
                                "length": 24,
                                "velocity": 112
                            },
                            "8088": {
                                "key": "A6",
                                "pitch": 105,
                                "length": 24,
                                "velocity": 115
                            },
                            "8136": {
                                "key": "A6",
                                "pitch": 105,
                                "length": 24,
                                "velocity": 108
                            },
                            "8160": {
                                "key": "A6",
                                "pitch": 105,
                                "length": 24,
                                "velocity": 112
                            },
                            "8208": {
                                "key": "A6",
                                "pitch": 105,
                                "length": 24,
                                "velocity": 112
                            },
                            "8256": {
                                "key": "A6",
                                "pitch": 105,
                                "length": 24,
                                "velocity": 108
                            },
                            "8328": {
                                "key": "D7",
                                "pitch": 110,
                                "length": 4,
                                "velocity": 115
                            },
                            "8376": {
                                "key": "C7",
                                "pitch": 108,
                                "length": 4,
                                "velocity": 115
                            },
                            "8424": {
                                "key": "A6",
                                "pitch": 105,
                                "length": 24,
                                "velocity": 112
                            },
                            "8472": {
                                "key": "A6",
                                "pitch": 105,
                                "length": 24,
                                "velocity": 112
                            },
                            "8520": {
                                "key": "A6",
                                "pitch": 105,
                                "length": 24,
                                "velocity": 108
                            },
                            "8544": {
                                "key": "A6",
                                "pitch": 105,
                                "length": 24,
                                "velocity": 102
                            },
                            "8592": {
                                "key": "A6",
                                "pitch": 105,
                                "length": 24,
                                "velocity": 108
                            },
                            "8664": {
                                "key": "A6",
                                "pitch": 105,
                                "length": 4,
                                "velocity": 112
                            },
                            "8712": {
                                "key": "B6",
                                "pitch": 107,
                                "length": 24,
                                "velocity": 115
                            },
                            "8760": {
                                "key": "C7",
                                "pitch": 108,
                                "length": 24,
                                "velocity": 108
                            },
                            "8808": {
                                "key": "A6",
                                "pitch": 105,
                                "length": 24,
                                "velocity": 108
                            },
                            "8856": {
                                "key": "A6",
                                "pitch": 105,
                                "length": 24,
                                "velocity": 112
                            },
                            "8904": {
                                "key": "A6",
                                "pitch": 105,
                                "length": 24,
                                "velocity": 112
                            },
                            "8928": {
                                "key": "A6",
                                "pitch": 105,
                                "length": 24,
                                "velocity": 112
                            },
                            "8976": {
                                "key": "A6",
                                "pitch": 105,
                                "length": 24,
                                "velocity": 112
                            },
                            "9024": {
                                "key": "A6",
                                "pitch": 105,
                                "length": 24,
                                "velocity": 108
                            },
                            "9096": {
                                "key": "D7",
                                "pitch": 110,
                                "length": 24,
                                "velocity": 112
                            },
                            "9144": {
                                "key": "C7",
                                "pitch": 108,
                                "length": 24,
                                "velocity": 119
                            },
                            "9192": {
                                "key": "B6",
                                "pitch": 107,
                                "length": 24,
                                "velocity": 112
                            },
                            "9240": {
                                "key": "B6",
                                "pitch": 107,
                                "length": 24,
                                "velocity": 112
                            },
                            "9288": {
                                "key": "B6",
                                "pitch": 107,
                                "length": 24,
                                "velocity": 99
                            },
                            "9312": {
                                "key": "B6",
                                "pitch": 107,
                                "length": 24,
                                "velocity": 112
                            },
                            "9360": {
                                "key": "A6",
                                "pitch": 105,
                                "length": 24,
                                "velocity": 112
                            },
                            "9408": {
                                "key": "A6",
                                "pitch": 105,
                                "length": 24,
                                "velocity": 112
                            },
                            "9456": {
                                "key": "B6",
                                "pitch": 107,
                                "length": 24,
                                "velocity": 115
                            },
                            "9504": {
                                "key": "A6",
                                "pitch": 105,
                                "length": 24,
                                "velocity": 112
                            },
                            "9528": {
                                "key": "B6",
                                "pitch": 107,
                                "length": 24,
                                "velocity": 119
                            },
                            "9576": {
                                "key": "A6",
                                "pitch": 105,
                                "length": 24,
                                "velocity": 112
                            },
                            "9624": {
                                "key": "A6",
                                "pitch": 105,
                                "length": 24,
                                "velocity": 115
                            },
                            "9672": {
                                "key": "A6",
                                "pitch": 105,
                                "length": 24,
                                "velocity": 108
                            },
                            "9696": {
                                "key": "B6",
                                "pitch": 107,
                                "length": 24,
                                "velocity": 115
                            },
                            "9744": {
                                "key": "A6",
                                "pitch": 105,
                                "length": 24,
                                "velocity": 112
                            },
                            "9792": {
                                "key": "A6",
                                "pitch": 105,
                                "length": 24,
                                "velocity": 112
                            },
                            "9840": {
                                "key": "B6",
                                "pitch": 107,
                                "length": 24,
                                "velocity": 115
                            },
                            "9888": {
                                "key": "A6",
                                "pitch": 105,
                                "length": 24,
                                "velocity": 105
                            },
                            "9912": {
                                "key": "B6",
                                "pitch": 107,
                                "length": 24,
                                "velocity": 119
                            },
                            "9960": {
                                "key": "A6",
                                "pitch": 105,
                                "length": 24,
                                "velocity": 108
                            },
                            "10008": {
                                "key": "A6",
                                "pitch": 105,
                                "length": 24,
                                "velocity": 115
                            },
                            "10056": {
                                "key": "A6",
                                "pitch": 105,
                                "length": 24,
                                "velocity": 112
                            },
                            "10104": {
                                "key": "C7",
                                "pitch": 108,
                                "length": 4,
                                "velocity": 115
                            },
                            "10152": {
                                "key": "A6",
                                "pitch": 105,
                                "length": 4,
                                "velocity": 112
                            },
                            "10200": {
                                "key": "A6",
                                "pitch": 105,
                                "length": 4,
                                "velocity": 108
                            },
                            "10224": {
                                "key": "C7",
                                "pitch": 108,
                                "length": 24,
                                "velocity": 108
                            },
                            "10272": {
                                "key": "A6",
                                "pitch": 105,
                                "length": 24,
                                "velocity": 105
                            },
                            "10296": {
                                "key": "C7",
                                "pitch": 108,
                                "length": 24,
                                "velocity": 115
                            },
                            "10344": {
                                "key": "A6",
                                "pitch": 105,
                                "length": 24,
                                "velocity": 108
                            },
                            "10392": {
                                "key": "A6",
                                "pitch": 105,
                                "length": 24,
                                "velocity": 115
                            },
                            "10440": {
                                "key": "A6",
                                "pitch": 105,
                                "length": 24,
                                "velocity": 108
                            },
                            "10464": {
                                "key": "D7",
                                "pitch": 110,
                                "length": 24,
                                "velocity": 115
                            },
                            "10512": {
                                "key": "A6",
                                "pitch": 105,
                                "length": 24,
                                "velocity": 108
                            },
                            "10560": {
                                "key": "A6",
                                "pitch": 105,
                                "length": 24,
                                "velocity": 112
                            },
                            "10608": {
                                "key": "D7",
                                "pitch": 110,
                                "length": 24,
                                "velocity": 119
                            },
                            "10656": {
                                "key": "A6",
                                "pitch": 105,
                                "length": 24,
                                "velocity": 105
                            },
                            "10680": {
                                "key": "D7",
                                "pitch": 110,
                                "length": 24,
                                "velocity": 112
                            },
                            "10728": {
                                "key": "A6",
                                "pitch": 105,
                                "length": 24,
                                "velocity": 105
                            },
                            "10776": {
                                "key": "D7",
                                "pitch": 110,
                                "length": 24,
                                "velocity": 105
                            },
                            "10824": {
                                "key": "C7",
                                "pitch": 108,
                                "length": 24,
                                "velocity": 108
                            },
                            "10872": {
                                "key": "D7",
                                "pitch": 110,
                                "length": 4,
                                "velocity": 108
                            },
                            "10896": {
                                "key": "D7",
                                "pitch": 110,
                                "length": 24,
                                "velocity": 115
                            },
                            "10944": {
                                "key": "C7",
                                "pitch": 108,
                                "length": 24,
                                "velocity": 108
                            },
                            "10992": {
                                "key": "C7",
                                "pitch": 108,
                                "length": 24,
                                "velocity": 119
                            },
                            "11040": {
                                "key": "B6",
                                "pitch": 107,
                                "length": 24,
                                "velocity": 108
                            },
                            "11064": {
                                "key": "B6",
                                "pitch": 107,
                                "length": 24,
                                "velocity": 105
                            },
                            "11112": {
                                "key": "B6",
                                "pitch": 107,
                                "length": 24,
                                "velocity": 105
                            },
                            "11160": {
                                "key": "C7",
                                "pitch": 108,
                                "length": 24,
                                "velocity": 108
                            },
                            "11208": {
                                "key": "D7",
                                "pitch": 110,
                                "length": 24,
                                "velocity": 105
                            },
                            "11232": {
                                "key": "D7",
                                "pitch": 110,
                                "length": 24,
                                "velocity": 105
                            },
                            "11280": {
                                "key": "D7",
                                "pitch": 110,
                                "length": 24,
                                "velocity": 112
                            },
                            "11328": {
                                "key": "C7",
                                "pitch": 108,
                                "length": 24,
                                "velocity": 105
                            },
                            "11376": {
                                "key": "D7",
                                "pitch": 110,
                                "length": 24,
                                "velocity": 112
                            },
                            "11424": {
                                "key": "C7",
                                "pitch": 108,
                                "length": 24,
                                "velocity": 112
                            },
                            "11448": {
                                "key": "B6",
                                "pitch": 107,
                                "length": 24,
                                "velocity": 108
                            },
                            "11496": {
                                "key": "B6",
                                "pitch": 107,
                                "length": 24,
                                "velocity": 108
                            },
                            "11544": {
                                "key": "E7",
                                "pitch": 112,
                                "length": 24,
                                "velocity": 108
                            },
                            "11592": {
                                "key": "D7",
                                "pitch": 110,
                                "length": 24,
                                "velocity": 105
                            },
                            "11616": {
                                "key": "C7",
                                "pitch": 108,
                                "length": 24,
                                "velocity": 102
                            },
                            "11664": {
                                "key": "E7",
                                "pitch": 112,
                                "length": 24,
                                "velocity": 108
                            },
                            "11712": {
                                "key": "D7",
                                "pitch": 110,
                                "length": 24,
                                "velocity": 108
                            },
                            "11736": {
                                "key": "C7",
                                "pitch": 108,
                                "length": 24,
                                "velocity": 112
                            },
                            "11784": {
                                "key": "E7",
                                "pitch": 112,
                                "length": 24,
                                "velocity": 115
                            },
                            "11832": {
                                "key": "D7",
                                "pitch": 110,
                                "length": 24,
                                "velocity": 115
                            },
                            "11856": {
                                "key": "C7",
                                "pitch": 108,
                                "length": 24,
                                "velocity": 105
                            },
                            "11904": {
                                "key": "F7",
                                "pitch": 113,
                                "length": 24,
                                "velocity": 124
                            },
                            "11952": {
                                "key": "E7",
                                "pitch": 112,
                                "length": 24,
                                "velocity": 112
                            },
                            "11976": {
                                "key": "D7",
                                "pitch": 110,
                                "length": 24,
                                "velocity": 105
                            },
                            "12024": {
                                "key": "F7",
                                "pitch": 113,
                                "length": 24,
                                "velocity": 112
                            },
                            "12072": {
                                "key": "E7",
                                "pitch": 112,
                                "length": 24,
                                "velocity": 112
                            },
                            "12096": {
                                "key": "D7",
                                "pitch": 110,
                                "length": 24,
                                "velocity": 105
                            },
                            "12168": {
                                "key": "G7",
                                "pitch": 115,
                                "length": 4,
                                "velocity": 112
                            },
                            "12216": {
                                "key": "F7",
                                "pitch": 113,
                                "length": 4,
                                "velocity": 112
                            },
                            "12240": {
                                "key": "E7",
                                "pitch": 112,
                                "length": 4,
                                "velocity": 108
                            }
                        },
                        "length": null
                    }
                },
                "33792": {
                    "length": 3072,
                    "name": "sub",
                    "data": {
                        "notes": {
                            "0": {
                                "key": "A2",
                                "pitch": 57,
                                "length": 768,
                                "velocity": 59
                            },
                            "768": {
                                "key": "F2",
                                "pitch": 53,
                                "length": 768,
                                "velocity": 52
                            },
                            "1536": {
                                "key": "G2",
                                "pitch": 55,
                                "length": 768,
                                "velocity": 59
                            },
                            "2304": {
                                "key": "D2",
                                "pitch": 50,
                                "length": 768,
                                "velocity": 52
                            }
                        },
                        "length": 0
                    }
                }
            },
            "3x Osc": {},
            "": {}
        }
    }
}